<svg enable-background="new 0 0 100 100" height="100" viewBox="0 0 100 100" width="100" xmlns="http://www.w3.org/2000/svg"><g fill="#1e4b52"><path d="m23.714 44.307c-.068 0-.102-.034-.102-.103 0-.067.033-.102.102-.102.34 0 .614.068.824.204s.357.312.442.526c.085.216.11.451.076.706s-.13.507-.289.757c-.17.271-.382.481-.638.629-.255.147-.521.24-.799.28-.277.04-.555.025-.833-.043-.277-.067-.524-.187-.739-.356-.216-.17-.389-.389-.519-.654-.13-.267-.185-.575-.161-.927.022-.487.149-.946.382-1.377s.521-.827.867-1.19c.346-.362.729-.686 1.147-.969s.833-.51 1.241-.68c.261-.113.562-.216.901-.307.34-.09.674-.142 1.003-.152.646-.012 1.082.11 1.309.365s.326.575.298.961c-.028.385-.131.805-.307 1.258s-.337.867-.484 1.24c-.611 1.564-1.227 3.137-1.844 4.718-.618 1.581-1.199 3.165-1.743 4.752.091-.046.195-.179.314-.399.119-.222.258-.508.417-.858.294-.657.586-1.38.875-2.168.289-.787.593-1.592.91-2.414.316-.821.66-1.635 1.028-2.439s.779-1.553 1.232-2.244.963-1.303 1.53-1.836c.566-.532 1.201-.94 1.903-1.224.827-.329 1.53-.459 2.108-.392.578.068 1.048.284 1.411.646.362.362.626.842.79 1.437s.241 1.258.229 1.989c-.011.73-.102 1.501-.271 2.312s-.399 1.609-.688 2.397c-.289.787-.635 1.532-1.037 2.235-.402.702-.842 1.314-1.317 1.836.464-.159.915-.352 1.352-.578.436-.227.85-.499 1.24-.816.392-.316.757-.683 1.097-1.096.34-.414.641-.893.901-1.437.034-.057.079-.079.136-.068.057.022.073.063.051.119-.295.611-.626 1.145-.994 1.598s-.771.848-1.207 1.182-.896.615-1.377.842-.983.419-1.505.578c-.646.657-1.292 1.164-1.938 1.521-.646.356-1.258.604-1.836.739-.397.102-.811.158-1.241.17-.431.011-.839-.068-1.224-.238-.125-.057-.238-.125-.341-.204-.102-.079-.173-.161-.212-.246-.04-.085-.04-.179 0-.28.039-.103.139-.21.297-.323.103-.068.281-.139.536-.213.255-.073.553-.142.893-.204s.705-.121 1.097-.178c.391-.057.771-.113 1.139-.17s.708-.111 1.02-.162.559-.099.74-.145c.498-.487.96-1.068 1.385-1.742.426-.674.8-1.395 1.122-2.159.323-.765.587-1.547.791-2.346s.337-1.564.399-2.295c.063-.731.045-1.405-.051-2.023-.097-.617-.281-1.125-.553-1.521s-.644-.66-1.113-.79c-.471-.131-1.052-.071-1.743.178-.669.238-1.274.621-1.818 1.147-.544.527-1.043 1.14-1.496 1.837-.454.696-.867 1.456-1.241 2.277-.374.822-.723 1.646-1.046 2.474-.322.827-.629 1.632-.918 2.414s-.575 1.484-.858 2.108c-.057.136-.125.289-.204.459s-.17.331-.271.484c-.103.152-.219.28-.349.382-.131.103-.28.153-.45.153-.125 0-.253-.015-.383-.042-.131-.029-.207-.071-.229-.128-.012-.034-.012-.057 0-.068.057-.17.15-.438.28-.808.13-.368.289-.804.477-1.309.187-.504.396-1.057.629-1.657.231-.601.467-1.219.705-1.854.204-.544.411-1.085.621-1.623.209-.538.41-1.06.604-1.564.192-.504.376-.975.552-1.411s.332-.818.468-1.147c.136-.34.204-.623.204-.85s-.057-.408-.17-.544c-.125-.158-.298-.258-.519-.298-.221-.039-.453-.042-.697-.008-.244.033-.476.088-.697.161-.221.074-.399.139-.535.195-.396.17-.79.389-1.182.654-.391.267-.745.576-1.063.927-.317.352-.578.734-.782 1.147-.203.414-.317.854-.34 1.317-.022.477.088.861.332 1.156.243.295.538.487.884.578s.699.074 1.063-.051c.362-.125.657-.368.884-.731.136-.215.221-.434.255-.654s.018-.422-.051-.604-.192-.332-.374-.45c-.182-.117-.419-.176-.714-.176zm5.372 10.641c.192-.067.371-.142.535-.221s.32-.159.468-.238c.249-.147.499-.309.748-.484s.504-.377.765-.604c-.17.034-.396.071-.68.11-.283.04-.595.085-.935.137-.341.051-.691.104-1.055.161-.362.057-.699.113-1.012.17-.312.057-.586.116-.824.179-.238.062-.402.127-.493.195-.113.079-.181.153-.204.221-.022.068-.017.134.018.195.034.063.088.119.161.171.074.051.162.093.264.127.396.158.771.218 1.122.179.351-.04.725-.139 1.122-.298z"/><path d="m39.948 51.871c-.192.182-.391.326-.595.434s-.448.122-.731.043c-.261-.068-.459-.215-.595-.442s-.229-.498-.28-.815c-.052-.317-.068-.66-.052-1.029.018-.368.052-.725.103-1.07s.11-.669.179-.97c.067-.3.124-.541.17-.722.011-.091.07-.15.179-.179.107-.028.221-.034.34-.018.119.018.224.049.314.094.09.046.13.097.119.153-.023.091-.063.249-.119.476-.057.228-.116.49-.179.791-.063.3-.119.62-.17.96s-.088.666-.11.978c-.023.313-.021.596.008.851s.091.447.188.578c.096.13.232.181.408.152s.405-.167.688-.416c.362-.307.677-.651.943-1.037s.513-.782.739-1.19c.057-.09.113-.189.17-.297s.113-.213.17-.314c.012-.012.02-.028.025-.052.006-.022.015-.045.026-.067l.017-.018c.034-.022.082-.027.145-.017.063.012.065.063.009.153-.058.124-.119.249-.188.374-.068.124-.136.249-.204.374-.238.407-.493.807-.765 1.198-.272.39-.589.738-.952 1.044zm-.986-6.119c.159 0 .292.048.399.144.108.097.162.213.162.349.011.125-.037.235-.145.332s-.241.145-.399.145c-.159 0-.292-.048-.399-.145-.108-.097-.162-.207-.162-.332-.011-.136.037-.252.145-.349.107-.096.241-.144.399-.144z"/><path d="m43.28 51.157c-.034-.328-.023-.69.033-1.088.057-.396.137-.782.238-1.156.103-.374.21-.719.323-1.036s.204-.562.271-.731c.08-.182.134-.337.162-.468.028-.13.022-.261-.018-.391-.039-.13-.121-.267-.246-.408s-.295-.309-.51-.501c-.08.283-.168.563-.264.841-.097.278-.207.559-.331.842-.125.295-.27.606-.434.935-.165.329-.326.646-.485.952l-.051.103c-.022.045-.063.054-.119.025s-.073-.071-.051-.128c.17-.328.337-.66.502-.994.164-.334.314-.666.45-.995.125-.282.24-.574.349-.875.107-.3.195-.587.264-.858-.17-.182-.317-.399-.442-.654s-.142-.508-.051-.757c.057-.181.161-.295.314-.34s.292.012.416.17c.079.091.125.224.137.399.011.176 0 .377-.034.604.17.159.356.306.561.442.204.136.389.283.553.441.164.159.289.338.374.536s.094.438.025.722c-.091.397-.224.839-.399 1.326s-.32.986-.434 1.496c-.034.17-.065.428-.094.773s-.017.666.034.961.153.501.307.62c.152.119.394.037.722-.246.352-.307.66-.651.927-1.037s.519-.782.757-1.19l.323-.611.051-.085c.011-.034.057-.054.136-.06s.097.042.051.145l-.407.748c-.228.407-.477.807-.748 1.198-.272.391-.59.739-.952 1.045-.261.228-.517.383-.766.468s-.473.097-.671.034-.369-.195-.51-.399c-.142-.205-.23-.478-.263-.818zm-.068-7.309c.057.238.164.447.323.629.022-.192.014-.354-.025-.484-.04-.13-.085-.224-.137-.28-.051-.057-.096-.074-.136-.052-.04.023-.048.084-.025.187z"/><path d="m47.292 49.661c-.022-.328.015-.665.111-1.011s.252-.666.467-.961c.216-.295.481-.541.799-.739s.681-.32 1.089-.365c.215-.023.407-.023.577 0 .17.022.301.073.392.152.091.08.133.19.127.332s-.076.32-.212.535c-.113.17-.258.326-.434.468s-.365.267-.569.374-.417.192-.638.255-.434.094-.638.094c-.045.158-.074.328-.085.51-.012.182-.006.362.017.544s.065.356.128.527c.063.17.155.312.28.425.34.328.683.444 1.028.349.346-.097.672-.292.978-.587.238-.227.448-.479.629-.757.182-.277.346-.563.493-.858.046-.091.107-.136.188-.136.079 0 .096.045.051.136-.159.317-.331.629-.519.936-.187.306-.411.584-.672.833-.328.306-.691.519-1.088.637-.396.119-.773.14-1.13.06-.357-.079-.666-.263-.927-.552s-.408-.69-.442-1.201zm1.14-1.07c.181-.012.371-.046.569-.103s.391-.133.578-.229.356-.209.51-.34c.153-.13.28-.274.383-.434.146-.227.206-.388.178-.484s-.096-.15-.203-.161c-.108-.012-.241.008-.4.06-.158.051-.294.11-.407.178-.295.159-.542.374-.74.646-.2.271-.355.56-.468.867z"/><path d="m51.797 49.509c0-.34.074-.681.221-1.021s.343-.646.587-.918c.243-.271.523-.495.842-.671.316-.176.64-.281.969-.314.113-.012.24-.009.382.008.142.018.275.051.4.103.124.051.234.122.331.212.096.091.167.204.213.34.022.068-.003.108-.077.119-.073.012-.122-.017-.145-.085-.045-.158-.119-.269-.221-.331s-.216-.094-.34-.094c-.295.012-.567.097-.816.255-.249.159-.465.365-.646.621-.182.255-.332.538-.451.85-.118.312-.195.618-.229.918-.033.301-.02.587.043.858.063.272.184.487.365.646.182.181.371.289.569.322.198.034.395.021.587-.042s.377-.162.553-.298.331-.283.467-.441c.227-.261.451-.544.672-.851.221-.306.399-.578.535-.815l.052-.085c.022-.068.067-.079.136-.034.057.022.073.063.051.119-.012.011-.017.022-.017.033 0 .012-.006.023-.018.034l-.033.034c-.137.238-.315.516-.536.833s-.45.606-.688.867c-.374.408-.779.686-1.216.833-.436.147-.841.167-1.215.06s-.688-.337-.943-.688-.384-.811-.384-1.377z"/><path d="m49.484 44.97c.068-.295.216-.572.442-.833.453-.544.997-.912 1.632-1.105.635-.192 1.298-.277 1.989-.255.691.023 1.388.116 2.091.28.702.165 1.349.332 1.938.502l.238-.867c.011-.057.07-.096.179-.119.107-.022.218-.025.331-.008s.216.045.307.085c.09.039.13.088.118.145l-.221 1.036c.465.125.966.235 1.505.332.538.097 1.067.15 1.589.161.521.012 1.015-.042 1.479-.161s.855-.337 1.173-.654c.192-.193.312-.38.357-.562.045-.181.033-.354-.034-.519-.068-.164-.182-.314-.34-.45-.159-.136-.347-.249-.562-.34-.204-.091-.434-.159-.688-.204s-.51-.065-.765-.06-.499.042-.731.11-.434.17-.604.306c-.045.046-.091.043-.136-.008-.046-.051-.012-.134.102-.247.091-.079.229-.146.417-.204.187-.056.399-.093.638-.11.237-.017.484-.014.739.009s.49.068.705.136c.715.25 1.15.556 1.31.918.158.363.121.714-.11 1.055-.232.34-.627.632-1.182.875-.556.244-1.196.365-1.921.365-.499 0-1.003-.036-1.514-.11-.51-.073-1.009-.167-1.496-.28-.067.317-.13.609-.187.876-.057.266-.113.563-.17.892s-.119.712-.188 1.147c-.067.437-.152.983-.255 1.641-.045.317-.085.627-.119.927-.033.301-.062.581-.085.842-.022.261-.033.496-.033.705 0 .21.011.383.033.519.034.227.134.36.298.399.164.04.428-.099.791-.416.362-.307.677-.651.943-1.037s.513-.782.739-1.19c.057-.09.113-.189.17-.297s.113-.213.17-.314c.022-.023.034-.052.034-.085.022-.034.073-.054.153-.06.079-.006.09.042.033.145-.057.124-.118.249-.187.374-.068.124-.136.249-.204.374-.238.407-.493.807-.765 1.198s-.59.739-.952 1.045c-.125.114-.258.219-.399.314-.143.097-.289.168-.442.213-.153.046-.306.054-.459.025s-.298-.121-.434-.28c-.136-.136-.235-.332-.297-.587-.063-.255-.1-.544-.111-.866-.011-.323-.005-.672.018-1.046s.062-.754.119-1.139c.067-.556.136-1.049.204-1.479.067-.431.133-.824.195-1.182.062-.356.127-.686.195-.985.068-.301.142-.604.221-.91-.17-.045-.331-.09-.484-.136-.153-.045-.304-.091-.45-.136-.477-.125-.927-.247-1.352-.366-.425-.118-.824-.206-1.198-.263-.329-.046-.675-.06-1.037-.043-.363.018-.72.071-1.071.162s-.686.227-1.003.407c-.317.182-.589.408-.816.681-.204.237-.34.481-.407.73z"/><path d="m62.693 51.871c-.192.182-.391.326-.595.434s-.448.122-.731.043c-.261-.068-.459-.215-.595-.442s-.229-.498-.28-.815c-.052-.317-.068-.66-.052-1.029.018-.368.052-.725.103-1.07s.11-.669.179-.97c.067-.3.124-.541.17-.722.011-.091.07-.15.179-.179.107-.028.221-.034.34-.018.119.018.224.049.314.094.09.046.13.097.119.153-.023.091-.063.249-.119.476-.057.228-.116.49-.179.791-.063.3-.119.62-.17.96s-.088.666-.11.978c-.023.313-.021.596.008.851s.091.447.188.578c.096.13.232.181.408.152s.405-.167.688-.416c.362-.307.677-.651.943-1.037s.513-.782.739-1.19c.057-.09.113-.189.17-.297s.113-.213.17-.314c.012-.012.02-.028.025-.052.006-.022.015-.045.026-.067l.017-.018c.034-.022.082-.027.145-.017.063.012.065.063.009.153-.058.124-.119.249-.188.374-.068.124-.136.249-.204.374-.238.407-.493.807-.765 1.198-.272.39-.589.738-.952 1.044zm-.986-6.119c.159 0 .292.048.399.144.108.097.162.213.162.349.011.125-.037.235-.145.332s-.241.145-.399.145c-.159 0-.292-.048-.399-.145-.108-.097-.162-.207-.162-.332-.011-.136.037-.252.145-.349.107-.096.241-.144.399-.144z"/><path d="m71.04 48.88c-.238.453-.575.821-1.012 1.104s-.893.414-1.368.392c-.079.158-.167.303-.264.433-.097.131-.195.253-.298.366-.181.192-.385.34-.611.441-.228.103-.454.165-.681.188s-.453.008-.68-.043-.431-.145-.612-.28c-.261-.181-.467-.419-.62-.714s-.255-.609-.306-.943c-.052-.334-.054-.669-.009-1.003.045-.335.142-.638.289-.91-.193-.419-.227-.827-.103-1.224.125-.396.338-.723.638-.978.301-.255.657-.408 1.071-.459.413-.051.813.054 1.198.314.352.261.635.572.851.935.215.363.365.751.45 1.165s.11.839.076 1.275-.13.847-.289 1.232c.204.011.405-.018.604-.085.198-.068.386-.162.562-.281s.337-.258.484-.416c.147-.159.283-.329.408-.51.034-.057.085-.082.152-.077.07.007.093.032.07.078zm-5.899-1.36c.057-.057.116-.04.179.051s.119.204.17.34c.052.137.091.275.119.417s.037.235.025.28c.363.396.802.739 1.317 1.028s1.046.462 1.59.519c.158-.374.261-.768.306-1.182.046-.413.026-.818-.06-1.215-.085-.396-.229-.771-.433-1.122-.204-.352-.477-.651-.816-.901-.329-.238-.663-.34-1.003-.306s-.641.155-.901.365-.456.484-.586.824c-.131.34-.15.703-.06 1.088zm.442 1.342c-.012.17-.009.357.009.562.017.204.051.407.102.611s.119.399.204.587c.085.187.189.349.314.484.136.147.283.246.442.298.158.051.317.065.476.042.159-.022.312-.073.459-.152.147-.08.283-.182.408-.307.091-.091.176-.189.255-.297s.147-.219.204-.332c-.533-.068-1.052-.24-1.556-.519-.504-.276-.943-.603-1.317-.977z"/><path d="m73.607 52.144c-.193-.204-.306-.499-.34-.884-.034-.386-.025-.796.025-1.232s.124-.873.221-1.31c.097-.436.176-.815.238-1.139s.088-.556.076-.697c-.011-.142-.102-.139-.271.009-.17.159-.36.422-.569.79-.21.369-.417.769-.621 1.199s-.389.853-.553 1.266c-.164.414-.28.74-.348.978 0 .012-.012.029-.034.052-.046.045-.091.039-.137-.018-.17-.181-.297-.346-.382-.493-.085-.146-.142-.288-.17-.425-.028-.136-.037-.274-.025-.416.011-.142.028-.304.051-.484.022-.17.045-.36.067-.57.023-.209.049-.422.077-.637.028-.216.057-.428.085-.638s.064-.399.11-.569c.034-.113.104-.185.213-.213.107-.028.218-.031.331-.009.113.023.21.071.289.145s.107.156.085.247c-.022.102-.049.249-.076.441-.028.193-.058.405-.085.638-.029.232-.06.471-.094.714-.034.244-.068.468-.103.672l-.085.578c.147-.374.307-.771.477-1.19s.362-.821.578-1.207c.158-.283.328-.561.51-.833.181-.271.402-.493.663-.663.294-.192.55-.234.765-.127s.323.359.323.756c0 .193-.017.397-.051.612-.034.216-.071.42-.11.612-.04.192-.08.362-.119.51-.04.147-.065.244-.077.289-.033.113-.082.301-.145.561-.063.262-.121.542-.178.842-.058.301-.097.595-.119.884-.023.289-.006.521.051.697s.17.261.34.255c.17-.005.414-.145.731-.416.351-.307.66-.651.926-1.037.267-.386.513-.782.74-1.19.057-.09.113-.189.17-.297s.113-.213.17-.314l.051-.085c.011-.034.057-.054.136-.06s.097.042.052.145l-.408.748c-.228.407-.479.807-.757 1.198-.277.391-.592.739-.943 1.045-.125.114-.261.219-.408.314-.147.097-.297.168-.45.213-.153.046-.307.054-.459.025-.153-.03-.298-.123-.434-.282z"/><path d="m79.507 51.038c.011.329-.018.635-.085.918-.068.284-.204.55-.408.8-.136.158-.323.286-.562.382-.237.097-.473.145-.705.145s-.431-.062-.595-.187-.241-.323-.229-.595c.022-.228.102-.408.237-.545.137-.136.295-.249.477-.34.192-.09.368-.173.526-.246.159-.073.317-.139.477-.195-.012-.307-.051-.606-.119-.901s-.139-.581-.213-.858c-.073-.277-.145-.547-.212-.808-.068-.261-.108-.51-.119-.748l-.527 1.021-.051.102c-.022.046-.063.054-.119.025s-.073-.07-.051-.127c.125-.25.255-.505.391-.766.137-.261.261-.521.374-.782.046-.158.116-.303.213-.433.096-.131.235-.235.416-.314.103-.046.179-.012.229.102.052.113.054.21.009.289-.034.271-.025.563.025.875.052.313.116.633.195.961.08.329.159.663.238 1.003s.136.669.17.986c.442-.227.811-.516 1.105-.867.294-.352.555-.726.782-1.122l.051-.085c.022-.068.067-.079.136-.034.057.034.068.079.034.136-.25.477-.541.898-.876 1.267-.333.367-.739.681-1.214.941zm-.885.341c-.328.147-.601.271-.815.374-.216.102-.38.215-.493.34-.113.136-.17.274-.17.416s.037.261.11.357.176.15.306.161c.131.012.27-.051.417-.187.204-.193.362-.42.476-.681.112-.259.169-.519.169-.78z"/></g></svg>