<svg enable-background="new 0 0 100 31.5" viewBox="0 0 100 31.5" xmlns="http://www.w3.org/2000/svg"><g fill="#1e4b52"><path d="m25.3 9.1s-.1 0-.2.1-.2.2-.3.3-.2.2-.2.3-.1.2-.1.2c-.2.3-.4.8-.6 1.4s-.5 1.3-.7 2c-.2.8-.5 1.5-.8 2.4s-.5 1.6-.7 2.4-.5 1.5-.7 2.1c-.2.7-.4 1.2-.6 1.6 1.3-.8 2.3-1.7 3.1-2.7s1.5-2.2 2-3.6c0-.1.1-.1.2-.1s.1.1.1.2c-.3.7-.7 1.4-1 2.1-.4.6-.8 1.2-1.2 1.8-.4.5-.9 1-1.5 1.5s-1.2.9-1.9 1.3c-.3.6-.7 1.3-1.2 2.1s-1 1.6-1.6 2.3-1.3 1.4-2 1.9-1.4.9-2.2 1-1.3 0-1.6-.4-.3-1-.1-1.7c.2-.5.5-1 1.1-1.4.5-.4 1.2-.9 1.8-1.2.7-.4 1.4-.7 2.1-1.1.7-.3 1.3-.6 1.8-.9.4-.8.7-1.6 1.1-2.4.3-.8.6-1.6.9-2.4-.5.5-.9.9-1.4 1.3s-1 .7-1.5 1c-1.5.9-2.8 1.3-3.9 1.3s-2-.4-2.5-1.1-.9-1.7-.8-3c0-1.3.4-2.7 1.2-4.3-.8-.3-1.6-.6-2.2-1.1s-1-1.1-1.2-1.9c-.2-.5-.2-1.1 0-1.6.1-.6.4-1.2.7-1.7s.7-1 1.2-1.4 1-.8 1.5-1c.6-.2 1.1-.4 1.7-.4s1.2.1 1.7.4c.1 0 .1.1.1.2s-.1.1-.2 0c-.6-.3-1.3-.5-1.9-.4-.7.1-1.3.3-1.9.7s-1 .9-1.5 1.5c-.4.5-.7 1.2-.9 1.8-.2.7-.2 1.3-.1 2s.4 1.2 1 1.7c.3.3.6.5 1 .7s.7.3 1.1.4c.3-.6.6-1.2 1-1.8s.8-1.2 1.3-1.8.9-1.1 1.4-1.7c.5-.5 1-1 1.5-1.3.3-.2.6-.5 1.1-.7.4-.3.9-.5 1.3-.7s.9-.3 1.4-.4 1-.1 1.4 0 .7.2.8.5c.2.3.3.6.3.9s-.1.7-.2 1c-.1.4-.2.7-.3.9-.4.9-1 1.6-1.8 2.3-.7.7-1.6 1.3-2.5 1.8s-1.9.9-2.9 1.1-2 .3-2.9.2c-.4.7-.6 1.5-.9 2.1-.1.4-.2.8-.3 1.3s-.1.9-.1 1.4.1.9.3 1.3.5.8.9 1c.7.4 1.4.6 2.3.5.8-.1 1.7-.4 2.5-1 .6-.3 1.1-.7 1.7-1.2.5-.5 1.1-1 1.6-1.5.1-.4.3-.8.4-1.3.2-.5.3-1.1.5-1.7s.4-1.2.6-1.8.4-1.2.7-1.7.5-1 .7-1.4.5-.7.8-.9c.2-.2.4-.3.6-.3h.4c.1 0 .2.1.2.2.1.3.1.4.1.4 0 .1-.1.1-.1.1zm-12.2 20.2c.5-.3 1-.6 1.5-1s.9-.9 1.3-1.4.8-1.1 1.1-1.6c.3-.6.6-1.1.9-1.6-.4.2-1 .5-1.7.8s-1.3.6-1.9 1-1.2.8-1.7 1.2-.8.9-1 1.3c-.1.3-.2.6-.2.9s.1.5.2.6.3.2.5.2.6-.3 1-.4zm-.5-15.8c.9.1 1.9 0 2.8-.3 1-.2 1.9-.6 2.8-1.1s1.7-1.1 2.4-1.8 1.3-1.4 1.7-2.3c.1-.2.2-.4.3-.8s.2-.6.2-.9 0-.6-.1-.8-.3-.4-.7-.4c-.3-.1-.6 0-1 .1s-.8.3-1.2.4-.8.5-1.2.7c-.3.2-.6.4-.9.6-.5.4-1 .8-1.5 1.3s-1 1.1-1.4 1.7-.9 1.2-1.2 1.8c-.4.6-.8 1.2-1 1.8z"/><path d="m28.1 19.8c-.3.2-.5.4-.8.6-.3.1-.6.2-1 .1-.3-.1-.6-.3-.8-.6s-.3-.7-.4-1.1-.1-.9-.1-1.4.1-1 .1-1.4c.1-.5.1-.9.2-1.3s.2-.7.2-1c0-.1.1-.2.2-.2h.4c.2 0 .3.1.4.1.1.1.2.1.2.2s-.1.3-.2.6-.2.6-.2 1-.2.8-.2 1.3c-.1.4-.1.9-.1 1.3v1.1c0 .3.1.6.2.8s.3.2.5.2.5-.2.9-.5c.5-.4.9-.9 1.2-1.4.4-.5.7-1 1-1.6.1-.1.1-.2.2-.4.1-.1.1-.3.2-.4 0 0 0 0 0-.1v-.1h.2c.1 0 .1.1 0 .2-.1.2-.2.3-.2.5-.1.2-.2.3-.3.5-.3.5-.7 1.1-1 1.6.1.5-.3.9-.8 1.4zm-1.3-8.1c.2 0 .4.1.5.2s.2.3.2.5 0 .3-.2.4c-.1.1-.3.2-.5.2s-.4-.1-.5-.2-.2-.3-.2-.4c0-.2 0-.3.2-.5s.3-.2.5-.2z"/><path d="m33.6 18.7c.6 0 1.2-.1 1.8-.4.4-.2.8-.6 1.2-1s.7-1 1-1.7c0-.1.1-.1.2-.1s.1.1.1.2c-.3.7-.6 1.3-1 1.7s-.8.8-1.3 1c-.6.3-1.2.5-1.8.5.1.4.2.7.3 1.2.1.4.1.8.1 1.2s-.1.8-.2 1.2-.3.7-.5.9c-.4.4-.8.6-1.3.4-.4-.1-.7-.4-.9-.8s-.4-.9-.5-1.4-.2-1.1-.2-1.8c0-.6 0-1.3 0-1.9s.1-1.2.1-1.7c.1-.5.1-.9.1-1.2.1-.6.2-1.3.4-2s.4-1.6.6-2.4c.3-.8.6-1.7.9-2.5.3-.7.7-1.4 1.2-2.1s1-1.2 1.6-1.7c.6-.4 1.3-.7 2-.8.5-.1.8 0 1.1.3.3.2.4.6.5 1.1 0 .6-.1 1.2-.4 2-.3.7-.7 1.5-1.2 2.3s-1 1.6-1.6 2.4-1.2 1.5-1.8 2.2c-.1.1-.3.3-.5.5s-.4.4-.6.6-.4.4-.6.6-.4.3-.5.4l-.2 1.1c.2 0 .3 0 .5.1s.4.3.5.4c.2.2.3.4.5.5.1.2.2.4.3.5 0 .2 0 .2.1.2zm-.2.3c-.1 0-.3 0-.5-.1-.2 0-.3-.1-.5-.1s-.3-.1-.5-.2c-.1-.1-.3-.2-.3-.3-.1.8-.1 1.5 0 2.2s.1 1.3.2 1.9c.1.4.2.7.4.9s.3.3.5.3.3-.1.5-.3.3-.5.4-.9.2-.7.2-1.1 0-.8-.1-1.2c-.1-.3-.2-.7-.3-1.1zm-.1-.3-.2-.4c-.1-.1-.2-.2-.3-.4s-.2-.3-.4-.4c-.1-.1-.3-.2-.4-.3s-.2-.1-.3 0v.3.3c.1.1.2.3.3.4s.3.2.4.2c.2.1.3.1.5.1s.3.2.4.2zm3.5-14.4c-.6.4-1.3 1.1-1.9 2.1-.7 1-1.3 2.3-1.8 3.9-.2.7-.4 1.4-.6 2.3s-.4 1.9-.5 2.9c.4-.3.8-.7 1.3-1.2s1-1.1 1.5-1.7 1-1.3 1.5-2 .9-1.4 1.3-2.1.7-1.3.9-2c.2-.6.3-1.2.3-1.7s-.2-.8-.5-1c-.2-.1-.5-.1-.8 0-.3.2-.5.4-.7.5z"/><path d="m28.1 10.6c.1-.4.3-.8.6-1.1.6-.7 1.3-1.2 2.2-1.5.8-.3 1.7-.4 2.6-.3.9 0 1.8.2 2.8.4.9.2 1.8.4 2.6.7l.3-1.1c0-.1.1-.1.2-.2h.4c.1 0 .3.1.4.1.1.1.2.1.2.2l-.4 1.3c.6.2 1.3.3 2 .4s1.4.2 2.1.2 1.3-.1 2-.2 1.1-.4 1.5-.9c.2-.1.4-.4.4-.6.1-.2 0-.5 0-.7-.1-.2-.2-.4-.4-.6s-.5-.3-.7-.4c-.4-.2-.7-.3-1-.3s-.7-.1-1-.1-.7.1-1 .1-.6.2-.8.4c-.1.1-.1.1-.2 0s0-.2.1-.3.3-.2.5-.3.5-.1.8-.1h1c.3 0 .6.1.9.2.9.3 1.5.7 1.7 1.2.4.5.4.9.1 1.4-.3.4-.8.8-1.6 1.2-.7.3-1.6.5-2.5.5-.7 0-1.3 0-2-.1s-1.3-.2-2-.4c-.1.4-.2.8-.2 1.2-.1.4-.1.7-.2 1.2-.1.4-.2.9-.2 1.5-.1.6-.2 1.3-.3 2.2-.1.4-.1.8-.2 1.2 0 .4-.1.8-.1 1.1v.9.7c0 .3.2.5.4.5.2.1.6-.1 1-.5.5-.4.9-.9 1.2-1.4.4-.5.7-1 1-1.6.1-.1.1-.2.2-.4.1-.1.1-.3.2-.4v-.1s.1-.1.2-.1.1.1 0 .2c-.1.2-.2.3-.2.5-.1.2-.2.3-.3.5-.3.5-.7 1.1-1 1.6-.4.5-.8 1-1.3 1.4-.2.2-.3.3-.5.4s-.4.2-.6.3-.4.1-.6 0c-.2 0-.4-.2-.6-.4s-.3-.4-.4-.8c-.1-.3-.1-.7-.1-1.1s0-.9 0-1.4.1-1 .2-1.5c.1-.7.2-1.4.3-2s.2-1.1.3-1.6.2-.9.3-1.3.2-.8.3-1.2c-.2-.1-.4-.1-.6-.2s-.4-.1-.6-.2c-.6-.2-1.2-.3-1.8-.5s-1.1-.3-1.6-.3c-.5-.1-1-.1-1.4 0-.5 0-1 .1-1.4.2s-.9.3-1.3.5-.8.5-1.1.9c-.3.3-.4.6-.5 1z"/><path d="m56.6 7.7c.1.1.1.1.1.2 0 0 0 .1-.1.1h-.1c-.4-.3-.7-.6-1-.9s-.4-.7-.5-1c-.1-.4-.1-.7.1-1 .1-.3.4-.6.7-.8.4-.2.9-.4 1.4-.4s1 0 1.4.2c.5.1.8.4 1.1.8.3.1.5.6.6 1.1.1.6.2 1.2.2 2s0 1.6-.1 2.5-.2 1.8-.4 2.7-.4 1.8-.6 2.6-.4 1.6-.7 2.3c-.2.7-.5 1.3-.7 1.7-.4.8-.8 1.5-1.3 2s-.9.9-1.4 1.2-1.1.4-1.6.5-1.1-.2-1.7-.5c-.7-.3-1.3-.7-1.7-1.2s-.6-1-.7-1.5-.1-1 0-1.4.4-.8.7-1 .6-.3 1-.3.7.1 1.1.3c.3.2.6.5.8.8s.3.7.2 1.1c-.1.1-.1.1-.2.1s-.1-.1-.1-.2c.1-.3 0-.6-.2-.9s-.4-.5-.7-.7-.6-.3-.9-.3-.6.1-.9.2c-.3.2-.5.5-.6.9s-.1.8 0 1.3.3.9.7 1.3.9.8 1.5 1.1c.3.1.6.2.9.2s.6 0 .8-.1.5-.2.7-.3c.2-.2.5-.3.7-.5.3-.3.6-.6.9-1s.6-.8.8-1.4c.2-.4.4-1 .7-1.6.2-.7.4-1.4.7-2.2.2-.8.4-1.6.6-2.5s.3-1.7.4-2.5.2-1.6.2-2.4c0-.7 0-1.4-.1-1.9-.1-.4-.2-.8-.4-1.2s-.4-.7-.7-.9-.6-.4-1-.4-.7.1-1.1.3c-.1.1-.2.2-.3.3s-.2.2-.2.3c-.1.2-.2.4-.1.7 0 .2.1.5.2.7s.3.5.5.7c-.1.4.1.6.4.8z"/><path d="m72.1 15.8c-.1.2-.2.3-.2.5-.1.2-.2.3-.2.5-.2.3-.4.6-.6 1s-.5.7-.7 1.1c-.3.4-.5.7-.8 1s-.6.5-.9.7c-.5.2-.9.3-1.3.1-.4-.1-.6-.4-.9-.8-.2-.4-.4-.8-.5-1.2-.1-.5-.2-.9-.2-1.2v-.7c-.2.2-.4.4-.6.7s-.5.5-.8.7-.6.3-.8.4c-.3.1-.5 0-.7 0-.2-.1-.4-.2-.6-.4s-.3-.4-.4-.6c-.1-.3-.2-.7-.1-1.1s.1-.8.3-1.2.4-.8.8-1.1.8-.6 1.3-.7c.3-.1.6-.1.9-.2h1.1c0-.3.1-.5.1-.7s.1-.5.2-.7c.3-1.1.6-2.2 1-3.4.4-1.4.9-2.5 1.5-3.4s1.2-1.8 2-2.5c.7-.7 1.5-1.1 2.4-1.3.8-.2 1.3-.1 1.6.2s.4.9.3 1.6-.4 1.5-1 2.4c-.5 1-1.3 2.1-2.4 3.4-.3.4-.6.7-1 1.1s-.7.8-1.1 1.1c-.4.4-.8.7-1.2 1.1-.4.3-.8.6-1.2.9-.1.4-.2.9-.2 1.5-.1.6-.1 1.1-.1 1.7v1.7c.1.5.2 1 .3 1.5.2.4.4.7.6.8s.4.1.6 0c.3-.1.5-.3.8-.6s.5-.6.8-1 .5-.7.7-1.1.4-.7.5-.9.3-.5.4-.8c0 0 0 0 0-.1 0 0 .1-.1.2 0 .1-.1.2-.1.1 0zm-6.1-2.4c-.4-.1-.9 0-1.2.2-.4.2-.7.5-.9.8-.3.3-.5.7-.6 1.1-.2.4-.2.8-.3 1.1 0 .4 0 .7.1.9s.3.4.6.4c.2 0 .4 0 .6-.1s.4-.2.6-.4.3-.4.5-.5.3-.4.4-.5c0-1 .1-2 .2-3zm3.2-6.3c-.4 1-.7 1.9-1 2.9s-.5 1.9-.7 2.7c.8-.5 1.5-1.1 2.2-1.9.7-.7 1.4-1.4 2-2.1 1.1-1.3 1.9-2.4 2.4-3.4s.8-1.8 1-2.4c.1-.4.1-.7 0-.9s-.2-.4-.4-.5-.4-.1-.6-.1-.5.1-.8.3c-.5.3-.9.6-1.3 1s-.7.9-1.1 1.3c-.3.5-.6 1-.9 1.5-.3.6-.6 1.1-.8 1.6z"/><path d="m71.8 16.8c0-.4 0-.9.1-1.3.1-.5.3-.9.6-1.3s.6-.7 1.1-1 .9-.4 1.4-.5h.8c.2 0 .4.1.5.2s.2.3.2.4-.1.4-.3.7c-.1.2-.3.4-.6.6-.2.2-.5.4-.8.5s-.6.3-.8.3c-.3.1-.6.1-.8.1-.1.2-.1.4-.1.7v.7c0 .2.1.5.2.7s.2.4.4.6c.4.4.9.6 1.4.5s.9-.4 1.3-.8c.3-.3.6-.6.8-1s.5-.7.7-1.1c.1-.1.1-.2.2-.2s.1.1.1.2c-.2.4-.4.8-.7 1.2-.2.4-.5.8-.9 1.1-.4.4-.9.7-1.4.8s-1 .2-1.5.1-.9-.3-1.2-.7c-.5-.3-.7-.8-.7-1.5zm1.5-1.4c.2 0 .5-.1.8-.1.3-.1.5-.2.8-.3.2-.1.5-.3.7-.4.2-.2.4-.4.5-.6.2-.3.3-.5.2-.6 0-.1-.1-.2-.3-.2-.1 0-.3 0-.5.1s-.4.1-.5.2c-.4.2-.7.5-1 .9-.4.2-.6.6-.7 1z"/><path d="m86.1 16.8c-.3.5-.6 1-1 1.6-.4.5-.8 1-1.3 1.4-.3.2-.5.4-.8.5s-.6.1-.9-.1c-.4-.3-.6-.7-.8-1.4-.1-.7-.1-1.5.2-2.3-.2.3-.4.5-.7.7s-.6.4-.9.5-.6.1-.9 0-.6-.3-.8-.7c-.2-.3-.3-.6-.3-.9s0-.6.1-1c.1-.3.2-.6.4-.9s.4-.5.6-.8c.3-.2.5-.4.8-.6s.6-.3.9-.3.6 0 1 .1c.3.1.6.3.9.5.1-.2.2-.3.3-.4s.3-.1.4 0c.1 0 .3.1.4.2s.1.2.1.3l-.2.5c-.1.4-.3.8-.4 1.3-.2.5-.3 1-.4 1.5s-.2 1-.3 1.5-.1.9 0 1.2c0 .3.1.4.2.5s.2.2.3.2.2 0 .4-.1c.1-.1.3-.2.4-.3.4-.4.9-.8 1.3-1.4s.7-1.1 1-1.6l.4-.8s0 0 0-.1c0 0 .1-.1.2-.1s.1 0 0 .2zm-3.6-3.3c-.3-.3-.5-.5-.8-.6s-.5 0-.8.1c-.2.1-.5.3-.7.5s-.4.5-.6.7c-.3.4-.4.9-.5 1.3-.1.6-.1 1.1.1 1.3.2.3.4.4.7.3.3 0 .6-.2 1-.5s.7-.7 1-1.3c.1-.6.3-1.2.6-1.8z"/><path d="m89.4 18.7c0 .4 0 .8-.1 1.2s-.3.7-.5 1.1c-.2.2-.4.4-.7.5s-.6.2-.9.2-.6-.1-.8-.2c-.2-.2-.3-.4-.3-.8 0-.3.1-.5.3-.7s.4-.3.6-.4c.3-.1.5-.2.7-.3s.4-.2.6-.3c0-.4-.1-.8-.2-1.2s-.2-.8-.3-1.1c-.1-.4-.2-.7-.3-1.1-.1-.3-.1-.7-.2-1l-.7 1.3-.1.1c0 .1-.1.1-.2 0s-.1-.1-.1-.2c.2-.3.3-.7.5-1s.3-.7.5-1c.1-.2.2-.4.3-.6s.3-.3.5-.4c.1-.1.2 0 .3.1s.1.3 0 .4v1.2c.1.4.2.8.3 1.3.1.4.2.9.3 1.3s.2.9.2 1.3c.6-.3 1.1-.7 1.5-1.1.4-.5.7-1 1-1.5l.1-.1c0-.1.1-.1.2 0 .1 0 .1.1 0 .2-.3.6-.7 1.2-1.2 1.7-.1.3-.7.7-1.3 1.1zm-1.2.4c-.4.2-.8.4-1.1.5s-.5.3-.7.4c-.1.2-.2.4-.2.5s0 .3.1.5c.1.1.2.2.4.2s.4-.1.6-.2c.3-.3.5-.6.6-.9.2-.3.3-.7.3-1z"/></g></svg>