<svg enable-background="new 0 0 100 100" height="100" viewBox="0 0 100 100" width="100" xmlns="http://www.w3.org/2000/svg"><g fill="#1e4b52"><path d="m30.854 46.925c.125-.034.247-.068.366-.103.118-.034.24-.062.365-.085.261-.079.519-.155.773-.229.255-.073.495-.149.723-.229.181-.374.419-.813.714-1.317s.62-1 .978-1.487c.356-.487.73-.924 1.122-1.31.391-.385.773-.646 1.147-.781.317-.113.566-.145.748-.094.181.051.3.159.356.323s.065.365.025.604c-.039.237-.116.492-.229.765-.181.442-.405.822-.671 1.139-.267.317-.562.596-.884.833-.323.238-.678.448-1.063.629-.386.182-.788.357-1.207.527-.125.25-.275.584-.451 1.003-.176.42-.343.884-.501 1.395-.159.51-.301 1.037-.425 1.581-.125.544-.196 1.068-.213 1.572s.028.958.136 1.359c.107.403.314.718.621.944.215.158.438.229.671.212.232-.017.471-.104.714-.264.244-.158.487-.374.731-.646.243-.272.479-.578.705-.918.238-.352.462-.711.672-1.08.21-.368.396-.716.561-1.045s.307-.621.426-.876.201-.438.246-.552c.022-.057.068-.074.136-.052.057.023.074.068.052.137-.091.203-.232.521-.426.951-.192.432-.431.896-.714 1.395s-.601.997-.952 1.496-.725.915-1.122 1.249c-.396.334-.805.55-1.224.646s-.845-.003-1.275-.298c-.328-.227-.561-.544-.696-.952-.136-.407-.204-.858-.204-1.352 0-.492.048-1.011.145-1.555.096-.545.218-1.065.365-1.564s.3-.955.459-1.368c.159-.414.295-.745.408-.995-.216.068-.431.137-.646.204-.215.068-.441.131-.68.188l-.867.237c-.192.511-.391 1.018-.595 1.521-.204.505-.431.995-.68 1.471-.307.59-.635 1.122-.986 1.599-.352.476-.739.872-1.164 1.189-.426.317-.896.541-1.411.672-.517.13-1.103.145-1.76.042-.714-.113-1.295-.354-1.742-.723-.448-.368-.769-.799-.961-1.292-.192-.492-.264-1.02-.212-1.581.051-.561.215-1.088.492-1.58.278-.493.666-.924 1.165-1.292.498-.368 1.099-.615 1.802-.74.079 0 .119.028.119.085.022.08-.006.119-.085.119-.635.113-1.182.335-1.641.663-.459.329-.827.714-1.105 1.156-.277.441-.453.918-.526 1.428-.074.51-.043.994.094 1.453.136.459.388.87.756 1.233.368.362.858.623 1.471.781.601.159 1.147.156 1.641-.008s.935-.42 1.326-.766.742-.756 1.054-1.232.587-.952.824-1.428c.192-.396.377-.802.553-1.216.176-.413.343-.835.502-1.267-1.168.34-2.046.678-2.636 1.012-.589.335-.98.646-1.173.936-.192.288-.232.532-.119.73s.281.335.502.408.45.063.688-.034c.238-.096.391-.298.459-.604 0-.079.039-.107.119-.085.067.022.091.063.067.119-.057.283-.178.49-.365.62-.187.131-.386.204-.595.222-.21.017-.417-.023-.621-.119-.203-.097-.351-.229-.441-.399s-.105-.371-.043-.604.247-.484.553-.757.754-.55 1.343-.833c.59-.283 1.371-.566 2.347-.85.215-.601.407-1.199.577-1.794.171-.595.352-1.198.545-1.811-.363.023-.7-.02-1.012-.127-.313-.108-.553-.267-.723-.477-.17-.209-.249-.462-.238-.757.012-.294.147-.611.408-.951.045-.046.091-.052.136-.018.057.046.063.091.018.136-.238.329-.357.621-.357.876s.082.471.247.646c.164.176.388.303.671.382.283.08.589.103.918.068.057-.182.139-.428.247-.739.107-.312.24-.635.399-.97.158-.334.34-.648.544-.943.204-.294.425-.51.663-.646.181-.103.356-.156.526-.162.17-.005.317.037.442.128.124.091.213.221.264.391s.054.38.008.629c-.057.272-.15.527-.28.766-.13.237-.292.456-.484.654s-.405.371-.638.519-.473.267-.723.356c-.192.602-.374 1.196-.544 1.785-.171.594-.352 1.183-.545 1.773zm1.156-3.809c.442-.181.839-.453 1.19-.815.351-.363.572-.782.663-1.258.011-.091.017-.196.017-.315 0-.118-.017-.221-.051-.306s-.088-.133-.162-.145c-.073-.011-.173.04-.297.153-.193.158-.402.45-.629.875-.227.426-.47 1.03-.731 1.811zm5.202-1.207c-.295.228-.578.496-.85.808-.272.313-.536.644-.791.995s-.493.711-.714 1.079-.417.717-.587 1.046c.386-.159.754-.329 1.105-.511.351-.181.677-.385.978-.611.3-.227.572-.49.815-.791.244-.3.451-.654.621-1.063.091-.227.152-.434.187-.62.034-.188.028-.334-.017-.442-.046-.107-.128-.158-.247-.153-.117.005-.285.093-.5.263z"/><path d="m44.437 48.88c-.238.453-.575.821-1.012 1.104s-.893.414-1.368.392c-.079.158-.167.303-.264.433-.097.131-.195.253-.298.366-.181.192-.385.34-.611.441-.228.103-.454.165-.681.188s-.453.008-.68-.043-.431-.145-.612-.28c-.261-.181-.467-.419-.62-.714s-.255-.609-.306-.943c-.052-.334-.054-.669-.009-1.003.045-.335.142-.638.289-.91-.193-.419-.227-.827-.103-1.224.125-.396.338-.723.638-.978.301-.255.657-.408 1.071-.459.413-.051.813.054 1.198.314.352.261.635.572.851.935.215.363.365.751.45 1.165s.11.839.076 1.275-.13.847-.289 1.232c.204.011.405-.018.604-.085.198-.068.386-.162.562-.281s.337-.258.484-.416c.147-.159.283-.329.408-.51.034-.057.085-.082.152-.077.07.007.092.032.07.078zm-5.9-1.36c.057-.057.116-.04.179.051s.119.204.17.34c.052.137.091.275.119.417s.037.235.025.28c.363.396.802.739 1.317 1.028s1.046.462 1.59.519c.158-.374.261-.768.306-1.182.046-.413.026-.818-.06-1.215-.085-.396-.229-.771-.433-1.122-.204-.352-.477-.651-.816-.901-.329-.238-.663-.34-1.003-.306s-.641.155-.901.365-.456.484-.586.824c-.131.34-.15.703-.06 1.088zm.442 1.342c-.012.17-.009.357.009.562.017.204.051.407.102.611s.119.399.204.587c.085.187.189.349.314.484.136.147.283.246.442.298.158.051.317.065.476.042.159-.022.312-.073.459-.152.147-.08.283-.182.408-.307.091-.091.176-.189.255-.297s.147-.219.204-.332c-.533-.068-1.052-.24-1.556-.519-.503-.276-.942-.603-1.317-.977z"/><path d="m37.093 44.97c.068-.295.216-.572.442-.833.453-.544.997-.912 1.632-1.105.635-.192 1.298-.277 1.989-.255.691.023 1.388.116 2.091.28.702.165 1.349.332 1.938.502l.238-.867c.011-.057.07-.096.179-.119.107-.022.218-.025.331-.008s.216.045.307.085c.09.039.13.088.118.145l-.221 1.036c.465.125.966.235 1.505.332.538.097 1.067.15 1.589.161.521.012 1.015-.042 1.479-.161s.855-.337 1.173-.654c.192-.193.312-.38.357-.562.045-.181.033-.354-.034-.519-.068-.164-.182-.314-.34-.45-.159-.136-.347-.249-.562-.34-.204-.091-.434-.159-.688-.204s-.51-.065-.765-.06-.499.042-.731.11-.434.17-.604.306c-.045.046-.091.043-.136-.008-.046-.051-.012-.134.102-.247.091-.079.229-.146.417-.204.187-.056.399-.093.638-.11.237-.017.484-.014.739.009s.49.068.705.136c.715.25 1.15.556 1.31.918.158.363.121.714-.11 1.055-.232.34-.627.632-1.182.875-.556.244-1.196.365-1.921.365-.499 0-1.003-.036-1.514-.11-.51-.073-1.009-.167-1.496-.28-.067.317-.13.609-.187.876-.057.266-.113.563-.17.892s-.119.712-.188 1.147c-.067.437-.152.983-.255 1.641-.045.317-.085.627-.119.927-.033.301-.062.581-.085.842-.022.261-.033.496-.033.705 0 .21.011.383.033.519.034.227.134.36.298.399.164.04.428-.099.791-.416.362-.307.677-.651.943-1.037s.513-.782.739-1.19c.057-.09.113-.189.17-.297s.113-.213.17-.314c.022-.023.034-.052.034-.085.022-.034.073-.054.153-.06.079-.006.09.042.033.145-.057.124-.118.249-.187.374-.068.124-.136.249-.204.374-.238.407-.493.807-.765 1.198s-.59.739-.952 1.045c-.125.114-.258.219-.399.314-.143.097-.289.168-.442.213-.153.046-.306.054-.459.025s-.298-.121-.434-.28c-.136-.136-.235-.332-.297-.587-.063-.255-.1-.544-.111-.866-.011-.323-.005-.672.018-1.046s.062-.754.119-1.139c.067-.556.136-1.049.204-1.479.067-.431.133-.824.195-1.182.062-.356.127-.686.195-.985.068-.301.142-.604.221-.91-.17-.045-.331-.09-.484-.136-.153-.045-.304-.091-.45-.136-.477-.125-.927-.247-1.352-.366-.425-.118-.824-.206-1.198-.263-.329-.046-.675-.06-1.037-.043-.363.018-.72.071-1.071.162s-.686.227-1.003.407c-.317.182-.589.408-.816.681-.204.237-.34.481-.407.73z"/><path d="m48.108 49.661c-.022-.328.015-.665.111-1.011s.252-.666.467-.961c.216-.295.481-.541.799-.739s.681-.32 1.089-.365c.215-.023.407-.023.577 0 .17.022.301.073.392.152.091.08.133.19.127.332s-.076.32-.212.535c-.113.17-.258.326-.434.468s-.365.267-.569.374-.417.192-.638.255-.434.094-.638.094c-.045.158-.074.328-.085.51-.012.182-.006.362.017.544s.065.356.128.527c.063.17.155.312.28.425.34.328.683.444 1.028.349.346-.097.672-.292.978-.587.238-.227.448-.479.629-.757.182-.277.346-.563.493-.858.046-.091.107-.136.188-.136.079 0 .096.045.051.136-.159.317-.331.629-.519.936-.187.306-.411.584-.672.833-.328.306-.691.519-1.088.637-.396.119-.773.14-1.13.06-.357-.079-.666-.263-.927-.552s-.407-.69-.442-1.201zm1.14-1.07c.181-.012.371-.046.569-.103s.391-.133.578-.229.356-.209.51-.34c.153-.13.28-.274.383-.434.146-.227.206-.388.178-.484s-.096-.15-.203-.161c-.108-.012-.241.008-.4.06-.158.051-.294.11-.407.178-.295.159-.542.374-.74.646-.199.271-.355.56-.468.867z"/><path d="m56.659 49.491c.057-.09.11-.189.161-.297.052-.108.105-.213.162-.314 0-.012.003-.023.009-.034.005-.012.008-.028.008-.051.012-.012.031-.026.06-.043s.057-.025.085-.025.051.012.068.034.014.063-.009.119l-.374.748c-.091.181-.204.394-.34.637-.136.244-.283.487-.442.731-.158.244-.334.479-.526.705-.193.228-.392.408-.596.544-.203.137-.405.219-.604.247s-.382.009-.552-.06-.323-.176-.459-.323c-.137-.147-.238-.323-.307-.527-.147-.374-.237-.807-.271-1.3s-.037-.995-.009-1.505.079-1.003.153-1.479c.073-.477.155-.896.246-1.259.113-.51.244-1.005.392-1.487.146-.481.306-.938.476-1.368.182-.477.391-.961.629-1.453.238-.493.513-.958.824-1.395s.672-.824 1.08-1.164c.408-.341.867-.601 1.377-.782.215-.079.428-.13.638-.153.209-.022.399-.003.569.06s.306.173.408.332c.102.158.152.38.152.662-.011.477-.21 1.117-.595 1.922-.386.805-1.037 1.773-1.955 2.906-.227.272-.471.556-.73.851-.262.295-.533.584-.816.867s-.572.55-.867.799-.589.476-.884.68c-.034.249-.071.564-.11.943-.04.38-.063.779-.068 1.198-.006.42.006.825.034 1.216.028.392.088.717.179.978.102.317.237.496.408.535.17.04.351-.008.544-.145.192-.136.388-.328.586-.577.198-.25.386-.508.562-.773.175-.267.325-.513.45-.74.124-.227.209-.38.254-.46zm-2.805-2.465c.555-.408 1.104-.884 1.648-1.428s1.031-1.082 1.462-1.615c.907-1.11 1.548-2.057 1.922-2.839.373-.782.561-1.405.561-1.87 0-.431-.122-.686-.365-.765-.244-.079-.53-.04-.858.119-.488.227-1.032.714-1.633 1.462s-1.15 1.773-1.648 3.077c-.227.623-.437 1.258-.629 1.903-.194.648-.346 1.299-.46 1.956z"/><path d="m59.261 51.038c.011.329-.018.635-.085.918-.068.284-.204.55-.408.8-.136.158-.323.286-.562.382-.237.097-.473.145-.705.145s-.431-.062-.595-.187-.241-.323-.229-.595c.022-.228.102-.408.237-.545.137-.136.295-.249.477-.34.192-.09.368-.173.526-.246.159-.073.317-.139.477-.195-.012-.307-.051-.606-.119-.901s-.139-.581-.213-.858c-.073-.277-.145-.547-.212-.808-.068-.261-.108-.51-.119-.748l-.527 1.021-.051.102c-.022.046-.063.054-.119.025s-.073-.07-.051-.127c.125-.25.255-.505.391-.766.137-.261.261-.521.374-.782.046-.158.116-.303.213-.433.096-.131.235-.235.416-.314.103-.046.179-.012.229.102.052.113.054.21.009.289-.034.271-.025.563.025.875.052.313.116.633.195.961.08.329.159.663.238 1.003s.136.669.17.986c.442-.227.811-.516 1.105-.867.294-.352.555-.726.782-1.122l.051-.085c.022-.068.067-.079.136-.034.057.034.068.079.034.136-.25.477-.541.898-.876 1.267-.333.367-.739.681-1.214.941zm-.885.341c-.328.147-.601.271-.815.374-.216.102-.38.215-.493.34-.113.136-.17.274-.17.416s.037.261.11.357.176.15.306.161c.131.012.27-.051.417-.187.204-.193.362-.42.476-.681.112-.259.169-.519.169-.78z"/></g></svg>