<svg enable-background="new 0 0 100 36.5" viewBox="0 0 100 36.5" xmlns="http://www.w3.org/2000/svg"><g fill="#1e4b52"><path d="m29.6 19.4c.2-.1.5-.1.7-.2s.5-.1.7-.2c.5-.2 1-.3 1.5-.4s1-.3 1.4-.4c.4-.7.8-1.6 1.4-2.6s1.2-1.9 1.9-2.9c.7-.9 1.4-1.8 2.2-2.6.8-.7 1.5-1.3 2.2-1.5.6-.2 1.1-.3 1.5-.2s.6.3.7.6.1.7 0 1.2-.2 1-.4 1.5c-.4.9-.8 1.6-1.3 2.2s-1.1 1.2-1.7 1.6c-.6.5-1.3.9-2.1 1.2-.8.4-1.5.7-2.4 1-.2.5-.5 1.1-.9 2-.3.8-.7 1.7-1 2.7s-.6 2-.8 3.1-.4 2.1-.4 3.1.1 1.9.3 2.6c.2.8.6 1.4 1.2 1.8.4.3.9.4 1.3.4.5 0 .9-.2 1.4-.5s.9-.7 1.4-1.3c.5-.5.9-1.1 1.4-1.8s.9-1.4 1.3-2.1.8-1.4 1.1-2 .6-1.2.8-1.7.4-.9.5-1.1c0-.1.1-.1.3-.1.1 0 .1.1.1.3-.2.4-.5 1-.8 1.9-.4.8-.8 1.7-1.4 2.7s-1.2 1.9-1.9 2.9-1.4 1.8-2.2 2.4c-.8.7-1.6 1.1-2.4 1.3s-1.6 0-2.5-.6c-.6-.4-1.1-1.1-1.4-1.9s-.4-1.7-.4-2.6c0-1 .1-2 .3-3 .2-1.1.4-2.1.7-3s.6-1.9.9-2.7.6-1.5.8-1.9c-.4.1-.8.3-1.3.4-.4.1-.9.3-1.3.4l-1.7.5c-.4 1-.8 2-1.2 3s-.8 1.9-1.3 2.9c-.6 1.1-1.2 2.2-1.9 3.1s-1.4 1.7-2.3 2.3c-.8.6-1.7 1.1-2.7 1.3-1 .3-2.1.3-3.4.1-1.4-.2-2.5-.7-3.4-1.4s-1.5-1.6-1.9-2.5c-.4-1-.5-2-.4-3.1s.4-2.1 1-3.1c.5-1 1.3-1.8 2.3-2.5s2.1-1.2 3.5-1.4c.2 0 .2.1.2.2 0 .2 0 .2-.2.2-1.2.2-2.3.7-3.2 1.3s-1.6 1.4-2.2 2.3c-.5.9-.9 1.8-1 2.8s-.1 1.9.2 2.8.8 1.7 1.5 2.4 1.7 1.2 2.9 1.5 2.2.3 3.2 0 1.8-.8 2.6-1.5 1.4-1.5 2.1-2.4c.6-.9 1.1-1.9 1.6-2.8.4-.8.7-1.6 1.1-2.4.3-.8.7-1.6 1-2.5-2.3.7-4 1.3-5.1 2s-1.9 1.3-2.3 1.8c-.4.6-.5 1-.2 1.4s.5.7 1 .8c.4.1.9.1 1.3-.1.5-.2.8-.6.9-1.2 0-.2.1-.2.2-.2s.2.1.1.2c-.1.6-.3 1-.7 1.2-.4.3-.8.4-1.2.4s-.8 0-1.2-.2-.7-.4-.9-.8c-.2-.3-.2-.7-.1-1.2s.5-.9 1.1-1.5c.6-.5 1.5-1.1 2.6-1.6 1.1-.6 2.7-1.1 4.6-1.7.4-1.2.8-2.3 1.1-3.5s.7-2.3 1.1-3.5c-.7 0-1.4 0-2-.2s-1.1-.5-1.4-.9-.5-.9-.5-1.5.3-1.2.8-1.9c.1-.1.2-.1.3 0s.1.2 0 .3c-.5.6-.7 1.2-.7 1.7s.2.9.5 1.3c.3.3.8.6 1.3.7.6.2 1.1.2 1.8.1.1-.4.3-.8.5-1.4s.5-1.2.8-1.9.7-1.3 1.1-1.8c.4-.6.8-1 1.3-1.3.4-.2.7-.3 1-.3s.6.1.9.2c.2.2.4.4.5.8s.1.7 0 1.2-.3 1-.5 1.5c-.3.5-.6.9-.9 1.3-.4.4-.8.7-1.2 1-.5.3-.9.5-1.4.7-.4 1.2-.7 2.3-1.1 3.5-.4 1.3-.8 2.4-1.2 3.5zm2.3-7.4c.9-.4 1.6-.9 2.3-1.6s1.1-1.5 1.3-2.4c0-.2 0-.4 0-.6s0-.4-.1-.6-.2-.3-.3-.3-.3.1-.6.3c-.4.3-.8.9-1.2 1.7s-.9 2-1.4 3.5zm10.1-2.3c-.6.4-1.1 1-1.7 1.6-.5.6-1 1.3-1.5 1.9-.5.7-1 1.4-1.4 2.1s-.8 1.4-1.1 2c.8-.3 1.5-.6 2.2-1s1.3-.7 1.9-1.2c.6-.4 1.1-1 1.6-1.5.5-.6.9-1.3 1.2-2.1.2-.4.3-.8.4-1.2s.1-.7 0-.9-.2-.3-.5-.3c-.3.1-.7.3-1.1.6z"/><path d="m56.1 23.3c-.5.9-1.1 1.6-2 2.1-.9.6-1.7.8-2.7.8-.2.3-.3.6-.5.8-.2.3-.4.5-.6.7-.4.4-.7.7-1.2.9-.4.2-.9.3-1.3.4-.4 0-.9 0-1.3-.1s-.8-.3-1.2-.5c-.5-.4-.9-.8-1.2-1.4s-.5-1.2-.6-1.8c-.1-.7-.1-1.3 0-2s.3-1.2.6-1.8c-.4-.8-.4-1.6-.2-2.4s.7-1.4 1.2-1.9c.6-.5 1.3-.8 2.1-.9s1.6.1 2.3.6 1.2 1.1 1.7 1.8c.4.7.7 1.5.9 2.3s.2 1.6.1 2.5-.2 1.6-.5 2.4c.4 0 .8 0 1.2-.2.4-.1.8-.3 1.1-.5s.7-.5.9-.8c.3-.3.6-.6.8-1 .1-.1.2-.2.3-.1.1-.1.1 0 .1.1zm-11.5-2.7c.1-.1.2-.1.3.1s.2.4.3.7.2.5.2.8c.1.3.1.5 0 .5.7.8 1.6 1.4 2.6 2s2 .9 3.1 1c.3-.7.5-1.5.6-2.3s.1-1.6-.1-2.4-.4-1.5-.8-2.2-.9-1.3-1.6-1.8c-.6-.5-1.3-.7-2-.6s-1.2.3-1.8.7c-.5.4-.9.9-1.1 1.6-.3.7-.3 1.4-.1 2.1zm.9 2.6v1.1c0 .4.1.8.2 1.2s.2.8.4 1.1c.2.4.4.7.6.9.3.3.6.5.9.6s.6.1.9.1.6-.1.9-.3.6-.4.8-.6.3-.4.5-.6.3-.4.4-.6c-1-.1-2-.5-3-1s-1.9-1.2-2.6-1.9z"/><path d="m41.8 15.6c.1-.6.4-1.1.9-1.6.9-1.1 1.9-1.8 3.2-2.2 1.2-.4 2.5-.5 3.9-.5 1.3 0 2.7.2 4.1.5s2.6.6 3.8 1l.5-1.7c0-.1.1-.2.3-.2h.6s.4.1.6.2.3.2.2.3l-.4 2c.9.2 1.9.5 2.9.6 1 .2 2.1.3 3.1.3s2-.1 2.9-.3 1.7-.7 2.3-1.3c.4-.4.6-.7.7-1.1s.1-.7-.1-1c-.1-.3-.4-.6-.7-.9s-.7-.5-1.1-.7-.8-.3-1.3-.4-1-.1-1.5-.1-1 .1-1.4.2c-.5.3-.9.5-1.3.8-.1.1-.2.1-.3 0s0-.3.2-.5.4-.3.8-.4.8-.2 1.2-.2h1.4c.5 0 1 .1 1.4.3 1.4.5 2.2 1.1 2.6 1.8.3.7.2 1.4-.2 2.1-.5.7-1.2 1.2-2.3 1.7s-2.3.7-3.7.7c-1 0-2-.1-2.9-.2-1-.1-2-.3-2.9-.5-.1.6-.3 1.2-.4 1.7s-.2 1.1-.3 1.7-.2 1.4-.4 2.2c-.1.9-.3 1.9-.5 3.2-.1.6-.2 1.2-.2 1.8-.1.6-.1 1.1-.2 1.6 0 .5-.1 1-.1 1.4s0 .7.1 1c.1.4.3.7.6.8s.8-.2 1.5-.8 1.3-1.3 1.8-2c.5-.8 1-1.5 1.4-2.3.1-.2.2-.4.3-.6s.2-.4.3-.6c0 0 .1-.1.1-.2s.1-.1.3-.1.2.1.1.3-.2.5-.4.7c-.1.2-.3.5-.4.7-.5.8-1 1.6-1.5 2.3s-1.1 1.4-1.9 2c-.2.2-.5.4-.8.6s-.6.3-.9.4-.6.1-.9 0-.6-.2-.8-.5c-.3-.3-.5-.6-.6-1.1s-.2-1.1-.2-1.7 0-1.3 0-2 .1-1.5.2-2.2c.1-1.1.3-2 .4-2.9.1-.8.3-1.6.4-2.3s.2-1.3.4-1.9c.1-.6.3-1.2.4-1.8-.3-.1-.6-.2-.9-.3s-.6-.2-.9-.3c-.9-.2-1.8-.5-2.6-.7s-1.6-.4-2.3-.5c-.6-.1-1.3-.1-2-.1s-1.4.1-2.1.3-1.3.4-2 .8c-.6.4-1.1.8-1.6 1.3-.4.5-.7.9-.8 1.4z"/><path d="m63.2 24.8c0-.6 0-1.3.2-2s.5-1.3.9-1.9.9-1.1 1.6-1.4c.6-.4 1.3-.6 2.1-.7h1.1c.3 0 .6.1.8.3s.3.4.2.6c0 .3-.1.6-.4 1-.2.3-.5.6-.8.9s-.7.5-1.1.7-.8.4-1.2.5-.8.2-1.2.2c-.1.3-.1.6-.2 1v1.1c0 .4.1.7.2 1s.3.6.5.8c.7.6 1.3.9 2 .7s1.3-.6 1.9-1.1c.5-.4.9-.9 1.2-1.5.4-.5.7-1.1 1-1.7.1-.2.2-.3.4-.3s.2.1.1.3c-.3.6-.6 1.2-1 1.8s-.8 1.1-1.3 1.6c-.6.6-1.3 1-2.1 1.2s-1.5.3-2.2.1-1.3-.5-1.8-1.1-.8-1.1-.9-2.1zm2.3-2.1c.4 0 .7-.1 1.1-.2s.8-.3 1.1-.4.7-.4 1-.7.5-.5.7-.8c.3-.4.4-.8.3-.9s-.2-.3-.4-.3-.5 0-.8.1-.6.2-.8.3c-.6.3-1.1.7-1.4 1.3-.3.4-.6 1-.8 1.6z"/><path d="m79.9 24.4c.1-.2.2-.4.3-.6s.2-.4.3-.6c0 0 0 0 0-.1v-.1s.1-.1.1-.1h.2s.1 0 .1.1 0 .1 0 .2l-.7 1.5c-.2.4-.4.8-.7 1.2-.3.5-.6.9-.9 1.4s-.7.9-1 1.4c-.4.4-.8.8-1.2 1.1s-.8.4-1.2.5-.7 0-1.1-.1-.6-.3-.9-.6-.5-.6-.6-1c-.3-.7-.5-1.6-.5-2.5-.1-1-.1-1.9 0-2.9s.2-2 .3-2.9.3-1.7.5-2.5c.2-1 .5-2 .8-2.9s.6-1.8.9-2.7c.4-.9.8-1.9 1.2-2.8.5-1 1-1.9 1.6-2.7s1.3-1.6 2.1-2.3 1.7-1.2 2.7-1.5c.4-.2.8-.3 1.2-.3s.8 0 1.1.1c.5.1.8.3 1 .6s.3.7.3 1.3c0 .9-.4 2.2-1.2 3.7-.8 1.6-2 3.5-3.8 5.7-.4.5-.9 1.1-1.4 1.7s-1 1.1-1.6 1.7-1.1 1.1-1.7 1.6-1.1.9-1.7 1.3c-.1.5-.1 1.1-.2 1.8s-.1 1.5-.1 2.3 0 1.6.1 2.4.2 1.4.3 1.9c.2.6.5 1 .8 1 .3.1.7 0 1.1-.3s.8-.6 1.1-1.1c.4-.5.8-1 1.1-1.5s.6-1 .9-1.4c.1-.5.3-.8.4-1zm-5.5-4.8c1.1-.8 2.1-1.7 3.2-2.8s2-2.1 2.8-3.1c1.8-2.2 3-4 3.7-5.5s1.1-2.7 1.1-3.6c0-.8-.2-1.3-.7-1.5s-1-.1-1.7.2c-1 .4-2 1.4-3.2 2.8-1.2 1.5-2.2 3.5-3.2 6-.4 1.2-.9 2.4-1.2 3.7-.2 1.3-.5 2.6-.8 3.8z"/><path d="m85 27.5c0 .6 0 1.2-.2 1.8-.1.6-.4 1.1-.8 1.6-.3.3-.6.6-1.1.7-.5.2-.9.3-1.4.3s-.8-.1-1.2-.4c-.3-.2-.5-.6-.4-1.2 0-.4.2-.8.5-1.1s.6-.5.9-.7c.4-.2.7-.3 1-.5.3-.1.6-.3.9-.4 0-.6-.1-1.2-.2-1.8s-.3-1.1-.4-1.7c-.1-.5-.3-1.1-.4-1.6s-.2-1-.2-1.5l-1 2-.1.2c0 .1-.1.1-.2 0s-.1-.1-.1-.2c.2-.5.5-1 .8-1.5s.5-1 .7-1.5c.1-.3.2-.6.4-.8.2-.3.5-.5.8-.6.2-.1.3 0 .4.2s.1.4 0 .6c-.1.5 0 1.1 0 1.7.1.6.2 1.2.4 1.9.2.6.3 1.3.5 2s.3 1.3.3 1.9c.9-.4 1.6-1 2.2-1.7s1.1-1.4 1.5-2.2l.1-.2c0-.1.1-.2.3-.1.1.1.1.2.1.3-.5.9-1.1 1.7-1.7 2.5-.7.8-1.5 1.5-2.4 2zm-1.8.6c-.6.3-1.2.5-1.6.7s-.7.4-1 .7c-.2.3-.3.5-.3.8s.1.5.2.7.3.3.6.3.5-.1.8-.4c.4-.4.7-.8.9-1.3.3-.5.4-1 .4-1.5z"/></g></svg>