<svg enable-background="new 0 0 100 43" viewBox="0 0 100 43" xmlns="http://www.w3.org/2000/svg"><g fill="#1e4b52"><path d="m6.3 29.3c-1-.7-1.7-1.6-2.1-2.8s-.5-2.4-.4-3.8.4-2.8.9-4.3 1.1-2.9 1.9-4.2c.7-1.3 1.6-2.5 2.5-3.5s1.8-1.8 2.7-2.3c.6-.4 1.2-.6 1.8-.7s1.2-.1 1.8.1c.6-.2 1.2-.3 1.8-.3s1.2.3 1.8.6c.6.4 1.1 1 1.4 1.8s.4 1.6.4 2.6-.2 2-.5 3.1-.7 2.2-1.1 3.3c-.5 1.1-1 2.2-1.6 3.3s-1.2 2.1-1.9 3-1.3 1.7-2 2.4-1.3 1.2-1.9 1.5c-.8.6-1.8.9-2.7 1-1 .1-2-.2-2.8-.8zm10.4-20.9c.1 0 .1.1.1.2-.1.1-.1.1-.2.1l-.1-.1c-.4-.2-.7-.4-1-.4-.7.3-1.4.7-2.1 1.4s-1.4 1.4-2.1 2.3-1.3 1.8-1.9 2.9c-.6 1-1.1 2.1-1.5 3.1s-.7 2-.9 3-.2 1.8 0 2.6.5 1.4 1.1 1.9c.6.4 1.3.6 2.1.4.1 0 .1 0 .2.1 0 .1 0 .2-.1.2-.9.2-1.7 0-2.4-.4-.6-.5-1.1-1.2-1.3-2.1-.2-.8-.2-1.6 0-2.6s.4-2 .8-3 .9-2.1 1.4-3.1c.6-1 1.2-2 1.8-2.9.7-.9 1.3-1.7 2-2.3.7-.7 1.4-1.2 2-1.5-.2 0-.5 0-.8.1s-.6.2-.9.4-.6.4-.9.6-.5.4-.7.5c-.8.7-1.6 1.6-2.4 2.6s-1.4 2.2-2 3.4-.7 2.2-1 3.5c-.4 1.2-.6 2.4-.6 3.4v1.8c.1.6.2 1.2.4 1.8s.4 1.1.8 1.6c.3.5.8.9 1.3 1.2.4.2.7.4 1 .5s.6.1.9.1.6-.1 1-.2c.3-.1.7-.3 1-.5.6-.3 1.2-.8 1.8-1.5s1.3-1.4 1.9-2.3 1.3-1.9 1.8-2.9c.6-1 1.1-2.1 1.6-3.2s.8-2.2 1.1-3.3.5-2.1.5-3-.1-1.8-.3-2.5c-.3-.7-.7-1.3-1.3-1.7-.5-.3-1-.5-1.4-.6-.5-.1-1 0-1.5.1.1.1.2.1.4.2.1-.1.2-.1.4.1-.1-.1 0-.1 0 0z"/><path d="m26 25.7c-.3-.3-.5-.8-.5-1.4-.1-.6 0-1.2 0-1.9.1-.7.2-1.4.3-2 .2-.7.3-1.3.4-1.8s.1-.9.1-1.1-.2-.2-.4 0c-.3.2-.6.7-.9 1.2-.3.6-.6 1.2-1 1.9-.3.7-.6 1.3-.9 2-.3.6-.4 1.1-.5 1.5 0 0 0 0-.1.1s-.1.1-.2 0c-.3-.3-.5-.5-.6-.8-.1-.2-.2-.4-.3-.7 0-.2-.1-.4 0-.6 0-.2 0-.5.1-.8 0-.3.1-.6.1-.9s.1-.7.1-1 .1-.7.1-1 .1-.6.2-.9c.1-.2.2-.3.3-.3h.5c.2 0 .3.1.4.2s.2.2.1.4c0 .2-.1.4-.1.7s-.1.6-.1 1-.1.7-.1 1.1c-.1.4-.1.7-.2 1l-.1.9c.2-.6.5-1.2.7-1.8.3-.6.6-1.3.9-1.9.2-.4.5-.9.8-1.3s.6-.8 1-1c.5-.3.9-.4 1.2-.2s.5.6.5 1.2c0 .3 0 .6-.1.9s-.1.7-.2 1-.1.6-.2.8-.1.4-.1.4c-.1.2-.1.5-.2.9s-.2.8-.3 1.3-.2.9-.2 1.4c0 .4 0 .8.1 1.1s.3.4.5.4c.3 0 .6-.2 1.1-.6.5-.5 1-1 1.4-1.6s.8-1.2 1.1-1.8c.1-.1.2-.3.3-.5s.2-.3.3-.5l.1-.1c0-.1.1-.1.2-.1s.1.1.1.2l-.6 1.2c-.4.6-.7 1.3-1.2 1.9-.4.6-.9 1.1-1.5 1.6-.2.2-.4.3-.6.5s-.5.3-.7.3c-.2.1-.5.1-.7 0 .1-.1-.2-.2-.4-.5z"/><path d="m25.9 14.6c.1-.5.3-.9.7-1.3.7-.8 1.5-1.4 2.5-1.7s2-.4 3.1-.4 2.2.2 3.2.4c1.1.3 2.1.5 3 .8l.4-1.3c0-.1.1-.1.3-.2h.5c.2 0 .3.1.5.1.1.1.2.1.2.2l-.3 1.6c.7.2 1.5.4 2.3.5.8.2 1.7.2 2.5.3.8 0 1.6-.1 2.3-.3s1.3-.5 1.8-1c.3-.3.5-.6.6-.9s.1-.5-.1-.8c-.1-.3-.3-.5-.5-.7s-.5-.4-.9-.5c-.3-.1-.7-.2-1.1-.3s-.8-.1-1.2-.1-.8.1-1.1.2c-.4.1-.7.3-.9.5-.1.1-.1.1-.2 0s0-.2.2-.4c.1-.1.4-.2.6-.3.3-.1.6-.1 1-.2h1.1c.4 0 .8.1 1.1.2 1.1.4 1.8.9 2 1.4.2.6.2 1.1-.2 1.6s-1 1-1.8 1.4c-.9.4-1.9.6-3 .6-.8 0-1.6-.1-2.3-.2-.8-.1-1.6-.3-2.3-.4-.1.5-.2.9-.3 1.4-.1.4-.2.9-.3 1.4s-.2 1.1-.3 1.8-.2 1.5-.4 2.5c-.1.5-.1 1-.2 1.4-.1.5-.1.9-.1 1.3s-.1.8-.1 1.1 0 .6.1.8c.1.4.2.6.5.6.3.1.7-.2 1.2-.6.6-.5 1.1-1 1.5-1.6s.8-1.2 1.1-1.8c.1-.1.2-.3.3-.5s.2-.3.3-.5c0 0 .1-.1.1-.1 0-.1.1-.1.2-.1s.1.1.1.2c-.1.2-.2.4-.3.6s-.2.4-.3.6c-.4.6-.8 1.3-1.2 1.9s-.9 1.1-1.5 1.6c-.2.2-.4.3-.6.5-.2.1-.4.3-.7.3s-.5.1-.7 0c-.2 0-.5-.2-.7-.4s-.4-.5-.5-.9-.2-.8-.2-1.3 0-1 0-1.6.1-1.2.2-1.8c.1-.9.2-1.6.3-2.3s.2-1.3.3-1.8c.1-.6.2-1.1.3-1.5.1-.5.2-.9.3-1.4-.3-.1-.5-.1-.8-.2-.2-.1-.5-.1-.7-.2-.7-.2-1.4-.4-2.1-.6s-1.3-.3-1.9-.4c-.5-.1-1-.1-1.6-.1s-1.1.1-1.7.3-1.1.4-1.6.6c-.5.3-.9.6-1.3 1.1-.3.4-.5.7-.6 1.1z"/><path d="m47.5 25.7c-.3-.3-.5-.8-.5-1.4-.1-.6 0-1.2 0-1.9.1-.7.2-1.4.3-2 .1-.7.3-1.3.4-1.8s.1-.9.1-1.1-.2-.2-.4 0c-.3.2-.6.7-.9 1.2-.3.6-.6 1.2-1 1.9-.3.7-.6 1.3-.9 2-.3.6-.4 1.1-.5 1.5 0 0 0 0-.1.1s-.1.1-.2 0c-.3-.3-.5-.5-.6-.8-.1-.2-.2-.5-.3-.7 0-.2-.1-.5 0-.7 0-.2 0-.5.1-.8.2-1.4.4-2.8.6-4.3s.6-2.9 1-4.4c.4-1.4.9-2.8 1.5-4.1s1.4-2.5 2.4-3.5c.6-.7 1.3-1.2 2-1.4s1.3-.3 1.8-.1.8.6 1 1.2.1 1.4-.2 2.4c-.2.7-.6 1.4-.9 2.2-.4.8-.8 1.5-1.3 2.3s-1 1.5-1.5 2.3c-.5.7-1.1 1.4-1.6 2.1-.5.6-1.1 1.2-1.6 1.7s-1 .9-1.4 1.3l-.4 2.9-.1.9c.2-.6.5-1.2.7-1.8.3-.6.6-1.3.9-1.9.2-.4.5-.9.8-1.3s.6-.8 1-1c.5-.3.9-.4 1.2-.2s.5.6.5 1.2c0 .3 0 .6-.1.9s-.1.7-.2 1-.1.6-.2.8-.1.4-.1.4c-.1.2-.1.5-.2.9s-.2.8-.3 1.3-.2.9-.2 1.4c0 .4 0 .8.1 1.1s.3.4.5.4c.3 0 .6-.2 1.1-.6.5-.5 1-1 1.4-1.6s.8-1.2 1.1-1.8c.1-.1.2-.3.3-.5s.2-.3.3-.5l.1-.1c0-.1.1-.1.2-.1s.1.1.1.2l-.6 1.2c-.3.6-.7 1.3-1.2 1.9-.4.6-.9 1.1-1.5 1.6-.2.2-.4.3-.6.5s-.5.3-.7.3c-.2.1-.5.1-.7 0-.1-.3-.3-.4-.5-.7zm-2.6-7.3c.6-.5 1.3-1.2 2-2.1.8-.9 1.5-1.9 2.3-2.9.8-1.1 1.5-2.2 2.1-3.3.6-1.2 1.1-2.2 1.5-3.2.3-.9.4-1.5.3-2.1-.1-.5-.3-.8-.7-1-.4-.1-.8-.1-1.3.2-.5.2-1 .7-1.6 1.3-.4.5-.8 1.2-1.2 1.9s-.7 1.5-1.1 2.3c-.3.8-.6 1.7-.9 2.5-.2.9-.5 1.7-.7 2.5s-.4 1.6-.5 2.3-.2 1.4-.3 1.9z"/><path d="m53 21.9c0-.5 0-1 .2-1.6.1-.5.4-1 .7-1.5s.7-.8 1.2-1.1 1.1-.5 1.7-.6h.9c.3 0 .5.1.6.2s.2.3.2.5-.1.5-.3.8-.4.5-.7.7-.6.4-.9.6-.6.3-1 .4c-.3.1-.7.1-1 .1-.1.2-.1.5-.1.8v.8c0 .3.1.6.2.8.1.3.2.5.4.7.5.5 1.1.7 1.6.5s1-.5 1.5-.9c.4-.4.7-.7 1-1.2.3-.4.5-.9.8-1.3.1-.1.2-.2.3-.2s.1.1.1.2c-.2.5-.5 1-.8 1.5s-.6.9-1 1.3c-.5.5-1.1.8-1.7 1s-1.2.2-1.8.1-1-.4-1.4-.9c-.4-.3-.7-.9-.7-1.7zm1.8-1.7c.3 0 .6-.1.9-.2s.6-.2.9-.4c.3-.1.6-.3.8-.5s.4-.4.6-.7c.2-.4.3-.6.3-.8 0-.1-.1-.2-.3-.3-.2 0-.4 0-.6.1s-.5.2-.6.3c-.5.2-.8.6-1.1 1-.5.6-.8 1-.9 1.5z"/><path d="m77.5 20.6c-.1.2-.2.4-.3.6s-.2.4-.3.6c-.2.4-.4.7-.7 1.2-.3.4-.5.9-.8 1.3s-.6.8-1 1.1c-.3.3-.7.6-1 .8-.6.3-1.1.3-1.5.2-.4-.2-.8-.5-1-.9-.3-.4-.5-.9-.6-1.4s-.2-1-.2-1.5v-.8c-.2.2-.5.5-.8.8s-.6.6-.9.8-.7.4-1 .5-.6.1-.8 0c-.3-.1-.5-.2-.7-.4s-.3-.5-.4-.8c-.1-.4-.2-.8-.2-1.3s.1-1 .4-1.5c.2-.5.5-.9.9-1.3s.9-.7 1.6-.8c.3-.1.7-.1 1-.2.4 0 .8-.1 1.2-.1.1-.3.1-.6.2-.9s.1-.6.2-.9c.3-1.3.7-2.6 1.2-4s1.1-2.6 1.8-3.8 1.5-2.2 2.3-3c.9-.8 1.8-1.3 2.8-1.6.9-.2 1.5-.1 1.9.3s.5 1 .4 1.8c-.2 1-.5 1.9-1.2 3.1-.6 1.1-1.6 2.5-2.9 4-.4.4-.7.9-1.2 1.3-.4.5-.9.9-1.3 1.3s-.9.8-1.4 1.2-.9.8-1.4 1.1c-.1.5-.2 1.1-.3 1.7-.1.7-.1 1.3-.2 2 0 .7 0 1.3.1 2 .1.6.2 1.2.4 1.7s.4.8.7.9c.2.1.5.1.7 0 .3-.1.6-.4 1-.7.3-.3.6-.7.9-1.1s.6-.8.8-1.2c.3-.4.5-.8.6-1.1.2-.3.3-.6.5-1 0 0 0 0 .1-.1 0-.1.1-.1.2-.1.2.1.2.2.2.2zm-7.2-2.7c-.5-.1-1 0-1.4.2s-.8.5-1.1.9-.6.8-.7 1.3c-.2.5-.3.9-.3 1.3s0 .8.1 1.1.4.4.7.4.5 0 .8-.2c.2-.1.5-.3.7-.5s.4-.4.6-.6.3-.4.5-.6c-.2-1.1-.1-2.2.1-3.3zm3.8-7.5c-.5 1.1-.9 2.3-1.2 3.4-.4 1.2-.7 2.2-.9 3.2.9-.6 1.8-1.4 2.6-2.2.8-.9 1.6-1.7 2.3-2.5 1.3-1.5 2.2-2.8 2.8-3.9s1-2.1 1.1-2.8c.1-.4.1-.8 0-1-.1-.3-.2-.5-.4-.6s-.4-.2-.7-.1c-.3 0-.6.2-1 .4-.5.3-1 .7-1.5 1.2s-.9 1-1.3 1.6-.7 1.1-1.1 1.8c-.2.3-.5.9-.7 1.5z"/><path d="m86.9 21.8c-.4.6-.8 1.2-1.2 1.9-.4.6-.9 1.2-1.5 1.6-.3.3-.6.5-1 .6s-.7.1-1.1-.2c-.5-.3-.8-.9-.9-1.7s-.1-1.7.2-2.8c-.2.3-.5.6-.9.9s-.7.5-1.1.6-.7.1-1.1 0-.7-.3-.9-.8c-.2-.3-.3-.7-.3-1.1s0-.8.1-1.1c.1-.4.3-.7.5-1.1.2-.3.5-.6.7-.9.3-.3.6-.5 1-.7s.7-.3 1.1-.4.8 0 1.1.1c.4.1.7.3 1 .6.1-.2.2-.4.4-.5s.4-.1.5 0c.2 0 .3.1.4.2s.2.2.1.3v.9c-.2.4-.3.9-.5 1.5s-.4 1.2-.5 1.7c-.1.6-.3 1.2-.3 1.7-.1.6-.1 1 0 1.5 0 .3.1.5.2.6s.2.2.4.2c.1 0 .3 0 .4-.1.2-.1.3-.2.5-.3.5-.4 1-1 1.5-1.6s.8-1.3 1.2-1.8l.5-.9s0 0 0-.1c0 0 0 0 .1-.1 0 0 .1-.1.2-.1s.1.1.1.2zm-4.3-3.9c-.3-.4-.6-.6-.9-.7s-.6 0-.9.1-.6.3-.8.6c-.3.3-.5.6-.7.9-.3.5-.5 1-.6 1.6-.1.7-.1 1.2.1 1.5s.5.4.8.4.7-.2 1.1-.6.8-.9 1.1-1.5c.3-.8.5-1.6.8-2.3z"/><path d="m91.2 18.8c.1-.1.2-.1.4-.1s.4.2.6.4c.3.4.5 1.2.6 2.2s0 2.3-.1 3.6c.7-.8 1.3-1.5 1.8-2.3s.8-1.5 1.1-2.1l.1-.1c0-.1.1-.1.2-.1s.1.1.1.2c-.3.8-.7 1.6-1.3 2.4-.5.8-1.2 1.6-2.1 2.5-.1.8-.2 1.6-.4 2.5s-.4 1.8-.6 2.7-.5 1.8-.9 2.7-.8 1.7-1.2 2.5-1 1.4-1.5 2c-.6.6-1.2 1-2 1.4-.5.2-1 .4-1.5.3-.5 0-.8-.1-1.1-.4-.3-.2-.5-.5-.6-1-.1-.4-.1-.9 0-1.4.2-1.2.6-2.2 1.2-3.2s1.3-1.9 2-2.8c.8-.9 1.6-1.7 2.5-2.5s1.7-1.5 2.5-2.2c.1-.4.1-.8.2-1.2s.1-.8.1-1.2c-.2.2-.3.5-.5.7s-.4.4-.7.6c-.2.2-.5.3-.8.4s-.5.1-.8 0c-.5-.2-.9-.6-1.1-1.1-.2-.6-.4-1.2-.4-2 0-.7 0-1.4.1-2.1s.2-1.2.4-1.5c.1-.1.2-.2.3-.3h.5c.2 0 .3.1.5.2.1.1.2.2.1.3-.1.6-.2 1.2-.2 1.7s-.1 1-.1 1.5 0 1 .1 1.4.2.7.4.9.5.2.9 0c.2-.1.5-.3.7-.6.2-.2.4-.5.6-.7.1-.8.1-1.5.1-2.2.1-.5 0-1.3-.2-2zm-.2 7.9s0 .1 0 0c-.1.1-.2.1-.2.2-.8.7-1.6 1.4-2.5 2.2-.8.8-1.6 1.6-2.3 2.4s-1.3 1.7-1.8 2.7c-.5.9-.9 1.9-1 2.9-.1.4-.1.7 0 1 0 .3.1.6.3.8s.4.3.6.4c.3.1.6 0 1-.2.6-.3 1.2-.7 1.7-1.3.5-.5 1-1.2 1.4-1.9s.7-1.4 1.1-2.2c.3-.8.6-1.6.8-2.4s.4-1.6.6-2.4c.1-.8.2-1.5.3-2.2z"/></g></svg>