<svg enable-background="new 0 0 100 100" height="100" viewBox="0 0 100 100" width="100" xmlns="http://www.w3.org/2000/svg"><g fill="#1e4b52"><path d="m15.801 58.64c-.657-.442-1.107-1.037-1.352-1.785-.243-.748-.329-1.569-.255-2.465.073-.896.272-1.822.595-2.779.323-.958.726-1.864 1.207-2.721.481-.855 1.015-1.614 1.599-2.277.583-.663 1.164-1.153 1.742-1.471.396-.215.793-.359 1.19-.434.396-.073.793-.054 1.189.06.396-.147.791-.207 1.182-.179s.773.167 1.147.417c.419.283.717.671.893 1.164s.255 1.052.238 1.675c-.018.623-.122 1.292-.314 2.006-.193.714-.439 1.431-.74 2.15-.3.72-.646 1.426-1.037 2.116-.391.691-.799 1.332-1.224 1.921-.425.59-.85 1.103-1.275 1.539-.425.437-.824.762-1.198.978-.556.317-1.147.507-1.776.569s-1.233-.1-1.811-.484zm6.732-13.498c.067.022.079.068.034.136-.034.046-.086.057-.153.034l-.034-.034c-.238-.147-.453-.243-.646-.289-.432.17-.876.465-1.335.884-.459.42-.904.91-1.335 1.471-.431.562-.833 1.176-1.206 1.845-.374.669-.692 1.338-.952 2.006-.261.669-.448 1.315-.562 1.938s-.119 1.179-.017 1.666c.102.521.34.924.714 1.207s.833.374 1.377.271c.057-.022.096 0 .119.068 0 .079-.028.119-.085.119-.601.124-1.108.028-1.521-.289-.414-.317-.684-.766-.808-1.344-.103-.486-.1-1.042.009-1.666.107-.623.286-1.269.535-1.938s.558-1.335.927-1.997c.368-.663.765-1.281 1.189-1.854s.861-1.076 1.31-1.513c.447-.437.881-.757 1.3-.961-.158-.022-.337 0-.535.068-.198.067-.396.158-.595.271s-.386.232-.562.357-.32.232-.434.323c-.532.441-1.04 1.006-1.521 1.691s-.909 1.414-1.283 2.185-.678 1.556-.909 2.354c-.232.799-.372 1.538-.417 2.218-.022.363-.014.743.025 1.14.04.396.119.779.238 1.147s.286.711.502 1.028c.215.317.492.578.833.782.237.146.459.249.662.306.204.057.408.076.612.06s.411-.065.621-.145c.209-.079.427-.187.654-.323.362-.204.75-.519 1.164-.943s.827-.927 1.241-1.504c.414-.578.811-1.204 1.19-1.879.379-.674.719-1.365 1.02-2.074.3-.708.547-1.411.739-2.107.193-.697.304-1.346.332-1.947s-.04-1.139-.204-1.614c-.165-.477-.445-.851-.842-1.122-.306-.204-.615-.329-.927-.374-.312-.046-.632-.022-.96.067.079.034.155.068.229.103.073.034.145.079.212.136.015.001.032.013.055.036z"/><path d="m29.843 51.517c-.022.17-.051.337-.085.501-.034.165-.068.317-.103.459-.033.143-.064.264-.093.366-.028.102-.049.176-.06.221-.034.113-.083.301-.145.561-.063.262-.122.542-.179.842-.057.301-.097.595-.119.884s-.006.521.051.697.17.261.341.255c.17-.005.413-.145.73-.416.352-.307.66-.651.927-1.037.266-.386.513-.782.739-1.19.057-.09.113-.189.17-.297s.113-.213.17-.314l.051-.085c.012-.034.057-.054.137-.06.079-.006.096.042.051.145l-.408.748c-.227.407-.476.807-.748 1.198-.271.391-.589.739-.952 1.045-.124.114-.261.219-.407.314-.147.097-.298.168-.451.213-.152.046-.306.054-.459.025-.152-.028-.297-.121-.434-.28-.181-.192-.286-.476-.314-.85s-.014-.833.043-1.378c-.103.159-.219.318-.349.477-.131.159-.272.295-.425.408s-.317.195-.493.246-.36.049-.553-.009c-.227-.067-.399-.203-.519-.407s-.201-.442-.246-.715c-.045-.271-.057-.563-.034-.875s.063-.614.119-.909.121-.567.195-.816c.073-.249.139-.447.195-.595.034-.091.104-.147.213-.17.107-.022.218-.025.331-.009s.21.051.289.102c.079.052.107.111.085.179-.022.057-.073.213-.152.468-.08.255-.153.544-.222.867-.067.323-.122.657-.161 1.003-.04.346-.031.644.025.893.057.295.167.462.331.501.165.04.341.009.527-.093.188-.103.362-.244.527-.426.164-.181.28-.351.349-.51.011-.068.033-.179.067-.331.034-.153.074-.332.119-.536s.091-.413.136-.629c.046-.215.079-.413.103-.595.011-.079.079-.153.204-.221.124-.068.255-.111.391-.128s.258-.006.365.034c.11.039.152.115.13.229z"/><path d="m33.634 55.324c-.034-.328-.023-.69.033-1.088.057-.396.137-.782.238-1.156.103-.374.21-.719.323-1.036s.204-.562.271-.731c.08-.182.134-.337.162-.468.028-.13.022-.261-.018-.391-.039-.13-.121-.267-.246-.408s-.295-.309-.51-.501c-.08.283-.168.563-.264.841-.097.278-.207.559-.331.842-.125.295-.27.606-.434.935-.165.329-.326.646-.485.952l-.051.103c-.022.045-.063.054-.119.025s-.073-.071-.051-.128c.17-.328.337-.66.502-.994.164-.334.314-.666.45-.995.125-.282.24-.574.349-.875.107-.3.195-.587.264-.858-.17-.182-.317-.399-.442-.654s-.142-.508-.051-.757c.057-.181.161-.295.314-.34s.292.012.416.17c.079.091.125.224.137.399.011.176 0 .377-.034.604.17.159.356.306.561.442.204.136.389.283.553.441.164.159.289.338.374.536s.094.438.025.722c-.091.397-.224.839-.399 1.326s-.32.986-.434 1.496c-.034.17-.065.428-.094.773s-.017.666.034.961.153.501.307.62c.152.119.394.037.722-.246.352-.307.66-.651.927-1.037s.519-.782.757-1.19l.323-.611.051-.085c.011-.034.057-.054.136-.06s.097.042.051.145l-.407.748c-.228.407-.477.807-.748 1.198-.272.391-.59.739-.952 1.045-.261.228-.517.383-.766.468s-.473.097-.671.034-.369-.195-.51-.399c-.142-.205-.23-.478-.263-.818zm-.069-7.309c.057.238.164.447.323.629.022-.192.014-.354-.025-.484-.04-.13-.085-.224-.137-.28-.051-.057-.096-.074-.136-.052-.039.023-.047.084-.025.187z"/><path d="m53.608 44.343c0 .067-.028.102-.085.102-.079 0-.118-.034-.118-.102-.058-.283-.228-.493-.511-.629-.192-.103-.407-.162-.646-.179-.238-.018-.474-.003-.706.042-.232.046-.45.119-.654.222-.204.102-.362.221-.476.356-.182.193-.323.428-.425.706-.103.277-.182.598-.238.96.646-.124 1.323-.161 2.031-.11s1.374.28 1.998.688c.544.374.979.811 1.309 1.309.328.499.555 1.021.68 1.564s.156 1.085.094 1.623c-.063.539-.21 1.032-.442 1.479-.232.448-.547.822-.943 1.122-.396.301-.861.484-1.394.553-.34.045-.714.051-1.122.017s-.773-.124-1.097-.271-.569-.363-.739-.646-.193-.657-.068-1.122c.022-.068.063-.085.119-.051.068.022.091.068.068.136-.113.408-.085.742.085 1.003s.408.457.714.587.643.192 1.012.187c.368-.005.699-.076.994-.212.419-.193.771-.465 1.054-.816s.496-.745.638-1.182c.142-.436.21-.897.204-1.385s-.091-.964-.255-1.429c-.164-.464-.411-.903-.739-1.317-.329-.413-.743-.768-1.241-1.063-.477-.283-.975-.453-1.496-.51s-1.021-.028-1.496.085c-.068.419-.131.836-.187 1.249-.058.414-.114.831-.171 1.25-.102.771-.209 1.563-.322 2.38s-.253 1.626-.417 2.431c-.164.806-.362 1.576-.595 2.313s-.516 1.405-.85 2.006c-.335.601-.726 1.116-1.174 1.547-.447.431-.966.731-1.555.901-.511.146-1.058.204-1.641.17-.584-.034-1.147-.176-1.691-.425-.352-.17-.663-.377-.936-.621-.271-.243-.471-.513-.595-.808-.023-.057-.046-.116-.068-.178-.022-.063-.045-.122-.067-.179 0-.068.022-.103.067-.103.091 0 .137.028.137.085.033.137.073.238.118.307.125.271.309.519.553.739s.535.41.876.569c.714.329 1.359.468 1.938.417.578-.052 1.094-.247 1.547-.587s.855-.79 1.207-1.352c.352-.561.657-1.184.918-1.87s.481-1.402.663-2.15.334-1.473.459-2.176.227-1.36.307-1.972c.079-.612.142-1.116.187-1.514.057-.408.107-.802.153-1.182.045-.379.096-.739.152-1.079.068-.453.164-.864.289-1.232s.301-.683.527-.943.516-.465.867-.612.793-.221 1.326-.221c.17 0 .354.02.552.06s.392.104.578.195c.188.091.349.207.484.349.137.142.222.315.255.519z"/><path d="m59.201 56.311c-.192-.204-.306-.499-.34-.884-.034-.386-.025-.796.025-1.232s.125-.873.221-1.31c.097-.436.176-.815.238-1.139s.088-.556.076-.697c-.011-.142-.102-.139-.271.009-.17.159-.36.422-.569.79-.21.369-.417.769-.621 1.199s-.388.853-.552 1.266c-.165.414-.281.74-.349.978 0 .012-.012.029-.034.052-.046.045-.091.039-.136-.018-.17-.181-.298-.351-.383-.51-.085-.158-.142-.312-.17-.459s-.037-.298-.025-.45c.011-.153.028-.32.051-.502.113-.884.249-1.802.408-2.754.158-.952.368-1.89.629-2.813s.592-1.808.994-2.652.915-1.601 1.539-2.27c.419-.453.847-.759 1.283-.918.437-.158.813-.181 1.131-.067.316.113.532.362.646.748.113.385.057.9-.17 1.547-.159.453-.36.927-.604 1.419-.244.493-.521.989-.833 1.488-.312.498-.638.988-.978 1.47s-.683.93-1.028 1.344c-.346.413-.68.787-1.003 1.122-.323.334-.615.604-.876.807l-.237 1.854-.085.578c.146-.374.306-.771.476-1.19s.362-.821.578-1.207c.158-.283.328-.561.51-.833.182-.271.402-.493.663-.663.295-.192.55-.234.765-.127.216.107.323.359.323.756 0 .193-.017.397-.051.612-.034.216-.071.42-.11.612-.04.192-.08.362-.119.51-.04.147-.065.244-.076.289-.034.113-.083.301-.145.561-.063.262-.122.542-.179.842-.057.301-.097.595-.119.884s-.006.521.051.697.17.261.34.255c.17-.005.414-.145.731-.416.351-.307.66-.651.927-1.037.266-.386.513-.782.739-1.19.057-.09.113-.189.17-.297s.113-.213.17-.314l.051-.085c.012-.034.057-.054.137-.06.079-.006.096.042.051.145l-.408.748c-.227.407-.479.807-.757 1.198-.277.391-.592.739-.943 1.045-.125.114-.261.219-.408.314-.147.097-.297.168-.45.213-.153.046-.306.054-.459.025s-.299-.124-.435-.283zm-1.648-4.744c.374-.317.807-.762 1.3-1.334s.983-1.201 1.471-1.888c.487-.686.94-1.399 1.36-2.142.419-.742.736-1.437.952-2.083.181-.555.237-.997.17-1.325-.068-.329-.216-.536-.442-.621s-.507-.048-.842.11c-.334.159-.671.448-1.011.867-.284.352-.547.76-.791 1.225s-.471.96-.68 1.487c-.21.526-.395 1.068-.553 1.623-.159.556-.304 1.097-.434 1.624-.13.526-.238 1.025-.323 1.496-.085.47-.15.887-.195 1.249z"/><path d="m69.282 53.047c-.238.453-.575.821-1.012 1.104s-.893.414-1.368.392c-.079.158-.167.303-.264.433-.097.131-.195.253-.298.366-.181.192-.385.34-.611.441-.228.103-.454.165-.681.188s-.453.008-.68-.043-.431-.145-.612-.28c-.261-.181-.467-.419-.62-.714s-.255-.609-.306-.943c-.052-.334-.054-.669-.009-1.003.045-.335.142-.638.289-.91-.193-.419-.227-.827-.103-1.224.125-.396.338-.723.638-.978.301-.255.657-.408 1.071-.459.413-.051.813.054 1.198.314.352.261.635.572.851.935.215.363.365.751.45 1.165s.11.839.076 1.275-.13.847-.289 1.232c.204.011.405-.018.604-.085.198-.068.386-.162.562-.281s.337-.258.484-.416c.147-.159.283-.329.408-.51.034-.057.085-.082.152-.077.07.007.093.032.07.078zm-5.899-1.36c.057-.057.116-.04.179.051s.119.204.17.34c.052.137.091.275.119.417s.037.235.025.28c.363.396.802.739 1.317 1.028s1.046.462 1.59.519c.158-.374.261-.768.306-1.182.046-.413.026-.818-.06-1.215-.085-.396-.229-.771-.433-1.122-.204-.352-.477-.651-.816-.901-.329-.238-.663-.34-1.003-.306s-.641.155-.901.365-.456.484-.586.824c-.131.34-.15.703-.06 1.088zm.442 1.342c-.012.17-.009.357.009.562.017.204.051.407.102.611s.119.399.204.587c.085.187.189.349.314.484.136.147.283.246.442.298.158.051.317.065.476.042.159-.022.312-.073.459-.152.147-.08.283-.182.408-.307.091-.091.176-.189.255-.297s.147-.219.204-.332c-.533-.068-1.052-.24-1.556-.519-.503-.277-.943-.603-1.317-.977z"/><path d="m61.938 49.137c.068-.295.216-.572.442-.833.453-.544.997-.912 1.632-1.105.635-.192 1.298-.277 1.989-.255.691.023 1.388.116 2.091.28.702.165 1.349.332 1.938.502l.238-.867c.011-.057.07-.096.179-.119.107-.022.218-.025.331-.008s.216.045.307.085c.09.039.13.088.118.145l-.221 1.036c.465.125.966.235 1.505.332.538.097 1.067.15 1.589.161.521.012 1.015-.042 1.479-.161s.855-.337 1.173-.654c.192-.193.312-.38.357-.562.045-.181.033-.354-.034-.519-.068-.164-.182-.314-.34-.45-.159-.136-.347-.249-.562-.34-.204-.091-.434-.159-.688-.204s-.51-.065-.765-.06-.499.042-.731.11-.434.17-.604.306c-.045.046-.091.043-.136-.008-.046-.051-.012-.134.102-.247.091-.079.229-.146.417-.204.187-.056.399-.093.638-.11.237-.017.484-.014.739.009s.49.068.705.136c.715.25 1.15.556 1.31.918.158.363.121.714-.11 1.055-.232.34-.627.632-1.182.875-.556.244-1.196.365-1.921.365-.499 0-1.003-.036-1.514-.11-.51-.073-1.009-.167-1.496-.28-.067.317-.13.609-.187.876-.057.266-.113.563-.17.892s-.119.712-.188 1.147c-.067.437-.152.983-.255 1.641-.045.317-.085.627-.119.927-.033.301-.062.581-.085.842-.022.261-.033.496-.033.705 0 .21.011.383.033.519.034.227.134.36.298.399.164.04.428-.099.791-.416.362-.307.677-.651.943-1.037s.513-.782.739-1.19c.057-.09.113-.189.17-.297s.113-.213.17-.314c.022-.023.034-.052.034-.085.022-.034.073-.054.153-.06.079-.006.09.042.033.145-.057.124-.118.249-.187.374-.068.124-.136.249-.204.374-.238.407-.493.807-.765 1.198s-.59.739-.952 1.045c-.125.114-.258.219-.399.314-.143.097-.289.168-.442.213-.153.046-.306.054-.459.025s-.298-.121-.434-.28c-.136-.136-.235-.332-.297-.587-.063-.255-.1-.544-.111-.866-.011-.323-.005-.672.018-1.046s.062-.754.119-1.139c.067-.556.136-1.049.204-1.479.067-.431.133-.824.195-1.182.062-.356.127-.686.195-.985.068-.301.142-.604.221-.91-.17-.045-.331-.09-.484-.136-.153-.045-.304-.091-.45-.136-.477-.125-.927-.247-1.352-.366-.425-.118-.824-.206-1.198-.263-.329-.046-.675-.06-1.037-.043-.363.018-.72.071-1.071.162s-.686.227-1.003.407c-.317.182-.589.408-.816.681-.204.237-.34.481-.407.73z"/><path d="m79.482 53.047c-.238.453-.575.821-1.012 1.104s-.893.414-1.368.392c-.079.158-.167.303-.264.433-.097.131-.195.253-.298.366-.181.192-.385.34-.611.441-.228.103-.454.165-.681.188s-.453.008-.68-.043-.431-.145-.612-.28c-.261-.181-.467-.419-.62-.714s-.255-.609-.306-.943c-.052-.334-.054-.669-.009-1.003.045-.335.142-.638.289-.91-.193-.419-.227-.827-.103-1.224.125-.396.338-.723.638-.978.301-.255.657-.408 1.071-.459.413-.051.813.054 1.198.314.352.261.635.572.851.935.215.363.365.751.45 1.165s.11.839.076 1.275-.13.847-.289 1.232c.204.011.405-.018.604-.085.198-.068.386-.162.562-.281s.337-.258.484-.416c.147-.159.283-.329.408-.51.034-.057.085-.082.152-.077.07.007.093.032.07.078zm-5.899-1.36c.057-.057.116-.04.179.051s.119.204.17.34c.052.137.091.275.119.417s.037.235.025.28c.363.396.802.739 1.317 1.028s1.046.462 1.59.519c.158-.374.261-.768.306-1.182.046-.413.026-.818-.06-1.215-.085-.396-.229-.771-.433-1.122-.204-.352-.477-.651-.816-.901-.329-.238-.663-.34-1.003-.306s-.641.155-.901.365-.456.484-.586.824c-.131.34-.15.703-.06 1.088zm.442 1.342c-.012.17-.009.357.009.562.017.204.051.407.102.611s.119.399.204.587c.085.187.189.349.314.484.136.147.283.246.442.298.158.051.317.065.476.042.159-.022.312-.073.459-.152.147-.08.283-.182.408-.307.091-.091.176-.189.255-.297s.147-.219.204-.332c-.533-.068-1.052-.24-1.556-.519-.503-.277-.943-.603-1.317-.977z"/><path d="m81.54 55.205c.011.329-.018.635-.085.918-.068.284-.204.55-.408.8-.136.158-.323.286-.562.382-.237.097-.473.145-.705.145s-.431-.062-.595-.187-.241-.323-.229-.595c.022-.228.102-.408.237-.545.137-.136.295-.249.477-.34.192-.09.368-.173.526-.246.159-.073.317-.139.477-.195-.012-.307-.051-.606-.119-.901s-.139-.581-.213-.858c-.073-.277-.145-.547-.212-.808-.068-.261-.108-.51-.119-.748l-.527 1.021-.051.102c-.022.046-.063.054-.119.025s-.073-.07-.051-.127c.125-.25.255-.505.391-.766.137-.261.261-.521.374-.782.046-.158.116-.303.213-.433.096-.131.235-.235.416-.314.103-.046.179-.012.229.102.052.113.054.21.009.289-.034.271-.025.563.025.875.052.313.116.633.195.961.08.329.159.663.238 1.003s.136.669.17.986c.442-.227.811-.516 1.105-.867.294-.352.555-.726.782-1.122l.051-.085c.022-.068.067-.079.136-.034.057.034.068.079.034.136-.25.477-.541.898-.876 1.267-.333.367-.738.681-1.214.941zm-.885.341c-.328.147-.601.271-.815.374-.216.102-.38.215-.493.34-.113.136-.17.274-.17.416s.037.261.11.357.176.15.306.161c.131.012.27-.051.417-.187.204-.193.362-.42.476-.681.113-.259.169-.519.169-.78z"/></g></svg>