<svg enable-background="new 0 0 100 31.7" viewBox="0 0 100 31.7" xmlns="http://www.w3.org/2000/svg"><g fill="#1e4b52"><path d="m11.6 22.5c-.7-.4-1.1-1-1.4-1.8-.2-.7-.3-1.6-.3-2.5.1-.9.3-1.8.6-2.8s.7-1.9 1.2-2.7c.5-.9 1-1.6 1.6-2.3.7-.6 1.3-1.1 1.8-1.4.4-.2.8-.4 1.2-.4.4-.1.8-.1 1.2.1.4-.1.8-.2 1.2-.2s.8.2 1.1.4c.4.3.7.7.9 1.2s.3 1.1.2 1.7c0 .6-.1 1.3-.3 2s-.4 1.4-.7 2.2c-.3.7-.6 1.4-1 2.1s-.8 1.3-1.2 1.9-.9 1.1-1.3 1.5-.8.8-1.2 1c-.6.3-1.1.5-1.8.6s-1.2-.2-1.8-.6zm6.7-13.5c.1 0 .1.1 0 .1 0 0-.1.1-.2 0-.2-.1-.5-.2-.6-.3-.4.2-.9.5-1.3.9-.5.4-.9.9-1.3 1.5s-.8 1.2-1.2 1.8c-.4.7-.7 1.3-1 2s-.4 1.3-.6 1.9-.1 1.2 0 1.7.3.9.7 1.2.8.4 1.4.3c.1 0 .1 0 .1.1s0 .1-.1.1c-.6.1-1.1 0-1.5-.3s-.7-.8-.8-1.3-.1-1 0-1.7c.1-.6.3-1.3.5-1.9s.6-1.3.9-2c.4-.7.8-1.3 1.2-1.9s.9-1.1 1.3-1.5.9-.8 1.3-1c-.2 0-.3 0-.5.1s-.4.2-.6.3-.4.2-.6.4-.3.2-.4.3c-.5.4-1 1-1.5 1.7s-.9 1.4-1.3 2.2-.7 1.6-.9 2.4-.4 1.5-.4 2.2v1.1c0 .4.1.8.2 1.1s.3.7.5 1 .5.6.8.8c.2.1.5.2.7.3s.4.1.6.1.4-.1.6-.1c.2-.1.4-.2.7-.3.4-.2.8-.5 1.2-.9s.8-.9 1.2-1.5.8-1.2 1.2-1.9.7-1.4 1-2.1.5-1.4.7-2.1.3-1.3.3-1.9 0-1.1-.2-1.6-.4-.9-.8-1.1c-.3-.2-.6-.3-.9-.4-.3 0-.6 0-1 .1.1 0 .2.1.2.1.2-.2.3-.1.4 0 0-.1 0 0 0 0z"/><path d="m25.6 15.3c0 .2-.1.3-.1.5s-.1.3-.1.5c0 .1-.1.3-.1.4s0 .2-.1.2c0 .1-.1.3-.1.6 0 .2-.1.5-.1.8-.1.3-.1.6-.1.9s0 .5.1.7.2.3.3.3c.2 0 .4-.1.7-.4.4-.3.7-.7.9-1 .3-.4.5-.8.7-1.2.1-.1.1-.2.2-.3s.1-.2.2-.3l.1-.1s.1-.1.1-.1c.1 0 .1 0 .1.1l-.4.7c-.2.4-.5.8-.7 1.2-.3.4-.6.7-1 1-.1.1-.3.2-.4.3s-.3.2-.5.2-.3.1-.5 0c-.2 0-.3-.1-.4-.3-.2-.2-.3-.5-.3-.8s0-.8 0-1.4c-.1.2-.2.3-.3.5s-.3.3-.4.4-.4.3-.6.3-.4 0-.6 0c-.2-.1-.4-.2-.5-.4s-.2-.4-.2-.7-.1-.6 0-.9.1-.6.1-.9.1-.6.2-.8.1-.4.2-.6c0-.1.1-.1.2-.2h.3s.2.1.3.1c.1.1.1.1.1.2s-.1.2-.2.5-.2.5-.2.9c-.1.3-.1.7-.2 1v.9c.1.3.2.5.3.5.2 0 .3 0 .5-.1s.4-.2.5-.4c.2-.2.3-.4.3-.5s0-.2.1-.3c0-.2.1-.3.1-.5s.1-.4.1-.6.1-.4.1-.6c0-.1.1-.2.2-.2.1-.1.3-.1.4-.1s.3 0 .4 0c.3-.1.4-.1.3 0z"/><path d="m29.4 19.2c0-.3 0-.7 0-1.1.1-.4.1-.8.2-1.2s.2-.7.3-1 .2-.6.3-.7c.1-.2.1-.3.2-.5 0-.1 0-.3 0-.4s-.1-.3-.2-.4-.3-.3-.5-.5c-.1.3-.2.6-.3.8-.1.3-.2.6-.3.8-.1.3-.3.6-.4.9-.2.3-.3.6-.5 1l-.1.1s-.1.1-.1 0-.1-.1-.1-.1c.2-.3.3-.7.5-1s.3-.7.5-1c.1-.3.2-.6.3-.9s.2-.6.3-.9c-.2-.2-.3-.4-.4-.7s-.1-.5-.1-.8c.1-.2.2-.3.3-.3s.3 0 .4.2c.1.1.1.2.1.4v.6c.2.2.4.3.6.4s.4.3.6.4c.2.2.3.3.4.5s.1.4 0 .7c-.1.4-.2.8-.4 1.3s-.3 1-.4 1.5c0 .2-.1.4-.1.8s0 .7 0 1 .2.5.3.6c.2.1.4 0 .7-.2.4-.3.7-.7.9-1s.5-.8.8-1.2l.3-.6.1-.1s.1-.1.1-.1.1 0 .1.1l-.4.7c-.2.4-.5.8-.7 1.2-.3.4-.6.7-1 1-.3.2-.5.4-.8.5s-.5.1-.7 0-.4-.2-.5-.4c-.1.2-.2-.1-.3-.4zm0-7.4c.1.2.2.4.3.6 0-.2 0-.4 0-.5s-.1-.2-.1-.3c-.1-.1-.1-.1-.1-.1-.2.2-.2.2-.1.3z"/><path d="m56.5 6.1c-.1 0-.1.1-.1.1s-.1.1-.1.1c-.3.2-.5.6-.8 1-.2.4-.5.9-.7 1.4-.3.8-.6 1.6-.8 2.4s-.5 1.7-.7 2.5-.4 1.7-.6 2.5-.5 1.7-.8 2.5c-.1.3-.3.6-.5 1s-.4.7-.7.9c-.2.2-.4.3-.7.4s-.6.1-.9 0-.6-.4-.8-.8c-.2-.2-.3-.5-.4-.8s-.2-.6-.2-.9c0 .1-.1.1-.1.1s-.1.1-.1.1c-.1.2-.3.4-.5.6s-.4.3-.6.5c-.2.1-.5.1-.7.1s-.5-.2-.8-.4c-.3-.3-.5-.6-.6-1.1-.1-.4-.2-.9-.1-1.4 0-.5 0-1 .1-1.4.1-.5.1-.8.2-1.1.1-.7.2-1.3.2-2 .1-.6.1-1.2 0-1.8-.1-.5-.3-.9-.5-1.3s-.5-.7-.8-.9c-.4-.3-.8-.5-1.2-.6s-.8-.2-1.2-.1c-.4 0-.8.1-1.2.2s-.8.3-1.1.5-.6.5-.8.7c-.4.5-.7 1.1-.7 1.7-.1.5 0 1 .1 1.5.2.5.4 1 .7 1.4s.7.8 1.2 1.1 1 .4 1.5.5c.5 0 .9-.1 1.2-.3s.6-.5.8-.9.3-.8.3-1.3 0-.9-.1-1.4-.3-.9-.5-1.2c-.1-.2-.4-.5-.7-.7-.1-.1-.1-.1-.1-.2s0-.1.1 0c.4.2.7.5.9.9s.4.8.5 1.3.1 1 .1 1.5-.2.9-.4 1.4c-.2.4-.5.7-.8 1s-.8.4-1.3.3c-.6 0-1.1-.2-1.6-.5s-.9-.7-1.2-1.1-.6-1-.7-1.5c-.2-.6-.3-1.1-.2-1.6.1-.7.3-1.2.7-1.8.3-.3.7-.6 1.2-.9s1-.5 1.6-.6 1.2-.2 1.8-.2 1.1.2 1.6.4c.3.2.6.4.9.7s.5.7.7 1.1c0 .1.1.3.1.4.1.1.1.3.1.4.1.6.1 1.2 0 1.8-.1.7-.1 1.3-.2 2 0 .3-.1.7-.2 1.1s-.1.9-.1 1.4 0 .9.1 1.4c.1.4.2.8.4 1.1.1.2.3.3.5.3s.3-.1.5-.2.3-.3.5-.4.2-.3.3-.4c.1-.2.2-.3.3-.5 0-.2-.1-.6-.1-1s-.1-.9-.1-1.4 0-1 .1-1.5c0-.5.1-1 .3-1.4.1-.4.3-.8.6-1 .2-.3.5-.4.9-.4.2 0 .3 0 .4.1s.2.2.2.3.1.3.1.4v.4c0 .2-.1.5-.1.7s-.1.5-.2.7-.1.5-.2.6c-.1.2-.1.3-.1.4-.1.3-.3.7-.4 1s-.3.7-.5 1c0 .2.1.5.1.8.1.3.1.7.2 1s.2.7.3 1 .3.6.4.7c.2.1.3.2.5.2s.3-.1.5-.2.3-.3.4-.5.2-.4.3-.6.2-.4.3-.6.1-.3.1-.4c.3-.8.5-1.6.8-2.4.2-.8.4-1.7.7-2.5.2-.8.4-1.7.7-2.5.2-.8.5-1.6.8-2.4.2-.5.4-1 .7-1.5.2-.4.5-.8.7-1 .2-.1.3-.2.5-.3zm-8 10.6c.2-.5.4-1.1.6-1.7.2-.5.3-1 .4-1.5s.2-.9.2-1.2c0-.1 0-.1 0-.2s0-.2 0-.2c0-.1 0-.1-.1-.2 0 0-.1 0-.2 0s-.1.1-.2.1-.1.1-.2.2c-.2.2-.4.6-.5 1.2s-.2 1.2-.2 1.9v.8c.2.3.2.5.2.8z"/><path d="m54.5 17.7c0-.3 0-.7.1-1s.3-.7.5-1 .5-.5.8-.7.7-.3 1.1-.4h.6c.2 0 .3.1.4.2s.1.2.1.3-.1.3-.2.5-.3.3-.4.5-.4.3-.6.4-.4.2-.6.3-.4.1-.6.1c0 .2-.1.3-.1.5v.5s.1.4.1.5c.1.2.2.3.3.4.3.3.7.4 1 .3s.7-.3 1-.6c.2-.2.4-.5.6-.8s.3-.6.5-.9c0-.1.1-.1.2-.1s.1 0 .1.1c-.2.3-.3.6-.5.9s-.4.6-.7.8c-.3.3-.7.5-1.1.6s-.8.1-1.1.1c-.4-.1-.7-.3-.9-.6s-.6-.4-.6-.9zm1.1-1.1c.2 0 .4 0 .6-.1s.4-.1.6-.2.4-.2.5-.3c.2-.1.3-.3.4-.4.1-.2.2-.4.2-.5s-.1-.2-.2-.2-.2 0-.4.1-.3.1-.4.2c-.3.2-.5.4-.7.6-.3.2-.5.5-.6.8z"/><path d="m66.8 16.9c-.1.1-.1.3-.2.4s-.1.3-.2.4c-.1.2-.3.5-.4.8-.2.3-.3.5-.5.8s-.4.5-.6.7-.4.4-.7.5c-.4.2-.7.2-1 .1s-.5-.3-.7-.6-.3-.6-.4-.9-.1-.7-.1-1v-.5c-.1.2-.3.3-.5.5s-.4.4-.6.5-.4.3-.6.3-.4 0-.5 0c-.2-.1-.3-.1-.4-.3-.1-.1-.2-.3-.3-.5s-.1-.4-.1-.8c0-.3.1-.6.2-.9s.3-.6.6-.8.6-.4 1-.5c.2-.1.4-.1.7-.1h.8c0-.2.1-.4.1-.6s.1-.4.1-.6c.2-.8.5-1.7.8-2.6s.7-1.7 1.1-2.4.9-1.4 1.5-1.9 1.1-.9 1.8-1c.6-.1 1-.1 1.2.2s.3.6.2 1.2c-.1.5-.3 1.1-.7 1.9-.4.7-1 1.6-1.8 2.6-.2.3-.5.6-.7.8-.3.3-.6.6-.8.9-.3.3-.6.5-.9.8s-.6.5-.9.7c-.1.3-.1.7-.2 1.1-.1.3-.1.7-.1 1.1v1.3c0 .4.1.8.2 1.1s.3.5.4.6c.2.1.3.1.5 0s.4-.2.6-.5c.2-.2.4-.5.6-.7.2-.3.4-.5.5-.8s.3-.5.4-.7.2-.4.3-.6c0 0 0 0 0-.1.2 0 .2 0 .3.1.1-.1.1-.1 0 0zm-4.6-1.8c-.3 0-.6 0-.9.2-.3.1-.5.3-.7.6s-.4.5-.5.8-.2.6-.2.9 0 .5.1.7.2.3.4.3.3 0 .5-.1.3-.2.4-.3.3-.3.4-.4.2-.3.3-.4c0-.9.1-1.6.2-2.3zm2.4-4.9c-.3.7-.6 1.5-.8 2.2s-.4 1.4-.5 2c.6-.4 1.1-.9 1.7-1.4.5-.5 1-1.1 1.5-1.6.8-1 1.4-1.8 1.8-2.5s.6-1.3.7-1.8c0-.3 0-.5 0-.7s-.1-.3-.3-.4c-.1 0-.2 0-.4 0s-.4.1-.6.2c-.4.2-.7.4-1 .8s-.6.6-.8 1-.5.7-.7 1.1-.4.8-.6 1.1z"/><path d="m74.4 16.9c-.1.1-.1.3-.2.4s-.1.3-.2.4c-.1.2-.3.5-.4.8-.2.3-.3.5-.5.8s-.4.5-.6.7-.4.4-.7.5c-.4.2-.7.2-1 .1s-.5-.3-.7-.6-.3-.6-.4-.9-.1-.7-.2-.9v-.5c-.1.2-.3.3-.5.5s-.4.4-.6.5-.4.3-.6.3-.4 0-.5 0c-.2-.1-.3-.1-.4-.3-.1-.1-.2-.3-.3-.5s-.1-.5-.1-.9c0-.3.1-.6.2-.9s.3-.6.6-.8.6-.4 1-.5c.2-.1.4-.1.7-.1h.8c0-.2.1-.4.1-.6s.1-.4.1-.6c.2-.8.5-1.7.8-2.6s.7-1.7 1.1-2.4c.6-.8 1.1-1.4 1.6-2 .6-.5 1.1-.9 1.8-1 .6-.1 1-.1 1.2.2s.3.6.2 1.2c-.1.5-.3 1.1-.7 1.9-.4.7-1 1.6-1.8 2.6-.2.3-.5.6-.7.8-.3.3-.6.6-.8.9-.3.3-.6.5-.9.8s-.6.5-.9.7c-.1.3-.1.7-.2 1.1s-.1.8-.1 1.3v1.3c0 .4.1.8.2 1.1s.3.5.4.6c.2.1.3.1.5 0s.4-.2.6-.5c.2-.2.4-.5.6-.7.2-.3.4-.5.5-.8s.3-.5.4-.7.2-.4.3-.6c0 0 0 0 0-.1.2-.1.2-.1.3 0 0-.1.1-.1 0 0zm-4.6-1.8c-.3 0-.6 0-.9.2-.3.1-.5.3-.7.6s-.4.5-.5.8-.2.6-.2.9 0 .5.1.7.2.3.4.3.3 0 .5-.1.3-.2.4-.3.3-.3.4-.4.2-.3.3-.4c0-.9.1-1.6.2-2.3zm2.4-4.9c-.3.7-.6 1.5-.8 2.2s-.4 1.4-.5 2c.6-.4 1.1-.9 1.7-1.4.5-.5 1-1.1 1.5-1.6.8-1 1.4-1.8 1.8-2.5s.6-1.3.7-1.8c0-.3 0-.5 0-.7s-.1-.3-.3-.4c-.1 0-.3 0-.4 0-.2 0-.4.1-.6.2-.4.2-.7.4-1 .8s-.6.6-.8 1-.5.7-.7 1.1-.4.8-.6 1.1z"/><path d="m76.3 19.9c-.2.2-.4.3-.6.4s-.4.1-.7 0-.5-.2-.6-.4-.2-.5-.3-.8-.1-.7-.1-1c0-.4.1-.7.1-1.1s.1-.7.2-1 .1-.5.2-.7c0-.1.1-.2.2-.2h.3c.1 0 .2 0 .3.1.1 0 .1.1.1.2s-.1.2-.1.5c-.1.2-.1.5-.2.8s-.1.6-.2 1-.1.7-.1 1v.9s.1.4.2.6c.1.1.2.2.4.2s.4-.2.7-.4c.4-.3.7-.7.9-1s.5-.8.7-1.2c.1-.1.1-.2.2-.3s.1-.2.2-.3c0 0 0 0 0-.1 0 0 0 0 0-.1h.1c.1 0 .1.1 0 .2s-.1.2-.2.4c-.1.1-.1.2-.2.4-.2.4-.5.8-.8 1.2 0 0-.3.4-.7.7zm-1-6.1c.2 0 .3 0 .4.1s.2.2.2.3 0 .2-.1.3-.2.1-.4.1-.3 0-.4-.1-.2-.2-.2-.3 0-.3.1-.3c.2-.1.3-.1.4-.1z"/><path d="m81 20.1c-.2-.2-.3-.5-.3-.9s0-.8 0-1.2.1-.9.2-1.3.2-.8.2-1.1.1-.6.1-.7-.1-.1-.3 0c-.2.2-.4.4-.6.8s-.4.8-.6 1.2-.4.9-.6 1.3-.3.7-.3 1v.1h-.1c-.2-.2-.3-.3-.4-.5-.1-.1-.1-.3-.2-.4 0-.1 0-.3 0-.4s0-.3.1-.5c0-.2 0-.4.1-.6 0-.2 0-.4.1-.6 0-.2.1-.4.1-.6s.1-.4.1-.6c0-.1.1-.2.2-.2h.3c.1 0 .2.1.3.1s.1.2.1.2c0 .1 0 .2-.1.4 0 .2-.1.4-.1.6s-.1.5-.1.7-.1.5-.1.7l-.1.5c.1-.4.3-.8.5-1.2s.4-.8.6-1.2c.2-.3.3-.6.5-.8.2-.3.4-.5.7-.7s.6-.2.8-.1.3.4.3.8c0 .2 0 .4-.1.6 0 .2-.1.4-.1.6s-.1.4-.1.5-.1.2-.1.3-.1.3-.1.6c-.1.3-.1.5-.2.8s-.1.6-.1.9 0 .5.1.7.2.3.3.3c.2 0 .4-.1.7-.4.4-.3.7-.7.9-1 .3-.4.5-.8.7-1.2.1-.1.1-.2.2-.3s.1-.2.2-.3l.1-.1s.1-.1.1-.1.1 0 .1.1l-.4.7c-.2.4-.5.8-.8 1.2s-.6.7-.9 1c-.1.1-.3.2-.4.3s-.3.2-.4.2c-.2 0-.3.1-.5 0-.3.1-.5 0-.6-.2z"/><path d="m87.1 15.6s.1 0 0 0c.1-.1.2-.1.2-.1s.1 0 .2 0 .1.1.2.2.2.4.3.7.1.6.2 1 0 .7 0 1.1v1.1c.5-.5.8-.9 1.1-1.4s.5-.9.7-1.3l.1-.1s.1-.1.2-.1.1 0 0 .1c-.2.5-.5 1-.8 1.5s-.8 1-1.3 1.5c0 .5-.1 1-.2 1.6s-.2 1.1-.3 1.7-.3 1.1-.5 1.7-.4 1.1-.7 1.6-.6.9-.9 1.3-.7.7-1.2.9c-.3.1-.6.2-.8.2-.3 0-.6 0-.8-.1-.1-.1-.3-.2-.4-.3-.1-.2-.2-.3-.2-.6-.1-.5 0-1.1.3-1.8.2-.7.6-1.3 1-2 .3-.4.6-.8.9-1.2s.6-.7.9-1 .6-.6 1-.9c.3-.3.6-.5.9-.8 0-.4.1-.8.1-1.1 0-.4 0-.7 0-1-.2.4-.4.8-.7 1-.2.3-.5.5-.8.6s-.5.2-.8.2c-.2 0-.5-.1-.6-.2-.2-.1-.3-.3-.4-.5.1-.1 0-.3 0-.6s0-.5.1-.7c.1-.3.2-.5.4-.8.3-.4.6-.7 1-.9s.8-.4 1.2-.4zm.1 5c-.7.6-1.3 1.1-1.9 1.7s-1.1 1.2-1.6 2c-.4.7-.7 1.3-1 2s-.3 1.2-.3 1.7c0 .2.1.3.1.5s.2.2.3.3c.2.1.5.1.9-.1s.7-.5 1-.8c.3-.4.6-.8.8-1.2s.4-.9.6-1.5c.2-.5.3-1 .4-1.6.1-.5.2-1 .3-1.5.3-.6.4-1.1.4-1.5zm.1-3.1c0-.3 0-.6 0-.8 0-.3-.1-.5-.2-.8-.3.1-.6.2-.9.3s-.5.3-.7.5-.3.4-.5.7c-.1.2-.2.5-.2.7v.7c.1.2.1.3.3.4.1.1.3.1.5.1s.4-.1.6-.2c.3-.2.6-.4.8-.7s.3-.6.3-.9z"/></g></svg>