<svg enable-background="new 0 0 82.5 24" viewBox="0 0 82.5 24" xmlns="http://www.w3.org/2000/svg"><g fill="#1e4b52"><path d="m11.3 9.5s.1-.1.1 0c.1 0 .1.1.1.2-.3.6-.7 1.1-1.2 1.3s-.8.2-1.3.1-.9-.3-1.3-.6-.8-.8-1.1-1.2c-.3-.6-.6-1.1-.7-1.6-.2-.6-.2-1.1-.2-1.7s.3-1 .7-1.4.9-.8 1.6-1c.5-.1 1-.2 1.7-.1.6.1 1.3.2 2 .3s1.3.4 2 .6 1.2.4 1.8.5c.2-.3.5-.5.8-.7s.6-.3.9-.5c.5-.2 1-.3 1.4-.2.4 0 .7.2 1 .3.2.1.4.3.4.6s.1.4-.1.7-.4.4-.7.5-.7.1-1 .1c-.4 0-.7-.1-1.1-.2s-.7-.2-1-.2c-.5.6-.9 1.3-1.2 2.1s-.6 1.6-.8 2.5c-.2.8-.5 1.7-.7 2.5s-.6 1.6-.9 2.3c-.4.7-.9 1.3-1.4 1.9s-1.3.9-2.2 1.1c-.6.1-1.2.2-1.9.1-.6-.1-1.3-.3-1.9-.6s-1-.7-1.4-1.1-.6-.9-.8-1.4-.3-1-.3-1.4c0-.5.1-.9.2-1.3s.4-.8.7-1 .7-.5 1.2-.5c.4-.1.8 0 1.1.1.4.1.7.2 1.1.5s.6.5.9.8c.2.3.4.7.5 1.1 0 .1 0 .1-.1.1s-.1 0-.1-.1c-.1-.4-.2-.7-.5-1-.2-.3-.5-.5-.8-.7s-.6-.3-1-.4-.7-.1-1.1 0c-.5.1-.8.2-1.1.5s-.5.6-.7.9c-.2.4-.2.8-.2 1.2s.1.9.3 1.3.4.9.8 1.2.8.7 1.3 1c.9.5 1.8.7 2.6.6s1.5-.4 2.3-1c.5-.4 1-.9 1.3-1.5s.7-1.2.9-1.9.5-1.4.7-2.1.4-1.5.6-2.2.5-1.4.8-2.1.7-1.3 1.1-1.8c-.5-.1-1.1-.3-1.7-.5s-1.3-.3-2-.5-1.4 0-2 0-1.2 0-1.7.1c-.7.2-1.2.5-1.5.9s-.5.9-.6 1.3c-.1.5 0 1 .1 1.5.2.5.4 1 .7 1.4s.6.8 1 1.1.8.5 1.2.6.8 0 1.3-.2c.4-.2.8-.6 1.1-1.2zm4.9-4.3c.2.1.5.1.9.2.3.1.7.1 1 .1s.7 0 1-.1.5-.2.7-.4c.1-.2.1-.5 0-.7-.2-.2-.4-.3-.8-.4s-.8 0-1.3.2-1 .5-1.5 1.1z"/><path d="m18.6 16.7c-.2-.2-.3-.5-.3-.9s0-.8 0-1.2.1-.9.2-1.3.2-.8.2-1.1.1-.6.1-.7-.1-.1-.3 0c-.2.2-.4.4-.6.8s-.4.8-.6 1.2-.4.9-.6 1.3-.3.7-.3 1v.1h-.1c-.2-.2-.3-.4-.4-.5-.1-.2-.1-.3-.2-.5s0-.3 0-.5 0-.3.1-.5c.1-.9.2-1.8.4-2.8s.4-1.9.6-2.8.6-1.8 1-2.7.9-1.6 1.5-2.3c.4-.5.8-.8 1.3-.9.4-.2.8-.2 1.1-.1s.5.4.6.7c.1.4.1.9-.2 1.5-.2.5-.4.9-.6 1.4s-.5 1-.8 1.5-.6 1-1 1.5-.7.9-1 1.3-.7.8-1 1.1-.6.6-.9.8l-.2 1.9-.1.6c.1-.4.3-.8.5-1.2s.4-.8.6-1.2c.2-.3.3-.6.5-.8.2-.3.4-.5.7-.7s.5-.2.8-.1c.2.1.3.4.3.8 0 .2 0 .4-.1.6 0 .2-.1.4-.1.6s-.1.4-.1.5-.1.2-.1.3-.1.3-.1.6c-.1.3-.1.5-.2.8s-.1.6-.1.9 0 .5.1.7.2.3.3.3c.2 0 .4-.1.7-.4.4-.3.7-.7.9-1 .3-.4.5-.8.7-1.2.1-.1.1-.2.2-.3s.1-.2.2-.3l.1-.1s.1-.1.1-.1c.1 0 .1 0 .1.1l-.5.8c-.2.4-.5.8-.8 1.2s-.6.7-.9 1c-.1.1-.3.2-.4.3s-.3.2-.5.2-.3.1-.5 0-.2 0-.3-.2zm-1.7-4.7c.4-.3.8-.8 1.3-1.3s1-1.2 1.5-1.9.9-1.4 1.4-2.1c.4-.7.7-1.4 1-2.1.2-.6.2-1 .2-1.3-.1-.3-.2-.5-.4-.6s-.5 0-.8.1c-.3.2-.7.4-1 .9-.3.4-.5.8-.8 1.2s-.5 1-.7 1.5-.4 1.1-.6 1.6c-.2.6-.3 1.1-.4 1.6s-.2 1-.3 1.5-.1.9-.2 1.2z"/><path d="m22.1 14.2c0-.3 0-.7.1-1s.3-.7.5-1 .5-.5.8-.7.7-.3 1.1-.4h.6c.2 0 .3.1.4.2s.1.2.1.3-.1.3-.2.5-.3.3-.4.5-.4.3-.6.4-.4.2-.6.3-.4.1-.6.1c0 .2-.1.3-.1.5v.5s.1.4.1.5c.1.2.2.3.3.4.3.3.7.4 1 .3s.7-.3 1-.6c.2-.2.4-.5.6-.8s.3-.6.5-.9c0-.1.1-.1.2-.1s.1 0 .1.1c-.2.3-.3.6-.5.9s-.4.6-.7.8c-.3.3-.7.5-1.1.6s-.8.1-1.1.1c-.4-.1-.7-.3-.9-.6s-.5-.3-.6-.9zm1.2-1c.2 0 .4 0 .6-.1s.4-.1.6-.2.4-.2.5-.3c.2-.1.3-.3.4-.4.1-.2.2-.4.2-.5s-.1-.2-.2-.2-.2 0-.4.1-.3.1-.4.2c-.3.2-.5.4-.7.6-.4.2-.5.5-.6.8z"/><path d="m36.3 14.8c.2-.4.2-.8.3-1.3 0-.5-.1-.9-.2-1.2s-.4-.6-.7-.6c-.3-.1-.7.1-1.1.5v.2.2c0 .6-.1 1.4-.1 2.2s-.2 1.7-.3 2.5-.4 1.6-.7 2.3-.7 1.3-1.2 1.6c-.2.1-.4.3-.5.3-.2.1-.3.1-.4.1s-.2 0-.3 0-.1 0 0-.1c.4-.2.7-.6.9-1s.5-.8.7-1.3.3-1 .4-1.6.2-1.1.3-1.7.1-1.1.2-1.6c0-.5.1-1 .1-1.5 0-.3 0-.6.1-.9 0-.3 0-.5.1-.7.1-.1.2-.1.3-.1h.3.1s.1 0 .1 0l.1.1s.1.1.1.1v.2.2c.4-.3.7-.5 1.1-.5.3-.1.6 0 .8.1s.4.3.6.6.3.5.3.9c.1.3.1.7.1 1s-.1.7-.2 1c.2 0 .4-.1.6-.2s.3-.2.5-.3c.1-.1.3-.2.4-.4s.2-.3.4-.5c0-.1.1-.1.1-.1.1 0 .1.1 0 .1-.2.5-.5.9-.8 1.1s-.7.4-1.2.4c-.1.3-.3.5-.5.7s-.4.3-.7.3-.5 0-.7-.1-.3-.2-.3-.4c0-.1.1-.3.3-.4-.2 0 .1-.1.6-.2zm-.4.7c.1-.1.2-.2.3-.4-.1 0-.2 0-.3.1-.1 0-.2.1-.3.1-.2.1-.3.2-.3.2 0 .1 0 .1.1.2h.3c0-.1.1-.1.2-.2z"/><path d="m40.5 15.7c0-.3 0-.7 0-1.1.1-.4.1-.8.2-1.2s.2-.7.3-1 .2-.6.3-.7c.1-.2.1-.3.2-.5 0-.1 0-.3 0-.4s-.1-.3-.2-.4-.3-.2-.5-.4c-.1.3-.2.6-.3.8-.1.3-.2.6-.3.8-.1.3-.3.6-.4.9-.2.3-.3.6-.5 1l-.1.1s-.1.1-.1 0-.1 0-.1-.1c.2-.3.3-.7.5-1s.3-.7.5-1c.1-.3.2-.6.3-.9s.2-.6.3-.9c-.2-.2-.3-.4-.4-.7s-.2-.3-.1-.6c.1-.2.2-.3.3-.3s.3 0 .4.2c.1.1.1.2.1.4v.6c.2.2.4.3.6.4s.4.3.6.4c.2.2.3.3.4.5s.1.4 0 .7c-.1.4-.2.8-.4 1.3s-.3 1-.4 1.5c0 .2-.1.4-.1.8s0 .7 0 1 .2.5.3.6c.2.1.4 0 .7-.2.4-.3.7-.7.9-1s.5-.8.8-1.2l.3-.6.1-.1s.1-.1.1-.1.1 0 .1.1l-.4.7c-.2.4-.5.8-.7 1.2-.3.4-.6.7-1 1-.3.2-.5.4-.8.5s-.5.1-.7 0-.4-.2-.5-.4c-.2 0-.3-.3-.3-.7zm-.1-7.3c.1.2.2.4.3.6 0-.2 0-.4 0-.5s-.1-.2-.1-.3c-.1-.1-.1-.1-.1-.1-.1.2-.1.2-.1.3z"/><path d="m51 13.5c-.2.5-.6.8-1 1.1s-.9.4-1.3.4c-.1.2-.2.3-.3.4s-.2.3-.3.4c-.2.2-.4.3-.6.4s-.5.2-.7.2-.5 0-.7 0-.4-.1-.6-.3c-.3-.2-.5-.4-.6-.7s-.3-.6-.3-.9c-.1-.3-.1-.7 0-1 0-.3.1-.6.3-.9-.2-.4-.2-.8-.1-1.2s.3-.7.6-1 .7-.4 1.1-.5.8.1 1.2.3c.4.3.6.6.9.9.2.4.4.8.5 1.2s.1.8.1 1.3-.1.8-.3 1.2c.2 0 .4 0 .6-.1s.4-.2.6-.3.3-.3.5-.4c.1-.2.3-.3.4-.5-.1-.1-.1-.1 0 0 0-.1.1-.1 0 0zm-5.9-1.4c.1-.1.1 0 .2.1s.1.2.2.3.1.3.1.4 0 .2 0 .3c.4.4.8.7 1.3 1s1 .5 1.6.5c.2-.4.3-.8.3-1.2s0-.8-.1-1.2-.2-.8-.4-1.1c-.2-.4-.5-.7-.8-.9s-.7-.3-1-.3-.6.2-.9.4-.5.5-.6.8-.2.7-.1 1.1zm.5 1.4v.6c0 .2.1.4.1.6s.1.4.2.6.2.3.3.5c.1.1.3.2.4.3.2.1.3.1.5 0 .2 0 .3-.1.5-.2.1-.1.3-.2.4-.3s.2-.2.3-.3.1-.2.2-.3c-.5-.1-1.1-.2-1.6-.5s-.9-.7-1.3-1z"/><path d="m53.6 14.8c.2-.4.2-.8.3-1.3 0-.5-.1-.9-.2-1.2s-.4-.6-.7-.6c-.3-.1-.7.1-1.1.5v.2.2c0 .6-.1 1.4-.1 2.2s-.2 1.7-.3 2.5-.4 1.6-.7 2.3-.7 1.3-1.2 1.6c-.2.1-.4.3-.5.3-.2.1-.3.1-.4.1s-.2 0-.3 0-.1 0 0-.1c.4-.2.7-.6.9-1s.5-.8.7-1.3.3-1 .4-1.6.2-1.1.3-1.7.1-1.1.2-1.6c0-.5.1-1 .1-1.5 0-.3 0-.6.1-.9 0-.3 0-.5.1-.7.1-.1.2-.1.3-.1h.3.1s.1 0 .1 0l.1.1s.1.1.1.1v.2.2c.4-.3.7-.5 1.1-.5.3-.1.6 0 .8.1s.4.3.6.6.3.5.3.9c.1.3.1.7.1 1s-.1.7-.2 1c.2 0 .4-.1.6-.2s.3-.2.5-.3c.1-.1.3-.2.4-.4s.2-.3.4-.5c0-.1.1-.1.1-.1.1 0 .1.1 0 .1-.2.5-.5.9-.8 1.1s-.7.4-1.2.4c-.1.3-.3.5-.5.7s-.4.3-.7.3-.5 0-.7-.1-.3-.2-.3-.4c0-.1.1-.3.3-.4-.2 0 .1-.1.6-.2zm-.4.7c.1-.1.2-.2.3-.4-.1 0-.2 0-.3.1-.1 0-.2.1-.3.1-.2.1-.3.2-.3.2 0 .1 0 .1.1.2h.3c0-.1.1-.1.2-.2z"/><path d="m62.8 13.5c-.2.5-.6.8-1 1.1s-.9.4-1.4.4c-.1.2-.2.3-.3.4s-.2.3-.3.4c-.2.2-.4.3-.6.4s-.5.2-.7.2-.5 0-.7 0-.4-.1-.6-.3c-.3-.2-.5-.4-.6-.7s-.3-.6-.3-.9c-.1-.3-.1-.7 0-1 0-.3.1-.6.3-.9-.2-.4-.2-.8-.1-1.2s.3-.7.6-1 .7-.4 1.1-.5.8.1 1.2.3c.4.3.6.6.9.9.2.4.4.8.4 1.2s.1.8.1 1.3-.1.8-.3 1.2c.2 0 .4 0 .6-.1s.4-.2.6-.3.3-.3.5-.4c.1-.2.3-.3.4-.5 0-.1.1-.1.2 0 0-.1 0-.1 0 0zm-5.9-1.4c.1-.1.1 0 .2.1s.1.2.2.3.1.3.1.4 0 .2 0 .3c.4.4.8.7 1.3 1s1 .5 1.6.5c.2-.4.3-.8.3-1.2s0-.8-.1-1.2-.2-.8-.4-1.1c-.2-.4-.5-.7-.8-.9s-.7-.3-1-.3-.6.2-.9.4-.5.5-.6.8-.2.7-.1 1.1zm.5 1.4v.6c0 .2.1.4.1.6s.1.4.2.6.2.3.3.5c.1.1.3.2.4.3.2.1.3.1.5 0 .2 0 .3-.1.5-.2.1-.1.3-.2.4-.3s.2-.2.3-.3.1-.2.2-.3c-.5-.1-1.1-.2-1.6-.5s-1-.7-1.3-1z"/><path d="m64.9 15.6c0 .3 0 .6-.1.9s-.2.5-.4.8c-.1.2-.3.3-.6.4-.2.1-.5.1-.7.1s-.4-.1-.6-.2-.2-.3-.2-.6c0-.2.1-.4.2-.5s.3-.2.5-.3.4-.2.5-.2c.2-.1.3-.1.5-.2 0-.3-.1-.6-.1-.9s-.1-.6-.2-.9-.1-.5-.2-.8-.1-.5-.1-.7l-.5 1-.1.1s-.1.1-.1 0-.1-.1-.1-.1c.1-.2.3-.5.4-.8s.3-.5.4-.8c0-.2.1-.3.2-.4s.2-.2.4-.3c.1 0 .2 0 .2.1.1.1.1.2 0 .3v.9c.1.3.1.6.2 1 .1.3.2.7.2 1s.1.7.2 1c.4-.2.8-.5 1.1-.9s.6-.7.8-1.1l.1-.1c0-.1.1-.1.1 0 .1 0 .1.1 0 .1-.2.5-.5.9-.9 1.3-.2.3-.6.6-1.1.8zm-.9.4c-.3.1-.6.3-.8.4s-.4.2-.5.3-.2.3-.2.4 0 .3.1.4.2.2.3.2.3-.1.4-.2c.2-.2.4-.4.5-.7s.2-.6.2-.8z"/><path d="m73 14.2c-.2.4-.5.8-.8 1.2s-.6.8-1 1.1c-.2.2-.4.3-.6.4s-.5 0-.7-.1c-.3-.2-.5-.6-.6-1.1s0-1.1.1-1.8c-.1.2-.3.4-.6.6s-.5.3-.7.4-.5.1-.7 0-.4-.2-.6-.5c-.1-.2-.2-.4-.2-.7 0-.2 0-.5.1-.7s.2-.5.3-.7.3-.4.5-.6.4-.3.6-.5c.2-.1.5-.2.7-.2s.5 0 .7.1.5.2.7.4c.1-.2.1-.3.3-.3h.3s.2.1.3.1c.1.1.1.1.1.2l-.2.4c-.1.3-.2.6-.3 1s-.2.7-.3 1.1-.2.7-.2 1.1-.1.7 0 .9c0 .2.1.3.1.4s.1.1.2.1.2 0 .3-.1.2-.1.3-.2c.3-.3.7-.6 1-1s.5-.8.7-1.2l.3-.6s0 0 0-.1c0 0 .1 0 .2-.1.1 0 .1 0 0 .1zm-2.8-2.5c-.2-.2-.4-.4-.6-.4s-.4 0-.6.1-.4.2-.5.4-.3.4-.4.6c-.2.3-.3.7-.4 1-.1.5-.1.8.1 1 .1.2.3.3.5.3s.5-.1.7-.4c.3-.2.5-.6.7-1 .2-.6.4-1.1.5-1.6z"/><path d="m77.2 14.1c.1-.1.1-.2.2-.3s.1-.2.2-.3 0 0 0-.1h.1s.1 0 .1 0 .1 0 .1 0 0 .1 0 .1l-.4.7c-.1.2-.2.4-.3.6s-.3.5-.4.7c-.2.2-.3.5-.5.7s-.4.4-.6.5-.4.2-.6.2-.4 0-.6-.1-.3-.2-.5-.3c-.1-.1-.2-.3-.3-.5-.1-.4-.2-.8-.3-1.3s0-1 0-1.5.1-1 .2-1.5.2-.9.2-1.3c.1-.5.2-1 .4-1.5.1-.5.3-.9.5-1.4s.4-1 .6-1.5.5-1 .8-1.4.7-.8 1.1-1.2c.4-.3.9-.6 1.4-.8.2-.1.4-.1.6-.2.2 0 .4 0 .6.1s.3.2.4.3c.1.2.2.4.2.7 0 .5-.2 1.1-.6 1.9s-1 1.8-2 2.9c-.2.3-.5.6-.7.9-.3.3-.5.6-.8.9s-.6.5-.9.8-.6.5-.9.7c0 .2-.1.6-.1.9 0 .4-.1.8-.1 1.2v1.2c0 .4.1.7.2 1s.2.5.4.5.4 0 .5-.1c.2-.1.4-.3.6-.6.2-.2.4-.5.6-.8s.3-.5.4-.7c0 .1.1 0 .2-.1zm-2.8-2.5c.6-.4 1.1-.9 1.6-1.4s1-1.1 1.5-1.6c.9-1.1 1.5-2.1 1.9-2.8.4-.8.6-1.5.6-1.9s-.1-.7-.4-.8c-.2-.1-.5 0-.9.1-.5.2-1 .7-1.6 1.5s-1.1 1.8-1.6 3.1c-.3.6-.5 1.2-.7 1.9-.2.6-.3 1.3-.4 1.9z"/></g></svg>