<svg enable-background="new 0 0 100 33.2" viewBox="0 0 100 33.2" xmlns="http://www.w3.org/2000/svg"><g fill="#1e4b52"><path d="m17.5 12.1c.1-.1.1-.1.2-.1.1.1.1.1.1.2-.5 1-1.1 1.7-1.8 2-.7.4-1.4.5-2.1.3-.7-.1-1.4-.5-2.1-1s-1.2-1.2-1.7-1.9c-.5-.6-.9-1.4-1.1-2.3-.3-.9-.4-1.7-.2-2.5.1-.8.5-1.6 1-2.2s1.4-1.2 2.5-1.5c.8-.2 1.7-.3 2.7-.2s2 .3 3.1.5c1 .3 2.1.6 3.1.9s1.9.6 2.8.8c.4-.4.8-.8 1.2-1 .4-.3.9-.5 1.4-.7.8-.3 1.6-.4 2.2-.3s1.2.2 1.6.5c.2.1.4.4.6.7s.1.7-.1 1c-.2.4-.6.7-1.1.8s-1 .2-1.6.1c-.6 0-1.2-.1-1.7-.2-.6-.1-1.1-.2-1.5-.3-.8 1-1.4 2.1-1.9 3.3s-.9 2.5-1.3 3.8-.8 2.6-1.2 4c-.4 1.3-.9 2.5-1.5 3.6s-1.3 2.1-2.2 2.9-2.1 1.4-3.5 1.7c-1 .2-1.9.3-2.9.2s-2-.4-3-1c-.9-.5-1.6-1-2.1-1.7-.6-.7-1-1.4-1.3-2.1-.3-.8-.4-1.5-.4-2.3s.1-1.4.4-2.1c.3-.6.6-1.2 1.1-1.6.4-.4 1.1-.6 1.8-.7.6-.1 1.2-.1 1.8.1.6.1 1.1.4 1.6.7s.9.7 1.3 1.2.7 1.1.8 1.7c0 .1 0 .2-.1.2s-.1 0-.2-.1c-.1-.6-.4-1.1-.7-1.5-.4-.4-.8-.8-1.2-1s-1-.5-1.5-.6-1.1-.1-1.6 0c-.7.1-1.3.4-1.8.8s-.8.9-1.1 1.5c-.2.6-.4 1.2-.3 1.9 0 .7.1 1.4.4 2.1s.7 1.3 1.2 1.9 1.2 1.1 2 1.6c1.5.8 2.8 1.1 4 1s2.4-.7 3.6-1.6c.8-.6 1.5-1.4 2.1-2.3.5-.9 1-1.9 1.4-3s.7-2.2 1-3.3.6-2.3 1-3.4.8-2.2 1.2-3.2c.5-1 1-2 1.7-2.8-.8-.2-1.7-.5-2.7-.8s-2-.5-3-.7-2-.3-3-.4c-1 0-1.9 0-2.6.3-1 .3-1.8.8-2.3 1.4-.6.4-.9 1.1-1 1.8-.1.8 0 1.6.2 2.3.2.8.6 1.5 1.1 2.2s1 1.3 1.6 1.7 1.3.8 1.9.9c.7.1 1.3 0 2-.3.6-.3 1.2-.9 1.7-1.9zm7.6-6.7c.4.1.8.2 1.3.3s1.1.2 1.6.2 1 0 1.5-.1.8-.3 1-.7.2-.8-.1-1.1-.7-.5-1.2-.6c-.6-.1-1.2 0-2 .3-.6.3-1.4.9-2.1 1.7z"/><path d="m25.1 21.9c-.1-.5 0-1.1.1-1.7s.2-1.2.4-1.8.3-1.1.5-1.6.3-.9.4-1.1c.1-.3.2-.5.3-.7 0-.2 0-.4 0-.6-.1-.2-.2-.4-.4-.6s-.5-.5-.8-.8c-.1.4-.3.9-.4 1.3-.2.4-.3.9-.5 1.3-.2.5-.4.9-.7 1.5-.3.5-.5 1-.8 1.5l-.1.2c0 .1-.1.1-.2 0-.1 0-.1-.1-.1-.2.3-.5.5-1 .8-1.6.3-.5.5-1 .7-1.6.2-.4.4-.9.5-1.4.2-.5.3-.9.4-1.3-.3-.3-.5-.6-.7-1s-.2-.8-.1-1.2c.1-.3.3-.5.5-.5s.5 0 .6.3c.1.1.2.3.2.6s0 .6-.1.9c.3.2.6.5.9.7s.6.4.9.7c.3.2.5.5.6.8s.1.7 0 1.1c-.1.6-.3 1.3-.6 2.1s-.5 1.5-.7 2.3c-.1.3-.1.7-.1 1.2s0 1 .1 1.5.2.8.5 1c.2.2.6.1 1.1-.4s1-1 1.4-1.6.8-1.2 1.2-1.9l.5-1 .1-.1c0-.1.1-.1.2-.1s.2.1.1.2l-.6 1.2c-.4.6-.7 1.3-1.2 1.9-.4.6-.9 1.2-1.5 1.6-.4.4-.8.6-1.2.7s-.7.2-1 .1-.6-.3-.8-.6-.3-.8-.4-1.3zm-.1-11.4c.1.4.3.7.5 1 0-.3 0-.6 0-.8-.1-.2-.1-.3-.2-.4s-.1-.1-.2-.1-.1.1-.1.3z"/><path d="m41.3 19.5c-.4.6-.8 1.2-1.2 1.9-.5.6-.9 1.2-1.5 1.7-.3.3-.6.5-1 .6s-.7.1-1.1-.2c-.5-.3-.8-.9-.9-1.7s0-1.8.3-2.8c-.2.3-.5.6-.9.9s-.7.5-1.1.6-.8.1-1.1 0c-.4-.1-.7-.3-.9-.8-.2-.3-.3-.7-.3-1.1s0-.8.1-1.1c.1-.4.3-.7.5-1.1.2-.3.5-.6.7-.9.3-.3.6-.5 1-.7s.7-.3 1.1-.4.8 0 1.1.1c.4.1.7.3 1 .7.1-.2.2-.4.4-.5s.4-.1.5 0 .3.1.4.2.2.2.1.3l-.2.6c-.2.4-.3.9-.5 1.5s-.4 1.2-.5 1.7-.3 1.2-.3 1.7-.1 1 0 1.5c0 .3.1.5.2.6s.2.2.4.2c.1 0 .3 0 .4-.1.2-.1.3-.2.5-.3.5-.4 1-1 1.5-1.6.5-.7.8-1.3 1.2-1.9l.5-1s0 0 0-.1c0 0 0 0 .1-.1 0 0 .1-.1.2-.1s.1.1.1.2zm-4.3-3.9c-.3-.4-.6-.6-.9-.7s-.6 0-.9.1-.6.3-.8.6-.5.6-.7.9c-.3.5-.5 1-.6 1.6-.1.7-.1 1.2.1 1.6.2.3.5.4.8.4s.7-.2 1.1-.6.8-.9 1.1-1.5c.2-.9.5-1.7.8-2.4z"/><path d="m46 23.4c-.3-.3-.5-.8-.5-1.4-.1-.6 0-1.2 0-1.9.1-.7.2-1.4.3-2 .2-.7.3-1.3.4-1.8s.1-.9.1-1.1-.2-.2-.4 0c-.3.2-.6.7-.9 1.2-.3.6-.7 1.2-1 1.9s-.6 1.3-.9 2c-.3.6-.4 1.2-.5 1.5 0 0 0 0-.1.1s-.1.1-.2 0c-.3-.3-.5-.5-.6-.8-.1-.2-.2-.4-.3-.7 0-.2-.1-.4 0-.6 0-.2 0-.5.1-.8 0-.3.1-.6.1-.9s.1-.7.1-1 .1-.7.1-1 .1-.6.2-.9c.1-.2.2-.3.3-.3h.5c.2 0 .3.1.5.2.1.1.2.2.1.4 0 .2-.1.4-.1.7s-.1.6-.1 1-.1.7-.1 1.1c-.1.4-.1.7-.2 1l-.1.9c.2-.6.5-1.2.7-1.9.3-.7.6-1.3.9-1.9.2-.4.5-.9.8-1.3s.6-.8 1-1c.5-.3.9-.4 1.2-.2s.5.6.5 1.2c0 .3 0 .6-.1 1-.1.3-.1.7-.2 1s-.1.6-.2.8-.1.4-.1.5c-.1.2-.1.5-.2.9s-.2.8-.3 1.3-.2.9-.2 1.4 0 .8.1 1.1.3.4.5.4c.3 0 .6-.2 1.1-.6.5-.5 1-1 1.4-1.6s.8-1.2 1.2-1.9c.1-.1.2-.3.3-.5s.2-.3.3-.5l.1-.1c0-.1.1-.1.2-.1s.2.1.1.2l-.6 1.2c-.4.6-.7 1.3-1.2 1.9-.4.6-.9 1.2-1.5 1.6-.2.2-.4.3-.6.5s-.5.3-.7.3c-.2.1-.5.1-.7 0s-.4-.2-.6-.5z"/><path d="m55.2 21.7c0 .5 0 1-.1 1.4s-.3.9-.6 1.2c-.2.2-.5.4-.9.6s-.7.2-1.1.2-.7-.1-.9-.3-.4-.5-.4-.9.2-.6.4-.8.5-.4.7-.5c.3-.1.6-.3.8-.4s.5-.2.7-.3c0-.5-.1-.9-.2-1.4s-.2-.9-.3-1.3-.2-.9-.3-1.3-.2-.8-.2-1.2l-.8 1.6-.1.2c0 .1-.1.1-.2 0-.1 0-.1-.1-.1-.2.2-.4.4-.8.6-1.2s.4-.8.6-1.2c.1-.2.2-.5.3-.7s.4-.4.6-.5.3 0 .4.2.1.3 0 .5c-.1.4 0 .9 0 1.4.1.5.2 1 .3 1.5s.2 1 .4 1.6c.1.5.2 1 .3 1.5.7-.4 1.3-.8 1.7-1.4.5-.5.9-1.1 1.2-1.7l.1-.1c0-.1.1-.1.2-.1.1.1.1.1.1.2-.4.7-.8 1.4-1.4 2-.5.5-1.1 1-1.8 1.4zm-1.4.5c-.5.2-.9.4-1.3.6-.3.2-.6.3-.8.5s-.3.4-.3.6.1.4.2.6c.1.1.3.2.5.3.2 0 .4-.1.7-.3.3-.3.6-.7.7-1.1.2-.3.3-.8.3-1.2z"/><path d="m62.4 20.5c.2-.6.4-1.3.4-2 0-.8-.1-1.4-.3-1.9s-.6-.9-1-1c-.5-.1-1.1.1-1.8.7v.2.2c-.1 1-.1 2.2-.2 3.5s-.3 2.6-.5 3.9-.6 2.5-1 3.6c-.5 1.1-1.1 2-1.8 2.6-.3.2-.6.4-.8.5-.4.1-.7.2-.8.2-.2 0-.3 0-.4 0s-.1-.1-.1-.1c.5-.4 1-.9 1.4-1.5s.8-1.3 1-2.1c.3-.8.5-1.6.7-2.4.2-.9.3-1.7.4-2.6s.2-1.7.3-2.6c.1-.8.1-1.6.2-2.3 0-.5.1-1 .1-1.4s.1-.8.1-1.2c0 0 0 0 0-.1.1-.1.3-.2.4-.2h.4c.1 0 .1.1.2.1s.1 0 .1.1l.2.2c.1.1.1.1.1.2v.3c0 .1 0 .2-.1.4.6-.5 1.1-.8 1.6-.8.5-.1.9 0 1.3.1.4.2.7.5.9.9s.4.8.5 1.4c.1.5.2 1 .1 1.6 0 .5-.1 1-.3 1.5.4-.1.7-.1 1-.3.3-.1.5-.3.7-.4.2-.2.4-.4.6-.6s.4-.5.6-.8c.1-.1.1-.1.2-.1.1.1.1.1.1.2-.4.8-.8 1.4-1.3 1.7-.5.4-1.1.6-1.9.6-.2.4-.4.7-.7 1s-.7.4-1.1.5-.8 0-1.1-.1c-.3-.2-.5-.3-.5-.6 0-.2.1-.4.4-.6.4-.3.9-.5 1.7-.5zm-.7 1c.1-.2.3-.4.5-.7-.2 0-.4.1-.5.1-.2 0-.4.1-.5.2-.3.1-.4.3-.5.4 0 .1 0 .2.1.3s.3.1.4 0c.2-.1.4-.2.5-.3z"/><path d="m76.7 18.3c-.4.7-.9 1.3-1.6 1.7s-1.4.6-2.1.6c-.1.2-.3.5-.4.7-.2.2-.3.4-.5.6-.3.3-.6.5-1 .7s-.7.3-1.1.3-.7 0-1.1-.1-.7-.2-1-.4c-.4-.3-.7-.7-1-1.1-.2-.5-.4-.9-.5-1.5-.1-.5-.1-1 0-1.6.1-.5.2-1 .5-1.4-.3-.7-.4-1.3-.2-1.9s.5-1.1 1-1.5 1-.6 1.7-.7c.6-.1 1.3.1 1.9.5.5.4 1 .9 1.3 1.5s.6 1.2.7 1.8.2 1.3.1 2-.2 1.3-.5 1.9c.3 0 .6 0 .9-.1s.6-.3.9-.4c.3-.2.5-.4.8-.6.2-.2.4-.5.6-.8.1-.1.1-.1.2-.1.4-.2.5-.1.4-.1zm-9.2-2.1c.1-.1.2-.1.3.1.1.1.2.3.3.5s.1.4.2.7c0 .2.1.4 0 .4.6.6 1.3 1.2 2.1 1.6.8.5 1.6.7 2.5.8.2-.6.4-1.2.5-1.8s0-1.3-.1-1.9-.4-1.2-.7-1.7-.7-1-1.3-1.4c-.5-.4-1-.5-1.6-.5-.5.1-1 .2-1.4.6s-.7.8-.9 1.3-.2 1.1-.1 1.7zm.7 2.1v.9c0 .3.1.6.2 1 .1.3.2.6.3.9s.3.5.5.8c.2.2.4.4.7.5.2.1.5.1.7.1s.5-.1.7-.2.4-.3.6-.5c.1-.1.3-.3.4-.5s.2-.3.3-.5c-.8-.1-1.6-.4-2.4-.8-.7-.6-1.4-1.1-2-1.7z"/><path d="m78.6 21.9c-.1-.5 0-1.1.1-1.7s.2-1.2.4-1.8.3-1.1.5-1.6.3-.9.4-1.1c.1-.3.2-.5.3-.7 0-.2 0-.4 0-.6-.1-.2-.2-.4-.4-.6s-.5-.5-.8-.8c-.1.4-.3.9-.4 1.3-.2.4-.3.9-.5 1.3-.2.5-.4.9-.7 1.5-.3.5-.5 1-.8 1.5l-.1.2c0 .1-.1.1-.2 0-.1 0-.1-.1-.1-.2.3-.5.5-1 .8-1.6.3-.5.5-1 .7-1.6.2-.4.4-.9.5-1.4.2-.5.3-.9.4-1.3-.3-.3-.5-.6-.7-1s-.2-.8-.1-1.2c.1-.3.3-.5.5-.5.2-.1.5 0 .6.3.1.1.2.3.2.6s0 .6-.1.9c.3.2.6.5.9.7s.6.4.9.7c.3.2.5.5.6.8s.1.7 0 1.1c-.1.6-.3 1.3-.6 2.1s-.5 1.5-.7 2.3c-.1.3-.1.7-.1 1.2s0 1 .1 1.5.2.8.5 1c.2.2.6.1 1.1-.4s1-1 1.4-1.6.8-1.2 1.2-1.9l.5-1 .1-.1c0-.1.1-.1.2-.1s.2.1.1.2l-.6 1.2c-.4.6-.7 1.3-1.2 1.9-.4.6-.9 1.2-1.5 1.6-.4.4-.8.6-1.2.7s-.7.2-1 .1-.6-.3-.8-.6-.3-.8-.4-1.3zm-.1-11.4c.1.4.3.7.5 1 0-.3 0-.6 0-.8-.1-.2-.1-.3-.2-.4s-.1-.1-.2-.1-.1.1-.1.3z"/><path d="m73.9 12.2c.1-.5.3-.9.7-1.3.7-.8 1.6-1.4 2.5-1.7 1-.3 2-.4 3.1-.4s2.2.2 3.3.4c1.1.3 2.1.5 3 .8l.4-1.4c0-.1.1-.1.3-.2h.5c.2 0 .3.1.5.1.1.1.2.1.2.2l-.4 1.8c.7.2 1.5.4 2.3.5.8.2 1.7.2 2.5.3.8 0 1.6-.1 2.3-.3s1.3-.5 1.8-1c.3-.3.5-.6.6-.9s.1-.6-.1-.8c-.1-.3-.3-.5-.5-.7s-.5-.4-.9-.5c-.3-.1-.7-.2-1.1-.3s-.8-.1-1.2-.1-.7 0-1 .1c-.4.1-.7.3-.9.5-.1.1-.1.1-.2 0s0-.2.2-.4c.1-.1.4-.2.7-.3s.6-.1 1-.2h1.2s.8.1 1.1.2c1.1.4 1.8.9 2 1.4.2.6.2 1.1-.2 1.6s-1 1-1.8 1.4c-.9.4-1.9.6-3 .6-.8 0-1.6-.1-2.4-.2s-1.6-.3-2.3-.4c-.1.5-.2.9-.3 1.4-.1.4-.2.9-.3 1.4s-.2 1.1-.3 1.8-.2 1.5-.4 2.6c-.1.5-.1 1-.2 1.4-.1.5-.1.9-.1 1.3s-.1.8-.1 1.1 0 .6.1.8c.1.4.2.6.5.6.3.1.7-.2 1.2-.6.6-.5 1.1-1 1.5-1.6s.8-1.2 1.2-1.9c.1-.1.2-.3.3-.5s.2-.3.3-.5c0 0 .1-.1.1-.1 0-.1.1-.1.2-.1s.1.1.1.2c-.1.2-.2.4-.3.6s-.2.4-.3.6c-.4.6-.8 1.3-1.2 1.9s-.9 1.2-1.5 1.6c-.2.2-.4.3-.6.5s-.5.3-.7.3c-.2.1-.5.1-.7 0-.2 0-.5-.2-.7-.4s-.4-.5-.5-.9-.2-.8-.2-1.4c0-.5 0-1 0-1.6s.1-1.2.2-1.8c.1-.9.2-1.6.3-2.3s.2-1.3.3-1.8c.1-.6.2-1.1.3-1.5.1-.5.2-.9.3-1.4-.3-.1-.5-.1-.8-.2-.2-.1-.5-.1-.7-.2-.7-.2-1.4-.4-2.1-.6s-1.3-.3-1.9-.4c-.5-.1-1.1-.1-1.6-.1-.6 0-1.1.1-1.7.3-.5.1-1.1.4-1.6.6-.5.3-.9.6-1.3 1.1-.3.4-.5.8-.6 1.1z"/></g></svg>