<svg enable-background="new 0 0 100 100" height="100" viewBox="0 0 100 100" width="100" xmlns="http://www.w3.org/2000/svg"><g fill="#1e4b52"><path d="m30.395 44.885c.034-.046.079-.057.137-.034.057.034.073.085.051.153-.34.646-.731 1.082-1.173 1.309s-.891.295-1.344.204-.893-.306-1.317-.646c-.425-.34-.793-.75-1.104-1.232-.313-.481-.55-1.003-.714-1.563-.165-.562-.207-1.103-.128-1.624s.292-.997.638-1.428.875-.754 1.59-.969c.51-.159 1.085-.207 1.725-.145.641.063 1.295.176 1.964.34s1.329.354 1.98.569c.651.216 1.25.397 1.794.544.237-.261.495-.484.773-.671.277-.188.58-.343.909-.468.544-.192 1.021-.267 1.428-.221.408.045.742.152 1.003.322.204.147.352.332.442.553s.063.439-.085.654c-.159.261-.396.431-.714.511-.317.079-.663.107-1.037.085-.374-.023-.748-.074-1.122-.153s-.691-.153-.952-.221c-.499.623-.9 1.331-1.207 2.125-.306.793-.581 1.614-.824 2.465-.244.85-.49 1.697-.739 2.541-.25.845-.564 1.624-.944 2.338-.379.714-.858 1.332-1.436 1.853s-1.321.891-2.228 1.105c-.612.147-1.238.182-1.879.102-.64-.079-1.277-.283-1.912-.611-.556-.295-1.015-.657-1.377-1.089-.363-.43-.632-.886-.808-1.368-.176-.481-.267-.963-.271-1.445-.006-.481.073-.926.237-1.334s.408-.754.731-1.037.723-.459 1.198-.527c.374-.057.751-.039 1.131.052.379.091.73.24 1.054.45s.606.474.85.79c.244.317.417.675.519 1.071.023.068-.006.103-.085.103-.057.022-.096-.006-.118-.085-.091-.363-.25-.681-.477-.952-.227-.272-.487-.496-.782-.672s-.617-.298-.969-.365c-.352-.068-.703-.074-1.054-.018-.454.068-.83.232-1.131.493-.3.261-.526.575-.68.943-.153.369-.227.773-.221 1.216.005.442.093.882.263 1.317.17.437.428.854.773 1.25s.779.736 1.301 1.02c.93.499 1.779.703 2.55.612s1.536-.425 2.295-1.003c.533-.396.975-.887 1.326-1.471s.651-1.216.901-1.896c.249-.68.473-1.392.671-2.134s.411-1.473.638-2.192.487-1.411.782-2.074.669-1.261 1.122-1.794c-.51-.146-1.085-.309-1.726-.484s-1.292-.325-1.955-.45-1.309-.201-1.938-.229-1.188.031-1.675.179c-.669.204-1.168.504-1.496.9-.329.397-.527.833-.595 1.31-.068.476-.025.969.127 1.479.153.51.38.983.681 1.42.3.437.648.808 1.045 1.113s.808.496 1.232.569c.426.074.845.003 1.258-.212.415-.218.78-.632 1.098-1.243zm4.896-4.302c.227.058.513.122.858.196.346.073.691.122 1.037.145s.668 0 .969-.068c.3-.068.519-.215.654-.442.147-.249.137-.481-.034-.696-.17-.216-.436-.349-.799-.399-.362-.052-.784.011-1.267.187-.48.174-.953.533-1.418 1.077z"/><path d="m35.291 51.157c-.034-.328-.023-.69.033-1.088.057-.396.137-.782.238-1.156.103-.374.21-.719.323-1.036s.204-.562.271-.731c.08-.182.134-.337.162-.468.028-.13.022-.261-.018-.391-.039-.13-.121-.267-.246-.408s-.295-.309-.51-.501c-.08.283-.168.563-.264.841-.097.278-.207.559-.331.842-.125.295-.27.606-.434.935-.165.329-.326.646-.485.952l-.051.103c-.022.045-.063.054-.119.025s-.073-.071-.051-.128c.17-.328.337-.66.502-.994.164-.334.314-.666.45-.995.125-.282.24-.574.349-.875.107-.3.195-.587.264-.858-.17-.182-.317-.399-.442-.654s-.142-.508-.051-.757c.057-.181.161-.295.314-.34s.292.012.416.17c.079.091.125.224.137.399.011.176 0 .377-.034.604.17.159.356.306.561.442.204.136.389.283.553.441.164.159.289.338.374.536s.094.438.025.722c-.091.397-.224.839-.399 1.326s-.32.986-.434 1.496c-.034.17-.065.428-.094.773s-.017.666.034.961.153.501.307.62c.152.119.394.037.722-.246.352-.307.66-.651.927-1.037s.519-.782.757-1.19l.323-.611.051-.085c.011-.034.057-.054.136-.06s.097.042.051.145l-.407.748c-.228.407-.477.807-.748 1.198-.272.391-.59.739-.952 1.045-.261.228-.517.383-.766.468s-.473.097-.671.034-.369-.195-.51-.399c-.142-.205-.23-.478-.263-.818zm-.068-7.309c.057.238.164.447.323.629.022-.192.014-.354-.025-.484-.04-.13-.085-.224-.137-.28-.051-.057-.096-.074-.136-.052-.04.023-.048.084-.025.187z"/><path d="m45.678 49.628c-.227.385-.484.784-.773 1.198s-.609.768-.96 1.063c-.193.17-.405.297-.638.382-.232.086-.462.049-.688-.11-.295-.192-.484-.552-.569-1.079s-.043-1.119.127-1.776c-.147.204-.334.391-.561.561s-.462.292-.706.366c-.243.073-.481.082-.714.025s-.434-.222-.604-.493c-.136-.204-.21-.431-.221-.681-.011-.249.02-.492.094-.73.073-.238.181-.468.322-.688s.292-.411.451-.569c.192-.182.405-.332.638-.451.231-.118.47-.195.714-.229.243-.033.484-.014.723.06.237.074.459.213.662.417.057-.159.142-.258.256-.298.112-.039.227-.048.34-.025s.206.071.28.145c.073.074.099.139.076.195l-.152.392c-.103.283-.213.609-.332.978s-.227.742-.323 1.122-.17.747-.221 1.104-.06.672-.025.943c.022.193.068.329.136.408s.145.122.229.128.179-.018.281-.068c.102-.051.203-.116.306-.195.34-.272.657-.618.952-1.037.294-.419.544-.816.748-1.19l.322-.611c.012-.012.018-.023.018-.034 0-.012.011-.028.034-.051.022-.023.073-.04.152-.052.079-.011.091.034.034.137zm-2.788-2.499c-.192-.25-.388-.397-.586-.442s-.392-.028-.578.051c-.187.08-.363.207-.527.383s-.309.359-.434.553c-.203.317-.34.657-.407 1.02-.091.465-.074.797.051.994.124.199.298.287.519.264.221-.022.465-.149.73-.382.267-.232.508-.553.723-.961.169-.546.339-1.039.509-1.48z"/><path d="m48.653 52.144c-.193-.204-.306-.499-.34-.884-.034-.386-.025-.796.025-1.232s.124-.873.221-1.31c.097-.436.176-.815.238-1.139s.088-.556.076-.697c-.011-.142-.102-.139-.271.009-.17.159-.36.422-.569.79-.21.369-.417.769-.621 1.199s-.389.853-.553 1.266c-.164.414-.28.74-.348.978 0 .012-.012.029-.034.052-.046.045-.091.039-.137-.018-.17-.181-.297-.346-.382-.493-.085-.146-.142-.288-.17-.425-.028-.136-.037-.274-.025-.416.011-.142.028-.304.051-.484.022-.17.045-.36.067-.57.023-.209.049-.422.077-.637.028-.216.057-.428.085-.638s.064-.399.11-.569c.034-.113.104-.185.213-.213.107-.028.218-.031.331-.009.113.023.21.071.289.145s.107.156.085.247c-.022.102-.049.249-.076.441-.028.193-.058.405-.085.638-.029.232-.06.471-.094.714-.034.244-.068.468-.103.672l-.085.578c.147-.374.307-.771.477-1.19s.362-.821.578-1.207c.158-.283.328-.561.51-.833.181-.271.402-.493.663-.663.294-.192.55-.234.765-.127s.323.359.323.756c0 .193-.017.397-.051.612-.034.216-.071.42-.11.612-.04.192-.08.362-.119.51-.04.147-.065.244-.077.289-.033.113-.082.301-.145.561-.063.262-.121.542-.178.842-.058.301-.097.595-.119.884-.023.289-.006.521.051.697s.17.261.34.255c.17-.005.414-.145.731-.416.351-.307.66-.651.926-1.037.267-.386.513-.782.74-1.19.057-.09.113-.189.17-.297s.113-.213.17-.314l.051-.085c.011-.034.057-.054.136-.06s.097.042.052.145l-.408.748c-.228.407-.479.807-.757 1.198-.277.391-.592.739-.943 1.045-.125.114-.261.219-.408.314-.147.097-.297.168-.45.213-.153.046-.307.054-.459.025-.153-.03-.298-.123-.434-.282z"/><path d="m54.553 51.038c.011.329-.018.635-.085.918-.068.284-.204.55-.408.8-.136.158-.323.286-.562.382-.237.097-.473.145-.705.145s-.431-.062-.595-.187-.241-.323-.229-.595c.022-.228.102-.408.237-.545.137-.136.295-.249.477-.34.192-.09.368-.173.526-.246.159-.073.317-.139.477-.195-.012-.307-.051-.606-.119-.901s-.139-.581-.213-.858c-.073-.277-.145-.547-.212-.808-.068-.261-.108-.51-.119-.748l-.527 1.021-.051.102c-.022.046-.063.054-.119.025s-.073-.07-.051-.127c.125-.25.255-.505.391-.766.137-.261.261-.521.374-.782.046-.158.116-.303.213-.433.096-.131.235-.235.416-.314.103-.046.179-.012.229.102.052.113.054.21.009.289-.034.271-.025.563.025.875.052.313.116.633.195.961.08.329.159.663.238 1.003s.136.669.17.986c.442-.227.811-.516 1.105-.867.294-.352.555-.726.782-1.122l.051-.085c.022-.068.067-.079.136-.034.057.034.068.079.034.136-.25.477-.541.898-.876 1.267-.333.367-.739.681-1.214.941zm-.885.341c-.328.147-.601.271-.815.374-.216.102-.38.215-.493.34-.113.136-.17.274-.17.416s.037.261.11.357.176.15.306.161c.131.012.27-.051.417-.187.204-.193.362-.42.476-.681.112-.259.169-.519.169-.78z"/><path d="m59.177 50.257c.158-.386.243-.819.255-1.301.011-.481-.054-.893-.195-1.232s-.363-.556-.663-.646c-.301-.09-.678.063-1.131.459-.011.058-.017.108-.017.153v.153c-.034.646-.082 1.391-.145 2.235s-.17 1.686-.323 2.524-.374 1.615-.663 2.329-.683 1.264-1.182 1.648c-.192.147-.368.253-.526.314-.159.063-.295.103-.408.119-.113.018-.198.015-.255-.008s-.068-.046-.034-.068c.352-.249.657-.575.918-.978s.481-.848.663-1.334c.182-.488.326-1.006.434-1.556s.198-1.103.271-1.658c.074-.555.128-1.102.162-1.64.034-.539.067-1.034.102-1.488.022-.328.043-.634.06-.918.018-.283.037-.532.06-.748 0-.011.006-.022.017-.033.08-.068.165-.108.256-.119.09-.012.181-.006.271.017.045.022.085.037.119.043s.063.02.085.042l.136.103c.046.045.063.085.052.118-.012.058-.018.122-.018.196 0 .073-.012.155-.034.246.386-.306.737-.487 1.055-.544.316-.057.595-.025.833.094.237.119.436.306.595.561.158.255.274.544.349.867.073.323.102.657.085 1.003-.018.346-.077.672-.179.978.238-.034.442-.088.612-.161.17-.074.322-.167.459-.281.136-.112.261-.249.374-.407.113-.159.231-.341.356-.544.034-.057.079-.074.136-.052.068.046.08.091.034.137-.249.51-.529.878-.841 1.104-.313.227-.723.363-1.232.408-.125.261-.281.479-.468.654-.188.176-.423.286-.706.332-.283.045-.519.017-.705-.085-.188-.103-.289-.224-.306-.366-.018-.142.07-.28.263-.416.192-.135.531-.221 1.019-.254zm-.408.645c.091-.102.192-.249.306-.441-.124.022-.24.042-.348.059-.108.018-.225.055-.349.111-.182.091-.28.173-.298.246-.017.074.009.128.076.161.068.034.162.043.281.026.12-.017.23-.071.332-.162z"/><path d="m68.391 48.88c-.238.453-.575.821-1.012 1.104s-.893.414-1.368.392c-.079.158-.167.303-.264.433-.097.131-.195.253-.298.366-.181.192-.385.34-.611.441-.228.103-.454.165-.681.188s-.453.008-.68-.043-.431-.145-.612-.28c-.261-.181-.467-.419-.62-.714s-.255-.609-.306-.943c-.052-.334-.054-.669-.009-1.003.045-.335.142-.638.289-.91-.193-.419-.227-.827-.103-1.224.125-.396.338-.723.638-.978.301-.255.657-.408 1.071-.459.413-.051.813.054 1.198.314.352.261.635.572.851.935.215.363.365.751.45 1.165s.11.839.076 1.275-.13.847-.289 1.232c.204.011.405-.018.604-.085.198-.068.386-.162.562-.281s.337-.258.484-.416c.147-.159.283-.329.408-.51.034-.057.085-.082.152-.077.07.007.092.032.07.078zm-5.9-1.36c.057-.057.116-.04.179.051s.119.204.17.34c.052.137.091.275.119.417s.037.235.025.28c.363.396.802.739 1.317 1.028s1.046.462 1.59.519c.158-.374.261-.768.306-1.182.046-.413.026-.818-.06-1.215-.085-.396-.229-.771-.433-1.122-.204-.352-.477-.651-.816-.901-.329-.238-.663-.34-1.003-.306s-.641.155-.901.365-.456.484-.586.824c-.131.34-.15.703-.06 1.088zm.443 1.342c-.012.17-.009.357.009.562.017.204.051.407.102.611s.119.399.204.587c.085.187.189.349.314.484.136.147.283.246.442.298.158.051.317.065.476.042.159-.022.312-.073.459-.152.147-.08.283-.182.408-.307.091-.091.176-.189.255-.297s.147-.219.204-.332c-.533-.068-1.052-.24-1.556-.519-.504-.276-.943-.603-1.317-.977z"/><path d="m69.615 51.157c-.034-.328-.023-.69.033-1.088.057-.396.137-.782.238-1.156.103-.374.21-.719.323-1.036s.204-.562.271-.731c.08-.182.134-.337.162-.468.028-.13.022-.261-.018-.391-.039-.13-.121-.267-.246-.408s-.295-.309-.51-.501c-.08.283-.168.563-.264.841-.097.278-.207.559-.331.842-.125.295-.27.606-.434.935-.165.329-.326.646-.485.952l-.051.103c-.022.045-.063.054-.119.025s-.073-.071-.051-.128c.17-.328.337-.66.502-.994.164-.334.314-.666.45-.995.125-.282.24-.574.349-.875.107-.3.195-.587.264-.858-.17-.182-.317-.399-.442-.654s-.142-.508-.051-.757c.057-.181.161-.295.314-.34s.292.012.416.17c.079.091.125.224.137.399.011.176 0 .377-.034.604.17.159.356.306.561.442.204.136.389.283.553.441.164.159.289.338.374.536s.094.438.025.722c-.091.397-.224.839-.399 1.326s-.32.986-.434 1.496c-.034.17-.065.428-.094.773s-.017.666.034.961.153.501.307.62c.152.119.394.037.722-.246.352-.307.66-.651.927-1.037s.519-.782.757-1.19l.323-.611.051-.085c.011-.034.057-.054.136-.06s.097.042.051.145l-.407.748c-.228.407-.477.807-.748 1.198-.272.391-.59.739-.952 1.045-.261.228-.517.383-.766.468s-.473.097-.671.034-.369-.195-.51-.399c-.142-.205-.23-.478-.263-.818zm-.068-7.309c.057.238.164.447.323.629.022-.192.014-.354-.025-.484-.04-.13-.085-.224-.137-.28-.051-.057-.096-.074-.136-.052-.04.023-.048.084-.025.187z"/><path d="m66.572 44.97c.068-.295.216-.572.442-.833.453-.544.997-.912 1.632-1.105.635-.192 1.298-.277 1.989-.255.691.023 1.388.116 2.091.28.702.165 1.349.332 1.938.502l.238-.867c.011-.057.07-.096.179-.119.107-.022.218-.025.331-.008s.216.045.307.085c.09.039.13.088.118.145l-.221 1.036c.465.125.966.235 1.505.332.538.097 1.067.15 1.589.161.521.012 1.015-.042 1.479-.161s.855-.337 1.173-.654c.192-.193.312-.38.357-.562.045-.181.033-.354-.034-.519-.068-.164-.182-.314-.34-.45-.159-.136-.347-.249-.562-.34-.204-.091-.434-.159-.688-.204s-.51-.065-.765-.06-.499.042-.731.11-.434.17-.604.306c-.045.046-.091.043-.136-.008-.046-.051-.012-.134.102-.247.091-.079.229-.146.417-.204.187-.056.399-.093.638-.11.237-.017.484-.014.739.009s.49.068.705.136c.715.25 1.15.556 1.31.918.158.363.121.714-.11 1.055-.232.34-.627.632-1.182.875-.556.244-1.196.365-1.921.365-.499 0-1.003-.036-1.514-.11-.51-.073-1.009-.167-1.496-.28-.067.317-.13.609-.187.876-.057.266-.113.563-.17.892s-.119.712-.188 1.147c-.067.437-.152.983-.255 1.641-.045.317-.085.627-.119.927-.033.301-.062.581-.085.842-.022.261-.033.496-.033.705 0 .21.011.383.033.519.034.227.134.36.298.399.164.04.428-.099.791-.416.362-.307.677-.651.943-1.037s.513-.782.739-1.19c.057-.09.113-.189.17-.297s.113-.213.17-.314c.022-.023.034-.052.034-.085.022-.034.073-.054.153-.06.079-.006.09.042.033.145-.057.124-.118.249-.187.374-.068.124-.136.249-.204.374-.238.407-.493.807-.765 1.198s-.59.739-.952 1.045c-.125.114-.258.219-.399.314-.143.097-.289.168-.442.213-.153.046-.306.054-.459.025s-.298-.121-.434-.28c-.136-.136-.235-.332-.297-.587-.063-.255-.1-.544-.111-.866-.011-.323-.005-.672.018-1.046s.062-.754.119-1.139c.067-.556.136-1.049.204-1.479.067-.431.133-.824.195-1.182.062-.356.127-.686.195-.985.068-.301.142-.604.221-.91-.17-.045-.331-.09-.484-.136-.153-.045-.304-.091-.45-.136-.477-.125-.927-.247-1.352-.366-.425-.118-.824-.206-1.198-.263-.329-.046-.675-.06-1.037-.043-.363.018-.72.071-1.071.162s-.686.227-1.003.407c-.317.182-.589.408-.816.681-.204.237-.34.481-.407.73z"/></g></svg>