<svg enable-background="new 0 0 100 38.7" viewBox="0 0 100 38.7" xmlns="http://www.w3.org/2000/svg"><g fill="#1e4b52"><path d="m31.1 31.1c.6-.6 1.2-1.4 1.8-2.3s1.1-1.9 1.7-3.1c.6-1.1 1.1-2.3 1.6-3.6s1.1-2.5 1.6-3.8c.7-1.6 1.3-3.3 2-4.8.7-1.6 1.4-3 2.1-4.4s1.5-2.4 2.3-3.4c.8-.9 1.7-1.6 2.6-1.9.1 0 .2 0 .3.2.1.1 0 .2-.1.3-.8.3-1.7.9-2.4 1.8s-1.5 2-2.2 3.3-1.4 2.7-2.1 4.3-1.3 3.2-2 4.8c-.5 1.3-1.1 2.6-1.6 3.8-.6 1.3-1.1 2.5-1.7 3.6-.5 1.1-1.1 2.2-1.7 3.1s-1.2 1.7-1.8 2.4c-1 1.1-2.1 1.7-3.2 1.9s-2.1.1-2.9-.4-1.4-1.4-1.7-2.6-.2-2.7.4-4.6c.3-1 .7-2.1 1.1-3.2s.7-2.2 1-3.3.5-2.3.7-3.4c.1-1.1.1-2.3 0-3.4-.2-1.2-.5-2.3-.9-3.2s-1.2-1.5-1.9-2.2c-1.3-1.2-2.6-1.9-3.8-2.2-1.3-.3-2.5-.2-3.6.3s-2 1.2-2.8 2.3-1.3 2.4-1.6 3.9c-.3 1.8-.3 3.5.2 4.9.4 1.4 1.1 2.6 2 3.6.9.9 1.9 1.6 3 2s2.2.4 3.2.1 1.9-1 2.7-2 1.2-2.5 1.4-4.4c.1-.5 0-1 0-1.6-.1-.5-.2-1-.4-1.5-.2-.4-.6-.8-1-1-.4-.3-.9-.3-1.6-.3-.1 0-.2-.1-.3-.2 0-.2.1-.2.2-.2.7-.1 1.4 0 1.8.3.5.3.9.6 1.1 1.1.3.5.4 1 .5 1.7.1.6.1 1.2 0 1.8-.2 2-.7 3.6-1.5 4.7s-1.8 1.8-2.9 2.1-2.3.3-3.5-.1-2.3-1.1-3.2-2.1-1.6-2.3-2.1-3.8-.6-3.2-.3-5.2c.4-1.1.8-2.2 1.3-3.2s1.2-1.8 2-2.4 1.7-1.1 2.8-1.3c1.1-.3 2.3-.3 3.6-.1 1.6.2 3 .9 4.3 1.9.9.7 1.6 1.6 2.2 2.6s1 2.3 1.2 3.7c.2 1.2.2 2.4 0 3.6s-.4 2.4-.7 3.6-.7 2.3-1.1 3.5-.8 2.3-1.1 3.4c-.4 1.3-.6 2.5-.5 3.6s.3 1.9.7 2.5 1.1.8 1.9.7c.8-.3 1.7-1 2.9-2.2z"/><path d="m38.3 26.5c-.1-.7 0-1.5.3-2.3.2-.8.6-1.5 1.1-2.2s1.1-1.2 1.8-1.7 1.5-.7 2.5-.8c.5-.1.9-.1 1.3 0s.7.2.9.3c.2.2.3.4.3.8s-.2.7-.5 1.2c-.3.4-.6.7-1 1.1s-.8.6-1.3.8-.9.4-1.4.6c-.5.1-1 .2-1.4.2-.1.4-.2.7-.2 1.2v1.2c.1.4.1.8.3 1.2.1.4.4.7.6 1 .8.7 1.5 1 2.3.8s1.5-.7 2.2-1.3c.5-.5 1-1.1 1.4-1.7s.8-1.3 1.1-1.9c.1-.2.2-.3.4-.3s.2.1.1.3c-.4.7-.7 1.4-1.2 2.1-.4.7-.9 1.3-1.5 1.9-.7.7-1.6 1.2-2.5 1.4-.9.3-1.7.3-2.6.1-.8-.2-1.5-.6-2.1-1.2-.5-.7-.9-1.6-.9-2.8zm2.5-2.4c.4 0 .8-.1 1.3-.2.4-.1.9-.3 1.3-.5s.8-.5 1.2-.8c.3-.3.6-.6.9-1 .3-.5.5-.9.4-1.1s-.2-.3-.5-.4c-.2 0-.5 0-.9.1s-.7.2-.9.4c-.7.4-1.2.8-1.7 1.5-.4.7-.8 1.3-1.1 2z"/><path d="m54.9 32.1c-.4-.5-.7-1.1-.8-2s-.1-1.8.1-2.8.3-2 .5-3 .4-1.8.5-2.6c.1-.7.2-1.3.2-1.6s-.2-.3-.6 0c-.4.4-.8 1-1.3 1.8s-.9 1.7-1.4 2.7-.9 1.9-1.2 2.9c-.4.9-.6 1.7-.8 2.2 0 0 0 .1-.1.1-.1.1-.2.1-.3 0-.4-.4-.7-.8-.9-1.1s-.3-.7-.4-1-.1-.6-.1-.9.1-.7.1-1.1c.1-.4.1-.8.2-1.3s.1-1 .2-1.4c.1-.5.1-1 .2-1.4.1-.5.1-.9.2-1.3.1-.3.2-.4.5-.5.2-.1.5-.1.7 0 .3.1.5.2.7.3.2.2.2.4.2.6-.1.2-.1.6-.2 1s-.1.9-.2 1.4-.1 1.1-.2 1.6c-.1.6-.2 1.1-.2 1.5l-.2 1.3c.3-.8.7-1.7 1.1-2.7.4-.9.8-1.9 1.3-2.7.4-.6.7-1.3 1.2-1.9.4-.6.9-1.1 1.5-1.5.7-.4 1.2-.5 1.7-.3s.7.8.7 1.7c0 .4 0 .9-.1 1.4s-.2.9-.2 1.4c-.1.4-.2.8-.3 1.2-.1.3-.1.6-.2.7-.1.3-.2.7-.3 1.3s-.3 1.2-.4 1.9-.2 1.3-.3 2 0 1.2.1 1.6.4.6.8.6.9-.3 1.7-.9c.8-.7 1.5-1.5 2.1-2.3.6-.9 1.2-1.8 1.7-2.7.1-.2.3-.4.4-.7.1-.2.3-.5.4-.7l.1-.2c0-.1.1-.1.3-.1s.2.1.1.3l-.9 1.7c-.5.9-1.1 1.8-1.7 2.7s-1.3 1.7-2.1 2.4c-.3.3-.6.5-.9.7s-.7.4-1 .5-.7.1-1 .1c-.5-.3-.9-.5-1.2-.9z"/><path d="m72.3 21.3c-.1.4-.1.8-.2 1.1-.1.4-.2.7-.2 1-.1.3-.1.6-.2.8s-.1.4-.1.5c-.1.3-.2.7-.3 1.3s-.3 1.2-.4 1.9-.2 1.3-.3 2 0 1.2.1 1.6.4.6.8.6.9-.3 1.7-.9c.8-.7 1.5-1.5 2.1-2.3.6-.9 1.2-1.8 1.7-2.7.1-.2.3-.4.4-.7.1-.2.3-.5.4-.7l.1-.2c0-.1.1-.1.3-.1s.2.1.1.3l-.9 1.7c-.5.9-1.1 1.8-1.7 2.7s-1.3 1.7-2.2 2.4c-.3.3-.6.5-.9.7s-.7.4-1 .5-.7.1-1 .1c-.3-.1-.7-.3-1-.6-.4-.4-.6-1.1-.7-1.9s0-1.9.1-3.1c-.2.4-.5.7-.8 1.1s-.6.7-1 .9c-.3.3-.7.4-1.1.6-.4.1-.8.1-1.2 0-.5-.2-.9-.5-1.2-.9-.3-.5-.5-1-.6-1.6s-.1-1.3-.1-2c.1-.7.1-1.4.3-2.1.1-.7.3-1.3.4-1.8.2-.6.3-1 .4-1.3.1-.2.2-.3.5-.4.2-.1.5-.1.7 0s.5.1.7.2.2.3.2.4c-.1.1-.2.5-.3 1.1-.2.6-.3 1.2-.5 2-.2.7-.3 1.5-.4 2.3s-.1 1.5.1 2c.1.7.4 1 .7 1.1.4.1.8 0 1.2-.2s.8-.6 1.2-1 .6-.8.8-1.2c0-.2.1-.4.2-.7s.2-.8.3-1.2c.1-.5.2-.9.3-1.4s.2-.9.2-1.3c0-.2.2-.3.5-.5s.6-.3.9-.3.6 0 .8.1c.1-.3.2-.1.1.1z"/><path d="m77.5 26.5c-.1-.7 0-1.5.3-2.3.2-.8.6-1.5 1.1-2.2s1.1-1.2 1.8-1.7 1.5-.7 2.5-.8c.5-.1.9-.1 1.3 0s.7.2.9.3c.2.2.3.4.3.8s-.2.7-.5 1.2c-.3.4-.6.7-1 1.1s-.8.6-1.3.8-.9.4-1.4.6c-.5.1-1 .2-1.4.2-.1.4-.2.7-.2 1.2v1.2c.1.4.1.8.3 1.2.1.4.4.7.6 1 .8.7 1.5 1 2.3.8s1.5-.7 2.2-1.3c.5-.5 1-1.1 1.4-1.7s.8-1.3 1.1-1.9c.1-.2.2-.3.4-.3s.2.1.1.3c-.4.7-.7 1.4-1.2 2.1-.4.7-.9 1.3-1.5 1.9-.7.7-1.6 1.2-2.5 1.4-.9.3-1.7.3-2.6.1-.8-.2-1.5-.6-2.1-1.2-.5-.7-.8-1.6-.9-2.8zm2.6-2.4c.4 0 .8-.1 1.3-.2.4-.1.9-.3 1.3-.5s.8-.5 1.2-.8c.3-.3.6-.6.9-1 .3-.5.5-.9.4-1.1s-.2-.3-.5-.4c-.2 0-.5 0-.9.1s-.7.2-.9.4c-.7.4-1.2.8-1.7 1.5s-.9 1.3-1.1 2z"/></g></svg>