<svg enable-background="new 0 0 471 500" viewBox="0 0 471 500" xmlns="http://www.w3.org/2000/svg"><path d="m78.2 202.3c-.3-.2-.7-.4-1-.6-1-.5-1.9-1-2.9-1.5-.8-.4-1.6-.8-2.3-1.2-.6-.3-1.1-.7-1.6-1.3-.4-.4-.7-.9-.9-1.4s-.3-.9-.4-1.4c-.3-1.5.3-3 1.5-3.7 1.3-.8 2.7-.8 4.1-.1.3.2.6.4.8.7 0 0 0 0 .1.1v-.1c.2-.7.7-1.4 1.2-1.9s1.1-.7 1.8-.9c.8-.2 1.7 0 2.4.4s1.2 1 1.5 1.7c.2.4.3.8.3 1.2.1.5.1.9.1 1.4 0 .7-.2 1.4-.5 2.1s-.7 1.3-1.1 1.9c-.6.9-1.3 1.8-1.9 2.7-.4.6-.8 1.2-1.2 1.9z" fill="#1e4b52"/><path d="m74.5 268.3-2.9 2.6.5 3.9-3.3-2-3.5 1.6.8-3.8-2.6-2.9 3.9-.3 1.9-3.4 1.5 3.6z" fill="#7c0b2f"/><path d="m-19.5 90c.3.1.6.2.9.2 1.2.3 2.5.6 3.7.9h.1c-.1.2-.2.4-.3.7-.4 1-.7 2.1-.8 3.2-.2 1.7-.2 3.4.2 5.1.2.7.4 1.5.7 2.2.2.5.5 1.1.8 1.6s.7 1 1.2 1.4c.8.7 1.6 1.3 2.6 1.7 1.4.5 2.8.6 4.2.2 1.1-.3 2.2-.8 3.2-1.5s1.8-1.5 2.4-2.6c.9-1.4 1.1-2.9.8-4.5-.2-1.1-.6-2-1.2-3-.9-1.5-2.1-2.9-3.4-4-1.7-1.4-3.5-2.3-5.6-2.9h-.1c.1-.3.2-.6.3-.8.5-1.2.9-2.3 1.4-3.5 0-.1 0-.1 0-.2 1.1.5 2.1 1 3.2 1.4-.2.6-.4 1.2-.7 1.7.6.3 1.1.6 1.7.9 1.2.7 2.3 1.5 3.3 2.4.9.8 1.7 1.6 2.3 2.6.5.7.9 1.4 1.2 2.2.2.7.5 1.3.6 2 .2 1.2.2 2.4 0 3.6-.2 1.4-.6 2.7-1.3 4-1.1 1.9-2.6 3.3-4.5 4.3-1 .5-2 .9-3.1 1.1-3.1.6-6 .1-8.6-1.8-1.2-.8-2.1-1.7-2.8-3-.1-.1-.2-.3-.2-.4-.2-.3-.3-.7-.5-1v-.1c-.3-.7-.6-1.4-.8-2.2-.3-1.1-.4-2.2-.5-3.3 0-1.6.2-3.2.6-4.7v-.1c-.5-.2-1.1-.3-1.6-.4.1-.7.2-1.3.3-2 .1-.5.2-1 .3-1.4zm3.8 13.7c-.2-.6-.3-1.2-.5-1.8 0-.1-.1-.1-.2-.1-.3 0-.6 0-.9-.1h-.1c.2.8.3 1.5.5 2.3.5 0 .8-.1 1.2-.3zm16-8.3c.3-.2.6-.4.9-.7-.5-.6-1.1-1.2-1.6-1.7-.2.3-.3.6-.5.8v.2c.2.2.4.5.7.8.1.2.3.4.5.6zm-4.6 13.7 1.8-1.2c-.2-.2-.4-.3-.6-.5-.1-.1-.1-.1-.2 0-.4.2-.8.5-1.2.7-.1 0-.2.1-.2.2.1.2.3.5.4.8zm3.2-3.1.6.6c.4-.5.9-1 1.3-1.4-.3-.2-.7-.3-1-.5-.3.4-.6.8-.9 1.3zm-5.5 2.6c-.5 0-1.1-.1-1.6-.1-.1.3-.2.7-.3 1.1.7 0 1.3-.1 1.9-.1 0-.3 0-.6 0-.9zm-11.3-9c.3-.1.6-.2.9-.3.1 0 .1-.1.1-.1 0-.4.1-.7.1-1.1 0-.1 0-.2 0-.3-.3 0-.6-.1-.9-.1-.1.6-.2 1.2-.2 1.9zm16.1-8.4c-.6-.3-1.2-.7-1.7-1-.2.3-.3.5-.5.8.4.2.8.5 1.2.7h.1c.1-.1.2-.1.2-.2.4 0 .5-.2.7-.3zm-11.6 15.8c-.4-.4-.7-.7-1.1-1.1-.2.2-.5.3-.7.5.4.4.9.8 1.3 1.2.2-.2.4-.4.5-.6zm14.7-9.3c.1.5.2 1 .2 1.4 0 0 .1.1.1.1h.7c-.1-.6-.2-1.2-.2-1.8-.2.1-.5.2-.8.3zm-11.3 10.9c-.4-.1-.8-.2-1.3-.2h-.1c-.1.2-.2.3-.3.5.5.1 1 .2 1.6.4-.1-.3 0-.5.1-.7zm11-5.8c.2.1.4.2.7.3l.6-1.5c-.2 0-.4 0-.6 0 0 0-.1 0-.1.1-.3.3-.4.7-.6 1.1z" fill="#1e4b52"/><path d="m50.8 140.6c.3-1 .8-2 1.1-3.1.2-1 .5-2.1.2-3.2-.3-1.3-1.6-2.1-3.2-1.9-1.2.1-1.7.9-1.7 2.4 0 1.9.6 3.7 1.2 5.6.1.2.2.3.5.3 1.3-.1 1.8.2 2.4 1.5.1.2.2.3.4.3 1.9.1 3.7.1 5.5-.6s2.4-2.3 1.5-4.1c-.4-.8-1.1-1.2-2-1-1.2.2-2.2.8-3.1 1.5s-1.9 1.5-2.8 2.3z" fill="#c76683"/><path d="m56.8 148.9c1.2 0 2.4-1 2.7-2.3.2-.9-.3-1.7-1.5-2.3-.3-.2-.7-.3-1.1-.4-1.3-.4-2.7-.7-4.1-.8-1.2-.1-1.2-.1-1.8.9-.1.2-.1.3 0 .5 1.1 1.5 2.3 2.9 3.9 3.9.6.2 1.2.5 1.9.5z" fill="#c76683"/><path d="m46.5 143.1c-.6-.1-1.2.1-1.7.1-1.3.2-2.7.4-3.7 1.2-1.4 1-1.4 3.3 0 4.4.4.3.8.4 1.3.3s.9-.2 1.3-.5c1.5-.9 2.7-2.1 3.9-3.3.2-.2.5-.5.7-.8.2-.4-.4-.5-.5-.8-.3-.6-.7-.8-1.3-.6z" fill="#c76683"/><path d="m42.7 136.4c-1.1 0-2.4 1.1-2.7 2.2-.2.9.2 1.7 1.3 2.4.2.1.5.2.7.3 1.5.6 3 .9 4.6 1.2.5.1.9.1.9-.6 0-.3.2-.6.5-.7.2-.2.2-.3.1-.5-1-1.3-2-2.5-3.3-3.4-.7-.5-1.4-.9-2.1-.9z" fill="#c76683"/><path d="m47.2 149.7v.8c.2 1.5 1.4 2.4 3.1 2.3 1.3-.1 1.9-.8 1.9-2.5-.1-2-.8-3.8-1.6-5.7-.1-.2-.2-.3-.4-.2-.4.2-.9.2-1.3.1-.2-.1-.3 0-.4.2-.7 1.7-1.3 3.2-1.3 5z" fill="#c76683"/><path d="m50.8 140.6c1-.8 1.9-1.7 2.9-2.4s1.9-1.3 3.1-1.5c.9-.1 1.6.2 2 1 .9 1.8.3 3.4-1.5 4.1s-3.7.7-5.5.6c-.2 0-.3-.1-.4-.3-.6-1.3-1.1-1.6-2.4-1.5-.3 0-.4 0-.5-.3-.7-1.8-1.3-3.6-1.2-5.6 0-1.5.6-2.2 1.7-2.4 1.5-.2 2.8.6 3.2 1.9.3 1.1.1 2.1-.2 3.2-.4 1.2-.9 2.2-1.2 3.2z" fill="#c76683"/><path d="m56.8 148.9c-.7 0-1.3-.2-1.8-.6-1.6-1-2.8-2.4-3.9-3.9-.1-.2-.2-.3 0-.5.6-1.1.6-1.1 1.8-.9 1.4.2 2.7.4 4.1.8.4.1.7.3 1.1.4 1.2.6 1.7 1.4 1.5 2.3-.4 1.3-1.6 2.4-2.8 2.4z" fill="#c76683"/><path d="m46.5 143.1c.6-.2 1 0 1.2.7.1.3.7.4.5.8-.1.3-.4.5-.7.8-1.2 1.2-2.4 2.5-3.9 3.3-.4.2-.9.4-1.3.5-.5.1-.9 0-1.3-.3-1.4-1.1-1.3-3.4 0-4.4 1.1-.8 2.4-1.1 3.7-1.2.6-.2 1.2-.3 1.8-.2z" fill="#c76683"/><path d="m42.7 136.4c.8 0 1.5.4 2.1.8 1.3.9 2.3 2.2 3.3 3.4.2.2.1.4-.1.5-.2.2-.5.5-.5.7-.1.7-.4.7-.9.6-1.6-.2-3.1-.6-4.6-1.2-.2-.1-.5-.2-.7-.3-1.2-.7-1.6-1.4-1.3-2.4.3-1.1 1.6-2.1 2.7-2.1z" fill="#c76683"/><path d="m47.2 149.7c0-1.7.6-3.3 1.2-4.9.1-.2.2-.3.4-.2.4.1.9.1 1.3-.1.2-.1.3-.1.4.2.7 1.8 1.5 3.7 1.6 5.7.1 1.7-.6 2.4-1.9 2.5-1.7.1-2.9-.8-3.1-2.3.1-.3.1-.6.1-.9z" fill="#c76683"/><path d="m189.9 24.5-2.2 3.2 1.4 3.6-3.7-1.1-3 2.5-.1-3.9-3.3-2.1 3.7-1.3 1-3.8 2.4 3.1z" fill="#c76683"/><path d="m197.3 120.4-2.9 2.6.4 3.9-3.3-2-3.5 1.6.9-3.8-2.6-2.9 3.9-.3 1.9-3.4 1.5 3.6z" fill="#b2b4b7"/><path d="m148.4 153.5-3.1 2.7.5 4.1-3.5-2.1-3.7 1.7.9-4-2.8-3 4.1-.4 2-3.6 1.6 3.8z" fill="#b2b4b7"/><path d="m8.2 167.7-2.1 3.3 1.4 3.6-3.7-1.1-3 2.5-.2-4-3.3-2.1 3.7-1.3 1-3.8 2.4 3.1z" fill="#c76683"/><path d="m193.2 230.1c-.3-.2-.7-.4-1-.6-1-.5-1.9-1-2.9-1.5-.8-.4-1.6-.8-2.3-1.2-.6-.4-1.1-.7-1.6-1.3-.4-.4-.7-.9-.9-1.4s-.3-.9-.4-1.4c-.3-1.5.3-3 1.5-3.7 1.3-.8 2.7-.8 4.1-.1.3.2.6.4.9.7l.1.1v-.1c.2-.7.7-1.4 1.2-2 .5-.5 1.1-.7 1.8-.9.8-.2 1.7 0 2.4.4s1.2 1 1.5 1.7c.2.4.3.8.3 1.2.1.5.1.9.1 1.4 0 .7-.2 1.4-.5 2.1s-.7 1.3-1.1 1.9c-.6.9-1.3 1.8-1.9 2.7-.4.6-.8 1.2-1.3 2 .1-.1.1 0 0 0z" fill="#1e4b52"/><path d="m45.5 62.3-2.9 2.6.5 3.9-3.3-2-3.6 1.6.9-3.8-2.6-2.9 3.9-.4 1.9-3.4 1.5 3.6z" fill="#7c0b2f"/><path d="m157.2 74.6c.3.1.6.2.9.2 1.2.3 2.5.6 3.7.9h.1c-.1.2-.2.4-.3.7-.4 1-.7 2.1-.8 3.2-.2 1.7-.2 3.4.2 5.1.2.7.4 1.5.7 2.2.2.5.5 1.1.8 1.6s.7 1 1.2 1.4c.8.7 1.6 1.3 2.6 1.7 1.4.5 2.8.6 4.2.2 1.2-.3 2.2-.8 3.2-1.5s1.8-1.5 2.4-2.5c.8-1.4 1.1-2.9.8-4.5-.2-1.1-.6-2-1.2-3-.9-1.5-2.1-2.9-3.4-4-1.7-1.4-3.5-2.3-5.6-2.9h-.1c.1-.3.2-.6.3-.8.5-1.2.9-2.3 1.4-3.5 0-.1 0-.1 0-.2 1.1.5 2.1 1 3.2 1.4-.2.6-.5 1.2-.7 1.7.6.3 1.1.6 1.7.9 1.2.7 2.3 1.5 3.3 2.4.9.8 1.7 1.6 2.3 2.6.5.7.9 1.4 1.2 2.2.2.7.5 1.3.6 2 .2 1.2.2 2.4 0 3.6-.2 1.4-.6 2.7-1.3 4-1.1 1.9-2.6 3.3-4.5 4.3-1 .5-2 .9-3.1 1.1-3.1.6-6 .1-8.6-1.8-1.1-.8-2.1-1.7-2.8-3-.1-.2-.2-.3-.2-.4-.2-.3-.3-.7-.5-1v-.1c-.3-.7-.6-1.4-.8-2.2-.3-1.1-.4-2.2-.5-3.3-.1-1.6.2-3.2.6-4.7v-.1c-.5-.2-1.1-.3-1.6-.4.1-.7.2-1.3.3-2 .1-.6.2-1.1.3-1.5zm3.8 13.7c-.2-.6-.3-1.2-.5-1.8 0-.1-.1-.1-.2-.1-.3 0-.6 0-.9-.1h-.1c.2.8.3 1.5.5 2.3.5 0 .9-.1 1.2-.3zm16-8.3c.3-.2.6-.4.9-.7-.5-.6-1.1-1.2-1.6-1.7-.2.3-.3.6-.5.8-.1.1 0 .1 0 .2.2.2.4.5.7.8.2.2.4.4.5.6zm-4.5 13.7c.6-.4 1.2-.8 1.8-1.2-.2-.2-.4-.3-.6-.5-.1-.1-.1-.1-.2 0-.4.2-.8.5-1.2.7-.1.1-.2.1-.2.2.1.2.2.5.4.8zm3.1-3.1c.2.2.4.4.6.6.5-.5.9-1 1.3-1.4-.3-.2-.7-.3-1-.5-.2.4-.5.8-.9 1.3zm-5.5 2.6c-.5 0-1.1-.1-1.6-.1-.1.4-.2.7-.3 1.1.7 0 1.3-.1 1.9-.1 0-.3 0-.6 0-.9zm-11.3-9c.3-.1.6-.2.9-.3.1 0 .1-.1.1-.1 0-.4.1-.7.1-1.1 0-.1 0-.2 0-.3-.3 0-.6-.1-.9-.1-.1.6-.2 1.2-.2 1.9zm16.1-8.4c-.6-.3-1.2-.7-1.7-1-.2.3-.3.5-.4.8.4.2.8.5 1.2.7h.1c.1-.1.2-.1.2-.2.3 0 .4-.2.6-.3zm-11.5 15.8c-.4-.4-.7-.7-1.1-1.1-.2.2-.5.3-.7.5.4.4.9.8 1.3 1.2.2-.2.3-.4.5-.6zm14.7-9.3c.1.5.2 1 .2 1.4 0 0 .1.1.1.1h.7c-.1-.6-.2-1.2-.2-1.8-.3.1-.5.2-.8.3zm-11.4 10.8c-.4-.1-.8-.2-1.3-.2h-.1c-.1.2-.2.3-.3.5.5.1 1 .2 1.6.4 0-.2 0-.4.1-.7zm11-5.7c.2.1.4.2.7.3.2-.5.4-1 .6-1.5-.2 0-.4 0-.6 0 0 0-.1 0-.1.1-.2.3-.4.7-.6 1.1z" fill="#1e4b52"/><path d="m187.4 174.6c.3-1 .8-2 1.1-3.1.2-1 .5-2.1.2-3.2-.3-1.3-1.6-2.1-3.2-1.9-1.2.1-1.7.9-1.7 2.4 0 1.9.6 3.7 1.2 5.6.1.2.2.3.5.3 1.3-.1 1.8.2 2.4 1.5.1.2.2.3.4.3 1.9.1 3.7.1 5.5-.6s2.4-2.3 1.5-4.1c-.4-.8-1.1-1.2-2-1-1.2.2-2.2.8-3.1 1.5-.8.7-1.8 1.5-2.8 2.3z" fill="#c76683"/><path d="m193.5 182.9c1.2 0 2.4-1 2.7-2.3.2-.9-.3-1.7-1.5-2.3-.3-.2-.7-.3-1.1-.4-1.3-.4-2.7-.7-4.1-.8-1.2-.1-1.2-.1-1.8.9-.1.2-.1.3 0 .5 1.1 1.5 2.3 2.9 3.9 3.9.6.2 1.2.5 1.9.5z" fill="#c76683"/><path d="m183.2 177.1c-.6-.1-1.2.1-1.7.1-1.3.2-2.7.4-3.7 1.2-1.4 1-1.4 3.3 0 4.4.4.3.8.4 1.3.3s.9-.2 1.3-.5c1.5-.9 2.7-2.1 3.9-3.3.2-.2.5-.5.7-.8.2-.4-.4-.5-.5-.8-.3-.6-.7-.8-1.3-.6z" fill="#c76683"/><path d="m179.3 170.4c-1.1 0-2.4 1.1-2.7 2.2-.2.9.2 1.7 1.3 2.4.2.1.5.2.7.3 1.5.6 3 .9 4.6 1.2.5.1.9.1.9-.6 0-.3.2-.6.5-.7.2-.2.2-.3.1-.6-1-1.3-2-2.5-3.3-3.4-.6-.5-1.3-.8-2.1-.8z" fill="#c76683"/><path d="m183.9 183.7v.8c.2 1.5 1.4 2.4 3.1 2.3 1.3-.1 1.9-.8 1.9-2.5-.1-2-.8-3.8-1.6-5.7-.1-.2-.2-.3-.4-.2-.4.2-.9.2-1.3.1-.2-.1-.3 0-.4.2-.7 1.7-1.3 3.2-1.3 5z" fill="#c76683"/><path d="m187.4 174.6c1-.8 1.9-1.7 2.9-2.4s1.9-1.3 3.1-1.5c.9-.1 1.6.2 2 1 .9 1.8.3 3.4-1.5 4.1s-3.7.7-5.5.6c-.2 0-.3-.1-.4-.3-.6-1.3-1.1-1.6-2.4-1.5-.3 0-.4 0-.5-.3-.6-1.8-1.3-3.6-1.2-5.6 0-1.5.6-2.2 1.7-2.4 1.5-.2 2.8.6 3.2 1.9.3 1.1.1 2.1-.2 3.2-.3 1.2-.8 2.2-1.2 3.2z" fill="#c76683"/><path d="m193.5 182.9c-.7 0-1.3-.2-1.8-.6-1.6-1-2.8-2.4-3.9-3.9-.1-.2-.1-.3 0-.5.6-1.1.6-1.1 1.8-.9 1.4.2 2.7.4 4.1.8.4.1.7.3 1.1.4 1.2.6 1.7 1.4 1.5 2.3-.4 1.4-1.6 2.4-2.8 2.4z" fill="#c76683"/><path d="m183.2 177.1c.6-.2 1 0 1.2.7.1.3.7.4.5.8-.1.3-.4.5-.7.8-1.2 1.2-2.4 2.5-3.9 3.3-.4.2-.9.4-1.3.5-.5.1-.9 0-1.3-.3-1.4-1.1-1.3-3.4 0-4.4 1.1-.8 2.4-1.1 3.7-1.2.6-.2 1.2-.3 1.8-.2z" fill="#c76683"/><path d="m179.3 170.4c.8 0 1.5.3 2.1.8 1.3.9 2.3 2.2 3.3 3.4.2.2.1.4-.1.6s-.5.5-.5.7c-.1.7-.4.7-.9.6-1.6-.2-3.1-.6-4.6-1.2-.2-.1-.5-.2-.7-.3-1.2-.7-1.6-1.4-1.3-2.4.4-1.1 1.6-2.2 2.7-2.2z" fill="#c76683"/><path d="m183.9 183.7c0-1.7.6-3.3 1.2-4.9.1-.2.2-.3.4-.2.4.1.9.1 1.3-.1.2-.1.3-.1.4.2.7 1.8 1.5 3.7 1.6 5.7.1 1.6-.6 2.4-1.9 2.5-1.7.1-2.9-.8-3.1-2.3.1-.3.1-.6.1-.9z" fill="#c76683"/><path d="m126.6 221.1c.1.3.2.6.2.8.4 1.2.8 2.4 1.2 3.6v.1c-.2 0-.5.1-.7.1-1.1.2-2.2.5-3.2.9-1.6.7-3 1.6-4.2 2.8-.6.5-1.1 1.1-1.5 1.7-.3.5-.7 1-1 1.5s-.5 1.1-.6 1.7c-.2 1-.3 2.1-.1 3.1.2 1.5 1 2.7 2.1 3.7.9.8 1.8 1.4 2.9 1.9s2.2.7 3.4.8c1.7 0 3.1-.5 4.3-1.6.8-.7 1.4-1.6 1.9-2.5.8-1.6 1.4-3.2 1.7-5 .3-2.1.2-4.2-.4-6.3v-.1c.3-.1.6-.1.9-.2 1.2-.2 2.5-.4 3.7-.6h.2c.1 1.2.2 2.3.4 3.5-.6.1-1.2.2-1.8.3 0 .6.1 1.2.1 1.9 0 1.4-.1 2.7-.3 4.1-.2 1.2-.5 2.3-1 3.3-.3.7-.7 1.5-1.2 2.2-.4.6-.9 1.1-1.4 1.6-.9.8-2 1.4-3.1 1.9-1.3.6-2.7.9-4.1.9-2.2.1-4.2-.6-6.1-1.6-1-.6-1.8-1.3-2.6-2.1-2.1-2.3-3.2-5.1-2.9-8.3.1-1.4.4-2.7 1.1-4 .1-.1.1-.3.2-.4.2-.3.4-.6.6-.9 0 0 .1-.1.1-.1.4-.7.9-1.2 1.5-1.8.8-.8 1.7-1.5 2.6-2.1 1.3-.9 2.8-1.5 4.3-1.9h.1c-.2-.5-.3-1.1-.4-1.6.7-.2 1.3-.5 1.9-.7.3-.2.8-.4 1.2-.6zm-9.8 10.4c.4-.5.8-.9 1.2-1.3.1-.1.1-.1 0-.2-.1-.2-.3-.5-.4-.7 0 0 0-.1-.1-.1-.6.6-1.1 1.1-1.7 1.7.4.1.7.4 1 .6zm15.4 9.4c.3.2.7.3 1.1.4.2-.7.5-1.5.7-2.3-.3 0-.7 0-1 0-.1 0-.1 0-.2.1-.1.3-.2.7-.3 1s-.2.6-.3.8zm-14 3.2c.7.3 1.3.6 2 .9 0-.3.1-.5.1-.8 0-.1 0-.1-.1-.2-.4-.2-.8-.4-1.2-.7-.1 0-.2-.1-.2-.1-.3.3-.5.6-.6.9zm4.2 1.1c-.1.3-.1.6-.2.8.7.1 1.3.3 1.9.4 0-.4-.1-.7-.1-1.1-.5 0-1-.1-1.6-.1zm-5.1-3.4c-.2-.5-.5-.9-.7-1.4-.4.1-.7.2-1.1.3.4.5.7 1.1 1.1 1.6.2-.2.5-.3.7-.5zm1.9-14.3c.2.2.5.4.7.6.1.1.1 0 .2 0 .3-.2.7-.3 1-.5.1 0 .2-.1.2-.1-.1-.3-.2-.5-.4-.8-.5.2-1.1.5-1.7.8zm15.5 9.4c0-.7 0-1.3 0-2-.3 0-.6 0-.9.1v1.4s0 .1.1.1c.1.1.2.1.3.1.1.2.3.2.5.3zm-19.5-1.7c.1-.5.2-1 .3-1.5-.3-.1-.5-.2-.8-.3-.1.6-.2 1.2-.4 1.7.4.1.6.1.9.1zm15.6 7.8c-.4.3-.7.6-1.1 1v.1c.1.2.3.4.4.6.5-.4.9-.7 1.4-1.1-.3-.2-.5-.4-.7-.6zm-15.2-4.2c-.2-.4-.3-.8-.5-1.2 0 0 0-.1-.1-.1-.2 0-.4 0-.6 0 .2.5.3 1 .5 1.5.2 0 .4-.1.7-.2zm10.6 6.5c0 .2.1.5.1.7.5-.1 1.1-.2 1.6-.3-.1-.2-.2-.4-.3-.6h-.1c-.4.1-.8.2-1.3.2z" fill="#7c0b2f"/><path d="m1.3 223.6c.3-1 .8-2 1.1-3.1.2-1 .5-2.1.2-3.2-.3-1.3-1.6-2.1-3.2-1.9-1.2.1-1.7.9-1.7 2.4 0 1.9.6 3.7 1.2 5.5.1.2.2.3.5.3 1.3-.1 1.8.2 2.4 1.5.1.2.2.3.4.3 1.9.1 3.7.1 5.5-.6s2.4-2.3 1.5-4.1c-.4-.8-1.1-1.2-2-1-1.2.2-2.2.8-3.1 1.5-.8.7-1.8 1.6-2.8 2.4z" fill="#c76683"/><path d="m7.3 231.8c1.2 0 2.4-1 2.7-2.3.2-.9-.3-1.7-1.5-2.3-.3-.2-.7-.3-1.1-.4-1.3-.4-2.7-.7-4.1-.8-1.2-.1-1.2-.1-1.8.9-.1.2-.1.3 0 .5 1.1 1.5 2.3 2.9 3.9 3.9.7.3 1.3.6 1.9.5z" fill="#c76683"/><path d="m-2.2 232.7v.8c.2 1.5 1.4 2.4 3.1 2.3 1.3-.1 1.9-.8 1.9-2.5-.1-2-.8-3.8-1.6-5.7-.1-.2-.2-.3-.4-.2-.4.2-.9.2-1.3.1-.2-.1-.3 0-.4.2-.7 1.6-1.3 3.2-1.3 5z" fill="#c76683"/><path d="m1.3 223.6c1-.8 1.9-1.7 2.9-2.4.9-.7 1.9-1.3 3.1-1.5.9-.1 1.6.2 2 1 .9 1.8.3 3.4-1.5 4.1s-3.7.7-5.5.6c-.2 0-.3-.1-.4-.3-.6-1.3-1.1-1.6-2.4-1.5-.3 0-.4 0-.5-.3-.6-1.8-1.3-3.6-1.2-5.5 0-1.5.6-2.2 1.7-2.4 1.5-.2 2.8.6 3.2 1.9.3 1.1.1 2.1-.2 3.2s-.8 2.1-1.2 3.1z" fill="#c76683"/><path d="m7.3 231.8c-.7 0-1.3-.2-1.8-.6-1.6-1-2.8-2.4-3.9-3.9-.1-.2-.1-.3 0-.5.6-1.1.6-1.1 1.8-.9 1.4.1 2.7.4 4.1.8.4.1.7.3 1.1.4 1.2.6 1.7 1.4 1.5 2.3-.3 1.4-1.5 2.4-2.8 2.4z" fill="#c76683"/><path d="m-2.2 232.7c0-1.7.6-3.3 1.2-4.9.1-.2.2-.3.4-.2.4.1.9.1 1.3-.1.2-.1.3-.1.4.2.7 1.8 1.5 3.7 1.6 5.7.1 1.6-.6 2.4-1.9 2.5-1.7.1-2.9-.8-3.1-2.3.1-.4.1-.7.1-.9z" fill="#c76683"/><path d="m70 8.6c.1.3.2.6.2.8.4 1.2.8 2.4 1.2 3.6v.1c-.2 0-.5.1-.7.1-1.1.2-2.2.5-3.2.9-1.6.7-3 1.6-4.2 2.8-.6.5-1.1 1.1-1.5 1.7-.3.5-.7 1-1 1.5s-.5 1.1-.6 1.7c-.2 1-.3 2.1-.1 3.1.2 1.5 1 2.7 2 3.7.9.8 1.8 1.4 2.9 1.9s2.2.7 3.4.8c1.7 0 3.1-.5 4.3-1.6.8-.7 1.4-1.6 1.9-2.5.8-1.6 1.4-3.2 1.7-5 .3-2.1.2-4.2-.4-6.3v-.1c.3-.1.6-.1.9-.2 1.2-.2 2.5-.4 3.7-.6h.2c.1 1.2.2 2.3.4 3.5-.6.1-1.2.2-1.8.3 0 .6.1 1.2.1 1.9 0 1.4-.1 2.7-.3 4.1-.2 1.2-.5 2.3-1 3.3-.3.7-.7 1.5-1.2 2.2-.4.7-.9 1.2-1.4 1.7-.9.8-2 1.4-3.1 1.9-1.3.6-2.7.9-4.1.9-2.2.1-4.2-.5-6.1-1.6-1-.6-1.8-1.3-2.6-2.1-2.1-2.4-3.2-5.1-2.9-8.3.1-1.4.4-2.7 1.1-4 .1-.2.1-.3.2-.4.2-.3.4-.6.6-.9 0 0 .1-.1.1-.1.4-.7.9-1.2 1.5-1.8.8-.8 1.7-1.5 2.6-2.1 1.3-.9 2.8-1.5 4.3-1.9h.1c-.2-.5-.3-1.1-.4-1.6.7-.2 1.3-.5 1.9-.7.4-.4.8-.6 1.3-.7zm-9.8 10.4c.4-.5.8-.9 1.2-1.3.1-.1.1-.1 0-.2-.1-.2-.3-.5-.4-.7 0 0 0-.1-.1-.1-.6.6-1.1 1.1-1.7 1.7.4.1.7.3 1 .6zm15.4 9.4c.3.2.7.3 1.1.4.2-.7.5-1.5.7-2.3-.3 0-.7 0-1 0-.1 0-.1 0-.2.1-.1.3-.2.7-.3 1s-.2.5-.3.8zm-14.1 3.1c.7.3 1.3.6 2 .9 0-.3.1-.5.1-.8 0-.1 0-.1-.1-.2-.4-.2-.8-.4-1.2-.7-.1-.1-.2-.1-.2-.1-.2.4-.4.7-.6.9zm4.4 1.2c-.1.3-.1.6-.2.8.7.1 1.3.3 1.9.4 0-.4-.1-.7-.1-1.1-.6 0-1.1-.1-1.6-.1zm-5.2-3.4c-.2-.5-.5-.9-.7-1.4-.4.1-.7.2-1.1.3.4.5.7 1.1 1.1 1.6.3-.2.5-.4.7-.5zm1.9-14.4c.2.2.5.4.7.6.1.1.1 0 .2 0 .3-.2.7-.3 1-.5.1-.1.2-.1.2-.1-.1-.3-.2-.5-.4-.8-.5.2-1.1.5-1.7.8zm15.5 9.5c0-.7 0-1.3 0-2-.3 0-.6 0-.9.1v1.4s0 .1.1.1c.1.1.2.1.3.1.1.1.3.2.5.3zm-19.5-1.7c.1-.5.2-1 .3-1.5-.3-.1-.5-.2-.8-.3-.1.6-.2 1.2-.4 1.7.4 0 .7 0 .9.1zm15.6 7.8c-.4.3-.7.6-1.1.9v.1c.1.2.3.4.4.6.5-.4.9-.7 1.4-1.1-.3-.2-.5-.4-.7-.5zm-15.2-4.2c-.2-.4-.3-.8-.5-1.2 0 0 0-.1-.1-.1-.2 0-.4 0-.7 0 .2.5.3 1 .5 1.5.4-.1.6-.1.8-.2zm10.6 6.5c0 .2.1.5.1.7.5-.1 1.1-.2 1.6-.3-.1-.2-.2-.4-.3-.6h-.1c-.4.1-.8.2-1.3.2z" fill="#7c0b2f"/><path d="m93.6 90.9c-.3-.2-.7-.4-1-.6-1-.5-1.9-1-2.9-1.5-.8-.4-1.6-.8-2.3-1.2-.6-.3-1.1-.7-1.6-1.3-.4-.4-.7-.9-.9-1.4s-.3-.9-.4-1.4c-.3-1.5.3-3 1.5-3.7 1.3-.8 2.7-.8 4.1-.1.3.2.6.4.8.7 0 0 0 0 .1.1v-.1c.2-.7.7-1.4 1.2-1.9s1.1-.7 1.8-.9c.8-.2 1.7 0 2.4.4s1.2 1 1.5 1.7c.2.4.3.8.3 1.2.1.5.1.9.1 1.4 0 .7-.2 1.4-.5 2.1s-.7 1.3-1.1 1.9c-.6.9-1.3 1.8-1.9 2.7-.3.5-.7 1.1-1.2 1.9.1-.1 0 0 0 0z" fill="#7c0b2f"/><path d="m291 47.1-2.2 3.2 1.4 3.6-3.7-1.1-3 2.5-.1-3.9-3.3-2.1 3.7-1.3 1-3.8 2.4 3.1z" fill="#c76683"/><path d="m382.3-1.4-2.9 2.6.5 3.9-3.3-2-3.6 1.6.9-3.8-2.7-2.9 3.9-.4 1.9-3.4 1.5 3.6z" fill="#b2b4b7"/><path d="m249.6 176.1-3.1 2.7.5 4.1-3.5-2.1-3.7 1.7.9-4-2.8-3 4.1-.4 2-3.6 1.6 3.8z" fill="#b2b4b7"/><path d="m253 10.6c-.3-.2-.7-.4-1-.6-1-.5-1.9-1-2.9-1.5-.8-.4-1.6-.8-2.3-1.2-.6-.4-1.1-.7-1.6-1.3-.4-.4-.7-.9-.9-1.4s-.3-.9-.4-1.4c-.3-1.5.3-3 1.5-3.7 1.3-.8 2.7-.8 4.1-.1.3.2.6.4.9.7 0 0 0 0 .1.1v-.1c.2-.7.7-1.4 1.2-1.9s1.1-.7 1.8-.9c.8-.2 1.7 0 2.4.4s1.2 1 1.5 1.7c.2.4.3.8.3 1.2.1.5.1.9.1 1.4 0 .7-.2 1.4-.5 2.1s-.7 1.3-1.1 1.9c-.6.9-1.3 1.8-1.9 2.7-.5.6-.9 1.2-1.3 1.9z" fill="#7c0b2f"/><path d="m268.7 289.2-2.2 3.2 1.4 3.6-3.7-1.1-3 2.5-.1-3.9-3.3-2.1 3.7-1.3 1-3.8 2.4 3.1z" fill="#c76683"/><path d="m377.6 224.9c-.3-.2-.7-.4-1-.6-1-.5-1.9-1-2.9-1.5-.8-.4-1.6-.8-2.3-1.2-.6-.3-1.1-.7-1.6-1.3-.4-.4-.7-.9-.9-1.4s-.3-.9-.4-1.4c-.3-1.5.3-3 1.5-3.7 1.3-.8 2.7-.8 4.1-.1.3.2.6.4.8.7 0 0 0 0 .1.1v-.1c.2-.7.7-1.4 1.2-1.9s1.1-.7 1.8-.9c.8-.2 1.7 0 2.4.4s1.2 1 1.5 1.7c.2.4.3.8.3 1.2.1.5.1.9.1 1.4 0 .7-.2 1.4-.5 2.1s-.7 1.3-1.1 1.9c-.6.9-1.3 1.8-1.9 2.7-.4.6-.8 1.2-1.2 1.9z" fill="#1e4b52"/><path d="m373.9 290.9-2.9 2.6.5 3.9-3.3-2-3.5 1.6.8-3.8-2.6-2.9 3.9-.3 1.9-3.4 1.5 3.6z" fill="#7c0b2f"/><path d="m279.8 112.6c.3.1.6.2.9.2 1.2.3 2.5.6 3.7.9h.1c-.1.2-.2.4-.3.7-.4 1-.7 2.1-.8 3.2-.2 1.7-.2 3.4.2 5.1.2.7.4 1.5.7 2.2.2.5.5 1.1.8 1.6s.7 1 1.2 1.4c.8.7 1.6 1.3 2.6 1.7 1.4.5 2.8.6 4.2.2 1.1-.3 2.2-.8 3.2-1.5s1.8-1.5 2.4-2.6c.9-1.4 1.1-2.9.8-4.5-.2-1.1-.6-2-1.2-3-.9-1.5-2.1-2.9-3.4-4-1.7-1.4-3.5-2.3-5.6-2.9h-.1c.1-.3.2-.6.3-.8.5-1.2.9-2.3 1.4-3.5 0-.1 0-.1 0-.2 1.1.5 2.1 1 3.2 1.4-.2.6-.4 1.2-.7 1.7.6.3 1.1.6 1.7.9 1.2.7 2.3 1.5 3.3 2.4.9.8 1.7 1.6 2.3 2.6.5.7.9 1.4 1.2 2.2.2.7.5 1.3.6 2 .2 1.2.2 2.4 0 3.6-.2 1.4-.6 2.7-1.3 4-1.1 1.9-2.6 3.3-4.5 4.3-1 .5-2 .9-3.1 1.1-3.1.6-6 .1-8.6-1.8-1.2-.8-2.1-1.7-2.8-3-.1-.1-.2-.3-.2-.4-.2-.3-.3-.7-.5-1v-.1c-.3-.7-.6-1.4-.8-2.2-.3-1.1-.4-2.2-.5-3.3 0-1.6.2-3.2.6-4.7v-.1c-.5-.2-1.1-.3-1.6-.4.1-.7.2-1.3.3-2 .2-.5.2-1 .3-1.4zm3.8 13.7c-.2-.6-.3-1.2-.5-1.8 0-.1-.1-.1-.2-.1-.3 0-.6 0-.9-.1h-.1c.2.8.3 1.5.5 2.3.5 0 .9-.1 1.2-.3zm16.1-8.3c.3-.2.6-.4.9-.7-.5-.6-1.1-1.2-1.6-1.7-.2.3-.3.6-.5.8v.2c.2.2.4.5.7.8.1.2.3.4.5.6zm-4.6 13.7c.6-.4 1.2-.8 1.8-1.2-.2-.2-.4-.3-.6-.5-.1-.1-.1-.1-.2 0-.4.2-.8.5-1.2.7-.1 0-.2.1-.2.2.1.2.2.5.4.8zm3.2-3.1c.2.2.4.4.6.6.4-.5.9-1 1.3-1.4-.3-.2-.7-.3-1-.5-.3.4-.6.8-.9 1.3zm-5.6 2.6c-.5 0-1.1-.1-1.6-.1-.1.3-.2.7-.3 1.1.7 0 1.3-.1 1.9-.1.1-.3 0-.6 0-.9zm-11.3-9c.3-.1.6-.2.9-.3.1 0 .1-.1.1-.1 0-.4.1-.7.1-1.1 0-.1 0-.2 0-.3-.3 0-.6-.1-.9-.1-.1.6-.1 1.2-.2 1.9zm16.2-8.4c-.6-.3-1.2-.7-1.7-1-.2.3-.3.5-.4.8.4.2.8.5 1.2.7h.1c.1-.1.2-.1.2-.2.2 0 .4-.2.6-.3zm-11.6 15.8c-.4-.4-.7-.7-1.1-1.1-.2.2-.5.3-.7.5.4.4.9.8 1.3 1.2.2-.2.3-.4.5-.6zm14.7-9.3c.1.5.2 1 .2 1.4 0 0 .1.1.1.1h.7c-.1-.6-.2-1.2-.2-1.8-.3.1-.5.2-.8.3zm-11.4 10.9c-.4-.1-.8-.2-1.3-.2h-.1c-.1.2-.2.3-.3.5.5.1 1 .2 1.6.4 0-.3 0-.5.1-.7zm11-5.8c.2.1.4.2.7.3.2-.5.4-1 .6-1.5-.2 0-.4 0-.6 0 0 0-.1 0-.1.1-.2.3-.4.7-.6 1.1z" fill="#1e4b52"/><path d="m350.1 163.2c.3-1 .8-2 1.1-3.1.2-1 .5-2.1.2-3.2-.3-1.3-1.6-2.1-3.2-1.9-1.2.1-1.7.9-1.7 2.4 0 1.9.6 3.7 1.2 5.6.1.2.2.3.5.3 1.3-.1 1.8.2 2.4 1.5.1.2.2.3.4.3 1.9.1 3.7.1 5.5-.6s2.4-2.3 1.5-4.1c-.4-.8-1.1-1.2-2-1-1.2.2-2.2.8-3.1 1.5s-1.8 1.5-2.8 2.3z" fill="#c76683"/><path d="m356.2 171.5c1.2 0 2.4-1 2.7-2.3.2-.9-.3-1.7-1.5-2.3-.3-.2-.7-.3-1.1-.4-1.3-.4-2.7-.7-4.1-.8-1.2-.1-1.2-.1-1.8.9-.1.2-.1.3 0 .5 1.1 1.5 2.3 2.9 3.9 3.9.6.2 1.2.5 1.9.5z" fill="#c76683"/><path d="m345.9 165.7c-.6-.1-1.2.1-1.7.1-1.3.2-2.7.4-3.7 1.2-1.4 1-1.4 3.3 0 4.4.4.3.8.4 1.3.3s.9-.2 1.3-.5c1.5-.9 2.7-2.1 3.9-3.3.2-.2.5-.5.7-.8.2-.4-.4-.5-.5-.8-.3-.6-.7-.8-1.3-.6z" fill="#c76683"/><path d="m342 159c-1.1 0-2.4 1.1-2.7 2.2-.2.9.2 1.7 1.3 2.4.2.1.5.2.7.3 1.5.6 3 .9 4.6 1.2.5.1.9.1.9-.6 0-.3.2-.6.5-.7.2-.2.2-.3.1-.5-1-1.3-2-2.5-3.3-3.4-.6-.5-1.3-.9-2.1-.9z" fill="#c76683"/><path d="m346.6 172.3v.8c.2 1.5 1.4 2.4 3.1 2.3 1.3-.1 1.9-.8 1.9-2.5-.1-2-.8-3.8-1.6-5.7-.1-.2-.2-.3-.4-.2-.4.2-.9.2-1.3.1-.2-.1-.3 0-.4.2-.7 1.7-1.3 3.3-1.3 5z" fill="#c76683"/><path d="m350.1 163.2c1-.8 1.9-1.7 2.9-2.4s1.9-1.3 3.1-1.5c.9-.1 1.6.2 2 1 .9 1.8.3 3.4-1.5 4.1s-3.7.7-5.5.6c-.2 0-.3-.1-.4-.3-.6-1.3-1.1-1.6-2.4-1.5-.3 0-.4 0-.5-.3-.7-1.8-1.3-3.6-1.2-5.6 0-1.5.6-2.2 1.7-2.4 1.5-.2 2.8.6 3.2 1.9.3 1.1.1 2.1-.2 3.2-.4 1.2-.8 2.2-1.2 3.2z" fill="#c76683"/><path d="m356.2 171.5c-.7 0-1.3-.2-1.8-.6-1.6-1-2.8-2.4-3.9-3.9-.1-.2-.2-.3 0-.5.6-1.1.6-1.1 1.8-.9 1.4.2 2.7.4 4.1.8.4.1.7.3 1.1.4 1.2.6 1.7 1.4 1.5 2.3-.4 1.4-1.6 2.4-2.8 2.4z" fill="#c76683"/><path d="m345.9 165.7c.6-.2 1 0 1.2.7.1.3.7.4.5.8-.1.3-.4.5-.7.8-1.2 1.2-2.4 2.5-3.9 3.3-.4.2-.9.4-1.3.5-.5.1-.9 0-1.3-.3-1.4-1.1-1.3-3.4 0-4.4 1.1-.8 2.4-1.1 3.7-1.2.6-.2 1.1-.3 1.8-.2z" fill="#c76683"/><path d="m342 159c.8 0 1.5.4 2.1.8 1.3.9 2.3 2.2 3.3 3.4.2.2.1.4-.1.5-.2.2-.5.5-.5.7-.1.7-.4.7-.9.6-1.6-.2-3.1-.6-4.6-1.2-.2-.1-.5-.2-.7-.3-1.2-.7-1.6-1.4-1.3-2.4s1.6-2.1 2.7-2.1z" fill="#c76683"/><path d="m346.6 172.3c0-1.7.6-3.3 1.2-4.9.1-.2.2-.3.4-.2.4.1.9.1 1.3-.1.2-.1.3-.1.4.2.7 1.8 1.5 3.7 1.6 5.7.1 1.7-.6 2.4-1.9 2.5-1.7.1-2.9-.8-3.1-2.3 0-.3.1-.6.1-.9z" fill="#c76683"/><path d="m227.8 218.2c.1.3.2.6.2.8.4 1.2.7 2.4 1.2 3.6v.1c-.2 0-.5.1-.7.1-1.1.2-2.2.5-3.2.9-1.6.7-3 1.6-4.2 2.8-.5.5-1.1 1.1-1.5 1.7-.3.5-.7 1-1 1.5s-.5 1.1-.6 1.7c-.2 1-.3 2.1-.1 3.1.3 1.5 1 2.7 2.1 3.7.9.8 1.8 1.4 2.9 1.9s2.2.7 3.4.8c1.7 0 3.1-.5 4.3-1.6.8-.7 1.4-1.6 1.9-2.5.8-1.6 1.4-3.2 1.7-5 .3-2.1.2-4.2-.4-6.3v-.1c.3-.1.6-.1.9-.2 1.2-.2 2.5-.4 3.7-.6h.2c.1 1.2.2 2.3.4 3.5-.6.1-1.2.2-1.8.3 0 .6.1 1.2.1 1.9 0 1.4-.1 2.7-.3 4.1-.2 1.2-.5 2.3-1 3.3-.3.7-.7 1.5-1.2 2.2-.4.6-.9 1.1-1.4 1.6-.9.8-2 1.4-3.1 1.9-1.3.6-2.7.9-4.1.9-2.2.1-4.2-.6-6.1-1.6-1-.6-1.8-1.3-2.6-2.1-2.1-2.4-3.2-5.1-2.9-8.3.1-1.4.4-2.7 1.1-4 .1-.2.1-.3.2-.4.2-.3.4-.6.6-.9 0 0 .1-.1.1-.1.4-.7.9-1.2 1.5-1.8.8-.8 1.7-1.5 2.6-2.1 1.3-.9 2.8-1.5 4.3-1.9h.1c-.2-.5-.3-1.1-.4-1.6.7-.2 1.3-.5 1.9-.7.3-.2.7-.4 1.2-.6zm-9.8 10.4c.4-.5.8-.9 1.2-1.3.1-.1.1-.1 0-.2-.1-.2-.3-.5-.4-.7 0 0 0-.1-.1-.1-.6.6-1.1 1.1-1.7 1.7.4.1.7.4 1 .6zm15.4 9.4c.3.2.7.3 1.1.4.2-.7.5-1.5.7-2.3-.3 0-.7 0-1 0-.1 0-.1 0-.2.1-.1.3-.2.7-.3 1-.2.3-.3.6-.3.8zm-14.1 3.2c.7.3 1.3.6 2 .9 0-.3.1-.5.1-.8 0-.1 0-.1-.1-.2-.4-.2-.8-.4-1.2-.7-.1-.1-.2-.1-.2-.1-.3.4-.4.6-.6.9zm4.3 1.1c-.1.3-.1.6-.2.8.7.1 1.3.3 1.9.4 0-.4-.1-.7-.1-1.1-.5 0-1.1 0-1.6-.1zm-5.1-3.4c-.2-.5-.5-.9-.7-1.4-.4.1-.7.2-1.1.3.4.5.7 1.1 1.1 1.6.2-.2.5-.3.7-.5zm1.8-14.3c.2.2.5.4.7.6.1.1.1 0 .2 0 .3-.2.7-.3 1-.5.1-.1.2-.1.2-.1-.1-.3-.2-.5-.4-.8-.5.2-1 .5-1.7.8zm15.6 9.5c0-.7 0-1.3 0-2-.3 0-.6 0-.9.1v1.4s0 .1.1.1c.1.1.2.1.3.1.1.1.3.2.5.3zm-19.5-1.8c.1-.5.2-1 .3-1.5-.3-.1-.5-.2-.8-.3-.1.6-.2 1.2-.4 1.7.4.1.6.1.9.1zm15.6 7.8c-.4.3-.7.6-1.1.9v.1c.1.2.3.4.4.6.5-.4.9-.7 1.4-1.1-.3-.1-.5-.3-.7-.5zm-15.3-4.1c-.2-.4-.3-.8-.5-1.2 0 0 0-.1-.1-.1-.2 0-.4 0-.7 0 .2.5.3 1 .5 1.5.4-.1.6-.2.8-.2zm10.7 6.5c0 .2.1.5.1.7.5-.1 1.1-.2 1.6-.3-.1-.2-.2-.4-.3-.6h-.1c-.5 0-.9.1-1.3.2z" fill="#7c0b2f"/><path d="m227.8 107.8c.3-1 .8-2 1.1-3.1.2-1 .5-2.1.2-3.2-.3-1.3-1.6-2.1-3.2-1.9-1.2.1-1.7.9-1.7 2.4 0 1.9.6 3.7 1.2 5.5.1.2.2.3.5.3 1.3-.1 1.8.2 2.4 1.5.1.2.2.3.4.3 1.9.1 3.7.1 5.5-.6s2.4-2.3 1.5-4.1c-.4-.8-1.1-1.2-2-1-1.2.2-2.2.8-3.1 1.5s-1.9 1.5-2.8 2.4z" fill="#c76683"/><path d="m233.8 116c1.2 0 2.4-1 2.7-2.3.2-.9-.3-1.7-1.5-2.3-.3-.2-.7-.3-1.1-.4-1.3-.4-2.7-.7-4.1-.8-1.2-.1-1.2-.1-1.8.9-.1.2-.1.3 0 .5 1.1 1.5 2.3 2.9 3.9 3.9.6.2 1.2.5 1.9.5z" fill="#c76683"/><path d="m223.5 110.2c-.6-.1-1.2.1-1.7.1-1.3.2-2.7.4-3.7 1.2-1.4 1-1.4 3.3 0 4.4.4.3.8.4 1.3.3s.9-.2 1.3-.5c1.5-.9 2.7-2.1 3.9-3.3.2-.2.5-.5.7-.8.2-.4-.4-.5-.5-.8-.3-.6-.7-.8-1.3-.6z" fill="#c76683"/><path d="m219.6 103.5c-1.1 0-2.4 1.1-2.7 2.2-.2.9.2 1.7 1.3 2.4.2.1.5.2.7.4 1.5.6 3 .9 4.6 1.2.5.1.9.1.9-.6 0-.3.2-.6.5-.7.2-.2.2-.3.1-.6-1-1.3-2-2.5-3.3-3.4-.6-.5-1.3-.9-2.1-.9z" fill="#c76683"/><path d="m224.2 116.8v.8c.2 1.5 1.4 2.4 3.1 2.3 1.3-.1 1.9-.8 1.9-2.5-.1-2-.8-3.8-1.6-5.7-.1-.2-.2-.3-.4-.2-.4.2-.9.2-1.3.1-.2-.1-.3 0-.4.2-.7 1.7-1.3 3.3-1.3 5z" fill="#c76683"/><path d="m227.8 107.8c1-.8 1.9-1.7 2.9-2.4s1.9-1.3 3.1-1.5c.9-.1 1.6.2 2 1 .9 1.8.3 3.4-1.5 4.1s-3.7.7-5.5.6c-.2 0-.3-.1-.4-.3-.6-1.3-1.1-1.6-2.4-1.5-.3 0-.4 0-.5-.3-.7-1.8-1.3-3.6-1.2-5.5 0-1.5.6-2.2 1.7-2.4 1.5-.2 2.8.6 3.2 1.9.3 1.1.1 2.1-.2 3.2-.4 1-.9 2-1.2 3.1z" fill="#c76683"/><path d="m233.8 116c-.7 0-1.3-.2-1.8-.6-1.6-1-2.8-2.4-3.9-3.9-.1-.2-.2-.3 0-.5.6-1.1.6-1.1 1.8-.9 1.4.2 2.7.4 4.1.8.4.1.7.3 1.1.4 1.2.6 1.7 1.4 1.5 2.3-.4 1.4-1.6 2.4-2.8 2.4z" fill="#c76683"/><path d="m223.5 110.2c.6-.2 1 0 1.2.7.1.3.7.4.5.8-.1.3-.4.5-.7.8-1.2 1.2-2.4 2.5-3.9 3.3-.4.2-.9.4-1.3.5-.5.1-.9 0-1.3-.3-1.4-1.1-1.3-3.4 0-4.4 1.1-.8 2.4-1.1 3.7-1.2.6-.1 1.2-.2 1.8-.2z" fill="#c76683"/><path d="m219.6 103.5c.8 0 1.5.4 2.1.8 1.3.9 2.3 2.2 3.3 3.4.2.2.1.4-.1.6s-.5.5-.5.7c-.1.7-.4.7-.9.6-1.6-.2-3.1-.6-4.6-1.2-.2-.1-.5-.2-.7-.4-1.2-.7-1.6-1.4-1.3-2.4.4-1 1.7-2.1 2.7-2.1z" fill="#c76683"/><path d="m224.2 116.8c0-1.7.6-3.3 1.2-4.9.1-.2.2-.3.4-.2.4.1.9.1 1.3-.1.2-.1.3-.1.4.2.7 1.8 1.5 3.7 1.6 5.7.1 1.7-.6 2.4-1.9 2.5-1.7.1-2.9-.8-3.1-2.3.1-.3.1-.6.1-.9z" fill="#c76683"/><path d="m447.8 176.1-3.1 2.7.5 4.1-3.5-2.1-3.7 1.7.9-4-2.8-3 4.1-.4 2-3.6 1.6 3.8z" fill="#b2b4b7"/><path d="m451.1 10.6c-.3-.2-.7-.4-1-.6-1-.5-1.9-1-2.9-1.5-.8-.4-1.6-.8-2.3-1.2-.6-.3-1.1-.7-1.6-1.3-.4-.4-.7-.9-.9-1.4s-.3-.9-.4-1.4c-.3-1.5.3-3 1.5-3.7 1.3-.8 2.7-.8 4.1-.1.3.2.6.4.9.7 0 0 0 0 .1.1v-.1c.2-.7.7-1.4 1.2-1.9s1.1-.7 1.8-.9c.8-.2 1.7 0 2.4.4s1.2 1 1.5 1.7c.2.4.3.8.3 1.2.2.4.2.8.2 1.3 0 .7-.2 1.4-.5 2.1s-.7 1.3-1.1 1.9c-.6.9-1.3 1.8-1.9 2.7-.5.6-.9 1.3-1.4 2z" fill="#7c0b2f"/><path d="m307.6 190.3-2.2 3.2 1.4 3.6-3.7-1.1-3 2.5-.1-3.9-3.3-2.1 3.7-1.3 1-3.8 2.4 3.1z" fill="#c76683"/><path d="m344.9 84.9-2.9 2.6.5 3.9-3.3-2-3.6 1.6.9-3.8-2.6-2.9 3.9-.4 1.9-3.4 1.5 3.6z" fill="#7c0b2f"/><path d="m456.5 97.2c.3.1.6.2.9.2 1.2.3 2.5.6 3.7.9h.1c-.1.2-.2.4-.3.7-.4 1-.7 2.1-.8 3.2-.2 1.7-.2 3.4.2 5.1.2.7.4 1.5.7 2.2.2.5.5 1.1.8 1.6s.7 1 1.2 1.4c.8.7 1.6 1.3 2.6 1.7 1.4.5 2.8.6 4.2.2 1.2-.3 2.2-.8 3.2-1.5s1.8-1.5 2.4-2.5c.8-1.4 1.1-2.9.8-4.5-.2-1.1-.6-2-1.2-3-.9-1.5-2.1-2.9-3.4-4-1.7-1.4-3.5-2.3-5.6-2.9h-.1c.1-.3.2-.6.3-.8.5-1.2.9-2.3 1.4-3.5 0-.1 0-.1 0-.2 1.1.5 2.1 1 3.2 1.4-.2.6-.5 1.2-.7 1.7.6.3 1.1.6 1.7.9 1.2.7 2.3 1.5 3.3 2.4.9.8 1.7 1.6 2.3 2.6.5.7.9 1.4 1.2 2.2.2.7.5 1.3.6 2 .2 1.2.2 2.4 0 3.6-.2 1.4-.6 2.7-1.3 4-1.1 1.9-2.6 3.3-4.5 4.3-1 .5-2 .9-3.1 1.1-3.1.6-6 .1-8.6-1.8-1.1-.8-2.1-1.7-2.8-3-.1-.2-.2-.3-.2-.4-.2-.3-.3-.7-.5-1v-.1c-.3-.7-.6-1.4-.8-2.2-.3-1.1-.4-2.2-.5-3.3-.1-1.6.2-3.2.6-4.7v-.1c-.5-.2-1.1-.3-1.6-.4.1-.7.2-1.3.3-2 .2-.6.3-1.1.3-1.5zm3.9 13.7c-.2-.6-.3-1.2-.5-1.8 0-.1-.1-.1-.2-.1-.3 0-.6 0-.9-.1h-.1c.2.8.3 1.5.5 2.3.4 0 .8-.1 1.2-.3zm16-8.3c.3-.2.6-.4.9-.7-.5-.6-1.1-1.2-1.6-1.7-.2.3-.3.6-.5.8-.1.1 0 .1 0 .2.2.2.4.5.7.8.1.2.3.4.5.6zm-4.6 13.7c.6-.4 1.2-.8 1.8-1.2-.2-.2-.4-.3-.6-.5-.1-.1-.1-.1-.2 0-.4.2-.8.5-1.2.7-.1.1-.2.1-.2.2.1.2.3.5.4.8zm3.2-3.1c.2.2.4.4.6.6.5-.5.9-1 1.3-1.4-.3-.2-.7-.3-1-.5-.3.4-.6.9-.9 1.3zm-5.6 2.6c-.5 0-1.1-.1-1.6-.1-.1.4-.2.7-.3 1.1.7 0 1.3-.1 1.9-.1.1-.3.1-.6 0-.9zm-11.3-9c.3-.1.6-.2.9-.3.1 0 .1-.1.1-.1 0-.4.1-.7.1-1.1 0-.1 0-.2 0-.3-.3 0-.6-.1-.9-.1 0 .6-.1 1.2-.2 1.9zm16.2-8.4c-.6-.3-1.2-.7-1.7-1-.2.3-.3.5-.4.8.4.2.8.5 1.2.7h.1c.1-.1.2-.1.2-.2.2 0 .4-.2.6-.3zm-11.6 15.8c-.4-.4-.7-.7-1.1-1.1-.2.2-.5.3-.7.5.4.4.9.8 1.3 1.2.2-.2.4-.4.5-.6zm14.7-9.3c.1.5.2 1 .2 1.4 0 0 .1.1.1.1h.7c-.1-.6-.2-1.2-.2-1.8-.2.1-.5.2-.8.3zm-11.4 10.9c-.4-.1-.8-.2-1.3-.2h-.1c-.1.2-.2.3-.3.5.5.1 1 .2 1.6.4 0-.3.1-.5.1-.7zm11.1-5.8c.2.1.4.2.7.3.2-.5.4-1 .6-1.5-.2 0-.4 0-.6 0 0 0-.1 0-.1.1-.3.3-.4.7-.6 1.1z" fill="#1e4b52"/><path d="m426 243.7c.1.3.2.6.2.8.4 1.2.8 2.4 1.2 3.6v.1c-.2 0-.5.1-.7.1-1.1.2-2.2.5-3.2.9-1.6.7-3 1.6-4.2 2.8-.6.5-1.1 1.1-1.5 1.7-.3.5-.7 1-1 1.5s-.5 1.1-.6 1.7c-.2 1-.3 2.1-.1 3.1.2 1.5 1 2.7 2.1 3.7.9.8 1.8 1.4 2.9 1.9s2.2.7 3.4.8c1.7 0 3.1-.5 4.3-1.6.8-.7 1.4-1.6 1.9-2.5.8-1.6 1.4-3.2 1.7-5 .3-2.1.2-4.2-.4-6.3v-.1c.3-.1.6-.1.9-.2 1.2-.2 2.5-.4 3.7-.6h.2c.1 1.2.2 2.3.4 3.5-.6.1-1.2.2-1.8.3 0 .6.1 1.2.1 1.9 0 1.4-.1 2.7-.3 4.1-.2 1.2-.5 2.3-1 3.3-.3.7-.7 1.5-1.2 2.2-.4.6-.9 1.1-1.4 1.6-.9.8-2 1.4-3.1 1.9-1.3.6-2.7.9-4.1.9-2.2.1-4.2-.6-6.1-1.6-1-.6-1.8-1.3-2.6-2.1-2.1-2.3-3.2-5.1-2.9-8.3.1-1.4.4-2.7 1.1-4 .1-.1.1-.3.2-.4.2-.3.4-.6.6-.9 0 0 .1-.1.1-.1.4-.7.9-1.2 1.5-1.8.8-.8 1.7-1.5 2.6-2.1 1.3-.9 2.8-1.5 4.3-1.9h.1c-.2-.5-.3-1.1-.4-1.6.7-.2 1.3-.5 1.9-.7.3-.2.7-.4 1.2-.6-.1 0-.1 0 0 0zm-9.9 10.4c.4-.5.8-.9 1.2-1.3.1-.1.1-.1 0-.2-.1-.2-.3-.5-.4-.7 0 0 0-.1-.1-.1-.6.6-1.1 1.1-1.7 1.7.5.1.7.4 1 .6zm15.4 9.4c.3.2.7.3 1.1.4.2-.7.5-1.5.7-2.3-.3 0-.7 0-1 0-.1 0-.1 0-.2.1-.1.3-.2.7-.3 1s-.2.6-.3.8zm-14 3.2c.7.3 1.3.6 2 .9 0-.3.1-.5.1-.8 0-.1 0-.1-.1-.2-.4-.2-.8-.4-1.2-.7-.1 0-.2-.1-.2-.1-.3.3-.4.6-.6.9zm4.3 1.1c-.1.3-.1.6-.2.8.7.1 1.3.3 1.9.4 0-.4-.1-.7-.1-1.1-.5 0-1.1-.1-1.6-.1zm-5.1-3.4c-.2-.5-.5-.9-.7-1.4-.4.1-.7.2-1.1.3.4.5.7 1.1 1.1 1.6.2-.2.5-.3.7-.5zm1.8-14.3c.2.2.5.4.7.6.1.1.1 0 .2 0 .3-.2.7-.3 1-.5.1 0 .2-.1.2-.1-.1-.3-.2-.5-.4-.8-.5.2-1.1.5-1.7.8zm15.6 9.4c0-.7 0-1.3 0-2-.3 0-.6 0-.9.1v1.4s0 .1.1.1c.1.1.2.1.3.1.1.2.2.2.5.3zm-19.5-1.7c.1-.5.2-1 .3-1.5-.3-.1-.5-.2-.8-.3-.1.6-.2 1.2-.4 1.7.4.1.6.1.9.1zm15.5 7.8c-.4.3-.7.6-1.1 1v.1c.1.2.3.4.4.6.5-.4.9-.7 1.4-1.1-.2-.2-.4-.4-.7-.6zm-15.1-4.2c-.2-.4-.3-.8-.5-1.2 0 0 0-.1-.1-.1-.2 0-.4 0-.6 0 .2.5.3 1 .5 1.5.2 0 .4-.1.7-.2zm10.6 6.5c0 .2.1.5.1.7.5-.1 1.1-.2 1.6-.3-.1-.2-.2-.4-.3-.6h-.1c-.5.1-.9.2-1.3.2z" fill="#7c0b2f"/><path d="m300.7 246.2c.3-1 .8-2 1.1-3.1.2-1 .5-2.1.2-3.2-.3-1.3-1.6-2.1-3.2-1.9-1.2.1-1.7.9-1.7 2.4 0 1.9.6 3.7 1.2 5.5.1.2.2.3.5.3 1.3-.1 1.8.2 2.4 1.5.1.2.2.3.4.3 1.9.1 3.7.1 5.5-.6s2.4-2.3 1.5-4.1c-.4-.8-1.1-1.2-2-1-1.2.2-2.2.8-3.1 1.5-.9.8-1.8 1.6-2.8 2.4z" fill="#c76683"/><path d="m306.7 254.5c1.2 0 2.4-1 2.7-2.3.2-.9-.3-1.7-1.5-2.3-.3-.2-.7-.3-1.1-.4-1.3-.4-2.7-.7-4.1-.8-1.2-.1-1.2-.1-1.8.9-.1.2-.1.3 0 .5 1.1 1.5 2.3 2.9 3.9 3.9.6.2 1.2.5 1.9.5z" fill="#c76683"/><path d="m296.4 248.7c-.6-.1-1.2.1-1.7.1-1.3.2-2.7.4-3.7 1.2-1.4 1-1.4 3.3-.1 4.4.4.3.8.4 1.3.3s.9-.2 1.3-.5c1.5-.9 2.7-2.1 3.9-3.3.2-.2.5-.5.7-.8.2-.4-.4-.5-.5-.8-.1-.6-.6-.8-1.2-.6z" fill="#c76683"/><path d="m292.6 242c-1.1 0-2.4 1.1-2.7 2.2-.2.9.2 1.7 1.3 2.4.2.1.5.2.7.4 1.5.6 3 .9 4.6 1.2.5.1.9.1.9-.6 0-.3.2-.6.5-.7.2-.2.2-.3.1-.5-1-1.3-2-2.5-3.3-3.4-.6-.7-1.3-1-2.1-1z" fill="#c76683"/><path d="m297.1 255.3v.8c.2 1.5 1.4 2.4 3.1 2.3 1.3-.1 1.9-.8 1.9-2.5-.1-2-.8-3.8-1.6-5.7-.1-.2-.2-.3-.4-.2-.4.2-.9.2-1.3.1-.2-.1-.3 0-.4.2-.7 1.7-1.3 3.2-1.3 5z" fill="#c76683"/><path d="m300.7 246.2c1-.8 1.9-1.7 2.9-2.4.9-.7 1.9-1.3 3.1-1.5.9-.1 1.6.2 2 1 .9 1.8.3 3.4-1.5 4.1s-3.7.7-5.5.6c-.2 0-.3-.1-.4-.3-.6-1.3-1.1-1.6-2.4-1.5-.3 0-.4 0-.5-.3-.6-1.8-1.3-3.6-1.2-5.5 0-1.5.6-2.2 1.7-2.4 1.5-.2 2.8.6 3.2 1.9.3 1.1.1 2.1-.2 3.2-.4 1.1-.8 2.1-1.2 3.1z" fill="#c76683"/><path d="m306.7 254.5c-.7 0-1.3-.2-1.8-.6-1.6-1-2.8-2.4-3.9-3.9-.1-.2-.1-.3 0-.5.6-1.1.6-1.1 1.8-.9 1.4.1 2.7.4 4.1.8.4.1.7.3 1.1.4 1.2.6 1.7 1.4 1.5 2.3-.4 1.4-1.5 2.4-2.8 2.4z" fill="#c76683"/><path d="m296.4 248.7c.6-.2 1 0 1.2.7.1.3.7.4.5.8-.1.3-.4.5-.7.8-1.2 1.2-2.4 2.5-3.9 3.3-.4.2-.9.4-1.3.5-.5.1-.9 0-1.3-.3-1.4-1.1-1.3-3.4.1-4.4 1.1-.8 2.4-1.1 3.7-1.2.5-.2 1.1-.3 1.7-.2z" fill="#c76683"/><path d="m292.6 242c.8 0 1.5.4 2.1.8 1.3.9 2.3 2.2 3.3 3.4.2.2.1.4-.1.5-.2.2-.5.5-.5.7-.1.7-.4.7-.9.6-1.6-.2-3.1-.6-4.6-1.2-.2-.1-.5-.2-.7-.4-1.2-.7-1.6-1.4-1.3-2.4.3-.9 1.6-2 2.7-2z" fill="#c76683"/><path d="m297.1 255.3c0-1.7.6-3.3 1.2-4.9.1-.2.2-.3.4-.2.4.1.9.1 1.3-.1.2-.1.3-.1.4.2.7 1.8 1.5 3.7 1.6 5.7.1 1.6-.6 2.4-1.9 2.5-1.7.1-2.9-.8-3.1-2.3.1-.3.1-.7.1-.9z" fill="#c76683"/><path d="m369.4 31.2c.1.3.2.6.2.8.4 1.2.8 2.4 1.2 3.6v.1c-.2 0-.5.1-.7.1-1.1.2-2.2.5-3.2.9-1.6.7-3 1.6-4.2 2.8-.6.5-1.1 1.1-1.5 1.7-.3.5-.7 1-1 1.5s-.5 1.1-.6 1.7c-.2 1-.3 2.1-.1 3.1.2 1.5 1 2.7 2 3.7.9.8 1.8 1.4 2.9 1.9s2.2.7 3.4.8c1.7 0 3.1-.5 4.3-1.6.8-.7 1.4-1.6 1.9-2.5.8-1.6 1.4-3.2 1.7-5 .3-2.1.2-4.2-.4-6.3v-.1c.3-.1.6-.1.9-.2 1.2-.2 2.5-.4 3.7-.6h.2c.1 1.2.2 2.3.4 3.5-.6.1-1.2.2-1.8.3 0 .6.1 1.2.1 1.9 0 1.4-.1 2.7-.3 4.1-.2 1.2-.5 2.3-1 3.3-.3.7-.7 1.5-1.2 2.2-.4.6-.9 1.1-1.4 1.6-.9.8-2 1.4-3.1 1.9-1.3.6-2.7.9-4.1.9-2.2.1-4.2-.5-6.1-1.6-1-.6-1.8-1.3-2.6-2.1-2.1-2.4-3.2-5.1-2.9-8.3.1-1.4.4-2.7 1.1-4 .1-.2.1-.3.2-.4.2-.3.4-.6.6-.9 0 0 .1-.1.1-.1.4-.7.9-1.2 1.5-1.8.8-.8 1.7-1.5 2.6-2.1 1.3-.9 2.8-1.5 4.3-1.9h.1c-.2-.5-.3-1.1-.4-1.6.7-.2 1.3-.5 1.9-.7.4-.3.8-.4 1.3-.6zm-9.9 10.4c.4-.5.8-.9 1.2-1.3.1-.1.1-.1 0-.2-.1-.2-.3-.5-.4-.7 0 0 0-.1-.1-.1-.6.6-1.1 1.1-1.7 1.7.5.1.8.3 1 .6zm15.5 9.4c.3.2.7.3 1.1.4.2-.7.5-1.5.7-2.3-.3 0-.7 0-1 0-.1 0-.1 0-.2.1-.1.3-.2.7-.3 1-.2.3-.2.5-.3.8zm-14.1 3.1c.7.3 1.3.6 2 .9 0-.3.1-.5.1-.8 0-.1 0-.1-.1-.2-.4-.2-.8-.4-1.2-.7-.1-.1-.2-.1-.2-.1-.2.4-.4.7-.6.9zm4.3 1.2c-.1.3-.1.6-.2.8.7.1 1.3.3 1.9.4 0-.4-.1-.7-.1-1.1-.5 0-1.1-.1-1.6-.1zm-5.1-3.4c-.2-.5-.5-.9-.7-1.4-.4.1-.7.2-1.1.3.4.5.7 1.1 1.1 1.6.2-.2.5-.4.7-.5zm1.8-14.4c.2.2.5.4.7.6.1.1.1 0 .2 0 .3-.2.7-.3 1-.5.1-.1.2-.1.2-.1-.1-.3-.2-.5-.4-.8-.5.2-1 .5-1.7.8zm15.6 9.5c0-.7 0-1.3 0-2-.3 0-.6 0-.9.1v1.4s0 .1.1.1c.1.1.2.1.3.1.1.1.3.2.5.3zm-19.5-1.7c.1-.5.2-1 .3-1.5-.3-.1-.5-.2-.8-.3-.1.6-.2 1.2-.4 1.7.4 0 .6 0 .9.1zm15.5 7.8c-.4.3-.7.6-1.1.9v.1c.1.2.3.4.4.6.5-.4.9-.7 1.4-1.1-.2-.2-.4-.4-.7-.5zm-15.2-4.2c-.2-.4-.3-.8-.5-1.2 0 0 0-.1-.1-.1-.2 0-.4 0-.7 0 .2.5.3 1 .5 1.5.4 0 .6-.1.8-.2zm10.7 6.5c0 .2.1.5.1.7.5-.1 1.1-.2 1.6-.3-.1-.2-.2-.4-.3-.6h-.1c-.5.1-.9.2-1.3.2z" fill="#7c0b2f"/><path d="m393 113.5c-.3-.2-.7-.4-1-.6-1-.5-1.9-1-2.9-1.5-.8-.4-1.6-.8-2.3-1.2-.6-.3-1.1-.7-1.6-1.3-.4-.4-.7-.9-.9-1.4s-.3-.9-.4-1.4c-.3-1.5.3-3 1.5-3.7 1.3-.8 2.7-.8 4.1-.1.3.2.6.4.8.7 0 0 0 0 .1.1v-.1c.2-.7.7-1.4 1.2-1.9s1.1-.7 1.8-.9c.8-.2 1.7 0 2.4.4s1.2 1 1.5 1.7c.2.4.3.8.3 1.2.1.5.1.9.1 1.4 0 .7-.2 1.4-.5 2.1s-.7 1.3-1.1 1.9c-.6.9-1.3 1.8-1.9 2.7-.4.5-.8 1.2-1.2 1.9 0-.1 0 0 0 0z" fill="#7c0b2f"/><path d="m13.2 350.4-2.2 3.2 1.4 3.6-3.7-1.1-3 2.5-.1-3.9-3.3-2.1 3.7-1.3 1-3.8 2.4 3.1z" fill="#c76683"/><path d="m104.4 301.9-2.9 2.6.5 3.9-3.3-2-3.5 1.6.9-3.8-2.6-2.9 3.9-.4 1.9-3.4 1.5 3.6z" fill="#b2b4b7"/><path d="m2 415.8c.3.1.6.2.9.2 1.2.3 2.5.6 3.7.9h.1c-.1.2-.2.4-.3.7-.4 1-.7 2.1-.8 3.2-.2 1.7-.2 3.4.2 5.1.2.7.4 1.5.7 2.2.2.5.5 1.1.8 1.6s.7 1 1.2 1.4c.8.7 1.6 1.3 2.6 1.7 1.4.5 2.8.6 4.2.2 1.1-.3 2.2-.8 3.2-1.5s1.8-1.5 2.4-2.6c.9-1.4 1.1-2.9.8-4.5-.2-1.1-.6-2-1.2-3-.9-1.5-2.1-2.9-3.4-4-1.7-1.4-3.5-2.3-5.6-2.9h-.1c.1-.3.2-.6.3-.8.5-1.2.9-2.3 1.4-3.5 0-.1 0-.1 0-.2 1.1.5 2.1 1 3.2 1.4-.2.6-.4 1.2-.7 1.7.6.3 1.1.6 1.7.9 1.2.7 2.3 1.5 3.3 2.4.9.8 1.7 1.6 2.3 2.6.5.7.9 1.4 1.2 2.2.2.7.5 1.3.6 2 .2 1.2.2 2.4 0 3.6-.2 1.4-.6 2.7-1.3 4-1.1 1.9-2.6 3.3-4.5 4.3-1 .5-2 .9-3.1 1.1-3.1.6-6 .1-8.6-1.8-1.2-.8-2.1-1.7-2.8-3-.1-.1-.2-.3-.2-.4-.2-.3-.3-.7-.5-1v-.1c-.3-.7-.6-1.4-.8-2.2-.3-1.1-.4-2.2-.5-3.3 0-1.6.2-3.2.6-4.7v-.1c-.5-.2-1.1-.3-1.6-.4.1-.7.2-1.3.3-2 .1-.5.2-.9.3-1.4zm3.8 13.8c-.2-.6-.3-1.2-.5-1.8 0-.1-.1-.1-.2-.1-.3 0-.6 0-.9-.1h-.1c.2.8.3 1.5.5 2.3.4-.1.8-.2 1.2-.3zm16-8.3c.3-.2.6-.4.9-.7-.5-.6-1.1-1.2-1.6-1.7-.2.3-.3.6-.5.8v.2c.2.2.4.5.7.8.1.1.3.4.5.6zm-4.6 13.6c.6-.4 1.2-.8 1.8-1.2-.2-.2-.4-.3-.6-.5-.1-.1-.1-.1-.2 0-.4.2-.8.5-1.2.7-.1 0-.2.1-.2.2.1.3.3.5.4.8zm3.2-3.1c.2.2.4.4.6.6.4-.5.9-1 1.3-1.4-.3-.2-.7-.3-1-.5-.3.5-.6.9-.9 1.3zm-5.5 2.6c-.5 0-1.1-.1-1.6-.1-.1.3-.2.7-.3 1.1.7 0 1.3-.1 1.9-.1 0-.3 0-.6 0-.9zm-11.4-8.9c.3-.1.6-.2.9-.3.1 0 .1-.1.1-.1 0-.4.1-.7.1-1.1 0-.1 0-.2 0-.3-.3 0-.6-.1-.9-.1 0 .5-.1 1.2-.2 1.9zm16.2-8.4c-.6-.3-1.2-.7-1.7-1-.2.3-.3.5-.4.8.4.2.8.5 1.2.7h.1c.1-.1.2-.1.2-.2.2-.1.4-.2.6-.3zm-11.6 15.8c-.4-.4-.7-.7-1.1-1.1-.2.2-.5.3-.7.5.4.4.9.8 1.3 1.2.2-.2.4-.4.5-.6zm14.7-9.3c.1.5.2 1 .2 1.4 0 0 .1.1.1.1h.7c-.1-.6-.2-1.2-.2-1.8-.2.1-.5.2-.8.3zm-11.4 10.8c-.4-.1-.8-.2-1.3-.2h-.1c-.1.2-.2.3-.3.5.5.1 1 .2 1.6.4 0-.2.1-.5.1-.7zm11.1-5.7c.2.1.4.2.7.3l.6-1.5c-.2 0-.4 0-.6 0 0 0-.1 0-.1.1-.3.3-.4.7-.6 1.1z" fill="#1e4b52"/><path d="m72.3 466.5c.3-1 .8-2 1.1-3.1.2-1 .5-2.1.2-3.2-.3-1.3-1.6-2.1-3.2-1.9-1.2.1-1.7.9-1.7 2.4 0 1.9.6 3.7 1.2 5.6.1.2.2.3.5.3 1.3-.1 1.8.2 2.4 1.5.1.2.2.3.4.3 1.9.1 3.7.1 5.5-.6s2.4-2.3 1.5-4.1c-.4-.8-1.1-1.2-2-1-1.2.2-2.2.8-3.1 1.5-.9.6-1.9 1.5-2.8 2.3z" fill="#c76683"/><path d="m78.3 474.7c1.2 0 2.4-1 2.7-2.3.2-.9-.3-1.7-1.5-2.3-.3-.2-.7-.3-1.1-.4-1.3-.4-2.7-.7-4.1-.8-1.2-.1-1.2-.1-1.8.9-.1.2-.1.3 0 .5 1.1 1.5 2.3 2.9 3.9 3.9.6.3 1.2.5 1.9.5z" fill="#c76683"/><path d="m68 469c-.6-.1-1.2.1-1.7.1-1.3.2-2.7.4-3.7 1.2-1.4 1-1.4 3.3 0 4.4.4.3.8.4 1.3.3s.9-.2 1.3-.5c1.5-.9 2.7-2.1 3.9-3.3.2-.2.5-.5.7-.8.2-.4-.4-.5-.5-.8-.3-.6-.7-.8-1.3-.6z" fill="#c76683"/><path d="m64.2 462.3c-1.1 0-2.4 1.1-2.7 2.2-.2.9.2 1.7 1.3 2.4.2.1.5.2.7.3 1.5.6 3 .9 4.6 1.2.5.1.9.1.9-.6 0-.3.2-.6.5-.7.2-.2.2-.3.1-.5-1-1.3-2-2.5-3.3-3.4-.7-.6-1.4-.9-2.1-.9z" fill="#c76683"/><path d="m68.7 475.6v.8c.2 1.5 1.4 2.4 3.1 2.3 1.3-.1 1.9-.8 1.9-2.5-.1-2-.8-3.8-1.6-5.7-.1-.2-.2-.3-.4-.2-.4.2-.9.2-1.3.1-.2-.1-.3 0-.4.2-.7 1.6-1.3 3.2-1.3 5z" fill="#c76683"/><path d="m72.3 466.5c1-.8 1.9-1.7 2.9-2.4s1.9-1.3 3.1-1.5c.9-.1 1.6.2 2 1 .9 1.8.3 3.4-1.5 4.1s-3.7.7-5.5.6c-.2 0-.3-.1-.4-.3-.6-1.3-1.1-1.6-2.4-1.5-.3 0-.4 0-.5-.3-.7-1.8-1.3-3.6-1.2-5.6 0-1.5.6-2.2 1.7-2.4 1.5-.2 2.8.6 3.2 1.9.3 1.1.1 2.1-.2 3.2-.4 1.2-.9 2.2-1.2 3.2z" fill="#c76683"/><path d="m78.3 474.7c-.7 0-1.3-.2-1.8-.6-1.6-1-2.8-2.4-3.9-3.9-.1-.2-.2-.3 0-.5.6-1.1.6-1.1 1.8-.9 1.4.2 2.7.4 4.1.8.4.1.7.3 1.1.4 1.2.6 1.7 1.4 1.5 2.3-.4 1.4-1.6 2.4-2.8 2.4z" fill="#c76683"/><path d="m68 469c.6-.2 1 0 1.2.7.1.3.7.4.5.8-.1.3-.4.5-.7.8-1.2 1.2-2.4 2.5-3.9 3.3-.4.2-.9.4-1.3.5-.5.1-.9 0-1.3-.3-1.4-1.1-1.3-3.4 0-4.4 1.1-.8 2.4-1.1 3.7-1.2.6-.2 1.2-.3 1.8-.2z" fill="#c76683"/><path d="m64.2 462.3c.8 0 1.5.4 2.1.8 1.3.9 2.3 2.2 3.3 3.4.2.2.1.4-.1.5-.2.2-.5.5-.5.7-.1.7-.4.7-.9.6-1.6-.2-3.1-.6-4.6-1.2-.2-.1-.5-.2-.7-.3-1.2-.7-1.6-1.4-1.3-2.4.3-1.1 1.6-2.1 2.7-2.1z" fill="#c76683"/><path d="m68.7 475.6c0-1.7.6-3.3 1.2-4.9.1-.2.2-.3.4-.2.4.1.9.1 1.3-.1.2-.1.3-.1.4.2.7 1.8 1.5 3.7 1.6 5.7.1 1.7-.6 2.4-1.9 2.5-1.7.1-2.9-.8-3.1-2.3.1-.4.1-.7.1-.9z" fill="#c76683"/><path d="m211.3 350.4-2.2 3.2 1.4 3.6-3.7-1.1-3 2.5-.1-3.9-3.3-2.1 3.7-1.3 1-3.8 2.4 3.1z" fill="#c76683"/><path d="m218.8 446.3-2.9 2.6.4 3.9-3.3-2-3.5 1.6.9-3.8-2.6-2.9 3.9-.3 1.9-3.4 1.5 3.6z" fill="#b2b4b7"/><path d="m169.9 479.4-3.1 2.7.5 4.1-3.5-2.1-3.7 1.7.9-4-2.8-3 4.1-.4 2-3.6 1.6 3.8z" fill="#b2b4b7"/><path d="m173.3 313.9c-.3-.2-.7-.4-1-.6-1-.5-1.9-1-2.9-1.5-.8-.4-1.6-.8-2.3-1.2-.6-.3-1.1-.7-1.6-1.3-.4-.4-.7-.9-.9-1.4s-.3-.9-.4-1.4c-.3-1.5.3-3 1.5-3.7 1.3-.8 2.7-.8 4.1-.1.3.2.6.4.9.7 0 0 0 0 .1.1v-.1c.2-.7.7-1.4 1.2-1.9s1.1-.7 1.8-.9c.8-.2 1.7 0 2.4.4s1.2 1 1.5 1.7c.2.4.3.8.3 1.2.1.5.1.9.1 1.4 0 .7-.2 1.4-.5 2.1s-.7 1.3-1.1 1.9c-.6.9-1.3 1.8-1.9 2.7-.5.5-.9 1.2-1.3 1.9 0-.1 0-.1 0 0z" fill="#7c0b2f"/><path d="m29.7 493.6-2.2 3.2 1.4 3.6-3.7-1.1-3 2.5-.1-3.9-3.3-2.1 3.7-1.3 1-3.8 2.4 3.1z" fill="#c76683"/><path d="m67 388.2-2.9 2.6.5 3.9-3.3-2-3.6 1.6.9-3.8-2.6-2.9 3.9-.4 1.9-3.4 1.5 3.6z" fill="#7c0b2f"/><path d="m178.7 400.4c.3.1.6.2.9.2 1.2.3 2.5.6 3.7.9h.1c-.1.2-.2.4-.3.7-.4 1-.7 2.1-.8 3.2-.2 1.7-.2 3.4.2 5.1.2.7.4 1.5.7 2.2.2.5.5 1.1.8 1.6s.7 1 1.2 1.4c.8.7 1.6 1.3 2.6 1.7 1.4.5 2.8.6 4.2.2 1.2-.3 2.2-.8 3.2-1.5s1.8-1.5 2.4-2.5c.8-1.4 1.1-2.9.8-4.5-.2-1.1-.6-2-1.2-3-.9-1.5-2.1-2.9-3.4-4-1.7-1.4-3.5-2.3-5.6-2.9h-.1c.1-.3.2-.6.3-.8.5-1.2.9-2.3 1.4-3.5 0-.1 0-.1 0-.2 1.1.5 2.1 1 3.2 1.4-.2.6-.5 1.2-.7 1.7.6.3 1.1.6 1.7.9 1.2.7 2.3 1.5 3.3 2.4.9.8 1.7 1.6 2.3 2.6.5.7.9 1.4 1.2 2.2.2.7.5 1.3.6 2 .2 1.2.2 2.4 0 3.6-.2 1.4-.6 2.7-1.3 4-1.1 1.9-2.6 3.3-4.5 4.3-1 .5-2 .9-3.1 1.1-3.1.6-6 .1-8.6-1.8-1.1-.8-2.1-1.7-2.8-3-.1-.2-.2-.3-.2-.4-.2-.3-.3-.7-.5-1v-.1c-.3-.7-.6-1.4-.8-2.2-.3-1.1-.4-2.2-.5-3.3-.1-1.6.2-3.2.6-4.7v-.1c-.5-.2-1.1-.3-1.6-.4.1-.7.2-1.3.3-2 .1-.6.2-1 .3-1.5zm3.8 13.8c-.2-.6-.3-1.2-.5-1.8 0-.1-.1-.1-.2-.1-.3 0-.6 0-.9-.1h-.1c.2.8.3 1.5.5 2.3.5-.1.9-.2 1.2-.3zm16-8.3c.3-.2.6-.4.9-.7-.5-.6-1.1-1.2-1.6-1.7-.2.3-.3.6-.5.8-.1.1 0 .1 0 .2.2.2.4.5.7.8.2.2.4.4.5.6zm-4.5 13.6c.6-.4 1.2-.8 1.8-1.2-.2-.2-.4-.3-.6-.5-.1-.1-.1-.1-.2 0-.4.2-.8.5-1.2.7-.1.1-.2.1-.2.2.1.3.2.5.4.8zm3.1-3.1c.2.2.4.4.6.6.5-.5.9-1 1.3-1.4-.3-.2-.7-.3-1-.5-.2.5-.5.9-.9 1.3zm-5.5 2.6c-.5 0-1.1-.1-1.6-.1-.1.4-.2.7-.3 1.1.7 0 1.3-.1 1.9-.1 0-.3 0-.6 0-.9zm-11.3-8.9.9-.3c.1 0 .1-.1.1-.1 0-.4.1-.7.1-1.1 0-.1 0-.2 0-.3-.3 0-.6-.1-.9-.1-.1.5-.2 1.2-.2 1.9zm16.1-8.4c-.6-.3-1.2-.7-1.7-1-.2.3-.3.5-.4.8.4.2.8.5 1.2.7h.1c.1-.1.2-.1.2-.2.3-.1.4-.2.6-.3zm-11.5 15.7c-.4-.4-.7-.7-1.1-1.1-.2.2-.5.3-.7.5.4.4.9.8 1.3 1.2.2-.1.3-.3.5-.6zm14.7-9.2c.1.5.2 1 .2 1.4 0 0 .1.1.1.1h.7c-.1-.6-.2-1.2-.2-1.8-.3.1-.5.2-.8.3zm-11.4 10.8c-.4-.1-.8-.2-1.3-.2h-.1c-.1.2-.2.3-.3.5.5.1 1 .2 1.6.4 0-.2 0-.4.1-.7zm11-5.7c.2.1.4.2.7.3.2-.5.4-1 .6-1.5-.2 0-.4 0-.6 0 0 0-.1 0-.1.1-.2.3-.4.7-.6 1.1z" fill="#1e4b52"/><path d="m208.9 500.5c.3-1 .8-2 1.1-3.1.2-1 .5-2.1.2-3.2-.3-1.3-1.6-2.1-3.2-1.9-1.2.1-1.7.9-1.7 2.4 0 1.9.6 3.7 1.2 5.6.1.2.2.3.5.3 1.3-.1 1.8.2 2.4 1.5.1.2.2.3.4.3 1.9.1 3.7.1 5.5-.6s2.4-2.3 1.5-4.1c-.4-.8-1.1-1.2-2-1-1.2.2-2.2.8-3.1 1.5-.9.6-1.8 1.5-2.8 2.3z" fill="#c76683"/><path d="m200.8 496.3c-1.1 0-2.4 1.1-2.7 2.2-.2.9.2 1.7 1.3 2.4.2.1.5.2.7.3 1.5.6 3 .9 4.6 1.2.5.1.9.1.9-.6 0-.3.2-.6.5-.7.2-.2.2-.3.1-.6-1-1.3-2-2.5-3.3-3.4-.6-.5-1.3-.8-2.1-.8z" fill="#c76683"/><path d="m208.9 500.5c1-.8 1.9-1.7 2.9-2.4s1.9-1.3 3.1-1.5c.9-.1 1.6.2 2 1 .9 1.8.3 3.4-1.5 4.1s-3.7.7-5.5.6c-.2 0-.3-.1-.4-.3-.6-1.3-1.1-1.6-2.4-1.5-.3 0-.4 0-.5-.3-.6-1.8-1.3-3.6-1.2-5.6 0-1.5.6-2.2 1.7-2.4 1.5-.2 2.8.6 3.2 1.9.3 1.1.1 2.1-.2 3.2-.3 1.2-.8 2.2-1.2 3.2z" fill="#c76683"/><path d="m200.8 496.3c.8 0 1.5.3 2.1.8 1.3.9 2.3 2.2 3.3 3.4.2.2.1.4-.1.6s-.5.5-.5.7c-.1.7-.4.7-.9.6-1.6-.2-3.1-.6-4.6-1.2-.2-.1-.5-.2-.7-.3-1.2-.7-1.6-1.4-1.3-2.4.4-1.2 1.6-2.2 2.7-2.2z" fill="#c76683"/><path d="m91.5 334.4c.1.3.2.6.2.8.4 1.2.8 2.4 1.2 3.6v.1c-.2 0-.5.1-.7.1-1.1.2-2.2.5-3.2.9-1.6.7-3 1.6-4.2 2.8-.6.5-1.1 1.1-1.5 1.7-.3.5-.7 1-1 1.5s-.5 1.1-.6 1.7c-.2 1-.3 2.1-.1 3.1.2 1.5 1 2.7 2 3.7.9.8 1.8 1.4 2.9 1.9s2.2.7 3.4.8c1.7 0 3.1-.5 4.3-1.6.8-.7 1.4-1.6 1.9-2.5.8-1.6 1.4-3.2 1.7-5 .3-2.1.2-4.2-.4-6.3v-.1c.3-.1.6-.1.9-.2 1.2-.2 2.5-.4 3.7-.6h.2c.1 1.2.2 2.3.4 3.5-.6.1-1.2.2-1.8.3 0 .6.1 1.2.1 1.9 0 1.4-.1 2.7-.3 4.1-.2 1.2-.5 2.3-1 3.3-.3.7-.7 1.5-1.2 2.2-.4.6-.9 1.1-1.4 1.6-.9.8-2 1.4-3.1 1.9-1.3.6-2.7.9-4.1.9-2.2.1-4.2-.5-6.1-1.6-1-.6-1.8-1.3-2.6-2.1-2.1-2.4-3.2-5.1-2.9-8.3.1-1.4.4-2.7 1.1-4 .1-.2.1-.3.2-.4l.6-.9s.1-.1.1-.1c.4-.7.9-1.2 1.5-1.8.8-.8 1.7-1.5 2.6-2.1 1.3-.9 2.8-1.5 4.3-1.9h.1c-.2-.5-.3-1.1-.4-1.6.7-.2 1.3-.5 1.9-.7.4-.2.8-.4 1.3-.6zm-9.8 10.4c.4-.5.8-.9 1.2-1.3.1-.1.1-.1 0-.2-.1-.2-.3-.5-.4-.7 0 0 0-.1-.1-.1-.6.6-1.1 1.1-1.7 1.7.4.1.7.4 1 .6zm15.4 9.4c.3.2.7.3 1.1.4.2-.7.5-1.5.7-2.3-.3 0-.7 0-1 0-.1 0-.1 0-.2.1-.1.3-.2.7-.3 1s-.2.6-.3.8zm-14.1 3.2c.7.3 1.3.6 2 .9 0-.3.1-.5.1-.8 0-.1 0-.1-.1-.2-.4-.2-.8-.4-1.2-.7-.1-.1-.2-.1-.2-.1-.2.3-.4.6-.6.9zm4.4 1.1c-.1.3-.1.6-.2.8.7.1 1.3.3 1.9.4 0-.4-.1-.7-.1-1.1-.6 0-1.1 0-1.6-.1zm-5.2-3.4c-.2-.5-.5-.9-.7-1.4-.4.1-.7.2-1.1.3.4.5.7 1.1 1.1 1.6.3-.2.5-.3.7-.5zm1.9-14.3c.2.2.5.4.7.6.1.1.1 0 .2 0 .3-.2.7-.3 1-.5.1-.1.2-.1.2-.1-.1-.3-.2-.5-.4-.8-.5.2-1.1.5-1.7.8zm15.5 9.5c0-.7 0-1.3 0-2-.3 0-.6 0-.9.1v1.4s0 .1.1.1c.1.1.2.1.3.1.1.1.3.2.5.3zm-19.5-1.8c.1-.5.2-1 .3-1.5-.3-.1-.5-.2-.8-.3-.1.6-.2 1.2-.4 1.7.4.1.7.1.9.1zm15.6 7.8c-.4.3-.7.6-1.1.9v.1c.1.2.3.4.4.6.5-.4.9-.7 1.4-1.1-.3-.1-.5-.3-.7-.5zm-15.2-4.1c-.2-.4-.3-.8-.5-1.2 0 0 0-.1-.1-.1-.2 0-.4 0-.7 0 .2.5.3 1 .5 1.5.3-.1.6-.2.8-.2zm10.6 6.4c0 .2.1.5.1.7.5-.1 1.1-.2 1.6-.3-.1-.2-.2-.4-.3-.6h-.1c-.4.2-.8.2-1.3.2z" fill="#7c0b2f"/><path d="m115.1 416.7c-.3-.2-.7-.4-1-.6-1-.5-1.9-1-2.9-1.5-.8-.4-1.6-.8-2.3-1.2-.6-.3-1.1-.7-1.6-1.3-.4-.4-.7-.9-.9-1.4s-.3-.9-.4-1.4c-.3-1.5.3-3 1.5-3.7 1.3-.8 2.7-.8 4.1-.1.3.2.6.4.8.7 0 0 0 0 .1.1v-.1c.2-.7.7-1.4 1.2-1.9s1.1-.7 1.8-.9c.8-.2 1.7 0 2.4.4s1.2 1 1.5 1.7c.2.4.3.8.3 1.2.1.5.1.9.1 1.4 0 .7-.2 1.4-.5 2.1s-.7 1.3-1.1 1.9c-.6.9-1.3 1.8-1.9 2.7-.3.6-.7 1.2-1.2 1.9z" fill="#7c0b2f"/><path d="m327.6 370-2.2 3.2 1.4 3.6-3.7-1.1-3 2.5-.1-3.9-3.3-2.1 3.7-1.3 1-3.8 2.4 3.1z" fill="#c76683"/><path d="m418.8 321.5-2.9 2.6.5 3.9-3.3-2-3.5 1.6.9-3.8-2.6-2.9 3.9-.4 1.9-3.4 1.5 3.6z" fill="#b2b4b7"/><path d="m286.1 499-3.1 2.7.5 4.1-3.5-2.1-3.7 1.7.9-4-2.8-3 4.1-.4 2-3.6 1.6 3.8z" fill="#b2b4b7"/><path d="m289.5 333.5c-.3-.2-.7-.4-1-.6-1-.5-1.9-1-2.9-1.5-.8-.4-1.6-.8-2.3-1.2-.6-.4-1.1-.7-1.6-1.3-.4-.4-.7-.9-.9-1.4s-.3-.9-.4-1.4c-.3-1.5.3-3 1.5-3.7 1.3-.8 2.7-.8 4.1-.1.3.2.6.4.9.7 0 0 0 0 .1.1v-.1c.2-.7.7-1.4 1.2-1.9s1.1-.7 1.8-.9c.8-.2 1.7 0 2.4.4s1.2 1 1.5 1.7c.2.4.3.8.3 1.2.1.5.1.9.1 1.4 0 .7-.2 1.4-.5 2.1s-.7 1.3-1.1 1.9c-.6.9-1.3 1.8-1.9 2.7-.5.5-.9 1.2-1.3 1.9 0-.1 0-.1 0 0z" fill="#7c0b2f"/><path d="m316.3 435.4c.3.1.6.2.9.2 1.2.3 2.5.6 3.7.9h.1c-.1.2-.2.4-.3.7-.4 1-.7 2.1-.8 3.2-.2 1.7-.2 3.4.2 5.1.2.7.4 1.5.7 2.2.2.5.5 1.1.8 1.6s.7 1 1.2 1.4c.8.7 1.6 1.3 2.6 1.7 1.4.5 2.8.6 4.2.2 1.1-.3 2.2-.8 3.2-1.5s1.8-1.5 2.4-2.6c.9-1.4 1.1-2.9.8-4.5-.2-1.1-.6-2-1.2-3-.9-1.5-2.1-2.9-3.4-4-1.7-1.4-3.5-2.3-5.6-2.9h-.1c.1-.3.2-.6.3-.8.5-1.2.9-2.3 1.4-3.5 0-.1 0-.1 0-.2 1.1.5 2.1 1 3.2 1.4-.2.6-.4 1.2-.7 1.7.6.3 1.1.6 1.7.9 1.2.7 2.3 1.5 3.3 2.4.9.8 1.7 1.6 2.3 2.6.5.7.9 1.4 1.2 2.2.2.7.5 1.3.6 2 .2 1.2.2 2.4 0 3.6-.2 1.4-.6 2.7-1.3 4-1.1 1.9-2.6 3.3-4.5 4.3-1 .5-2 .9-3.1 1.1-3.1.6-6 .1-8.6-1.8-1.2-.8-2.1-1.7-2.8-3-.1-.1-.2-.3-.2-.4-.2-.3-.3-.7-.5-1v-.1c-.3-.7-.6-1.4-.8-2.2-.3-1.1-.4-2.2-.5-3.3 0-1.6.2-3.2.6-4.7v-.1c-.5-.2-1.1-.3-1.6-.4.1-.7.2-1.3.3-2 .2-.5.3-1 .3-1.4zm3.9 13.8c-.2-.6-.3-1.2-.5-1.8 0-.1-.1-.1-.2-.1-.3 0-.6 0-.9-.1h-.1c.2.8.3 1.5.5 2.3zm16-8.3c.3-.2.6-.4.9-.7-.5-.6-1.1-1.2-1.6-1.7-.2.3-.3.6-.5.8v.2c.2.2.4.5.7.8.1.1.3.3.5.6zm-4.6 13.6c.6-.4 1.2-.8 1.8-1.2-.2-.2-.4-.3-.6-.5-.1-.1-.1-.1-.2 0-.4.2-.8.5-1.2.7-.1 0-.2.1-.2.2.1.2.3.5.4.8zm3.2-3.1.6.6c.4-.5.9-1 1.3-1.4-.3-.2-.7-.3-1-.5-.3.4-.6.9-.9 1.3zm-5.5 2.6c-.5 0-1.1-.1-1.6-.1-.1.3-.2.7-.3 1.1.7 0 1.3-.1 1.9-.1 0-.3 0-.6 0-.9zm-11.4-9c.3-.1.6-.2.9-.3.1 0 .1-.1.1-.1 0-.4.1-.7.1-1.1 0-.1 0-.2 0-.3-.3 0-.6-.1-.9-.1 0 .6-.1 1.3-.2 1.9zm16.2-8.4c-.6-.3-1.2-.7-1.7-1-.2.3-.3.5-.4.8.4.2.8.5 1.2.7h.1c.1-.1.2-.1.2-.2.2 0 .4-.1.6-.3zm-11.6 15.8c-.4-.4-.7-.7-1.1-1.1-.2.2-.5.3-.7.5.4.4.9.8 1.3 1.2.2-.1.4-.4.5-.6zm14.7-9.3c.1.5.2 1 .2 1.4 0 0 .1.1.1.1h.7c-.1-.6-.2-1.2-.2-1.8-.2.2-.5.3-.8.3zm-11.4 10.9c-.4-.1-.8-.2-1.3-.2h-.1c-.1.2-.2.3-.3.5.5.1 1 .2 1.6.4 0-.2.1-.5.1-.7zm11.1-5.7c.2.1.4.2.7.3.2-.5.4-1 .6-1.5-.2 0-.4 0-.6 0 0 0-.1 0-.1.1-.3.3-.5.7-.6 1.1z" fill="#1e4b52"/><g fill="#c76683"><path d="m386.7 486.1c.3-1 .8-2 1.1-3.1.2-1 .5-2.1.2-3.2-.3-1.3-1.6-2.1-3.2-1.9-1.2.1-1.7.9-1.7 2.4 0 1.9.6 3.7 1.2 5.6.1.2.2.3.5.3 1.3-.1 1.8.2 2.4 1.5.1.2.2.3.4.3 1.9.1 3.7.1 5.5-.6s2.4-2.3 1.5-4.1c-.4-.8-1.1-1.2-2-1-1.2.2-2.2.8-3.1 1.5-.9.6-1.9 1.5-2.8 2.3z"/><path d="m392.7 494.3c1.2 0 2.4-1 2.7-2.3.2-.9-.3-1.7-1.5-2.3-.3-.2-.7-.3-1.1-.4-1.3-.4-2.7-.7-4.1-.8-1.2-.1-1.2-.1-1.8.9-.1.2-.1.3 0 .5 1.1 1.5 2.3 2.9 3.9 3.9.6.2 1.2.5 1.9.5z"/><path d="m382.4 488.5c-.6-.1-1.2.1-1.7.1-1.3.2-2.7.4-3.7 1.2-1.4 1-1.4 3.3 0 4.4.4.3.8.4 1.3.3s.9-.2 1.3-.5c1.5-.9 2.7-2.1 3.9-3.3.2-.2.5-.5.7-.8.2-.4-.4-.5-.5-.8-.3-.6-.7-.7-1.3-.6z"/><path d="m378.5 481.8c-1.1 0-2.4 1.1-2.7 2.2-.2.9.2 1.7 1.3 2.4.2.1.5.2.7.3 1.5.6 3 .9 4.6 1.2.5.1.9.1.9-.6 0-.3.2-.6.5-.7.2-.2.2-.3.1-.5-1-1.3-2-2.5-3.3-3.4-.6-.5-1.3-.8-2.1-.9z"/><path d="m383.1 495.1v.8c.2 1.5 1.4 2.4 3.1 2.3 1.3-.1 1.9-.8 1.9-2.5-.1-2-.8-3.8-1.6-5.7-.1-.2-.2-.3-.4-.2-.4.2-.9.2-1.3.1-.2-.1-.3 0-.4.2-.7 1.7-1.3 3.3-1.3 5z"/><path d="m386.7 486.1c1-.8 1.9-1.7 2.9-2.4s1.9-1.3 3.1-1.5c.9-.1 1.6.2 2 1 .9 1.8.3 3.4-1.5 4.1s-3.7.7-5.5.6c-.2 0-.3-.1-.4-.3-.6-1.3-1.1-1.6-2.4-1.5-.3 0-.4 0-.5-.3-.7-1.8-1.3-3.6-1.2-5.6 0-1.5.6-2.2 1.7-2.4 1.5-.2 2.8.6 3.2 1.9.3 1.1.1 2.1-.2 3.2-.4 1.1-.9 2.1-1.2 3.2z"/><path d="m392.7 494.3c-.7 0-1.3-.2-1.8-.6-1.6-1-2.8-2.4-3.9-3.9-.1-.2-.2-.3 0-.5.6-1.1.6-1.1 1.8-.9 1.4.2 2.7.4 4.1.8.4.1.7.3 1.1.4 1.2.6 1.7 1.4 1.5 2.3-.4 1.4-1.6 2.4-2.8 2.4z"/><path d="m382.4 488.5c.6-.2 1 0 1.2.7.1.3.7.4.5.8-.1.3-.4.5-.7.8-1.2 1.2-2.4 2.5-3.9 3.3-.4.2-.9.4-1.3.5-.5.1-.9 0-1.3-.3-1.4-1.1-1.3-3.4 0-4.4 1.1-.8 2.4-1.1 3.7-1.2.6-.1 1.2-.2 1.8-.2z"/><path d="m378.5 481.8c.8 0 1.5.4 2.1.8 1.3.9 2.3 2.2 3.3 3.4.2.2.1.4-.1.5-.2.2-.5.5-.5.7-.1.7-.4.7-.9.6-1.6-.2-3.1-.6-4.6-1.2-.2-.1-.5-.2-.7-.3-1.2-.7-1.6-1.4-1.3-2.4.4-1 1.6-2.1 2.7-2.1z"/><path d="m383.1 495.1c0-1.7.6-3.3 1.2-4.9.1-.2.2-.3.4-.2.4.1.9.1 1.3-.1.2-.1.3-.1.4.2.7 1.8 1.5 3.7 1.6 5.7.1 1.7-.6 2.4-1.9 2.5-1.7.1-2.9-.8-3.1-2.3.1-.3.1-.6.1-.9z"/><path d="m264.3 430.6c.3-1 .8-2 1.1-3.1.2-1 .5-2.1.2-3.2-.3-1.3-1.6-2.1-3.2-1.9-1.2.1-1.7.9-1.7 2.4 0 1.9.6 3.7 1.2 5.5.1.2.2.3.5.3 1.3-.1 1.8.2 2.4 1.5.1.2.2.3.4.3 1.9.1 3.7.1 5.5-.6s2.4-2.3 1.5-4.1c-.4-.8-1.1-1.2-2-1-1.2.2-2.2.8-3.1 1.5s-1.8 1.6-2.8 2.4z"/><path d="m270.3 438.8c1.2 0 2.4-1 2.7-2.3.2-.9-.3-1.7-1.5-2.3-.3-.2-.7-.3-1.1-.4-1.3-.4-2.7-.7-4.1-.8-1.2-.1-1.2-.1-1.8.9-.1.2-.1.3 0 .5 1.1 1.5 2.3 2.9 3.9 3.9.6.3 1.2.5 1.9.5z"/><path d="m260 433.1c-.6-.1-1.2.1-1.7.1-1.3.2-2.7.4-3.7 1.2-1.4 1-1.4 3.3 0 4.4.4.3.8.4 1.3.3s.9-.2 1.3-.5c1.5-.9 2.7-2.1 3.9-3.3.2-.2.5-.5.7-.8.2-.4-.4-.5-.5-.8-.3-.7-.7-.8-1.3-.6z"/><path d="m256.2 426.3c-1.1 0-2.4 1.1-2.7 2.2-.2.9.2 1.7 1.3 2.4.2.1.5.2.7.4 1.5.6 3 .9 4.6 1.2.5.1.9.1.9-.6 0-.3.2-.6.5-.7.2-.2.2-.3.1-.6-1-1.3-2-2.5-3.3-3.4-.7-.5-1.3-.8-2.1-.9z"/><path d="m260.7 439.6v.8c.2 1.5 1.4 2.4 3.1 2.3 1.3-.1 1.9-.8 1.9-2.5-.1-2-.8-3.8-1.6-5.7-.1-.2-.2-.3-.4-.2-.4.2-.9.2-1.3.1-.2-.1-.3 0-.4.2-.7 1.7-1.3 3.3-1.3 5z"/><path d="m264.3 430.6c1-.8 1.9-1.7 2.9-2.4s1.9-1.3 3.1-1.5c.9-.1 1.6.2 2 1 .9 1.8.3 3.4-1.5 4.1s-3.7.7-5.5.6c-.2 0-.3-.1-.4-.3-.6-1.3-1.1-1.6-2.4-1.5-.3 0-.4 0-.5-.3-.7-1.8-1.3-3.6-1.2-5.5 0-1.5.6-2.2 1.7-2.4 1.5-.2 2.8.6 3.2 1.9.3 1.1.1 2.1-.2 3.2-.4 1.1-.9 2.1-1.2 3.1z"/><path d="m270.3 438.8c-.7 0-1.3-.2-1.8-.6-1.6-1-2.8-2.4-3.9-3.9-.1-.2-.2-.3 0-.5.6-1.1.6-1.1 1.8-.9 1.4.2 2.7.4 4.1.8.4.1.7.3 1.1.4 1.2.6 1.7 1.4 1.5 2.3-.4 1.4-1.6 2.4-2.8 2.4z"/><path d="m260 433.1c.6-.2 1 0 1.2.7.1.3.7.4.5.8-.1.3-.4.5-.7.8-1.2 1.2-2.4 2.5-3.9 3.3-.4.2-.9.4-1.3.5-.5.1-.9 0-1.3-.3-1.4-1.1-1.3-3.4 0-4.4 1.1-.8 2.4-1.1 3.7-1.2.6-.2 1.2-.3 1.8-.2z"/><path d="m256.2 426.3c.8 0 1.5.4 2.1.8 1.3.9 2.3 2.2 3.3 3.4.2.2.1.4-.1.6s-.5.5-.5.7c-.1.7-.4.7-.9.6-1.6-.2-3.1-.6-4.6-1.2-.2-.1-.5-.2-.7-.4-1.2-.7-1.6-1.4-1.3-2.4s1.6-2.1 2.7-2.1z"/><path d="m260.7 439.6c0-1.7.6-3.3 1.2-4.9.1-.2.2-.3.4-.2.4.1.9.1 1.3-.1.2-.1.3-.1.4.2.7 1.8 1.5 3.7 1.6 5.7.1 1.7-.6 2.4-1.9 2.5-1.7.1-2.9-.8-3.1-2.3.1-.3.1-.6.1-.9z"/></g><path d="m381.4 407.7-2.9 2.6.5 3.9-3.3-2-3.6 1.6.9-3.8-2.6-2.9 3.9-.4 1.9-3.4 1.5 3.6z" fill="#7c0b2f"/><path d="m405.9 354c.1.3.2.6.2.8.4 1.2.8 2.4 1.2 3.6v.1c-.2 0-.5.1-.7.1-1.1.2-2.2.5-3.2.9-1.6.7-3 1.6-4.2 2.8-.6.5-1.1 1.1-1.5 1.7-.3.5-.7 1-1 1.5s-.5 1.1-.6 1.7c-.2 1-.3 2.1-.1 3.1.2 1.5 1 2.7 2 3.7.9.8 1.8 1.4 2.9 1.9s2.2.7 3.4.8c1.7 0 3.1-.5 4.3-1.6.8-.7 1.4-1.6 1.9-2.5.8-1.6 1.4-3.2 1.7-5 .3-2.1.2-4.2-.4-6.3v-.1c.3-.1.6-.1.9-.2 1.2-.2 2.5-.4 3.7-.6h.2c.1 1.2.2 2.3.4 3.5-.6.1-1.2.2-1.8.3 0 .6.1 1.2.1 1.9 0 1.4-.1 2.7-.3 4.1-.2 1.2-.5 2.3-1 3.3-.3.7-.7 1.5-1.2 2.2-.4.6-.9 1.1-1.4 1.6-.9.8-2 1.4-3.1 1.9-1.3.6-2.7.9-4.1.9-2.2.1-4.2-.5-6.1-1.6-1-.6-1.8-1.3-2.6-2.1-2.1-2.4-3.2-5.1-2.9-8.3.1-1.4.4-2.7 1.1-4 .1-.2.1-.3.2-.4.2-.3.4-.6.6-.9 0 0 .1-.1.1-.1.4-.7.9-1.2 1.5-1.8.8-.8 1.7-1.5 2.6-2.1 1.3-.9 2.8-1.5 4.3-1.9h.1c-.2-.5-.3-1.1-.4-1.6.7-.2 1.3-.5 1.9-.7.4-.2.8-.4 1.3-.6zm-9.8 10.4c.4-.5.8-.9 1.2-1.3.1-.1.1-.1 0-.2-.1-.2-.3-.5-.4-.7 0 0 0-.1-.1-.1-.6.6-1.1 1.1-1.7 1.7.4.1.7.4 1 .6zm15.4 9.4c.3.2.7.3 1.1.4.2-.7.5-1.5.7-2.3-.3 0-.7 0-1 0-.1 0-.1 0-.2.1-.1.3-.2.7-.3 1s-.2.6-.3.8zm-14.1 3.2c.7.3 1.3.6 2 .9 0-.3.1-.5.1-.8 0-.1 0-.1-.1-.2-.4-.2-.8-.4-1.2-.7-.1-.1-.2-.1-.2-.1-.2.3-.4.6-.6.9zm4.3 1.1c-.1.3-.1.6-.2.8.7.1 1.3.3 1.9.4 0-.4-.1-.7-.1-1.1-.5 0-1-.1-1.6-.1zm-5.1-3.4c-.2-.5-.5-.9-.7-1.4-.4.1-.7.2-1.1.3.4.5.7 1.1 1.1 1.6.3-.2.5-.3.7-.5zm1.9-14.3c.2.2.5.4.7.6.1.1.1 0 .2 0 .3-.2.7-.3 1-.5.1-.1.2-.1.2-.1-.1-.3-.2-.5-.4-.8-.5.2-1.1.5-1.7.8zm15.5 9.5c0-.7 0-1.3 0-2-.3 0-.6 0-.9.1v1.4s0 .1.1.1c.1.1.2.1.3.1.1.1.3.2.5.3zm-19.5-1.8c.1-.5.2-1 .3-1.5-.3-.1-.5-.2-.8-.3-.1.6-.2 1.2-.4 1.7.4 0 .6.1.9.1zm15.5 7.8c-.4.3-.7.6-1.1.9v.1c.1.2.3.4.4.6.5-.4.9-.7 1.4-1.1-.2-.1-.4-.3-.7-.5zm-15.1-4.2c-.2-.4-.3-.8-.5-1.2 0 0 0-.1-.1-.1-.2 0-.4 0-.7 0 .2.5.3 1 .5 1.5.3 0 .6-.1.8-.2zm10.6 6.5c0 .2.1.5.1.7.5-.1 1.1-.2 1.6-.3-.1-.2-.2-.4-.3-.6h-.1c-.4.1-.8.2-1.3.2z" fill="#7c0b2f"/><path d="m429.5 436.3c-.3-.2-.7-.4-1-.6-1-.5-1.9-1-2.9-1.5-.8-.4-1.6-.8-2.3-1.2-.6-.3-1.1-.7-1.6-1.3-.4-.4-.7-.9-.9-1.4s-.3-.9-.4-1.4c-.3-1.5.3-3 1.5-3.7 1.3-.8 2.7-.8 4.1-.1.3.2.6.4.8.7 0 0 0 0 .1.1v-.1c.2-.7.7-1.4 1.2-1.9s1.1-.7 1.8-.9c.8-.2 1.7 0 2.4.4s1.2 1 1.5 1.7c.2.4.3.8.3 1.2.1.5.1.9.1 1.4 0 .7-.2 1.4-.5 2.1s-.7 1.3-1.1 1.9c-.6.9-1.3 1.8-1.9 2.7-.3.5-.7 1.2-1.2 1.9z" fill="#7c0b2f"/></svg>