<svg enable-background="new 0 0 918.5 1000" viewBox="0 0 918.5 1000" xmlns="http://www.w3.org/2000/svg"><g fill="#dadada"><path d="m125.3 89.1-3.3 4.9 2.2 5.4-5.6-1.6-4.5 3.7-.2-5.9-4.9-3.2 5.5-2 1.5-5.7 3.6 4.6z"/><path d="m262.4 16.2-4.4 3.9.7 5.8-5-3-5.3 2.4 1.3-5.7-3.9-4.3 5.8-.6 2.9-5.1 2.3 5.4z"/><path d="m63.1 282.8-4.6 4.1.7 6.1-5.3-3.1-5.6 2.6 1.4-6.1-4.2-4.5 6.2-.6 3-5.4 2.4 5.7z"/><path d="m68.1 34.2c-.5-.3-1-.6-1.5-.8-1.5-.8-2.9-1.5-4.4-2.3-1.2-.6-2.3-1.2-3.5-1.9-.9-.6-1.7-1.1-2.4-1.9-.6-.7-1-1.4-1.3-2.1s-.5-1.4-.7-2.2c-.5-2.3.4-4.5 2.3-5.6 2-1.3 4.1-1.3 6.1-.1.5.3.9.6 1.3 1 0 0 0 0 .1.1v-.1c.4-1.1 1-2.1 1.9-2.9.8-.7 1.7-1.1 2.7-1.3 1.3-.2 2.5 0 3.6.6 1 .6 1.8 1.5 2.3 2.5.3.6.4 1.3.5 1.9.1.7.2 1.4.2 2.1 0 1.1-.3 2.1-.8 3.1s-1.1 2-1.7 2.9c-.9 1.4-1.9 2.7-2.9 4.1-.5.9-1.1 1.9-1.8 2.9z"/><path d="m91.8 452.7-3.3 4.9 2.1 5.4-5.6-1.6-4.5 3.7-.2-5.9-4.9-3.2 5.5-2 1.5-5.7 3.6 4.6z"/><path d="m255.3 356.1c-.5-.3-1-.6-1.5-.8-1.5-.8-2.9-1.5-4.4-2.3-1.2-.6-2.4-1.2-3.5-1.9-.9-.5-1.7-1.1-2.4-1.9-.6-.7-1-1.4-1.3-2.1s-.5-1.4-.7-2.2c-.5-2.3.4-4.5 2.3-5.6 2-1.3 4.1-1.3 6.1-.1.5.3.9.6 1.3 1 0 0 0 0 .1.1v-.1c.4-1.1 1-2.1 1.9-2.9.8-.7 1.7-1.1 2.7-1.3 1.3-.2 2.5 0 3.6.6 1 .6 1.8 1.5 2.3 2.5.3.6.4 1.3.5 1.9.1.7.2 1.4.2 2.1 0 1.1-.3 2.1-.8 3.1s-1.1 2-1.7 2.9c-.9 1.4-1.9 2.7-2.9 4.1-.6.9-1.2 1.9-1.8 2.9z"/><path d="m249.8 455.2-4.4 3.8.7 5.8-5-3-5.3 2.4 1.3-5.7-3.9-4.3 5.8-.5 2.9-5.1 2.3 5.4z"/><path d="m108.5 187.4c.4.1.8.2 1.3.3 1.8.4 3.7.9 5.6 1.4h.1c-.1.3-.3.7-.4 1-.6 1.5-1 3.2-1.3 4.9-.4 2.6-.3 5.1.3 7.6.3 1.1.6 2.2 1.1 3.3l1.2 2.4c.5.8 1.1 1.5 1.7 2.1 1.2 1.1 2.4 2 3.9 2.6 2.1.8 4.2.8 6.4.2 1.7-.5 3.3-1.3 4.7-2.3 1.5-1 2.7-2.3 3.7-3.8 1.3-2.1 1.7-4.4 1.3-6.8-.3-1.6-.9-3-1.7-4.5-1.4-2.3-3.1-4.3-5.2-6.1-2.5-2.1-5.3-3.5-8.4-4.3 0 0-.1 0-.2 0 .2-.4.3-.8.5-1.3.7-1.7 1.4-3.5 2.1-5.3 0-.1 0-.1 0-.2 1.6.7 3.1 1.5 4.7 2.2-.3.9-.7 1.7-1 2.6.8.4 1.7.8 2.5 1.3 1.8 1 3.5 2.2 5 3.6 1.3 1.2 2.5 2.4 3.5 3.9.7 1 1.3 2.1 1.8 3.3.4 1 .8 2 .9 3 .3 1.8.3 3.6 0 5.4-.3 2.1-.9 4.1-2 6.1-1.6 2.9-3.9 5-6.8 6.5-1.5.8-3 1.3-4.7 1.6-4.7.9-9 .1-12.9-2.7-1.7-1.2-3.2-2.6-4.3-4.5-.1-.2-.3-.4-.4-.6-.3-.5-.5-1-.8-1.5 0 0 0-.1 0-.2-.5-1.1-.9-2.2-1.2-3.3-.4-1.6-.7-3.3-.7-5 0-2.4.3-4.8.9-7.1 0 0 0-.1 0-.2-.8-.2-1.6-.4-2.3-.7.2-1 .3-2 .5-3 .3-.6.4-1.3.6-1.9zm5.7 20.6c-.2-.9-.5-1.8-.8-2.7 0-.1-.1-.2-.2-.2-.4 0-.8 0-1.3-.1 0 0-.1 0-.2 0 .3 1.2.5 2.3.8 3.5.6-.1 1.2-.3 1.7-.5zm24.1-12.4c.5-.3.9-.7 1.4-1-.8-.9-1.6-1.7-2.4-2.6-.3.4-.5.8-.8 1.3v.3c.3.4.7.8 1 1.2.2.1.5.4.8.8zm-6.9 20.5c.9-.6 1.8-1.2 2.7-1.9-.3-.3-.7-.5-.9-.8-.1-.1-.1-.1-.2 0-.6.4-1.2.8-1.8 1.1-.1 0-.2.1-.4.2.2.5.4.9.6 1.4zm4.8-4.7.9.9c.7-.7 1.3-1.5 2-2.2-.5-.2-1-.5-1.5-.7-.5.7-.9 1.4-1.4 2zm-8.3 3.9c-.8 0-1.6-.1-2.3-.2-.1.5-.3 1.1-.5 1.6 1 0 1.9-.1 2.9-.1-.1-.4-.1-.8-.1-1.3zm-17-13.5c.5-.2.9-.3 1.3-.5.1 0 .1-.1.1-.2 0-.6.1-1.1.1-1.7 0-.1 0-.3 0-.4-.5 0-.9-.1-1.3-.1-.1.9-.2 1.9-.2 2.9zm24.2-12.6c-.9-.5-1.7-1-2.6-1.5-.2.4-.4.8-.7 1.2.7.4 1.3.8 1.9 1.1h.2c.1-.1.3-.2.4-.3.3-.1.5-.3.8-.5zm-17.4 23.8c-.6-.6-1.1-1.1-1.6-1.6-.4.3-.7.5-1.1.8.7.6 1.3 1.2 2 1.8.3-.4.5-.8.7-1zm22.1-14c.1.8.2 1.5.4 2.2 0 0 .1.1.1.1h1.1c-.1-.9-.2-1.8-.4-2.7-.4.1-.7.2-1.2.4zm-17.1 16.3c-.7-.1-1.3-.2-1.9-.4h-.1c-.2.3-.3.5-.5.8.8.2 1.5.4 2.3.6 0-.3.1-.7.2-1zm16.6-8.6c.3.1.7.3 1 .4.3-.8.6-1.5.9-2.3-.3 0-.7 0-.9 0 0 0-.1 0-.1.1-.4.6-.6 1.2-.9 1.8z"/><path d="m214.1 263.5c.5-1.5 1.2-3 1.6-4.6.4-1.5.7-3.1.3-4.8-.5-1.9-2.4-3.1-4.7-2.8-1.8.2-2.6 1.3-2.6 3.6 0 2.9.9 5.6 1.9 8.3.1.4.3.5.8.4 2-.2 2.8.2 3.7 2.2.1.3.2.4.6.4 2.8.1 5.6.1 8.3-.9 2.8-1.1 3.6-3.5 2.3-6.1-.6-1.2-1.6-1.8-3-1.5-1.8.3-3.2 1.3-4.6 2.3-1.8 1-3.2 2.3-4.6 3.5z"/><path d="m223.1 275.9c1.8 0 3.7-1.5 4.1-3.5.3-1.4-.5-2.6-2.3-3.5-.5-.3-1.1-.5-1.6-.7-2-.7-4-1-6.1-1.2-1.9-.2-1.8-.2-2.7 1.4-.2.3-.2.5 0 .8 1.7 2.2 3.5 4.3 5.9 5.8.8.4 1.7.9 2.7.9z"/><path d="m207.7 267.2c-.9-.1-1.7.1-2.6.2-2 .3-4 .7-5.6 1.9-2.1 1.5-2.1 5 0 6.6.6.4 1.2.6 1.9.5s1.4-.4 2-.7c2.3-1.3 4.1-3.1 5.9-5 .4-.4.8-.8 1-1.2.3-.7-.7-.7-.8-1.3-.3-1-1-1.3-1.8-1z"/><path d="m201.9 257.1c-1.6 0-3.6 1.6-4 3.3-.4 1.4.3 2.5 2 3.6.3.2.7.4 1 .5 2.2.9 4.5 1.4 6.8 1.8.8.1 1.3.1 1.4-.9 0-.4.4-.8.8-1.1.3-.3.4-.5.1-.8-1.5-1.9-3-3.8-5-5.2-.9-.6-1.9-1.2-3.1-1.2z"/><path d="m208.7 277.1v1.3c.2 2.3 2.1 3.7 4.7 3.5 2-.1 2.9-1.3 2.8-3.8-.1-3-1.2-5.8-2.3-8.5-.1-.4-.3-.4-.7-.3-.7.3-1.4.3-2 .1-.4-.1-.5 0-.6.3-1 2.4-1.9 4.7-1.9 7.4z"/><path d="m214.1 263.5c1.5-1.3 2.9-2.5 4.4-3.6 1.5-1 2.9-2 4.6-2.3 1.4-.2 2.4.3 3 1.5 1.3 2.7.4 5.1-2.3 6.1s-5.5 1.1-8.3.9c-.3 0-.4-.1-.6-.4-.9-1.9-1.6-2.4-3.7-2.2-.4 0-.6 0-.8-.4-1-2.7-1.9-5.4-1.9-8.3 0-2.3.8-3.3 2.6-3.6 2.3-.3 4.2.9 4.7 2.8.4 1.6.1 3.2-.3 4.8-.2 1.6-.9 3.1-1.4 4.7z"/><path d="m223.1 275.9c-1 0-1.9-.4-2.8-.9-2.4-1.5-4.2-3.6-5.9-5.8-.2-.3-.2-.5 0-.8.9-1.6.9-1.6 2.7-1.4 2.1.2 4.1.6 6.1 1.2.6.2 1.1.4 1.6.7 1.8.8 2.6 2.2 2.3 3.5-.4 1.9-2.1 3.5-4 3.5z"/><path d="m207.7 267.2c.9-.3 1.5 0 1.8 1 .1.5 1.1.6.8 1.3-.2.5-.7.8-1 1.2-1.8 1.9-3.6 3.7-5.9 5-.7.4-1.3.6-2 .7s-1.4 0-1.9-.5c-2.1-1.6-2-5.1 0-6.6 1.7-1.2 3.7-1.6 5.6-1.9.8-.2 1.6-.3 2.6-.2z"/><path d="m201.9 257.1c1.2 0 2.3.6 3.2 1.2 2 1.4 3.5 3.2 5 5.2.2.3.2.6-.1.8-.4.3-.7.7-.8 1.1-.1 1-.7 1-1.4.9-2.3-.4-4.6-.8-6.8-1.8-.4-.1-.7-.3-1-.5-1.7-1-2.3-2.2-2-3.6.3-1.7 2.2-3.3 3.9-3.3z"/><path d="m208.7 277.1c0-2.6.9-5 1.9-7.3.1-.3.2-.4.6-.3.7.2 1.4.2 2-.1.4-.2.5-.1.7.3 1.1 2.8 2.3 5.5 2.3 8.5.1 2.5-.8 3.6-2.8 3.8-2.6.2-4.4-1.2-4.7-3.5 0-.6 0-1 0-1.4z"/><path d="m30.3 346.1c.1.4.2.8.4 1.3.6 1.8 1.1 3.7 1.7 5.4v.1c-.4 0-.7.1-1.1.1-1.7.3-3.3.8-4.8 1.4-2.4 1-4.5 2.4-6.4 4.2-.8.8-1.6 1.7-2.3 2.6-.5.8-1 1.5-1.5 2.3s-.7 1.7-.9 2.6c-.4 1.5-.4 3.1-.1 4.7.4 2.2 1.5 4 3.1 5.6 1.3 1.2 2.8 2.2 4.4 2.9s3.4 1.1 5.2 1.2c2.5 0 4.6-.8 6.5-2.4 1.2-1.1 2.2-2.3 2.9-3.8 1.3-2.4 2.1-4.9 2.5-7.5.5-3.2.3-6.3-.7-9.4v-.1c.5-.1.9-.1 1.4-.2 1.9-.3 3.7-.6 5.6-.9h.2c.2 1.7.4 3.5.6 5.2-.9.1-1.8.3-2.7.5 0 .9.1 1.9.2 2.8 0 2.1-.1 4.1-.5 6.1-.3 1.7-.8 3.4-1.5 5-.5 1.1-1.1 2.3-1.9 3.2-.6.8-1.3 1.6-2.1 2.3-1.4 1.2-3 2.1-4.6 2.9-2 .8-4 1.4-6.2 1.4-3.3.1-6.3-.8-9.1-2.4-1.5-.8-2.7-1.9-3.8-3.2-3.2-3.6-4.7-7.6-4.4-12.5.1-2.1.6-4.1 1.6-6 .1-.2.2-.4.3-.7.3-.5.6-.9.8-1.4 0 0 .1-.1.1-.1.7-1 1.4-1.9 2.2-2.7 1.2-1.2 2.5-2.3 3.9-3.2 2-1.3 4.2-2.3 6.5-2.9h.2c-.2-.8-.4-1.6-.7-2.3 1-.4 1.9-.8 2.9-1.1.8-.5 1.4-.8 2.1-1zm-14.7 15.6c.7-.7 1.3-1.4 1.9-2 .1-.1.1-.2 0-.3-.2-.4-.4-.8-.6-1.1 0 0 0-.1-.1-.1-.8.8-1.7 1.6-2.6 2.5.5.2.9.6 1.4 1zm23.1 14.1c.5.2 1 .4 1.6.7.3-1.1.7-2.3 1-3.4-.5 0-1 0-1.5 0-.1 0-.2 0-.2.1-.1.5-.3 1-.5 1.5-.1.3-.3.7-.4 1.1zm-21.1 4.7c1 .5 2 .9 3 1.4 0-.4.1-.8.1-1.2 0-.1 0-.1-.1-.2-.7-.3-1.3-.7-1.9-1-.1-.1-.2-.1-.4-.2-.2.4-.4.8-.7 1.2zm6.4 1.7c-.1.4-.2.8-.3 1.3 1 .2 1.9.4 2.9.6 0-.6-.1-1.1-.2-1.7-.8 0-1.6-.1-2.4-.2zm-7.6-5.1c-.4-.7-.7-1.4-1.1-2.1-.6.1-1.1.3-1.6.5.6.8 1.1 1.6 1.6 2.4.3-.3.7-.5 1.1-.8zm2.7-21.5c.4.3.8.6 1.1.8.1.1.1 0 .2 0 .5-.3 1-.5 1.5-.8.1-.1.2-.1.4-.2-.2-.4-.4-.8-.6-1.2-.8.5-1.6 1-2.6 1.4zm23.4 14.2c0-1 0-2 0-3-.5 0-.9 0-1.4.1v2.2s0 .1.1.1c.1.1.3.1.4.2.3.2.5.3.9.4zm-29.3-2.5c.2-.8.4-1.5.5-2.3-.4-.2-.8-.3-1.2-.5-.2.9-.4 1.7-.6 2.6.5.1.9.1 1.3.2zm23.4 11.6c-.6.5-1.1.9-1.6 1.4v.1l.6.9c.7-.6 1.4-1.1 2.1-1.7-.5-.1-.8-.4-1.1-.7zm-22.9-6.2c-.2-.6-.5-1.2-.7-1.8 0 0 0-.1-.1-.1-.3 0-.6 0-1 0 .2.8.5 1.5.7 2.3.5-.2.8-.3 1.1-.4zm16 9.8c0 .4.1.7.1 1.1.8-.1 1.6-.3 2.4-.4-.1-.3-.3-.6-.5-.8h-.1c-.6-.1-1.2 0-1.9.1z"/><path d="m30.3 180.1c.5-1.5 1.2-3 1.6-4.6.4-1.5.7-3.1.3-4.8-.5-1.9-2.4-3.1-4.7-2.8-1.8.2-2.6 1.3-2.6 3.6 0 2.9.9 5.6 1.9 8.3.1.4.3.5.8.4 2-.2 2.8.2 3.7 2.2.1.3.2.4.6.4 2.8.1 5.6.1 8.3-.9 2.7-1.1 3.6-3.5 2.3-6.1-.6-1.2-1.6-1.8-3-1.5-1.8.3-3.2 1.3-4.6 2.3-1.8 1-3.2 2.3-4.6 3.5z"/><path d="m39.3 192.5c1.8 0 3.7-1.5 4.1-3.5.3-1.4-.5-2.6-2.3-3.5-.5-.3-1.1-.5-1.6-.7-2-.7-4-1-6.1-1.2-1.9-.2-1.8-.2-2.7 1.4-.2.3-.2.5 0 .8 1.7 2.2 3.5 4.3 5.9 5.8.8.5 1.7.9 2.7.9z"/><path d="m23.9 183.8c-.9-.1-1.8.1-2.6.2-2 .3-4 .7-5.6 1.9-2.1 1.5-2.1 5 0 6.6.6.4 1.2.6 1.9.5s1.4-.4 2-.7c2.3-1.3 4.1-3.1 5.9-5 .4-.4.8-.8 1-1.2.3-.7-.7-.7-.8-1.2-.3-1.1-1-1.3-1.8-1.1z"/><path d="m18.1 173.8c-1.6 0-3.6 1.6-4 3.3-.4 1.4.3 2.6 2 3.6.3.2.7.4 1 .6 2.2.9 4.5 1.4 6.8 1.8.8.1 1.3.1 1.4-.8 0-.5.4-.8.8-1.1.3-.3.4-.5.1-.8-1.5-1.9-3-3.8-5-5.2-.9-.9-1.9-1.4-3.1-1.4z"/><path d="m24.9 193.7v1.3c.2 2.3 2.1 3.7 4.7 3.5 2-.1 2.9-1.3 2.8-3.8-.1-3-1.2-5.8-2.3-8.5-.1-.4-.3-.4-.7-.3-.7.3-1.4.3-2 .1-.4-.1-.5 0-.6.3-1 2.5-1.9 4.8-1.9 7.4z"/><path d="m30.3 180.1c1.5-1.3 2.9-2.5 4.4-3.6 1.5-1 2.9-2 4.6-2.3 1.4-.2 2.4.3 3 1.5 1.3 2.7.4 5.1-2.3 6.1s-5.5 1.1-8.3.9c-.3 0-.4-.1-.6-.4-.9-1.9-1.6-2.4-3.7-2.2-.4 0-.6 0-.8-.4-1-2.7-1.9-5.4-1.9-8.3 0-2.3.8-3.3 2.6-3.6 2.3-.3 4.2.9 4.7 2.8.4 1.6.1 3.2-.3 4.8-.2 1.7-.9 3.2-1.4 4.7z"/><path d="m39.3 192.5c-1 0-1.9-.4-2.8-.9-2.4-1.5-4.2-3.6-5.9-5.8-.2-.3-.2-.5 0-.8.9-1.6.9-1.6 2.7-1.4 2.1.2 4.1.6 6.1 1.2.6.2 1.1.4 1.6.7 1.8.8 2.6 2.2 2.3 3.5-.4 2-2.1 3.5-4 3.5z"/><path d="m23.9 183.8c.9-.3 1.5 0 1.8 1 .1.5 1.1.6.8 1.2-.2.5-.7.8-1 1.2-1.8 1.9-3.6 3.7-5.9 5-.7.4-1.3.6-2 .7s-1.4 0-1.9-.5c-2.1-1.6-2-5.1 0-6.6 1.7-1.2 3.7-1.6 5.6-1.9.8 0 1.6-.2 2.6-.1z"/><path d="m18.1 173.8c1.2 0 2.3.6 3.2 1.2 2 1.4 3.5 3.2 5 5.2.2.3.2.6-.1.8-.4.3-.7.7-.8 1.1-.1 1-.7 1-1.4.8-2.3-.4-4.6-.8-6.8-1.8-.4-.1-.7-.3-1-.6-1.7-1-2.3-2.2-2-3.6.3-1.6 2.2-3.1 3.9-3.1z"/><path d="m24.9 193.7c0-2.6.9-5 1.9-7.3.1-.3.2-.4.6-.3.7.2 1.4.2 2-.1.4-.2.5-.1.7.3 1.1 2.8 2.3 5.5 2.3 8.5.1 2.5-.8 3.6-2.8 3.8-2.6.2-4.4-1.2-4.7-3.5 0-.5 0-.9 0-1.4z"/><path d="m423 89.1-3.3 4.8 2.2 5.4-5.6-1.6-4.5 3.7-.2-5.9-4.9-3.1 5.5-2 1.5-5.7 3.6 4.6z"/><path d="m434.2 233.1-4.4 3.8.7 5.8-5-3-5.3 2.4 1.3-5.7-3.9-4.3 5.8-.5 2.9-5.1 2.3 5.4z"/><path d="m360.7 282.8-4.6 4.1.7 6.1-5.3-3.1-5.6 2.6 1.4-6.1-4.2-4.5 6.2-.6 3-5.4 2.4 5.7z"/><path d="m365.8 34.2c-.5-.3-1-.6-1.5-.8-1.5-.8-2.9-1.5-4.4-2.3-1.2-.6-2.3-1.2-3.5-1.9-.9-.5-1.7-1.1-2.4-1.9-.6-.7-1-1.4-1.3-2.2-.3-.7-.5-1.4-.7-2.2-.5-2.3.4-4.5 2.3-5.6 2-1.3 4.1-1.3 6.1-.1.5.3.9.6 1.3 1 0 0 0 0 .1.1v-.1c.4-1.1 1-2.1 1.9-2.9.8-.7 1.7-1.1 2.7-1.3 1.3-.2 2.5 0 3.6.6 1 .6 1.8 1.5 2.3 2.5.3.6.4 1.3.5 1.9.1.7.2 1.4.1 2.1 0 1.1-.3 2.1-.8 3.1s-1.1 2-1.7 2.9c-.9 1.4-1.9 2.7-2.9 4.1-.7.9-1.3 1.9-1.9 2.9.2.1.2.1.2.1z"/><path d="m150.2 304.1-3.3 4.9 2.1 5.4-5.6-1.6-4.5 3.7-.2-5.9-4.9-3.2 5.5-2 1.5-5.7 3.6 4.6z"/><path d="m428 397.8c-.5-.3-1-.6-1.5-.8-1.5-.8-2.9-1.5-4.4-2.3-1.2-.6-2.3-1.2-3.5-1.9-.9-.6-1.7-1.1-2.4-1.9-.6-.7-1-1.4-1.3-2.2-.3-.7-.5-1.4-.7-2.1-.5-2.3.4-4.5 2.3-5.6 2-1.3 4.1-1.3 6.1-.1.5.3.9.6 1.3 1l.1.1v-.1c.4-1.1 1-2.2 1.9-3 .8-.7 1.7-1.1 2.7-1.3 1.3-.2 2.5 0 3.6.6 1 .6 1.8 1.5 2.3 2.5.3.6.4 1.3.5 1.9.1.7.2 1.4.2 2.1 0 1.1-.3 2.1-.8 3.1s-1.1 2-1.7 2.9c-.9 1.4-1.9 2.7-2.9 4.1-.7.9-1.3 1.9-1.9 2.9.2 0 .2.1.1.1z"/><path d="m206.2 145.8-4.4 3.9.7 5.8-5-3-5.3 2.4 1.3-5.7-3.9-4.3 5.8-.6 2.9-5.1 2.3 5.4z"/><path d="m373.9 164.2c.4.1.8.2 1.3.3 1.9.5 3.7.9 5.6 1.4h.1c-.1.3-.3.7-.4 1-.6 1.5-1 3.2-1.3 4.9-.4 2.6-.3 5.1.3 7.6.3 1.1.6 2.2 1.1 3.2.4.8.8 1.6 1.2 2.4s1.1 1.5 1.7 2.1c1.2 1.1 2.4 2 3.9 2.6 2.1.8 4.2.8 6.3.2 1.7-.5 3.3-1.3 4.7-2.3 1.5-1 2.7-2.3 3.7-3.8 1.3-2.1 1.7-4.4 1.3-6.8-.3-1.6-.9-3-1.7-4.5-1.4-2.3-3.1-4.3-5.2-6.1-2.5-2.1-5.3-3.5-8.4-4.3h-.1c.2-.4.3-.8.5-1.3.7-1.7 1.4-3.5 2.1-5.3 0-.1 0-.1 0-.2 1.6.7 3.1 1.5 4.7 2.2-.3.9-.7 1.7-1 2.6.8.4 1.7.8 2.5 1.3 1.8 1 3.5 2.2 5 3.6 1.3 1.2 2.5 2.4 3.5 3.9.7 1 1.3 2.1 1.8 3.3.4 1 .7 2 .9 3 .3 1.8.3 3.6 0 5.4-.3 2.2-.9 4.1-2 6.1-1.6 2.9-3.9 5-6.8 6.5-1.5.8-3 1.3-4.7 1.6-4.7.9-9 .1-12.9-2.7-1.7-1.2-3.2-2.6-4.3-4.5-.1-.2-.3-.4-.4-.6-.3-.5-.5-1-.8-1.5 0 0 0-.1 0-.2-.5-1.1-.9-2.2-1.2-3.3-.4-1.6-.7-3.3-.7-5-.1-2.4.3-4.8.9-7.1 0 0 0-.1 0-.2-.8-.2-1.6-.4-2.3-.7.2-1 .3-2 .5-3 .4-.4.5-1.1.6-1.8zm5.7 20.7c-.2-.9-.5-1.8-.8-2.7 0-.1-.1-.2-.2-.2-.4 0-.8 0-1.3-.1h-.1c.3 1.2.5 2.3.8 3.5.6-.1 1.1-.3 1.6-.5zm24.1-12.5c.5-.3.9-.7 1.4-1-.8-.9-1.6-1.7-2.4-2.6-.3.4-.5.8-.8 1.3-.1.1 0 .2 0 .3.3.4.7.8 1 1.2.3.2.6.5.8.8zm-6.9 20.5c.9-.6 1.8-1.2 2.7-1.9-.3-.3-.7-.5-.9-.8-.1-.1-.1-.1-.2 0-.6.4-1.2.8-1.8 1.1-.1.1-.2.1-.4.2.2.6.4 1 .6 1.4zm4.8-4.6c.3.3.6.6.9.9.7-.7 1.4-1.5 2-2.2-.5-.2-1-.5-1.5-.7-.4.7-.9 1.3-1.4 2zm-8.3 3.9c-.8 0-1.6-.1-2.4-.2-.1.6-.3 1.1-.5 1.6 1 0 1.9-.1 2.9-.1.1-.4 0-.8 0-1.3zm-17-13.5c.5-.2.9-.3 1.3-.5.1 0 .1-.1.1-.2 0-.6.1-1.1.1-1.7 0-.1 0-.3 0-.4-.5 0-.9-.1-1.3-.1 0 .9-.1 1.9-.2 2.9zm24.3-12.6c-.9-.5-1.7-1-2.6-1.5-.2.4-.4.8-.6 1.2.7.4 1.3.8 1.9 1.1h.2c.1-.1.3-.2.4-.3s.4-.3.7-.5zm-17.4 23.7c-.6-.6-1.1-1.1-1.6-1.6-.4.2-.7.5-1.1.8.7.6 1.3 1.2 2 1.8.2-.4.5-.7.7-1zm22.1-13.9c.1.8.2 1.5.4 2.2 0 0 .1.1.1.1h1.1c-.1-.9-.2-1.8-.4-2.7-.4.1-.8.2-1.2.4zm-17.1 16.2c-.7-.1-1.3-.2-1.9-.4h-.1c-.2.3-.3.5-.5.8.8.2 1.5.4 2.3.6 0-.3.1-.6.2-1zm16.5-8.5c.3.1.7.3 1 .4.3-.8.6-1.5.9-2.3-.3 0-.7 0-.9 0 0 0-.1 0-.1.1-.3.5-.6 1.1-.9 1.8z"/><path d="m419.4 314.5c.5-1.5 1.2-3 1.6-4.6.4-1.5.7-3.1.3-4.8-.5-1.9-2.4-3.1-4.7-2.8-1.8.2-2.6 1.3-2.6 3.6 0 2.9.9 5.6 1.9 8.3.1.4.3.5.8.4 2-.2 2.8.2 3.7 2.2.1.3.2.4.6.4 2.8.1 5.6.1 8.3-.9 2.8-1.1 3.6-3.5 2.3-6.1-.6-1.3-1.6-1.8-3-1.5-1.8.3-3.2 1.3-4.6 2.3-1.8 1-3.2 2.3-4.6 3.5z"/><path d="m428.4 326.9c1.8 0 3.7-1.5 4.1-3.5.3-1.4-.5-2.6-2.3-3.5-.5-.3-1.1-.5-1.6-.7-2-.7-4-1-6.1-1.2-1.9-.2-1.8-.2-2.7 1.4-.2.3-.2.5 0 .8 1.7 2.2 3.5 4.3 5.9 5.8.8.5 1.7.9 2.7.9z"/><path d="m412.9 318.3c-.9-.1-1.8.1-2.6.2-2 .3-4 .7-5.6 1.9-2.1 1.5-2.1 5 0 6.6.6.4 1.2.6 1.9.5s1.4-.4 2-.7c2.3-1.3 4.1-3.1 5.9-5 .4-.4.8-.8 1-1.2.3-.7-.7-.7-.8-1.2-.2-1.2-.9-1.4-1.8-1.1z"/><path d="m407.2 308.2c-1.6 0-3.6 1.6-4 3.3-.4 1.4.3 2.5 2 3.6.3.2.7.4 1 .5 2.2.9 4.5 1.4 6.8 1.8.8.1 1.3.1 1.4-.9 0-.4.4-.8.8-1.1.3-.3.4-.5.1-.8-1.5-1.9-3-3.8-5-5.2-.9-.7-2-1.2-3.1-1.2z"/><path d="m414 328.1v1.3c.2 2.3 2.1 3.7 4.7 3.5 2-.1 2.9-1.3 2.8-3.8-.1-3-1.2-5.8-2.3-8.5-.1-.4-.3-.4-.7-.3-.7.3-1.4.3-2 .1-.4-.1-.5 0-.6.3-.9 2.5-1.8 4.8-1.9 7.4z"/><path d="m419.4 314.5c1.5-1.3 2.9-2.5 4.4-3.6 1.5-1 2.9-2 4.6-2.3 1.4-.2 2.4.3 3 1.5 1.3 2.7.4 5.1-2.3 6.1s-5.5 1.1-8.3.9c-.3 0-.4-.1-.6-.4-.9-1.9-1.6-2.4-3.7-2.2-.4 0-.6 0-.8-.4-.9-2.7-1.9-5.4-1.9-8.3 0-2.3.8-3.3 2.6-3.6 2.3-.3 4.2.9 4.7 2.8.4 1.6.1 3.2-.3 4.8-.2 1.7-.9 3.2-1.4 4.7z"/><path d="m428.4 326.9c-1 0-1.9-.4-2.8-.9-2.4-1.5-4.2-3.6-5.9-5.8-.2-.3-.2-.5 0-.8.9-1.6.9-1.6 2.7-1.4 2.1.2 4.1.6 6.1 1.2.6.2 1.1.4 1.6.7 1.8.8 2.6 2.2 2.3 3.5-.4 2-2.2 3.5-4 3.5z"/><path d="m412.9 318.3c.9-.3 1.5 0 1.8 1 .1.5 1.1.6.8 1.2-.2.5-.7.8-1 1.2-1.8 1.9-3.6 3.7-5.9 5-.7.4-1.3.6-2 .7s-1.4 0-1.9-.5c-2.1-1.6-2-5.1 0-6.6 1.7-1.2 3.7-1.6 5.6-1.9.9-.1 1.7-.2 2.6-.1z"/><path d="m407.2 308.2c1.2 0 2.3.5 3.2 1.2 2 1.4 3.5 3.2 5 5.2.2.3.2.6-.1.8-.4.3-.7.7-.8 1.1-.1 1-.7 1-1.4.9-2.3-.4-4.6-.8-6.8-1.8-.4-.1-.7-.3-1-.5-1.7-1-2.3-2.2-2-3.6.3-1.7 2.2-3.3 3.9-3.3z"/><path d="m414 328.1c0-2.6.9-5 1.9-7.3.1-.3.2-.4.6-.3.7.2 1.4.2 2-.1.4-.2.5-.1.7.3 1.1 2.8 2.3 5.5 2.3 8.5.1 2.4-.8 3.6-2.8 3.8-2.6.2-4.4-1.2-4.7-3.5 0-.5 0-.9 0-1.4z"/><path d="m328 384.3c.1.4.2.8.4 1.3.6 1.8 1.2 3.7 1.7 5.4v.1c-.4 0-.7.1-1.1.1-1.7.3-3.3.8-4.8 1.4-2.4 1-4.5 2.4-6.4 4.2-.8.8-1.6 1.7-2.3 2.6-.5.8-1 1.5-1.5 2.3-.4.8-.7 1.7-.9 2.6-.4 1.5-.4 3.1-.1 4.7.4 2.2 1.5 4 3.1 5.6 1.3 1.2 2.8 2.2 4.4 2.9s3.4 1.1 5.2 1.2c2.5 0 4.6-.8 6.5-2.4 1.2-1.1 2.2-2.3 2.9-3.8 1.3-2.4 2.1-4.9 2.5-7.5.5-3.2.3-6.3-.7-9.4v-.1c.5-.1.9-.1 1.4-.2 1.9-.3 3.7-.6 5.6-.9h.2c.2 1.7.4 3.5.6 5.2-.9.1-1.8.3-2.7.5 0 .9.1 1.9.2 2.8 0 2.1-.1 4.1-.5 6.1-.3 1.7-.8 3.4-1.5 5-.5 1.1-1.1 2.2-1.9 3.2-.6.8-1.3 1.6-2.1 2.3-1.4 1.2-3 2.1-4.6 2.9-2 .8-4 1.4-6.2 1.4-3.3.1-6.3-.8-9.1-2.4-1.5-.8-2.7-1.9-3.8-3.2-3.2-3.5-4.7-7.6-4.4-12.4.1-2.1.6-4.1 1.6-6 .1-.2.2-.4.3-.7.3-.5.6-.9.8-1.4 0 0 .1-.1.1-.1.7-1 1.4-1.9 2.2-2.7 1.2-1.2 2.5-2.3 3.9-3.2 2-1.3 4.2-2.3 6.5-2.9h.2c-.2-.8-.4-1.6-.7-2.3 1-.4 1.9-.8 2.9-1.1.8-.5 1.4-.7 2.1-1.1zm-14.8 15.6c.7-.7 1.3-1.4 1.9-2 .1-.1.1-.2 0-.3-.2-.4-.4-.8-.6-1.1 0 0 0-.1-.1-.1-.8.8-1.7 1.6-2.6 2.5.5.3 1 .7 1.4 1zm23.1 14.2c.5.2 1 .4 1.6.7.3-1.1.7-2.3 1-3.4-.5 0-1 0-1.5 0-.1 0-.2 0-.2.1-.1.5-.3 1-.5 1.5-.1.3-.2.7-.4 1.1zm-21 4.8c1 .5 2 .9 3 1.4 0-.4.1-.8.1-1.2 0-.1 0-.1-.1-.2-.7-.3-1.3-.7-1.9-1-.1 0-.2-.1-.4-.2-.2.3-.5.7-.7 1.2zm6.4 1.6c-.1.4-.2.8-.3 1.3 1 .2 1.9.4 2.9.6 0-.6-.1-1.1-.2-1.7-.8 0-1.6-.1-2.4-.2zm-7.6-5.1c-.4-.7-.7-1.4-1.1-2.1-.6.1-1.1.3-1.6.4.6.8 1.1 1.6 1.6 2.4.3-.2.7-.4 1.1-.7zm2.7-21.5c.4.3.8.6 1.1.8.1.1.1 0 .2 0 .5-.3 1-.5 1.5-.8.1 0 .2-.1.4-.2-.2-.4-.4-.8-.6-1.2-.8.5-1.7.9-2.6 1.4zm23.3 14.2c0-1 0-2 0-3-.5 0-.9 0-1.3.1v2.2s0 .1.1.1c.1.1.3.1.4.2.2.2.5.3.8.4zm-29.2-2.6c.2-.8.4-1.5.5-2.3-.4-.2-.8-.4-1.2-.5-.2.9-.4 1.7-.6 2.6.5.1.9.2 1.3.2zm23.3 11.8c-.6.5-1.1.9-1.6 1.5v.1c.2.3.4.6.6.9.7-.6 1.4-1.1 2.1-1.7-.4-.3-.7-.6-1.1-.8zm-22.8-6.3c-.2-.6-.5-1.2-.7-1.8 0 0 0-.1-.1-.1-.3 0-.6 0-.9 0 .2.8.5 1.5.7 2.3.3-.2.7-.3 1-.4zm16 9.7c0 .4.1.7.1 1.1.8-.1 1.6-.3 2.4-.4-.1-.3-.3-.6-.5-.8h-.1c-.6 0-1.3.1-1.9.1z"/><path d="m139.8 388.1c.5-1.5 1.2-3 1.6-4.6.4-1.5.7-3.1.3-4.8-.5-1.9-2.4-3.1-4.7-2.8-1.8.2-2.6 1.3-2.6 3.6 0 2.9.9 5.6 1.9 8.3.1.4.3.5.8.4 2-.2 2.8.2 3.7 2.2.1.3.2.4.6.4 2.8.1 5.6.1 8.3-.9 2.7-1.1 3.6-3.5 2.3-6.1-.6-1.2-1.6-1.8-3-1.5-1.8.3-3.2 1.3-4.6 2.3-1.7 1-3.1 2.3-4.6 3.5z"/><path d="m148.8 400.5c1.8 0 3.7-1.5 4.1-3.5.3-1.4-.5-2.6-2.3-3.5-.5-.3-1.1-.5-1.6-.7-2-.7-4-1-6.1-1.2-1.9-.2-1.8-.2-2.7 1.4-.2.3-.2.5 0 .8 1.7 2.2 3.5 4.3 5.9 5.8.8.5 1.7.9 2.7.9z"/><path d="m133.4 391.8c-.9-.1-1.8.1-2.6.2-2 .3-4 .7-5.6 1.9-2.1 1.5-2.1 5-.1 6.6.6.4 1.2.6 1.9.5s1.4-.4 2-.7c2.3-1.3 4.1-3.1 5.9-5 .4-.4.8-.8 1-1.2.3-.7-.7-.7-.8-1.2-.1-1.1-.8-1.3-1.7-1.1z"/><path d="m127.6 381.8c-1.6 0-3.6 1.6-4 3.3-.4 1.4.3 2.6 2 3.6.3.2.7.4 1.1.6 2.2.9 4.5 1.4 6.8 1.8.8.1 1.3.1 1.4-.8 0-.5.4-.8.8-1.1.3-.3.4-.5.1-.8-1.5-1.9-3-3.8-5-5.2-.9-.9-2-1.4-3.2-1.4z"/><path d="m134.5 401.7v1.3c.2 2.3 2.1 3.7 4.7 3.5 2-.1 2.9-1.3 2.8-3.8-.1-3-1.2-5.8-2.3-8.5-.1-.4-.3-.4-.7-.3-.7.3-1.4.3-2 .1-.4-.1-.5 0-.6.3-1 2.4-1.9 4.8-1.9 7.4z"/><path d="m139.8 388.1c1.5-1.3 2.9-2.5 4.4-3.6 1.4-1 2.9-2 4.6-2.3 1.4-.2 2.4.3 3 1.5 1.3 2.7.4 5.1-2.3 6.1s-5.5 1.1-8.3.9c-.3 0-.4-.1-.6-.4-.9-1.9-1.6-2.4-3.7-2.2-.4 0-.6 0-.8-.4-.9-2.7-1.9-5.4-1.9-8.3 0-2.3.8-3.3 2.6-3.6 2.3-.3 4.2.9 4.7 2.8.4 1.6.1 3.2-.3 4.8-.1 1.7-.8 3.1-1.4 4.7z"/><path d="m148.8 400.5c-1 0-1.9-.4-2.8-.9-2.4-1.5-4.2-3.6-5.9-5.8-.2-.3-.2-.5 0-.8.9-1.6.9-1.6 2.7-1.4 2.1.2 4.1.6 6.1 1.2.6.2 1.1.4 1.6.7 1.8.8 2.6 2.2 2.3 3.5-.3 2-2.1 3.5-4 3.5z"/><path d="m133.4 391.8c.9-.3 1.5 0 1.8 1 .1.5 1.1.6.8 1.2-.2.5-.7.8-1 1.2-1.8 1.9-3.6 3.7-5.9 5-.7.4-1.3.6-2 .7s-1.4 0-1.9-.5c-2.1-1.6-2-5.1.1-6.6 1.7-1.2 3.7-1.6 5.6-1.9.7 0 1.6-.2 2.5-.1z"/><path d="m127.6 381.8c1.2 0 2.3.6 3.2 1.2 2 1.4 3.5 3.2 5 5.2.2.3.2.6-.1.8-.4.3-.7.7-.8 1.1-.1 1-.7 1-1.4.8-2.3-.4-4.6-.8-6.8-1.8-.4-.1-.7-.3-1.1-.6-1.7-1-2.3-2.2-2-3.6.5-1.6 2.4-3.1 4-3.1z"/><path d="m134.5 401.7c0-2.6.9-5 1.9-7.3.1-.3.2-.4.6-.3.7.2 1.4.2 2-.1.4-.2.5-.1.7.3 1.1 2.8 2.3 5.5 2.3 8.5.1 2.4-.8 3.6-2.8 3.8-2.6.2-4.4-1.2-4.7-3.5-.1-.5 0-1 0-1.4z"/><path d="m243 65.1c.1.4.2.8.4 1.3.6 1.8 1.2 3.7 1.7 5.4v.1c-.4 0-.7.1-1.1.1-1.7.3-3.3.8-4.8 1.4-2.4 1-4.5 2.4-6.4 4.2-.8.8-1.6 1.7-2.3 2.6-.5.8-1 1.5-1.5 2.3s-.7 1.7-.9 2.6c-.4 1.5-.4 3.1-.1 4.7.4 2.2 1.5 4 3 5.6 1.3 1.2 2.8 2.2 4.4 2.9s3.4 1.1 5.2 1.2c2.5 0 4.6-.8 6.5-2.4 1.2-1.1 2.2-2.3 2.9-3.8 1.3-2.4 2.1-4.9 2.5-7.5.5-3.2.3-6.3-.7-9.4v-.1c.5-.1.9-.1 1.4-.2 1.9-.3 3.7-.6 5.6-.9h.2c.2 1.7.4 3.5.6 5.2-.9.1-1.8.3-2.7.5 0 .9.1 1.9.2 2.8 0 2.1-.1 4.1-.5 6.1-.3 1.7-.8 3.4-1.5 5-.5 1.1-1.1 2.3-1.9 3.2-.6.8-1.3 1.6-2.1 2.3-1.4 1.2-3 2.1-4.6 2.9-2 .8-4 1.4-6.2 1.4-3.3.1-6.3-.8-9.1-2.4-1.5-.8-2.7-1.9-3.8-3.2-3.2-3.6-4.7-7.6-4.4-12.5.1-2.1.6-4.1 1.6-6 .1-.2.2-.4.3-.7.3-.5.6-.9.8-1.4 0 0 .1-.1.1-.1.7-1 1.4-1.9 2.2-2.7 1.2-1.2 2.5-2.3 3.9-3.2 2-1.3 4.2-2.3 6.5-2.9h.2c-.2-.8-.5-1.6-.7-2.4 1-.4 1.9-.8 2.9-1.1.9-.3 1.5-.6 2.2-.9zm-14.8 15.7c.7-.7 1.3-1.4 1.9-2 .1-.1.1-.2 0-.3-.2-.4-.4-.8-.6-1.1 0 0 0-.1-.1-.1-.8.8-1.7 1.6-2.6 2.5.6.2 1 .6 1.4 1zm23.2 14.1c.5.2 1 .4 1.6.7.3-1.1.7-2.3 1-3.4-.5 0-1 0-1.5 0-.1 0-.2 0-.2.1-.1.5-.3 1-.5 1.5-.2.3-.3.7-.4 1.1zm-21.1 4.7c1 .5 2 .9 3 1.4 0-.4.1-.8.1-1.2 0-.1 0-.1-.1-.2-.7-.3-1.3-.7-1.9-1-.1-.1-.2-.1-.4-.2-.2.4-.5.8-.7 1.2zm6.4 1.7c-.1.4-.2.8-.3 1.3 1 .2 1.9.4 2.9.6 0-.6-.1-1.1-.2-1.7-.8-.1-1.6-.2-2.4-.2zm-7.7-5.1c-.4-.7-.7-1.4-1.1-2.1-.6.1-1.1.3-1.6.5.6.8 1.1 1.6 1.6 2.4.4-.3.8-.6 1.1-.8zm2.8-21.5c.4.3.8.6 1.1.8.1.1.1 0 .2 0 .5-.3 1-.5 1.5-.8.1-.1.2-.1.4-.2-.2-.4-.4-.8-.6-1.2-.8.5-1.7.9-2.6 1.4zm23.3 14.2c0-1 0-2 0-3-.5 0-.9 0-1.3.1v2.2s0 .1.1.1c.1.1.3.1.4.2.3.1.5.3.8.4zm-29.2-2.6c.2-.8.4-1.5.5-2.3-.4-.2-.8-.3-1.2-.5-.2.9-.4 1.7-.6 2.6.5.1.9.1 1.3.2zm23.3 11.7c-.6.5-1.1.9-1.6 1.4v.1c.2.3.4.6.6.9.7-.6 1.4-1.1 2.1-1.7-.4-.2-.7-.5-1.1-.7zm-22.8-6.3c-.2-.6-.5-1.2-.7-1.8 0 0 0-.1-.1-.1-.3 0-.6 0-1 0 .2.8.5 1.5.7 2.3.5-.1.8-.2 1.1-.4zm16 9.8c0 .4.1.7.1 1.1.8-.1 1.6-.3 2.4-.4-.1-.3-.3-.6-.5-.8h-.1c-.6-.1-1.2 0-1.9.1z"/><path d="m278.5 188.7c-.5-.3-1-.6-1.5-.8-1.5-.8-2.9-1.5-4.3-2.3-1.2-.6-2.4-1.2-3.5-1.9-.9-.5-1.7-1.1-2.4-1.9-.6-.7-1-1.4-1.3-2.1s-.5-1.4-.7-2.2c-.5-2.3.4-4.5 2.3-5.6 2-1.3 4.1-1.3 6.1-.1.5.3.9.6 1.3 1 0 0 0 0 .1.1v-.1c.4-1.1 1-2.1 1.9-2.9.8-.7 1.7-1.1 2.7-1.3 1.3-.2 2.5 0 3.6.6 1 .6 1.8 1.5 2.3 2.5.3.6.4 1.3.5 1.9.1.7.2 1.4.2 2.1 0 1.1-.3 2.1-.8 3.1s-1.1 2-1.7 2.9c-.9 1.4-1.9 2.7-2.9 4.1-.7.9-1.3 1.9-1.9 2.9z"/><path d="m574.9 123-3.3 4.9 2.2 5.4-5.6-1.6-4.5 3.7-.2-5.9-4.9-3.2 5.5-2 1.5-5.7 3.6 4.6z"/><path d="m712 50.2-4.4 3.9.7 5.8-5-3-5.3 2.4 1.3-5.7-3.9-4.3 5.8-.6 2.9-5.1 2.3 5.4z"/><path d="m512.7 316.8-4.6 4.1.7 6.1-5.3-3.1-5.6 2.6 1.4-6.1-4.2-4.5 6.2-.6 3-5.4 2.4 5.7z"/><path d="m517.8 68.2c-.5-.3-1-.6-1.5-.8-1.5-.8-2.9-1.5-4.4-2.3-1.2-.6-2.3-1.2-3.5-1.9-.9-.6-1.7-1.1-2.4-1.9-.6-.7-1-1.4-1.3-2.1s-.5-1.4-.7-2.2c-.5-2.3.4-4.5 2.3-5.6 2-1.3 4.1-1.3 6.1-.1.5.3.9.6 1.3 1 0 0 0 0 .1.1v-.1c.4-1.1 1-2.1 1.9-2.9.8-.7 1.7-1.1 2.7-1.3 1.3-.2 2.5 0 3.6.6 1 .6 1.8 1.5 2.3 2.5.3.6.4 1.3.5 1.9.1.7.2 1.4.2 2.1 0 1.1-.3 2.1-.8 3.1s-1.1 2-1.7 2.9c-.9 1.4-1.9 2.7-2.9 4.1-.6.9-1.2 1.9-1.8 2.9 0-.1 0-.1 0 0z"/><path d="m541.5 486.7-3.3 4.9 2.1 5.4-5.6-1.6-4.5 3.7-.2-5.9-4.9-3.2 5.5-2 1.5-5.7 3.6 4.6z"/><path d="m704.9 390.1c-.5-.3-1-.6-1.5-.8-1.5-.8-2.9-1.5-4.4-2.3-1.2-.6-2.4-1.2-3.5-1.9-.9-.5-1.7-1.1-2.4-1.9-.6-.7-1-1.4-1.3-2.1s-.5-1.4-.7-2.2c-.5-2.3.4-4.5 2.3-5.6 2-1.3 4.1-1.3 6.1-.1.5.3.9.6 1.3 1 0 0 0 0 .1.1v-.1c.4-1.1 1-2.1 1.9-2.9.8-.7 1.7-1.1 2.7-1.3 1.3-.2 2.5 0 3.6.6 1 .6 1.8 1.5 2.3 2.5.3.6.4 1.3.5 1.9.1.7.2 1.4.2 2.1 0 1.1-.3 2.1-.8 3.1s-1.1 2-1.7 2.9c-.9 1.4-1.9 2.7-2.9 4.1-.6.9-1.2 1.8-1.8 2.9z"/><path d="m699.4 489.2-4.4 3.8.7 5.8-5-3-5.3 2.4 1.3-5.7-3.9-4.3 5.8-.5 2.9-5.1 2.3 5.4z"/><path d="m558.1 221.3c.4.1.8.2 1.3.3 1.8.4 3.7.9 5.6 1.4h.1c-.1.3-.3.7-.4 1-.6 1.5-1 3.2-1.3 4.9-.4 2.6-.3 5.1.3 7.6.3 1.1.6 2.2 1.1 3.3.4.8.8 1.6 1.2 2.4.5.8 1.1 1.5 1.7 2.1 1.2 1.1 2.4 2 3.9 2.6 2.1.8 4.2.8 6.4.2 1.7-.5 3.3-1.3 4.7-2.3 1.5-1 2.7-2.3 3.7-3.8 1.3-2.1 1.7-4.4 1.3-6.8-.3-1.6-.9-3-1.7-4.5-1.4-2.3-3.1-4.3-5.2-6.1-2.5-2.1-5.3-3.5-8.4-4.3 0 0-.1 0-.2 0 .2-.4.3-.8.5-1.3.7-1.7 1.4-3.5 2.1-5.3 0-.1 0-.1 0-.2 1.6.7 3.1 1.5 4.7 2.2-.3.9-.7 1.7-1 2.6.8.4 1.7.8 2.5 1.3 1.8 1 3.5 2.2 5 3.6 1.3 1.2 2.5 2.4 3.5 3.9.7 1 1.3 2.1 1.8 3.3.4 1 .8 2 .9 3 .3 1.8.3 3.6 0 5.4-.3 2.1-.9 4.1-2 6.1-1.6 2.9-3.9 5-6.8 6.5-1.5.8-3 1.3-4.7 1.6-4.7.9-9 .1-12.9-2.7-1.7-1.2-3.2-2.6-4.3-4.5-.1-.2-.3-.4-.4-.6-.3-.5-.5-1-.8-1.5 0 0 0-.1 0-.2-.5-1.1-.9-2.2-1.2-3.3-.4-1.6-.7-3.3-.7-5 0-2.4.3-4.8.9-7.1 0 0 0-.1 0-.2-.8-.2-1.6-.4-2.3-.7.2-1 .3-2 .5-3 .4-.5.5-1.2.6-1.9zm5.7 20.7c-.2-.9-.5-1.8-.8-2.7 0-.1-.1-.2-.2-.2-.4 0-.8 0-1.3-.1 0 0-.1 0-.2 0 .3 1.2.5 2.3.8 3.5.6-.1 1.2-.3 1.7-.5zm24.1-12.5c.5-.3.9-.7 1.4-1-.8-.9-1.6-1.7-2.4-2.6-.3.4-.5.8-.8 1.3v.3c.3.4.7.8 1 1.2.3.2.6.5.8.8zm-6.9 20.5c.9-.6 1.8-1.2 2.7-1.9-.3-.3-.7-.5-.9-.8-.1-.1-.1-.1-.2 0-.6.4-1.2.8-1.8 1.1-.1 0-.2.1-.4.2.2.6.4 1 .6 1.4zm4.8-4.6c.3.3.6.6.9.9.7-.7 1.3-1.5 2-2.2-.5-.2-1-.5-1.5-.7-.4.7-.9 1.3-1.4 2zm-8.3 3.9c-.8 0-1.6-.1-2.3-.2-.1.5-.3 1.1-.5 1.6 1 0 1.9-.1 2.9-.1 0-.4-.1-.9-.1-1.3zm-17-13.5c.5-.2.9-.3 1.3-.5.1 0 .1-.1.1-.2 0-.6.1-1.1.1-1.7 0-.1 0-.3 0-.4-.5 0-.9-.1-1.3-.1 0 .9-.1 1.9-.2 2.9zm24.2-12.6c-.9-.5-1.7-1-2.6-1.5-.2.4-.4.8-.7 1.2.7.4 1.3.8 1.9 1.1h.2c.1-.1.3-.2.4-.3.3-.1.6-.3.8-.5zm-17.3 23.7c-.6-.6-1.1-1.1-1.6-1.6-.4.3-.7.5-1.1.8.7.6 1.3 1.2 2 1.8.2-.4.5-.7.7-1zm22.1-14c.1.8.2 1.5.4 2.2 0 0 .1.1.1.1h1.1c-.1-.9-.2-1.8-.4-2.7-.4.2-.8.3-1.2.4zm-17.1 16.4c-.7-.1-1.3-.2-1.9-.4h-.1c-.2.3-.3.5-.5.8.8.2 1.5.4 2.3.6 0-.3.1-.7.2-1zm16.5-8.7c.3.1.7.3 1 .4.3-.8.6-1.5.9-2.3-.3 0-.7 0-.9 0 0 0-.1 0-.1.1-.3.6-.6 1.2-.9 1.8z"/><path d="m663.7 297.4c.5-1.5 1.2-3 1.6-4.6.4-1.5.7-3.1.3-4.8-.5-1.9-2.4-3.1-4.7-2.8-1.8.2-2.6 1.3-2.6 3.6 0 2.9.9 5.6 1.9 8.3.1.4.3.5.8.4 2-.2 2.8.2 3.7 2.2.1.3.2.4.6.4 2.8.1 5.6.1 8.3-.9 2.8-1.1 3.6-3.5 2.3-6.1-.6-1.2-1.6-1.8-3-1.5-1.8.3-3.2 1.3-4.6 2.3-1.7 1-3.1 2.3-4.6 3.5z"/><path d="m672.8 309.8c1.8 0 3.7-1.5 4.1-3.5.3-1.4-.5-2.6-2.3-3.5-.5-.3-1.1-.5-1.6-.7-2-.7-4-1-6.1-1.2-1.9-.2-1.8-.2-2.7 1.4-.2.3-.2.5 0 .8 1.7 2.2 3.5 4.3 5.9 5.8.7.5 1.6.9 2.7.9z"/><path d="m657.3 301.1c-.9-.1-1.7.1-2.6.2-2 .3-4 .7-5.6 1.9-2.1 1.5-2.1 5 0 6.6.6.4 1.2.6 1.9.5s1.4-.4 2-.7c2.3-1.3 4.1-3.1 5.9-5 .4-.4.8-.8 1-1.2.3-.7-.7-.7-.8-1.3-.3-1-.9-1.2-1.8-1z"/><path d="m651.5 291.1c-1.6 0-3.6 1.6-4 3.3-.4 1.4.3 2.5 2 3.6.3.2.7.4 1 .5 2.2.9 4.5 1.4 6.8 1.8.8.1 1.3.1 1.4-.9 0-.4.4-.8.8-1.1.3-.3.4-.5.1-.8-1.5-1.9-3-3.8-5-5.2-.9-.7-1.9-1.2-3.1-1.2z"/><path d="m658.4 311v1.3c.2 2.3 2.1 3.7 4.7 3.5 2-.1 2.9-1.3 2.8-3.8-.1-3-1.2-5.8-2.3-8.5-.1-.4-.3-.4-.7-.3-.7.3-1.4.3-2 .1-.4-.1-.5 0-.6.3-1 2.5-1.9 4.8-1.9 7.4z"/><path d="m663.7 297.4c1.5-1.3 2.9-2.5 4.4-3.6 1.5-1 2.9-2 4.6-2.3 1.4-.2 2.4.3 3 1.5 1.3 2.7.4 5.1-2.3 6.1s-5.5 1.1-8.3.9c-.3 0-.4-.1-.6-.4-.9-1.9-1.6-2.4-3.7-2.2-.4 0-.6 0-.8-.4-1-2.7-1.9-5.4-1.9-8.3 0-2.3.8-3.3 2.6-3.6 2.3-.3 4.2.9 4.7 2.8.4 1.6.1 3.2-.3 4.8-.2 1.7-.9 3.2-1.4 4.7z"/><path d="m672.8 309.8c-1 0-1.9-.4-2.8-.9-2.4-1.5-4.2-3.6-5.9-5.8-.2-.3-.2-.5 0-.8.9-1.6.9-1.6 2.7-1.4 2.1.2 4.1.6 6.1 1.2.6.2 1.1.4 1.6.7 1.8.8 2.6 2.2 2.3 3.5-.4 2-2.2 3.5-4 3.5z"/><path d="m657.3 301.1c.9-.3 1.5 0 1.8 1 .1.5 1.1.6.8 1.3-.2.5-.7.8-1 1.2-1.8 1.9-3.6 3.7-5.9 5-.7.4-1.3.6-2 .7s-1.4 0-1.9-.5c-2.1-1.6-2-5.1 0-6.6 1.7-1.2 3.7-1.6 5.6-1.9.8-.1 1.7-.3 2.6-.2z"/><path d="m651.5 291.1c1.2 0 2.3.6 3.2 1.2 2 1.4 3.5 3.2 5 5.2.2.3.2.6-.1.8-.4.3-.7.7-.8 1.1-.1 1-.7 1-1.4.9-2.3-.4-4.6-.8-6.8-1.8-.4-.1-.7-.3-1-.5-1.7-1-2.3-2.2-2-3.6.4-1.7 2.3-3.3 3.9-3.3z"/><path d="m658.4 311c0-2.6.9-5 1.9-7.3.1-.3.2-.4.6-.3.7.2 1.4.2 2-.1.4-.2.5-.1.7.3 1.1 2.8 2.3 5.5 2.3 8.5.1 2.5-.8 3.6-2.8 3.8-2.6.2-4.4-1.2-4.7-3.5-.1-.5 0-.9 0-1.4z"/><path d="m480 380c.1.4.2.8.4 1.3.6 1.8 1.1 3.7 1.7 5.4v.1c-.4 0-.7.1-1.1.1-1.7.3-3.3.8-4.8 1.4-2.4 1-4.5 2.4-6.4 4.2-.8.8-1.6 1.7-2.3 2.6-.5.8-1 1.5-1.5 2.3s-.7 1.7-.9 2.6c-.4 1.5-.4 3.1-.1 4.7.4 2.2 1.5 4 3.1 5.6 1.3 1.2 2.8 2.2 4.4 2.9s3.4 1.1 5.2 1.2c2.5 0 4.6-.8 6.5-2.4 1.2-1.1 2.2-2.3 2.9-3.8 1.3-2.4 2.1-4.9 2.5-7.5.5-3.2.3-6.3-.7-9.4v-.1c.5-.1.9-.1 1.4-.2 1.9-.3 3.7-.6 5.6-.9h.2c.2 1.7.4 3.5.6 5.2-.9.1-1.8.3-2.7.5 0 .9.1 1.9.2 2.8 0 2.1-.1 4.1-.5 6.1-.3 1.7-.8 3.4-1.5 5-.5 1.1-1.1 2.3-1.9 3.2-.6.8-1.3 1.6-2.1 2.3-1.4 1.2-3 2.1-4.6 2.9-2 .8-4 1.4-6.2 1.4-3.3.1-6.3-.8-9.1-2.4-1.5-.8-2.7-1.9-3.8-3.2-3.2-3.6-4.7-7.6-4.4-12.5.1-2.1.6-4.1 1.6-6 .1-.2.2-.4.3-.7.3-.5.6-.9.8-1.4 0 0 .1-.1.1-.1.7-1 1.4-1.9 2.2-2.7 1.2-1.2 2.5-2.3 3.9-3.2 2-1.3 4.2-2.3 6.5-2.9h.2c-.2-.8-.4-1.6-.7-2.3 1-.4 1.9-.8 2.9-1.1.8-.5 1.4-.7 2.1-1-.1 0-.1 0 0 0zm-14.8 15.6c.7-.7 1.3-1.4 1.9-2 .1-.1.1-.2 0-.3-.2-.4-.4-.8-.6-1.1 0 0 0-.1-.1-.1-.8.8-1.7 1.6-2.6 2.5.5.3.9.7 1.4 1zm23.1 14.2c.5.2 1 .4 1.6.7.3-1.1.7-2.3 1-3.4-.5 0-1 0-1.5 0-.1 0-.2 0-.2.1-.1.5-.3 1-.5 1.5-.1.3-.2.7-.4 1.1zm-21.1 4.7c1 .5 2 .9 3 1.4 0-.4.1-.8.1-1.2 0-.1 0-.1-.1-.2-.7-.3-1.3-.7-1.9-1-.1-.1-.2-.1-.4-.2-.2.4-.4.8-.7 1.2zm6.5 1.7c-.1.4-.2.8-.3 1.3 1 .2 1.9.4 2.9.6 0-.6-.1-1.1-.2-1.7-.8-.1-1.6-.1-2.4-.2zm-7.7-5.1c-.4-.7-.7-1.4-1.1-2.1-.6.1-1.1.3-1.6.5.6.8 1.1 1.6 1.6 2.4.4-.3.8-.5 1.1-.8zm2.8-21.6c.4.3.8.6 1.1.8.1.1.1 0 .2 0 .5-.3 1-.5 1.5-.8.1-.1.2-.1.4-.2-.2-.4-.4-.8-.6-1.2-.9.6-1.7 1-2.6 1.4zm23.3 14.3c0-1 0-2 0-3-.5 0-.9 0-1.4.1v2.2s0 .1.1.1c.1.1.3.1.4.2.3.1.6.3.9.4zm-29.2-2.6c.2-.8.4-1.5.5-2.3-.4-.2-.8-.3-1.2-.5-.2.9-.4 1.7-.6 2.6.5.1.8.2 1.3.2zm23.3 11.7c-.6.5-1.1.9-1.6 1.4v.1c.2.3.4.6.6.9.7-.6 1.4-1.1 2.1-1.7-.4-.2-.8-.4-1.1-.7zm-22.8-6.2c-.2-.6-.5-1.2-.7-1.8 0 0 0-.1-.1-.1-.3 0-.6 0-1 0 .2.8.5 1.5.7 2.3.4-.2.7-.3 1.1-.4zm16 9.7c0 .4.1.7.1 1.1.8-.1 1.6-.3 2.4-.4-.1-.3-.3-.6-.5-.8h-.1c-.7-.1-1.3 0-1.9.1z"/><path d="m479.9 214.1c.5-1.5 1.2-3 1.6-4.6.4-1.5.7-3.1.3-4.8-.5-1.9-2.4-3.1-4.7-2.8-1.8.2-2.6 1.3-2.6 3.6 0 2.9.9 5.6 1.9 8.3.1.4.3.5.8.4 2-.2 2.8.2 3.7 2.2.1.3.2.4.6.4 2.8.1 5.6.1 8.3-.9 2.7-1.1 3.6-3.5 2.3-6.1-.6-1.2-1.6-1.8-3-1.5-1.8.3-3.2 1.3-4.6 2.3-1.7 1-3.1 2.3-4.6 3.5z"/><path d="m489 226.5c1.8 0 3.7-1.5 4.1-3.5.3-1.4-.5-2.6-2.3-3.5-.5-.3-1.1-.5-1.6-.7-2-.7-4-1-6.1-1.2-1.9-.2-1.8-.2-2.7 1.4-.2.3-.2.5 0 .8 1.7 2.2 3.5 4.3 5.9 5.8.7.5 1.6.9 2.7.9z"/><path d="m473.5 217.8c-.9-.1-1.8.1-2.6.2-2 .3-4 .7-5.6 1.9-2.1 1.5-2.1 5 0 6.6.6.4 1.2.6 1.9.5s1.4-.4 2-.7c2.3-1.3 4.1-3.1 5.9-5 .4-.4.8-.8 1-1.2.3-.7-.7-.7-.8-1.2-.3-1.1-1-1.4-1.8-1.1z"/><path d="m467.7 207.7c-1.6 0-3.6 1.6-4 3.3-.4 1.4.3 2.6 2 3.6.3.2.7.4 1 .6 2.2.9 4.5 1.4 6.8 1.8.8.1 1.3.1 1.4-.8 0-.5.4-.8.8-1.1.3-.3.4-.5.1-.8-1.5-1.9-3-3.8-5-5.2-.9-.8-1.9-1.3-3.1-1.4z"/><path d="m474.6 227.7v1.3c.2 2.3 2.1 3.7 4.7 3.5 2-.1 2.9-1.3 2.8-3.8-.1-3-1.2-5.8-2.3-8.5-.1-.4-.3-.4-.7-.3-.7.3-1.4.3-2 .1-.4-.1-.5 0-.6.3-1 2.4-1.9 4.8-1.9 7.4z"/><path d="m479.9 214.1c1.5-1.3 2.9-2.5 4.4-3.6 1.5-1 2.9-2 4.6-2.3 1.4-.2 2.4.3 3 1.5 1.3 2.7.4 5.1-2.3 6.1s-5.5 1.1-8.3.9c-.3 0-.4-.1-.6-.4-.9-1.9-1.6-2.4-3.7-2.2-.4 0-.6 0-.8-.4-1-2.7-1.9-5.4-1.9-8.3 0-2.3.8-3.3 2.6-3.6 2.3-.3 4.2.9 4.7 2.8.4 1.6.1 3.2-.3 4.8-.2 1.6-.9 3.1-1.4 4.7z"/><path d="m489 226.5c-1 0-1.9-.4-2.8-.9-2.4-1.5-4.2-3.6-5.9-5.8-.2-.3-.2-.5 0-.8.9-1.6.9-1.6 2.7-1.4 2.1.2 4.1.6 6.1 1.2.6.2 1.1.4 1.6.7 1.8.8 2.6 2.2 2.3 3.5-.4 1.9-2.2 3.5-4 3.5z"/><path d="m473.5 217.8c.9-.3 1.5 0 1.8 1 .1.5 1.1.6.8 1.2-.2.5-.7.8-1 1.2-1.8 1.9-3.6 3.7-5.9 5-.7.4-1.3.6-2 .7s-1.4 0-1.9-.5c-2.1-1.6-2-5.1 0-6.6 1.7-1.2 3.7-1.6 5.6-1.9.8-.1 1.7-.2 2.6-.1z"/><path d="m467.7 207.7c1.2 0 2.3.6 3.2 1.2 2 1.4 3.5 3.2 5 5.2.2.3.2.6-.1.8-.4.3-.7.7-.8 1.1-.1 1-.7 1-1.4.8-2.3-.4-4.6-.8-6.8-1.8-.4-.1-.7-.3-1-.6-1.7-1-2.3-2.2-2-3.6.4-1.5 2.3-3.1 3.9-3.1z"/><path d="m474.6 227.7c0-2.6.9-5 1.9-7.3.1-.3.2-.4.6-.3.7.2 1.4.2 2-.1.4-.2.5-.1.7.3 1.1 2.8 2.3 5.5 2.3 8.5.1 2.5-.8 3.6-2.8 3.8-2.6.2-4.4-1.2-4.7-3.5-.1-.6 0-1 0-1.4z"/><path d="m872.6 123-3.3 4.8 2.2 5.4-5.6-1.6-4.5 3.7-.2-5.9-4.9-3.1 5.5-2 1.5-5.7 3.6 4.6z"/><path d="m883.8 267-4.4 3.8.7 5.8-5-3-5.3 2.4 1.3-5.7-3.9-4.3 5.8-.5 2.9-5.1 2.3 5.4z"/><path d="m810.4 316.8-4.6 4.1.7 6.1-5.3-3.1-5.6 2.6 1.4-6.1-4.2-4.5 6.2-.6 3-5.4 2.4 5.7z"/><path d="m815.4 68.2c-.5-.3-1-.6-1.5-.8-1.5-.8-2.9-1.5-4.4-2.3-1.2-.6-2.3-1.2-3.5-1.9-.9-.5-1.7-1.1-2.4-1.9-.6-.7-1-1.4-1.3-2.2-.3-.7-.5-1.4-.7-2.2-.5-2.3.4-4.5 2.3-5.6 2-1.3 4.1-1.3 6.1-.1.5.3.9.6 1.3 1 0 0 0 0 .1.1v-.1c.4-1.1 1-2.1 1.9-2.9.8-.7 1.7-1.1 2.7-1.3 1.3-.2 2.5 0 3.6.6 1 .6 1.8 1.5 2.3 2.5.3.6.4 1.3.5 1.9.1.7.2 1.4.1 2.1 0 1.1-.3 2.1-.8 3.1s-1.1 2-1.7 2.9c-.9 1.4-1.9 2.7-2.9 4.1-.7.9-1.3 1.9-1.9 2.9.3 0 .2 0 .2.1z"/><path d="m599.8 338.1-3.3 4.9 2.1 5.4-5.6-1.6-4.5 3.7-.2-5.9-4.9-3.2 5.5-2 1.5-5.7 3.6 4.6z"/><path d="m877.7 431.8c-.5-.3-1-.6-1.5-.8-1.5-.8-2.9-1.5-4.4-2.3-1.2-.6-2.3-1.2-3.5-1.9-.9-.6-1.7-1.1-2.4-1.9-.6-.7-1-1.4-1.3-2.2-.3-.7-.5-1.4-.7-2.1-.5-2.3.4-4.5 2.3-5.6 2-1.3 4.1-1.3 6.1-.1.5.3.9.6 1.3 1l.1.1v-.1c.4-1.1 1-2.2 1.9-3 .8-.7 1.7-1.1 2.7-1.3 1.3-.2 2.5 0 3.6.6 1 .6 1.8 1.5 2.3 2.5.3.6.4 1.3.5 1.9.1.7.2 1.4.2 2.1 0 1.1-.3 2.1-.8 3.1s-1.1 2-1.7 2.9c-.9 1.4-1.9 2.7-2.9 4.1-.7.9-1.3 1.9-1.9 2.9.1 0 .1.1.1.1z"/><path d="m655.8 179.8-4.4 3.9.7 5.8-5-3-5.3 2.4 1.3-5.7-3.9-4.3 5.8-.6 2.9-5.1 2.3 5.4z"/><path d="m823.6 198.2c.4.1.8.2 1.3.3 1.9.5 3.7.9 5.6 1.4h.1c-.1.3-.3.7-.4 1-.6 1.5-1 3.2-1.3 4.9-.4 2.6-.3 5.1.3 7.6.3 1.1.6 2.2 1.1 3.2.4.8.8 1.6 1.2 2.4s1.1 1.5 1.7 2.1c1.2 1.1 2.4 2 3.9 2.6 2.1.8 4.2.8 6.3.2 1.7-.5 3.3-1.3 4.7-2.3s2.7-2.3 3.7-3.8c1.3-2.1 1.7-4.4 1.3-6.8-.3-1.6-.9-3-1.7-4.5-1.4-2.3-3.1-4.3-5.2-6.1-2.5-2.1-5.3-3.5-8.4-4.3h-.1c.2-.4.3-.8.5-1.3.7-1.7 1.4-3.5 2.1-5.3 0-.1 0-.1 0-.2 1.6.7 3.1 1.5 4.7 2.2-.3.9-.7 1.7-1 2.6.8.4 1.7.8 2.5 1.3 1.8 1 3.5 2.2 5 3.6 1.3 1.2 2.5 2.4 3.5 3.9.7 1 1.3 2.1 1.8 3.3.4 1 .7 2 .9 3 .3 1.8.3 3.6 0 5.4-.3 2.2-.9 4.1-2 6.1-1.6 2.9-3.9 5-6.8 6.5-1.5.8-3 1.3-4.7 1.6-4.7.9-9 .1-12.9-2.7-1.7-1.2-3.2-2.6-4.3-4.5-.1-.2-.3-.4-.4-.6-.3-.5-.5-1-.8-1.5 0 0 0-.1 0-.2-.5-1.1-.9-2.2-1.2-3.3-.4-1.6-.7-3.3-.7-5-.1-2.4.3-4.8.9-7.1 0 0 0-.1 0-.2-.8-.2-1.6-.4-2.3-.7.2-1 .3-2 .5-3 .3-.4.4-1.1.6-1.8zm5.7 20.7c-.2-.9-.5-1.8-.8-2.7 0-.1-.1-.2-.2-.2-.4 0-.8 0-1.3-.1h-.1c.3 1.2.5 2.3.8 3.5.5-.1 1.1-.3 1.6-.5zm24.1-12.5c.5-.3.9-.7 1.4-1-.8-.9-1.6-1.7-2.4-2.6-.3.4-.5.8-.8 1.3-.1.1 0 .2 0 .3.3.4.7.8 1 1.2.2.1.5.5.8.8zm-6.9 20.5c.9-.6 1.8-1.2 2.7-1.9-.3-.3-.7-.5-.9-.8-.1-.1-.1-.1-.2 0-.6.4-1.2.8-1.8 1.1-.1.1-.2.1-.4.2.2.6.4.9.6 1.4zm4.8-4.6c.3.3.6.6.9.9.7-.7 1.4-1.5 2-2.2-.5-.2-1-.5-1.5-.7-.5.6-1 1.3-1.4 2zm-8.4 3.8c-.8 0-1.6-.1-2.4-.2-.1.6-.3 1.1-.5 1.6 1 0 1.9-.1 2.9-.1.1-.4.1-.8 0-1.3zm-17-13.4c.5-.2.9-.3 1.3-.5.1 0 .1-.1.1-.2 0-.6.1-1.1.1-1.7 0-.1 0-.3 0-.4-.5 0-.9-.1-1.3-.1 0 .9-.1 1.9-.2 2.9zm24.3-12.6c-.9-.5-1.7-1-2.6-1.5-.2.4-.4.8-.6 1.2.7.4 1.3.8 1.9 1.1h.2c.1-.1.3-.2.4-.3.2-.2.4-.3.7-.5zm-17.4 23.7c-.6-.6-1.1-1.1-1.6-1.6-.4.2-.7.5-1.1.8.7.6 1.3 1.2 2 1.8.3-.4.5-.7.7-1zm22.1-14c.1.8.2 1.5.4 2.2 0 0 .1.1.1.1h1.1c-.1-.9-.2-1.8-.4-2.7-.4.1-.7.3-1.2.4zm-17.1 16.3c-.7-.1-1.3-.2-1.9-.4h-.1c-.2.3-.3.5-.5.8.8.2 1.5.4 2.3.6 0-.3.1-.6.2-1zm16.6-8.6c.3.1.7.3 1 .4.3-.8.6-1.5.9-2.3-.3 0-.7 0-.9 0 0 0-.1 0-.1.1-.4.6-.7 1.2-.9 1.8z"/><path d="m869 348.5c.5-1.5 1.2-3 1.6-4.6.4-1.5.7-3.1.3-4.8-.5-1.9-2.4-3.1-4.7-2.8-1.8.2-2.6 1.3-2.6 3.6 0 2.9.9 5.6 1.9 8.3.1.4.3.5.8.4 2-.2 2.8.2 3.7 2.2.1.3.2.4.6.4 2.8.1 5.6.1 8.3-.9 2.8-1.1 3.6-3.5 2.3-6.1-.6-1.3-1.6-1.8-3-1.5-1.8.3-3.2 1.3-4.6 2.3-1.7 1-3.1 2.3-4.6 3.5z"/><path d="m878.1 360.9c1.8 0 3.7-1.5 4.1-3.5.3-1.4-.5-2.6-2.3-3.5-.5-.3-1.1-.5-1.6-.7-2-.7-4-1-6.1-1.2-1.9-.2-1.8-.2-2.7 1.4-.2.3-.2.5 0 .8 1.7 2.2 3.5 4.3 5.9 5.8.7.5 1.6.9 2.7.9z"/><path d="m862.6 352.2c-.9-.1-1.8.1-2.6.2-2 .3-4 .7-5.6 1.9-2.1 1.5-2.1 5 0 6.6.6.4 1.2.6 1.9.5s1.4-.4 2-.7c2.3-1.3 4.1-3.1 5.9-5 .4-.4.8-.8 1-1.2.3-.7-.7-.7-.8-1.2-.3-1.1-.9-1.4-1.8-1.1z"/><path d="m856.8 342.1c-1.6 0-3.6 1.6-4 3.3-.4 1.4.3 2.5 2 3.6.3.2.7.4 1 .5 2.2.9 4.5 1.4 6.8 1.8.8.1 1.3.1 1.4-.9 0-.4.4-.8.8-1.1.3-.3.4-.5.1-.8-1.5-1.9-3-3.8-5-5.2-.9-.7-1.9-1.1-3.1-1.2z"/><path d="m863.7 362.1v1.3c.2 2.3 2.1 3.7 4.7 3.5 2-.1 2.9-1.3 2.8-3.8-.1-3-1.2-5.8-2.3-8.5-.1-.4-.3-.4-.7-.3-.7.3-1.4.3-2 .1-.4-.1-.5 0-.6.3-1 2.4-1.9 4.8-1.9 7.4z"/><path d="m869 348.5c1.5-1.3 2.9-2.5 4.4-3.6 1.5-1 2.9-2 4.6-2.3 1.4-.2 2.4.3 3 1.5 1.3 2.7.4 5.1-2.3 6.1s-5.5 1.1-8.3.9c-.3 0-.4-.1-.6-.4-.9-1.9-1.6-2.4-3.7-2.2-.4 0-.6 0-.8-.4-.9-2.7-1.9-5.4-1.9-8.3 0-2.3.8-3.3 2.6-3.6 2.3-.3 4.2.9 4.7 2.8.4 1.6.1 3.2-.3 4.8-.2 1.7-.9 3.2-1.4 4.7z"/><path d="m878.1 360.9c-1 0-1.9-.4-2.8-.9-2.4-1.5-4.2-3.6-5.9-5.8-.2-.3-.2-.5 0-.8.9-1.6.9-1.6 2.7-1.4 2.1.2 4.1.6 6.1 1.2.6.2 1.1.4 1.6.7 1.8.8 2.6 2.2 2.3 3.5-.4 1.9-2.2 3.5-4 3.5z"/><path d="m862.6 352.2c.9-.3 1.5 0 1.8 1 .1.5 1.1.6.8 1.2-.2.5-.7.8-1 1.2-1.8 1.9-3.6 3.7-5.9 5-.7.4-1.3.6-2 .7s-1.4 0-1.9-.5c-2.1-1.6-2-5.1 0-6.6 1.7-1.2 3.7-1.6 5.6-1.9.8 0 1.7-.2 2.6-.1z"/><path d="m856.8 342.1c1.2 0 2.3.5 3.2 1.2 2 1.4 3.5 3.2 5 5.2.2.3.2.6-.1.8-.4.3-.7.7-.8 1.1-.1 1-.7 1-1.4.9-2.3-.4-4.6-.8-6.8-1.8-.4-.1-.7-.3-1-.5-1.7-1-2.3-2.2-2-3.6.3-1.7 2.3-3.3 3.9-3.3z"/><path d="m863.7 362.1c0-2.6.9-5 1.9-7.3.1-.3.2-.4.6-.3.7.2 1.4.2 2-.1.4-.2.5-.1.7.3 1.1 2.8 2.3 5.5 2.3 8.5.1 2.4-.8 3.6-2.8 3.8-2.6.2-4.4-1.2-4.7-3.5-.1-.5 0-1 0-1.4z"/><path d="m777.6 418.3c.1.4.2.8.4 1.3.6 1.8 1.2 3.7 1.7 5.4v.1c-.4 0-.7.1-1.1.1-1.7.3-3.3.8-4.8 1.4-2.4 1-4.5 2.4-6.4 4.2-.8.8-1.6 1.7-2.3 2.6-.5.8-1 1.5-1.5 2.3-.4.8-.7 1.7-.9 2.6-.4 1.5-.4 3.1-.1 4.7.4 2.2 1.5 4 3.1 5.6 1.3 1.2 2.8 2.2 4.4 2.9s3.4 1.1 5.2 1.2c2.5 0 4.6-.8 6.5-2.4 1.2-1.1 2.2-2.3 2.9-3.8 1.3-2.4 2.1-4.9 2.5-7.5.5-3.2.3-6.3-.7-9.4v-.1c.5-.1.9-.1 1.4-.2 1.9-.3 3.7-.6 5.6-.9h.2c.2 1.7.4 3.5.6 5.2-.9.1-1.8.3-2.7.5 0 .9.1 1.9.2 2.8 0 2.1-.1 4.1-.5 6.1-.3 1.7-.8 3.4-1.5 5-.5 1.1-1.1 2.2-1.9 3.2-.6.8-1.3 1.6-2.1 2.3-1.4 1.2-3 2.1-4.6 2.9-2 .8-4 1.4-6.2 1.4-3.3.1-6.3-.8-9.1-2.4-1.5-.8-2.7-1.9-3.8-3.2-3.2-3.5-4.7-7.6-4.4-12.4.1-2.1.6-4.1 1.6-6 .1-.2.2-.4.3-.7.3-.5.6-.9.8-1.4 0 0 .1-.1.1-.1.7-1 1.4-1.9 2.2-2.7 1.2-1.2 2.5-2.3 3.9-3.2 2-1.3 4.2-2.3 6.5-2.9h.2c-.2-.8-.4-1.6-.7-2.3 1-.4 1.9-.8 2.9-1.1.8-.5 1.4-.8 2.1-1.1zm-14.7 15.6c.7-.7 1.3-1.4 1.9-2 .1-.1.1-.2 0-.3-.2-.4-.4-.8-.6-1.1 0 0 0-.1-.1-.1-.8.8-1.7 1.6-2.6 2.5.5.3.9.7 1.4 1zm23.1 14.2c.5.2 1 .4 1.6.7.3-1.1.7-2.3 1-3.4-.5 0-1 0-1.5 0-.1 0-.2 0-.2.1-.1.5-.3 1-.5 1.5-.1.3-.3.7-.4 1.1zm-21.1 4.7c1 .5 2 .9 3 1.4 0-.4.1-.8.1-1.2 0-.1 0-.1-.1-.2-.7-.3-1.3-.7-1.9-1-.1 0-.2-.1-.4-.2-.2.4-.4.8-.7 1.2zm6.5 1.7c-.1.4-.2.8-.3 1.3 1 .2 1.9.4 2.9.6 0-.6-.1-1.1-.2-1.7-.9-.1-1.6-.2-2.4-.2zm-7.7-5.1c-.4-.7-.7-1.4-1.1-2.1-.6.1-1.1.3-1.6.4.6.8 1.1 1.6 1.6 2.4.4-.2.7-.5 1.1-.7zm2.7-21.5c.4.3.8.6 1.1.8.1.1.1 0 .2 0 .5-.3 1-.5 1.5-.8.1 0 .2-.1.4-.2-.2-.4-.4-.8-.6-1.2-.7.5-1.6.9-2.6 1.4zm23.4 14.2c0-1 0-2 0-3-.5 0-.9 0-1.3.1v2.2s0 .1.1.1c.1.1.3.1.4.2.2.1.5.2.8.4zm-29.3-2.6c.2-.8.4-1.5.5-2.3-.4-.2-.8-.4-1.2-.5-.2.9-.4 1.7-.6 2.6.5.1.9.1 1.3.2zm23.4 11.7c-.6.5-1.1.9-1.6 1.5v.1c.2.3.4.6.6.9.7-.6 1.4-1.1 2.1-1.7-.5-.3-.8-.5-1.1-.8zm-22.8-6.3c-.2-.6-.5-1.2-.7-1.8 0 0 0-.1-.1-.1-.3 0-.6 0-.9 0 .2.8.5 1.5.7 2.3.3-.1.6-.2 1-.4zm15.9 9.8c0 .4.1.7.1 1.1.8-.1 1.6-.3 2.4-.4-.1-.3-.3-.6-.5-.8h-.1c-.6-.1-1.2 0-1.9.1z"/><path d="m589.5 422.1c.5-1.5 1.2-3 1.6-4.6.4-1.5.7-3.1.3-4.8-.5-1.9-2.4-3.1-4.7-2.8-1.8.2-2.6 1.3-2.6 3.6 0 2.9.9 5.6 1.9 8.3.1.4.3.5.8.4 2-.2 2.8.2 3.7 2.2.1.3.2.4.6.4 2.8.1 5.6.1 8.3-.9 2.7-1.1 3.6-3.5 2.3-6.1-.6-1.2-1.6-1.8-3-1.5-1.8.3-3.2 1.3-4.6 2.3-1.8 1-3.2 2.2-4.6 3.5z"/><path d="m598.5 434.4c1.8 0 3.7-1.5 4.1-3.5.3-1.4-.5-2.6-2.3-3.5-.5-.3-1.1-.5-1.6-.7-2-.7-4-1-6.1-1.2-1.9-.2-1.8-.2-2.7 1.4-.2.3-.2.5 0 .8 1.7 2.2 3.5 4.3 5.9 5.8.8.6 1.7 1 2.7.9z"/><path d="m583.1 425.8c-.9-.1-1.8.1-2.6.2-2 .3-4 .7-5.6 1.9-2.1 1.5-2.1 5-.1 6.6.6.4 1.2.6 1.9.5s1.4-.4 2-.7c2.3-1.3 4.1-3.1 5.9-5 .4-.4.8-.8 1-1.2.3-.7-.7-.7-.8-1.2-.2-1.1-.9-1.4-1.7-1.1z"/><path d="m577.3 415.7c-1.6 0-3.6 1.6-4 3.3-.4 1.4.3 2.6 2 3.6.3.2.7.4 1.1.6 2.2.9 4.5 1.4 6.8 1.8.8.1 1.3.1 1.4-.8 0-.5.4-.8.8-1.1.3-.3.4-.5.1-.8-1.5-1.9-3-3.8-5-5.2-1-.9-2-1.3-3.2-1.4z"/><path d="m584.1 435.6v1.3c.2 2.3 2.1 3.7 4.7 3.5 2-.1 2.9-1.3 2.8-3.8-.1-3-1.2-5.8-2.3-8.5-.1-.4-.3-.4-.7-.3-.7.3-1.4.3-2 .1-.4-.1-.5 0-.6.3-1 2.5-1.9 4.9-1.9 7.4z"/><path d="m589.5 422.1c1.5-1.3 2.9-2.5 4.4-3.6 1.4-1 2.9-2 4.6-2.3 1.4-.2 2.4.3 3 1.5 1.3 2.7.4 5.1-2.3 6.1s-5.5 1.1-8.3.9c-.3 0-.4-.1-.6-.4-.9-1.9-1.6-2.4-3.7-2.2-.4 0-.6 0-.8-.4-.9-2.7-1.9-5.4-1.9-8.3 0-2.3.8-3.3 2.6-3.6 2.3-.3 4.2.9 4.7 2.8.4 1.6.1 3.2-.3 4.8-.2 1.6-.9 3.1-1.4 4.7z"/><path d="m598.5 434.4c-1 0-1.9-.4-2.8-.9-2.4-1.5-4.2-3.6-5.9-5.8-.2-.3-.2-.5 0-.8.9-1.6.9-1.6 2.7-1.4 2.1.2 4.1.6 6.1 1.2.6.2 1.1.4 1.6.7 1.8.8 2.6 2.2 2.3 3.5-.4 2-2.1 3.5-4 3.5z"/><path d="m583.1 425.8c.9-.3 1.5 0 1.8 1 .1.5 1.1.6.8 1.2-.2.5-.7.8-1 1.2-1.8 1.9-3.6 3.7-5.9 5-.7.4-1.3.6-2 .7s-1.4 0-1.9-.5c-2.1-1.6-2-5.1.1-6.6 1.7-1.2 3.7-1.6 5.6-1.9.7-.1 1.5-.2 2.5-.1z"/><path d="m577.3 415.7c1.2 0 2.3.6 3.2 1.2 2 1.4 3.5 3.2 5 5.2.2.3.2.6-.1.8-.4.3-.7.7-.8 1.1-.1 1-.7 1-1.4.8-2.3-.4-4.6-.8-6.8-1.8-.4-.1-.7-.3-1.1-.6-1.7-1-2.3-2.2-2-3.6.4-1.5 2.3-3.1 4-3.1z"/><path d="m584.1 435.6c0-2.6.9-5 1.9-7.3.1-.3.2-.4.6-.3.7.2 1.4.2 2-.1.4-.2.5-.1.7.3 1.1 2.8 2.3 5.5 2.3 8.5.1 2.4-.8 3.6-2.8 3.8-2.6.2-4.4-1.2-4.7-3.5 0-.5 0-.9 0-1.4z"/><path d="m692.6 99.1c.1.4.2.8.4 1.3.6 1.8 1.2 3.7 1.7 5.4v.1c-.4 0-.7.1-1.1.1-1.7.3-3.3.8-4.8 1.4-2.4 1-4.5 2.4-6.4 4.2-.8.8-1.6 1.7-2.3 2.6-.5.8-1 1.5-1.5 2.3s-.7 1.7-.9 2.6c-.4 1.5-.4 3.1-.1 4.7.4 2.2 1.5 4 3 5.6 1.3 1.2 2.8 2.2 4.4 2.9s3.4 1.1 5.2 1.2c2.5 0 4.6-.8 6.5-2.4 1.2-1.1 2.2-2.3 2.9-3.8 1.3-2.4 2.1-4.9 2.5-7.5.5-3.2.3-6.3-.7-9.4v-.1c.5-.1.9-.1 1.4-.2 1.9-.3 3.7-.6 5.6-.9h.2c.2 1.7.4 3.5.6 5.2-.9.1-1.8.3-2.7.5 0 .9.1 1.9.2 2.8 0 2.1-.1 4.1-.5 6.1-.3 1.7-.8 3.4-1.5 5-.5 1.1-1.1 2.3-1.9 3.2-.6.8-1.3 1.6-2.1 2.3-1.4 1.2-3 2.1-4.6 2.9-2 .8-4 1.4-6.2 1.4-3.3.1-6.3-.8-9.1-2.4-1.5-.8-2.7-1.9-3.8-3.2-3.2-3.6-4.7-7.6-4.4-12.5.1-2.1.6-4.1 1.6-6 .1-.2.2-.4.3-.7.3-.5.6-.9.8-1.4 0 0 .1-.1.1-.1.7-1 1.4-1.9 2.2-2.7 1.2-1.2 2.5-2.3 3.9-3.2 2-1.3 4.2-2.3 6.5-2.9h.2c-.2-.8-.5-1.6-.7-2.4 1-.4 1.9-.8 2.9-1.1.9-.4 1.5-.7 2.2-.9 0-.1 0-.1 0 0zm-14.8 15.6c.7-.7 1.3-1.4 1.9-2 .1-.1.1-.2 0-.3-.2-.4-.4-.8-.6-1.1 0 0 0-.1-.1-.1-.8.8-1.7 1.6-2.6 2.5.6.3 1 .6 1.4 1zm23.2 14.1c.5.2 1 .4 1.6.7.3-1.1.7-2.3 1-3.4-.5 0-1 0-1.5 0-.1 0-.2 0-.2.1-.1.5-.3 1-.5 1.5-.1.3-.3.8-.4 1.1zm-21.1 4.8c1 .5 2 .9 3 1.4 0-.4.1-.8.1-1.2 0-.1 0-.1-.1-.2-.7-.3-1.3-.7-1.9-1-.1-.1-.2-.1-.4-.2-.2.3-.4.7-.7 1.2zm6.5 1.7c-.1.4-.2.8-.3 1.3 1 .2 1.9.4 2.9.6 0-.6-.1-1.1-.2-1.7-.8-.1-1.6-.2-2.4-.2zm-7.7-5.2c-.4-.7-.7-1.4-1.1-2.1-.6.1-1.1.3-1.6.5.6.8 1.1 1.6 1.6 2.4.4-.3.8-.5 1.1-.8zm2.7-21.5c.4.3.8.6 1.1.8.1.1.1 0 .2 0 .5-.3 1-.5 1.5-.8.1-.1.2-.1.4-.2-.2-.4-.4-.8-.6-1.2-.8.5-1.6.9-2.6 1.4zm23.4 14.3c0-1 0-2 0-3-.5 0-.9 0-1.3.1v2.2s0 .1.1.1c.1.1.3.1.4.2.2.1.5.2.8.4zm-29.3-2.7c.2-.8.4-1.5.5-2.3-.4-.2-.8-.3-1.2-.5-.2.9-.4 1.7-.6 2.6.5.2.9.2 1.3.2zm23.3 11.8c-.6.5-1.1.9-1.6 1.4v.1c.2.3.4.6.6.9.7-.6 1.4-1.1 2.1-1.7-.3-.2-.7-.5-1.1-.7zm-22.7-6.3c-.2-.6-.5-1.2-.7-1.8 0 0 0-.1-.1-.1-.3 0-.6 0-1 0 .2.8.5 1.5.7 2.3.4-.2.7-.3 1.1-.4zm15.9 9.7c0 .4.1.7.1 1.1.8-.1 1.6-.3 2.4-.4-.1-.3-.3-.6-.5-.8h-.1c-.6 0-1.2.1-1.9.1z"/><path d="m728.1 222.7c-.5-.3-1-.6-1.5-.8-1.5-.8-2.9-1.5-4.3-2.3-1.2-.6-2.4-1.2-3.5-1.9-.9-.5-1.7-1.1-2.4-1.9-.6-.7-1-1.4-1.3-2.1s-.5-1.4-.7-2.2c-.5-2.3.4-4.5 2.3-5.6 2-1.3 4.1-1.3 6.1-.1.5.3.9.6 1.3 1 0 0 0 0 .1.1v-.1c.4-1.1 1-2.1 1.9-2.9.8-.7 1.7-1.1 2.7-1.3 1.3-.2 2.5 0 3.6.6 1 .6 1.8 1.5 2.3 2.5.3.6.4 1.3.5 1.9.1.7.2 1.4.2 2.1 0 1.1-.3 2.1-.8 3.1s-1.1 2-1.7 2.9c-.9 1.4-1.9 2.7-2.9 4.1-.7.9-1.3 1.9-1.9 2.9.1-.1 0 0 0 0z"/><path d="m157.6 578.5-3.3 4.9 2.2 5.4-5.6-1.6-4.5 3.7-.2-5.9-4.9-3.2 5.5-2 1.5-5.7 3.6 4.6z"/><path d="m294.7 505.7-4.4 3.9.7 5.8-5-3-5.3 2.4 1.3-5.7-3.9-4.3 5.8-.6 2.9-5.1 2.3 5.4z"/><path d="m95.4 772.3-4.6 4.1.7 6.1-5.3-3.1-5.6 2.6 1.4-6.1-4.2-4.5 6.2-.6 3-5.4 2.4 5.7z"/><path d="m100.4 523.7c-.5-.3-1-.6-1.5-.8-1.5-.8-2.9-1.5-4.4-2.3-1.2-.6-2.3-1.2-3.5-1.9-.9-.6-1.7-1.1-2.4-1.9-.6-.7-1-1.4-1.3-2.1s-.5-1.4-.7-2.2c-.5-2.3.4-4.5 2.3-5.6 2-1.3 4.1-1.3 6.1-.1.5.3.9.6 1.3 1 0 0 0 0 .1.1v-.1c.4-1.1 1-2.1 1.9-2.9.8-.7 1.7-1.1 2.7-1.3 1.3-.2 2.5 0 3.6.6 1 .6 1.8 1.5 2.3 2.5.3.6.4 1.3.5 1.9.1.7.2 1.4.2 2.1 0 1.1-.3 2.1-.8 3.1s-1.1 2-1.7 2.9c-.9 1.4-1.9 2.7-2.9 4.1-.5.9-1.1 1.8-1.8 2.9.1-.1 0-.1 0 0z"/><path d="m124.1 942.2-3.3 4.9 2.1 5.4-5.6-1.6-4.5 3.7-.2-5.9-4.9-3.2 5.5-2 1.5-5.7 3.6 4.6z"/><path d="m287.5 845.6c-.5-.3-1-.6-1.5-.8-1.5-.8-2.9-1.5-4.4-2.3-1.2-.6-2.4-1.2-3.5-1.9-.9-.5-1.7-1.1-2.4-1.9-.6-.7-1-1.4-1.3-2.1s-.5-1.4-.7-2.2c-.5-2.3.4-4.5 2.3-5.6 2-1.3 4.1-1.3 6.1-.1.5.3.9.6 1.3 1 0 0 0 0 .1.1v-.1c.4-1.1 1-2.1 1.9-2.9.8-.7 1.7-1.1 2.7-1.3 1.3-.2 2.5 0 3.6.6 1 .6 1.8 1.5 2.3 2.5.3.6.4 1.3.5 1.9.1.7.2 1.4.2 2.1 0 1.1-.3 2.1-.8 3.1s-1.1 2-1.7 2.9c-.9 1.4-1.9 2.7-2.9 4.1-.5.9-1.1 1.8-1.8 2.9.1-.1.1 0 0 0z"/><path d="m282.1 944.6-4.4 3.8.7 5.8-5-3-5.3 2.4 1.3-5.7-3.9-4.3 5.8-.5 2.9-5.1 2.3 5.4z"/><path d="m140.8 676.8c.4.1.8.2 1.3.3 1.8.4 3.7.9 5.6 1.4h.1c-.1.3-.3.7-.4 1-.6 1.5-1 3.2-1.3 4.9-.4 2.6-.3 5.1.3 7.6.3 1.1.6 2.2 1.1 3.3.4.8.8 1.6 1.2 2.4.5.8 1.1 1.5 1.7 2.1 1.2 1.1 2.4 2 3.9 2.6 2.1.8 4.2.8 6.4.2 1.7-.5 3.3-1.3 4.7-2.3 1.5-1 2.7-2.3 3.7-3.8 1.3-2.1 1.7-4.4 1.3-6.8-.3-1.6-.9-3-1.7-4.5-1.4-2.3-3.1-4.3-5.2-6-2.5-2.1-5.3-3.5-8.4-4.3 0 0-.1 0-.2 0 .2-.4.3-.8.5-1.3.7-1.7 1.4-3.5 2.1-5.3 0-.1 0-.1 0-.2 1.6.7 3.1 1.5 4.7 2.2-.3.9-.7 1.7-1 2.6.8.4 1.7.8 2.5 1.3 1.8 1 3.5 2.2 5 3.6 1.3 1.2 2.5 2.4 3.5 3.9.7 1 1.3 2.1 1.8 3.3.4 1 .8 2 .9 3 .3 1.8.3 3.6 0 5.4-.3 2.1-.9 4.1-2 6-1.6 2.9-3.9 5-6.8 6.5-1.5.8-3 1.3-4.7 1.6-4.7.9-9 .1-12.9-2.7-1.7-1.2-3.2-2.6-4.3-4.5-.1-.2-.3-.4-.4-.6-.3-.5-.5-1-.8-1.5 0 0 0-.1 0-.2-.5-1.1-.9-2.2-1.2-3.3-.4-1.6-.7-3.3-.7-5 0-2.4.3-4.8.9-7.1 0 0 0-.1 0-.2-.8-.2-1.6-.4-2.3-.7.2-1 .3-2 .5-3 .3-.5.4-1.2.6-1.9zm5.7 20.7c-.2-.9-.5-1.8-.8-2.7 0-.1-.1-.2-.2-.2-.4 0-.8 0-1.3-.1 0 0-.1 0-.2 0 .3 1.2.5 2.3.8 3.5.6-.1 1.2-.3 1.7-.5zm24.1-12.5c.5-.3.9-.7 1.4-1-.8-.9-1.6-1.7-2.4-2.6-.3.4-.5.8-.8 1.3v.3c.3.4.7.8 1 1.2zm-6.9 20.5c.9-.6 1.8-1.2 2.7-1.9-.3-.3-.7-.5-.9-.8-.1-.1-.1-.1-.2 0-.6.4-1.2.8-1.8 1.1-.1 0-.2.1-.4.2.2.6.4 1 .6 1.4zm4.8-4.6c.3.3.6.6.9.9.7-.7 1.3-1.5 2-2.2-.5-.2-1-.5-1.5-.7-.5.6-1 1.3-1.4 2zm-8.3 3.9c-.8 0-1.6-.1-2.3-.2-.1.5-.3 1.1-.5 1.6 1 0 1.9-.1 2.9-.1-.1-.5-.1-.9-.1-1.3zm-17.1-13.5c.5-.2.9-.3 1.3-.5.1 0 .1-.1.1-.2 0-.6.1-1.1.1-1.7 0-.1 0-.3 0-.4-.5 0-.9-.1-1.3-.1 0 .9-.1 1.9-.2 2.9zm24.3-12.6c-.9-.5-1.7-1-2.6-1.5-.2.4-.4.8-.7 1.2.7.4 1.3.8 1.9 1.1h.2c.1-.1.3-.2.4-.3.3-.1.5-.3.8-.5zm-17.4 23.7c-.6-.6-1.1-1.1-1.6-1.6-.4.3-.7.5-1.1.8.7.6 1.3 1.2 2 1.8.3-.4.5-.7.7-1zm22.1-14c.1.8.2 1.5.4 2.2 0 0 .1.1.1.1h1.1c-.1-.9-.2-1.8-.4-2.7-.4.2-.7.3-1.2.4zm-17.1 16.4c-.7-.1-1.3-.2-1.9-.4h-.1c-.2.3-.3.5-.5.8.8.2 1.5.4 2.3.6 0-.3.1-.7.2-1zm16.6-8.7c.3.1.7.3 1 .4.3-.8.6-1.5.9-2.3-.3 0-.7 0-.9 0 0 0-.1 0-.1.1-.4.6-.7 1.2-.9 1.8z"/><path d="m246.4 752.9c.5-1.5 1.2-3 1.6-4.6.4-1.5.7-3.1.3-4.8-.5-1.9-2.4-3.1-4.7-2.8-1.8.2-2.6 1.3-2.6 3.6 0 2.9.9 5.6 1.9 8.3.1.4.3.5.8.4 2-.2 2.8.2 3.7 2.2.1.3.2.4.6.4 2.8.1 5.6.1 8.3-.9 2.8-1.1 3.6-3.5 2.3-6.1-.6-1.2-1.6-1.8-3-1.5-1.8.3-3.2 1.3-4.6 2.3-1.8 1-3.2 2.3-4.6 3.5z"/><path d="m255.4 765.3c1.8 0 3.7-1.5 4.1-3.5.3-1.4-.5-2.6-2.3-3.5-.5-.3-1.1-.5-1.6-.7-2-.7-4-1-6.1-1.2-1.9-.2-1.8-.2-2.7 1.4-.2.3-.2.5 0 .8 1.7 2.2 3.5 4.3 5.9 5.8.8.5 1.7.9 2.7.9z"/><path d="m239.9 756.6c-.9-.1-1.7.1-2.6.2-2 .3-4 .7-5.6 1.9-2.1 1.5-2.1 5 0 6.6.6.4 1.2.6 1.9.5s1.4-.4 2-.7c2.3-1.3 4.1-3.1 5.9-5 .4-.4.8-.8 1-1.2.3-.7-.7-.7-.8-1.3-.2-1-.9-1.3-1.8-1z"/><path d="m234.2 746.5c-1.6 0-3.6 1.6-4 3.3-.4 1.4.3 2.5 2 3.6.3.2.7.4 1 .5 2.2.9 4.5 1.4 6.8 1.8.8.1 1.3.1 1.4-.9 0-.4.4-.8.8-1.1.3-.3.4-.5.1-.8-1.5-1.9-3-3.8-5-5.2-.9-.6-2-1.1-3.1-1.2z"/><path d="m241 766.5v1.3c.2 2.3 2.1 3.7 4.7 3.5 2-.1 2.9-1.3 2.8-3.8-.1-3-1.2-5.8-2.3-8.5-.1-.4-.3-.4-.7-.3-.7.3-1.4.3-2 .1-.4-.1-.5 0-.6.3-1 2.5-1.9 4.8-1.9 7.4z"/><path d="m246.4 752.9c1.5-1.3 2.9-2.5 4.4-3.6 1.5-1 2.9-2 4.6-2.3 1.4-.2 2.4.3 3 1.5 1.3 2.7.4 5.1-2.3 6.1s-5.5 1.1-8.3.9c-.3 0-.4-.1-.6-.4-.9-1.9-1.6-2.4-3.7-2.2-.4 0-.6 0-.8-.4-1-2.7-1.9-5.4-1.9-8.3 0-2.3.8-3.3 2.6-3.6 2.3-.3 4.2.9 4.7 2.8.4 1.6.1 3.2-.3 4.8-.2 1.7-.9 3.2-1.4 4.7z"/><path d="m255.4 765.3c-1 0-1.9-.4-2.8-.9-2.4-1.5-4.2-3.6-5.9-5.8-.2-.3-.2-.5 0-.8.9-1.6.9-1.6 2.7-1.4 2.1.2 4.1.6 6.1 1.2.6.2 1.1.4 1.6.7 1.8.8 2.6 2.2 2.3 3.5-.4 2-2.1 3.5-4 3.5z"/><path d="m239.9 756.6c.9-.3 1.5 0 1.8 1 .1.5 1.1.6.8 1.3-.2.5-.7.8-1 1.2-1.8 1.9-3.6 3.7-5.9 5-.7.4-1.3.6-2 .7s-1.4 0-1.9-.5c-2.1-1.6-2-5.1 0-6.6 1.7-1.2 3.7-1.6 5.6-1.9.9-.1 1.7-.3 2.6-.2z"/><path d="m234.2 746.5c1.2 0 2.3.6 3.2 1.2 2 1.4 3.5 3.2 5 5.2.2.3.2.6-.1.8-.4.3-.7.7-.8 1.1-.1 1-.7 1-1.4.9-2.3-.4-4.6-.8-6.8-1.8-.4-.1-.7-.3-1-.5-1.7-1-2.3-2.2-2-3.6.3-1.7 2.2-3.3 3.9-3.3z"/><path d="m241 766.5c0-2.6.9-5 1.9-7.3.1-.3.2-.4.6-.3.7.2 1.4.2 2-.1.4-.2.5-.1.7.3 1.1 2.8 2.3 5.5 2.3 8.5.1 2.5-.8 3.6-2.8 3.8-2.6.2-4.4-1.2-4.7-3.5 0-.5 0-1 0-1.4z"/><path d="m62.6 835.5c.1.4.2.8.4 1.3.6 1.8 1.1 3.7 1.7 5.4v.1c-.4 0-.7.1-1.1.1-1.7.3-3.3.8-4.8 1.4-2.4 1-4.5 2.4-6.4 4.2-.8.8-1.6 1.7-2.3 2.6-.5.8-1 1.5-1.5 2.3s-.7 1.7-.9 2.6c-.4 1.5-.4 3.1-.1 4.7.4 2.2 1.5 4 3.1 5.6 1.3 1.2 2.8 2.2 4.4 2.9s3.4 1.1 5.2 1.2c2.5 0 4.6-.8 6.5-2.4 1.2-1.1 2.2-2.3 2.9-3.8 1.3-2.4 2.1-4.9 2.5-7.5.5-3.2.3-6.3-.7-9.4v-.1c.5-.1.9-.1 1.4-.2 1.9-.3 3.7-.6 5.6-.9h.2c.2 1.7.4 3.5.6 5.2-.9.1-1.8.3-2.7.5 0 .9.1 1.9.2 2.8 0 2.1-.1 4.1-.5 6.1-.3 1.7-.8 3.4-1.5 5-.5 1.1-1.1 2.3-1.9 3.2-.6.8-1.3 1.6-2.1 2.3-1.4 1.2-3 2.1-4.6 2.9-2 .8-4 1.4-6.2 1.4-3.3.1-6.3-.8-9.1-2.4-1.5-.8-2.7-1.9-3.8-3.2-3.2-3.6-4.7-7.6-4.4-12.5.1-2.1.6-4.1 1.6-6 .1-.2.2-.4.3-.7.3-.5.6-.9.8-1.4 0 0 .1-.1.1-.1.7-1 1.4-1.9 2.2-2.7 1.2-1.2 2.5-2.3 3.9-3.2 2-1.3 4.2-2.3 6.5-2.9h.2c-.2-.8-.4-1.6-.7-2.3 1-.4 1.9-.8 2.9-1.1.8-.5 1.4-.7 2.1-1zm-14.8 15.6c.7-.7 1.3-1.4 1.9-2 .1-.1.1-.2 0-.3-.2-.4-.4-.8-.6-1.1 0 0 0-.1-.1-.1-.8.8-1.7 1.6-2.6 2.5.6.3 1 .7 1.4 1zm23.2 14.1c.5.2 1 .4 1.6.7.3-1.1.7-2.3 1-3.4-.5 0-1 0-1.5 0-.1 0-.2 0-.2.1-.1.5-.3 1-.5 1.5-.2.4-.3.8-.4 1.1zm-21.1 4.8c1 .5 2 .9 3 1.4 0-.4.1-.8.1-1.2 0-.1 0-.1-.1-.2-.7-.3-1.3-.7-1.9-1-.1-.1-.2-.1-.4-.2-.2.4-.5.8-.7 1.2zm6.4 1.7c-.1.4-.2.8-.3 1.3 1 .2 1.9.4 2.9.6 0-.6-.1-1.1-.2-1.7-.8-.1-1.6-.1-2.4-.2zm-7.6-5.1c-.4-.7-.7-1.4-1.1-2.1-.6.1-1.1.3-1.6.5.6.8 1.1 1.6 1.6 2.4.3-.3.7-.6 1.1-.8zm2.7-21.6c.4.3.8.6 1.1.8.1.1.1 0 .2 0 .5-.3 1-.5 1.5-.8.1-.1.2-.1.4-.2-.2-.4-.4-.8-.6-1.2-.8.6-1.7 1-2.6 1.4zm23.4 14.3c0-1 0-2 0-3-.5 0-.9 0-1.4.1v2.2s0 .1.1.1c.1.1.3.1.4.2.3.1.5.2.9.4zm-29.3-2.6c.2-.8.4-1.5.5-2.3-.4-.2-.8-.3-1.2-.5-.2.9-.4 1.7-.6 2.6.5.1.9.2 1.3.2zm23.4 11.7c-.6.5-1.1.9-1.6 1.4v.1l.6.9c.7-.6 1.4-1.1 2.1-1.7-.5-.2-.8-.4-1.1-.7zm-22.9-6.2c-.2-.6-.5-1.2-.7-1.8 0 0 0-.1-.1-.1-.3 0-.6 0-1 0 .2.8.5 1.5.7 2.3.5-.2.8-.4 1.1-.4zm16 9.7c0 .4.1.7.1 1.1.8-.1 1.6-.3 2.4-.4-.1-.3-.3-.6-.5-.8h-.1c-.6-.1-1.2 0-1.9.1z"/><path d="m62.6 669.6c.5-1.5 1.2-3 1.6-4.6.4-1.5.7-3.1.3-4.8-.5-1.9-2.4-3.1-4.7-2.8-1.8.2-2.6 1.3-2.6 3.6 0 2.9.9 5.6 1.9 8.3.1.4.3.5.8.4 2-.2 2.8.2 3.7 2.2.1.3.2.4.6.4 2.8.1 5.6.1 8.3-.9 2.7-1.1 3.6-3.5 2.3-6.1-.6-1.2-1.6-1.8-3-1.5-1.8.3-3.2 1.3-4.6 2.3-1.8.9-3.2 2.3-4.6 3.5z"/><path d="m71.6 682c1.8 0 3.7-1.5 4.1-3.5.3-1.4-.5-2.6-2.3-3.5-.5-.3-1.1-.5-1.6-.7-2-.7-4-1-6.1-1.2-1.9-.2-1.8-.2-2.7 1.4-.2.3-.2.5 0 .8 1.7 2.2 3.5 4.3 5.9 5.8.8.4 1.6.9 2.7.9z"/><path d="m56.1 673.3c-.9-.1-1.8.1-2.6.2-2 .3-4 .7-5.6 1.9-2.1 1.5-2.1 5 0 6.6.6.4 1.2.6 1.9.5s1.4-.4 2-.7c2.3-1.3 4.1-3.1 5.9-5 .4-.4.8-.8 1-1.2.3-.7-.7-.7-.8-1.2-.2-1.2-.9-1.4-1.8-1.1z"/><path d="m50.4 663.2c-1.6 0-3.6 1.6-4 3.3-.4 1.4.3 2.6 2 3.6.3.2.7.4 1 .6 2.2.9 4.5 1.4 6.8 1.8.8.1 1.3.1 1.4-.8 0-.5.4-.8.8-1.1.3-.3.4-.5.1-.8-1.5-1.9-3-3.8-5-5.2-.9-.8-2-1.4-3.1-1.4z"/><path d="m57.2 683.2v1.3c.2 2.3 2.1 3.7 4.7 3.5 2-.1 2.9-1.3 2.8-3.8-.1-3-1.2-5.8-2.3-8.5-.1-.4-.3-.4-.7-.3-.7.3-1.4.3-2 .1-.4-.1-.5 0-.6.3-1 2.4-1.9 4.8-1.9 7.4z"/><path d="m62.6 669.6c1.5-1.3 2.9-2.5 4.4-3.6 1.5-1 2.9-2 4.6-2.3 1.4-.2 2.4.3 3 1.5 1.3 2.7.4 5.1-2.3 6.1s-5.5 1.1-8.3.9c-.3 0-.4-.1-.6-.4-.9-1.9-1.6-2.4-3.7-2.2-.4 0-.6 0-.8-.4-1-2.7-1.9-5.4-1.9-8.3 0-2.3.8-3.3 2.6-3.6 2.3-.3 4.2.9 4.7 2.8.4 1.6.1 3.2-.3 4.8-.2 1.6-.9 3.1-1.4 4.7z"/><path d="m71.6 682c-1 0-1.9-.4-2.8-.9-2.4-1.5-4.2-3.6-5.9-5.8-.2-.3-.2-.5 0-.8.9-1.6.9-1.6 2.7-1.4 2.1.2 4.1.6 6.1 1.2.6.2 1.1.4 1.6.7 1.8.8 2.6 2.2 2.3 3.5-.4 1.9-2.1 3.5-4 3.5z"/><path d="m56.1 673.3c.9-.3 1.5 0 1.8 1 .1.5 1.1.6.8 1.2-.2.5-.7.8-1 1.2-1.8 1.9-3.6 3.7-5.9 5-.7.4-1.3.6-2 .7s-1.4 0-1.9-.5c-2.1-1.6-2-5.1 0-6.6 1.7-1.2 3.7-1.6 5.6-1.9.9-.1 1.7-.2 2.6-.1z"/><path d="m50.4 663.2c1.2 0 2.3.6 3.2 1.2 2 1.4 3.5 3.2 5 5.2.2.3.2.6-.1.8-.4.3-.7.7-.8 1.1-.1 1-.7 1-1.4.8-2.3-.4-4.6-.8-6.8-1.8-.4-.1-.7-.3-1-.6-1.7-1-2.3-2.2-2-3.6.3-1.5 2.2-3.1 3.9-3.1z"/><path d="m57.2 683.2c0-2.6.9-5 1.9-7.3.1-.3.2-.4.6-.3.7.2 1.4.2 2-.1.4-.2.5-.1.7.3 1.1 2.8 2.3 5.5 2.3 8.5.1 2.5-.8 3.6-2.8 3.8-2.6.2-4.4-1.2-4.7-3.5 0-.6 0-1 0-1.4z"/><path d="m455.3 578.5-3.3 4.8 2.2 5.4-5.6-1.6-4.5 3.7-.2-5.9-4.9-3.1 5.5-2 1.5-5.7 3.6 4.6z"/><path d="m466.5 722.5-4.4 3.8.7 5.8-5-3-5.3 2.4 1.3-5.7-3.9-4.3 5.8-.5 2.9-5.1 2.3 5.4z"/><path d="m393 772.3-4.6 4.1.7 6.1-5.3-3.1-5.6 2.6 1.4-6.1-4.2-4.5 6.2-.6 3-5.4 2.4 5.7z"/><path d="m398.1 523.7c-.5-.3-1-.6-1.5-.8-1.5-.8-2.9-1.5-4.4-2.3-1.2-.6-2.3-1.2-3.5-1.9-.9-.5-1.7-1.1-2.4-1.9-.6-.7-1-1.4-1.3-2.2-.3-.7-.5-1.4-.7-2.2-.5-2.3.4-4.5 2.3-5.6 2-1.3 4.1-1.3 6.1-.1.5.3.9.6 1.3 1 0 0 0 0 .1.1v-.1c.4-1.1 1-2.1 1.9-2.9.8-.7 1.7-1.1 2.7-1.3 1.3-.2 2.5 0 3.6.6 1 .6 1.8 1.5 2.3 2.5.3.6.4 1.3.5 1.9.1.7.2 1.4.1 2.1 0 1.1-.3 2.1-.8 3.1s-1.1 2-1.7 2.9c-.9 1.4-1.9 2.7-2.9 4.1-.7.9-1.3 1.9-1.9 2.9.2 0 .2 0 .2.1z"/><path d="m182.5 793.6-3.3 4.9 2.1 5.4-5.6-1.6-4.5 3.7-.2-5.9-4.9-3.2 5.5-2 1.5-5.7 3.6 4.6z"/><path d="m440.3 947.2c-.5-.3-1-.6-1.5-.8-1.5-.8-2.9-1.5-4.4-2.3-1.2-.6-2.3-1.2-3.5-1.9-.9-.6-1.7-1.1-2.4-1.9-.6-.7-1-1.4-1.3-2.2-.3-.7-.5-1.4-.7-2.1-.5-2.3.4-4.5 2.3-5.6 2-1.3 4.1-1.3 6.1-.1.5.3.9.6 1.3 1l.1.1v-.1c.4-1.1 1-2.2 1.9-3 .8-.7 1.7-1.1 2.7-1.3 1.3-.2 2.5 0 3.6.6 1 .6 1.8 1.5 2.3 2.5.3.6.4 1.3.5 1.9.1.7.2 1.4.2 2.1 0 1.1-.3 2.1-.8 3.1s-1.1 2-1.7 2.9c-.9 1.4-1.9 2.7-2.9 4.1-.7.9-1.3 1.9-1.9 2.9.2.1.2.1.1.1z"/><path d="m238.5 635.3-4.4 3.9.7 5.8-5-3-5.3 2.4 1.3-5.7-3.9-4.3 5.8-.6 2.9-5.1 2.3 5.4z"/><path d="m406.2 653.7c.4.1.8.2 1.3.3 1.9.5 3.7.9 5.6 1.4h.1c-.1.3-.3.7-.4 1-.6 1.5-1 3.2-1.3 4.9-.4 2.6-.3 5.1.3 7.6.3 1.1.6 2.2 1.1 3.2l1.2 2.4c.4.8 1.1 1.5 1.7 2.1 1.2 1.1 2.4 2 3.9 2.6 2.1.8 4.2.8 6.3.2 1.7-.5 3.3-1.3 4.7-2.3 1.5-1 2.7-2.3 3.7-3.8 1.3-2.1 1.7-4.4 1.3-6.8-.3-1.6-.9-3-1.7-4.5-1.4-2.3-3.1-4.3-5.2-6.1-2.5-2.1-5.3-3.5-8.4-4.3h-.1c.2-.4.3-.8.5-1.3.7-1.7 1.4-3.5 2.1-5.3 0-.1 0-.1 0-.2 1.6.7 3.1 1.5 4.7 2.2-.3.9-.7 1.7-1 2.6.8.4 1.7.8 2.5 1.3 1.8 1 3.5 2.2 5 3.6 1.3 1.2 2.5 2.4 3.5 3.9.7 1 1.3 2.1 1.8 3.3.4 1 .7 2 .9 3 .3 1.8.3 3.6 0 5.4-.3 2.2-.9 4.1-2 6-1.6 2.9-3.9 5-6.8 6.5-1.5.8-3 1.3-4.7 1.6-4.7.9-9 .1-12.9-2.7-1.7-1.2-3.2-2.6-4.3-4.5-.1-.2-.3-.4-.4-.6-.3-.5-.5-1-.8-1.5 0 0 0-.1 0-.2-.5-1.1-.9-2.2-1.2-3.3-.4-1.6-.7-3.3-.7-5-.1-2.4.3-4.8.9-7.1 0 0 0-.1 0-.2-.8-.2-1.6-.4-2.3-.7.2-1 .3-2 .5-3 .4-.4.5-1.1.6-1.7zm5.7 20.7c-.2-.9-.5-1.8-.8-2.7 0-.1-.1-.2-.2-.2-.4 0-.8 0-1.3-.1h-.1c.3 1.2.5 2.3.8 3.5.5-.2 1.1-.3 1.6-.5zm24.1-12.5c.5-.3.9-.7 1.4-1-.8-.9-1.6-1.7-2.4-2.6-.3.4-.5.8-.8 1.3-.1.1 0 .2 0 .3.3.4.7.8 1 1.2.3.1.5.5.8.8zm-6.9 20.5c.9-.6 1.8-1.2 2.7-1.9-.3-.3-.7-.5-.9-.8-.1-.1-.1-.1-.2 0-.6.4-1.2.8-1.8 1.1-.1.1-.2.1-.4.2.2.5.4.9.6 1.4zm4.8-4.7.9.9c.7-.7 1.4-1.5 2-2.2-.5-.2-1-.5-1.5-.7-.4.7-.9 1.4-1.4 2zm-8.3 3.9c-.8 0-1.6-.1-2.4-.2-.1.6-.3 1.1-.5 1.6 1 0 1.9-.1 2.9-.1.1-.4 0-.8 0-1.3zm-17-13.4c.5-.2.9-.3 1.3-.5.1 0 .1-.1.1-.2 0-.6.1-1.1.1-1.7 0-.1 0-.3 0-.4-.5 0-.9-.1-1.3-.1 0 .9-.1 1.8-.2 2.9zm24.2-12.6c-.9-.5-1.7-1-2.6-1.5-.2.4-.4.8-.6 1.2.7.4 1.3.8 1.9 1.1h.2c.1-.1.3-.2.4-.3.2-.2.5-.4.7-.5zm-17.3 23.6c-.6-.6-1.1-1.1-1.6-1.6-.4.2-.7.5-1.1.8.7.6 1.3 1.2 2 1.8.2-.3.5-.6.7-1zm22.1-13.9c.1.8.2 1.5.4 2.2 0 0 .1.1.1.1h1.1c-.1-.9-.2-1.8-.4-2.7-.4.1-.8.3-1.2.4zm-17.1 16.3c-.7-.1-1.3-.2-1.9-.4h-.1c-.2.3-.3.5-.5.8.8.2 1.5.4 2.3.6 0-.3.1-.6.2-1zm16.5-8.6c.3.1.7.3 1 .4.3-.8.6-1.5.9-2.3-.3 0-.7 0-.9 0 0 0-.1 0-.1.1-.3.6-.6 1.2-.9 1.8z"/><path d="m451.6 804c.5-1.5 1.2-3 1.6-4.6.4-1.5.7-3.1.3-4.8-.5-1.9-2.4-3.1-4.7-2.8-1.8.2-2.6 1.3-2.6 3.6 0 2.9.9 5.6 1.9 8.3.1.4.3.5.8.4 2-.2 2.8.2 3.7 2.2.1.3.2.4.6.4 2.8.1 5.6.1 8.3-.9 2.8-1.1 3.6-3.5 2.3-6.1-.6-1.3-1.6-1.8-3-1.5-1.8.3-3.2 1.3-4.6 2.3-1.7 1-3.1 2.3-4.6 3.5z"/><path d="m460.7 816.4c1.8 0 3.7-1.5 4.1-3.5.3-1.4-.5-2.6-2.3-3.5-.5-.3-1.1-.5-1.6-.7-2-.7-4-1-6.1-1.2-1.9-.2-1.8-.2-2.7 1.4-.2.3-.2.5 0 .8 1.7 2.2 3.5 4.3 5.9 5.8.8.5 1.7.9 2.7.9z"/><path d="m445.2 807.7c-.9-.1-1.8.1-2.6.2-2 .3-4 .7-5.6 1.9-2.1 1.5-2.1 5 0 6.6.6.4 1.2.6 1.9.5s1.4-.4 2-.7c2.3-1.3 4.1-3.1 5.9-5 .4-.4.8-.8 1-1.2.3-.7-.7-.7-.8-1.2-.2-1.1-.9-1.4-1.8-1.1z"/><path d="m439.5 797.6c-1.6 0-3.6 1.6-4 3.3-.4 1.4.3 2.5 2 3.6.3.2.7.4 1 .5 2.2.9 4.5 1.4 6.8 1.8.8.1 1.3.1 1.4-.9 0-.4.4-.8.8-1.1.3-.3.4-.5.1-.8-1.5-1.9-3-3.8-5-5.2-.9-.7-2-1.1-3.1-1.2z"/><path d="m446.3 817.5v1.3c.2 2.3 2.1 3.7 4.7 3.5 2-.1 2.9-1.3 2.8-3.8-.1-3-1.2-5.8-2.3-8.5-.1-.4-.3-.4-.7-.3-.7.3-1.4.3-2 .1-.4-.1-.5 0-.6.3-1 2.5-1.9 4.9-1.9 7.4z"/><path d="m451.6 804c1.5-1.3 2.9-2.5 4.4-3.6 1.5-1 2.9-2 4.6-2.3 1.4-.2 2.4.3 3 1.5 1.3 2.7.4 5.1-2.3 6.1s-5.5 1.1-8.3.9c-.3 0-.4-.1-.6-.4-.9-1.9-1.6-2.4-3.7-2.2-.4 0-.6 0-.8-.4-.9-2.7-1.9-5.4-1.9-8.3 0-2.3.8-3.3 2.6-3.6 2.3-.3 4.2.9 4.7 2.8.4 1.6.1 3.2-.3 4.8-.1 1.6-.8 3.1-1.4 4.7z"/><path d="m460.7 816.4c-1 0-1.9-.4-2.8-.9-2.4-1.5-4.2-3.6-5.9-5.8-.2-.3-.2-.5 0-.8.9-1.6.9-1.6 2.7-1.4 2.1.2 4.1.6 6.1 1.2.6.2 1.1.4 1.6.7 1.8.8 2.6 2.2 2.3 3.5-.4 1.9-2.2 3.5-4 3.5z"/><path d="m445.2 807.7c.9-.3 1.5 0 1.8 1 .1.5 1.1.6.8 1.2-.2.5-.7.8-1 1.2-1.8 1.9-3.6 3.7-5.9 5-.7.4-1.3.6-2 .7s-1.4 0-1.9-.5c-2.1-1.6-2-5.1 0-6.6 1.7-1.2 3.7-1.6 5.6-1.9.9-.1 1.7-.2 2.6-.1z"/><path d="m439.5 797.6c1.2 0 2.3.5 3.2 1.2 2 1.4 3.5 3.2 5 5.2.2.3.2.6-.1.8-.4.3-.7.7-.8 1.1-.1 1-.7 1-1.4.9-2.3-.4-4.6-.8-6.8-1.8-.4-.1-.7-.3-1-.5-1.7-1-2.3-2.2-2-3.6.3-1.7 2.2-3.3 3.9-3.3z"/><path d="m446.3 817.5c0-2.6.9-5 1.9-7.3.1-.3.2-.4.6-.3.7.2 1.4.2 2-.1.4-.2.5-.1.7.3 1.1 2.8 2.3 5.5 2.3 8.5.1 2.4-.8 3.6-2.8 3.8-2.6.2-4.4-1.2-4.7-3.5 0-.5 0-.9 0-1.4z"/><path d="m360.3 873.8c.1.4.2.8.4 1.3.6 1.8 1.2 3.7 1.7 5.4v.1c-.4 0-.7.1-1.1.1-1.7.3-3.3.8-4.8 1.4-2.4 1-4.5 2.4-6.4 4.2-.8.8-1.6 1.7-2.3 2.6-.5.8-1 1.5-1.5 2.3-.4.8-.7 1.7-.9 2.6-.4 1.5-.4 3.1-.1 4.7.4 2.2 1.5 4 3.1 5.6 1.3 1.2 2.8 2.2 4.4 2.9s3.4 1.1 5.2 1.2c2.5 0 4.6-.8 6.5-2.4 1.2-1.1 2.2-2.3 2.9-3.8 1.3-2.4 2.1-4.9 2.5-7.5.5-3.2.3-6.3-.7-9.4v-.1c.5-.1.9-.1 1.4-.2 1.9-.3 3.7-.6 5.6-.9h.2c.2 1.7.4 3.5.6 5.2-.9.1-1.8.3-2.7.5 0 .9.1 1.9.2 2.8 0 2.1-.1 4.1-.5 6.1-.3 1.7-.8 3.4-1.5 5-.5 1.1-1.1 2.2-1.9 3.2-.6.8-1.3 1.6-2.1 2.3-1.4 1.2-3 2.1-4.6 2.9-2 .8-4 1.4-6.2 1.4-3.3.1-6.3-.8-9.1-2.4-1.5-.8-2.7-1.9-3.8-3.2-3.2-3.5-4.7-7.6-4.4-12.4.1-2.1.6-4.1 1.6-6 .1-.2.2-.4.3-.7.3-.5.6-.9.8-1.4 0 0 .1-.1.1-.1.7-1 1.4-1.9 2.2-2.7 1.2-1.2 2.5-2.3 3.9-3.2 2-1.3 4.2-2.3 6.5-2.9h.2c-.2-.8-.4-1.6-.7-2.3 1-.4 1.9-.8 2.9-1.1.8-.5 1.4-.8 2.1-1.1-.1 0-.1 0 0 0zm-14.8 15.6c.7-.7 1.3-1.4 1.9-2 .1-.1.1-.2 0-.3-.2-.4-.4-.8-.6-1.1 0 0 0-.1-.1-.1-.8.8-1.7 1.6-2.6 2.5.5.3.9.7 1.4 1zm23.1 14.2c.5.2 1 .4 1.6.7.3-1.1.7-2.3 1-3.4-.5 0-1 0-1.5 0-.1 0-.2 0-.2.1-.1.5-.3 1-.5 1.5-.1.3-.2.7-.4 1.1zm-21 4.7c1 .5 2 .9 3 1.4 0-.4.1-.8.1-1.2 0-.1 0-.1-.1-.2-.7-.3-1.3-.7-1.9-1-.1 0-.2-.1-.4-.2-.3.4-.5.8-.7 1.2zm6.4 1.7c-.1.4-.2.8-.3 1.3 1 .2 1.9.4 2.9.6 0-.6-.1-1.1-.2-1.7-.8-.1-1.6-.2-2.4-.2zm-7.6-5.1c-.4-.7-.7-1.4-1.1-2.1-.6.1-1.1.3-1.6.4.6.8 1.1 1.6 1.6 2.4.3-.3.7-.5 1.1-.7zm2.7-21.6c.4.3.8.6 1.1.8.1.1.1 0 .2 0 .5-.3 1-.5 1.5-.8.1 0 .2-.1.4-.2-.2-.4-.4-.8-.6-1.2-.8.6-1.7 1-2.6 1.4zm23.3 14.3c0-1 0-2 0-3-.5 0-.9 0-1.3.1v2.2s0 .1.1.1c.1.1.3.1.4.2.2.1.5.2.8.4zm-29.2-2.6c.2-.8.4-1.5.5-2.3-.4-.2-.8-.4-1.2-.5-.2.9-.4 1.7-.6 2.6.5.1.8.1 1.3.2zm23.3 11.7c-.6.5-1.1.9-1.6 1.5v.1c.2.3.4.6.6.9.7-.6 1.4-1.1 2.1-1.7-.4-.3-.7-.6-1.1-.8zm-22.8-6.3c-.2-.6-.5-1.2-.7-1.8 0 0 0-.1-.1-.1-.3 0-.6 0-.9 0 .2.8.5 1.5.7 2.3.3-.1.7-.2 1-.4zm16 9.8c0 .4.1.7.1 1.1.8-.1 1.6-.3 2.4-.4-.1-.3-.3-.6-.5-.8h-.1c-.6-.1-1.3 0-1.9.1z"/><path d="m172.1 877.6c.5-1.5 1.2-3 1.6-4.6.4-1.5.7-3.1.3-4.8-.5-1.9-2.4-3.1-4.7-2.8-1.8.2-2.6 1.3-2.6 3.6 0 2.9.9 5.6 1.9 8.3.1.4.3.5.8.4 2-.2 2.8.2 3.7 2.2.1.3.2.4.6.4 2.8.1 5.6.1 8.3-.9 2.7-1.1 3.6-3.5 2.3-6.1-.6-1.2-1.6-1.8-3-1.5-1.8.3-3.2 1.3-4.6 2.3-1.7.9-3.1 2.2-4.6 3.5z"/><path d="m181.1 889.9c1.8 0 3.7-1.5 4.1-3.5.3-1.4-.5-2.6-2.3-3.5-.5-.3-1.1-.5-1.6-.7-2-.7-4-1-6.1-1.2-1.9-.2-1.8-.2-2.7 1.4-.2.3-.2.5 0 .8 1.7 2.2 3.5 4.3 5.9 5.8.8.5 1.7 1 2.7.9z"/><path d="m165.7 881.2c-.9-.1-1.8.1-2.6.2-2 .3-4 .7-5.6 1.9-2.1 1.5-2.1 5-.1 6.6.6.4 1.2.6 1.9.5s1.4-.4 2-.7c2.3-1.3 4.1-3.1 5.9-5 .4-.4.8-.8 1-1.2.3-.7-.7-.7-.8-1.2-.1-1.1-.8-1.3-1.7-1.1z"/><path d="m159.9 871.2c-1.6 0-3.6 1.6-4 3.3-.4 1.4.3 2.6 2 3.6.3.2.7.4 1.1.6 2.2.9 4.5 1.4 6.8 1.8.8.1 1.3.1 1.4-.8 0-.5.4-.8.8-1.1.3-.3.4-.5.1-.8-1.5-1.9-3-3.8-5-5.2-1-.9-2-1.4-3.2-1.4z"/><path d="m166.8 891.1v1.3c.2 2.3 2.1 3.7 4.7 3.5 2-.1 2.9-1.3 2.8-3.8-.1-3-1.2-5.8-2.3-8.5-.1-.4-.3-.4-.7-.3-.7.3-1.4.3-2 .1-.4-.1-.5 0-.6.3-1 2.5-1.9 4.9-1.9 7.4z"/><path d="m172.1 877.6c1.5-1.3 2.9-2.5 4.4-3.6 1.4-1 2.9-2 4.6-2.3 1.4-.2 2.4.3 3 1.5 1.3 2.7.4 5.1-2.3 6.1s-5.5 1.1-8.3.9c-.3 0-.4-.1-.6-.4-.9-1.9-1.6-2.4-3.7-2.2-.4 0-.6 0-.8-.4-.9-2.7-1.9-5.4-1.9-8.3 0-2.3.8-3.3 2.6-3.6 2.3-.3 4.2.9 4.7 2.8.4 1.6.1 3.2-.3 4.8-.2 1.6-.9 3.1-1.4 4.7z"/><path d="m181.1 889.9c-1 0-1.9-.4-2.8-.9-2.4-1.5-4.2-3.6-5.9-5.8-.2-.3-.2-.5 0-.8.9-1.6.9-1.6 2.7-1.4 2.1.2 4.1.6 6.1 1.2.6.2 1.1.4 1.6.7 1.8.8 2.6 2.2 2.3 3.5-.3 2-2.1 3.5-4 3.5z"/><path d="m165.7 881.2c.9-.3 1.5 0 1.8 1 .1.5 1.1.6.8 1.2-.2.5-.7.8-1 1.2-1.8 1.9-3.6 3.7-5.9 5-.7.4-1.3.6-2 .7s-1.4 0-1.9-.5c-2.1-1.6-2-5.1.1-6.6 1.7-1.2 3.7-1.6 5.6-1.9.7 0 1.6-.2 2.5-.1z"/><path d="m159.9 871.2c1.2 0 2.3.6 3.2 1.2 2 1.4 3.5 3.2 5 5.2.2.3.2.6-.1.8-.4.3-.7.7-.8 1.1-.1 1-.7 1-1.4.8-2.3-.4-4.6-.8-6.8-1.8-.4-.1-.7-.3-1.1-.6-1.7-1-2.3-2.2-2-3.6.5-1.5 2.4-3.1 4-3.1z"/><path d="m166.8 891.1c0-2.6.9-5 1.9-7.3.1-.3.2-.4.6-.3.7.2 1.4.2 2-.1.4-.2.5-.1.7.3 1.1 2.8 2.3 5.5 2.3 8.5.1 2.4-.8 3.6-2.8 3.8-2.6.2-4.4-1.2-4.7-3.5-.1-.5 0-.9 0-1.4z"/><path d="m275.3 554.6c.1.4.2.8.4 1.3.6 1.8 1.2 3.7 1.7 5.4v.1c-.4 0-.7.1-1.1.1-1.7.3-3.3.8-4.8 1.4-2.4 1-4.5 2.4-6.4 4.2-.8.8-1.6 1.7-2.3 2.6-.5.8-1 1.5-1.5 2.3s-.7 1.7-.9 2.6c-.4 1.5-.4 3.1-.1 4.7.4 2.2 1.5 4 3 5.6 1.3 1.2 2.8 2.2 4.4 2.9s3.4 1.1 5.2 1.2c2.5 0 4.6-.8 6.5-2.4 1.2-1.1 2.2-2.3 2.9-3.8 1.3-2.4 2.1-4.9 2.5-7.5.5-3.2.3-6.3-.7-9.4v-.1c.5-.1.9-.1 1.4-.2 1.9-.3 3.7-.6 5.6-.9h.2c.2 1.7.4 3.5.6 5.2-.9.1-1.8.3-2.7.5 0 .9.1 1.9.2 2.8 0 2.1-.1 4.1-.5 6.1-.3 1.7-.8 3.4-1.5 5-.5 1.1-1.1 2.3-1.9 3.2-.6.8-1.3 1.6-2.1 2.3-1.4 1.2-3 2.1-4.6 2.9-2 .8-4 1.4-6.2 1.4-3.3.1-6.3-.8-9.1-2.4-1.5-.8-2.7-1.9-3.8-3.2-3.2-3.6-4.7-7.6-4.4-12.5.1-2.1.6-4.1 1.6-6 .1-.2.2-.4.3-.7.3-.5.6-.9.8-1.4 0 0 .1-.1.1-.1.7-1 1.4-1.9 2.2-2.7 1.2-1.2 2.5-2.3 3.9-3.2 2-1.3 4.2-2.3 6.5-2.9h.2c-.2-.8-.5-1.6-.7-2.4 1-.4 1.9-.8 2.9-1.1.8-.4 1.5-.7 2.2-.9 0-.1 0-.1 0 0zm-14.8 15.6c.7-.7 1.3-1.4 1.9-2 .1-.1.1-.2 0-.3-.2-.4-.4-.8-.6-1.1 0 0 0-.1-.1-.1-.8.8-1.7 1.6-2.6 2.5.5.3 1 .6 1.4 1zm23.2 14.1c.5.2 1 .4 1.6.7.3-1.1.7-2.3 1-3.4-.5 0-1 0-1.5 0-.1 0-.2 0-.2.1-.1.5-.3 1-.5 1.5-.2.3-.3.7-.4 1.1zm-21.1 4.8c1 .5 2 .9 3 1.4 0-.4.1-.8.1-1.2 0-.1 0-.1-.1-.2-.7-.3-1.3-.7-1.9-1-.1-.1-.2-.1-.4-.2-.2.3-.5.7-.7 1.2zm6.4 1.6c-.1.4-.2.8-.3 1.3 1 .2 1.9.4 2.9.6 0-.6-.1-1.1-.2-1.7-.8 0-1.6-.1-2.4-.2zm-7.7-5.1c-.4-.7-.7-1.4-1.1-2.1-.6.1-1.1.3-1.6.5.6.8 1.1 1.6 1.6 2.4.4-.3.8-.5 1.1-.8zm2.8-21.5c.4.3.8.6 1.1.8.1.1.1 0 .2 0 .5-.3 1-.5 1.5-.8.1-.1.2-.1.4-.2-.2-.4-.4-.8-.6-1.2-.8.5-1.7.9-2.6 1.4zm23.3 14.3c0-1 0-2 0-3-.5 0-.9 0-1.3.1v2.2s0 .1.1.1c.1.1.3.1.4.2.2.1.5.2.8.4zm-29.2-2.7c.2-.8.4-1.5.5-2.3-.4-.2-.8-.3-1.2-.5-.2.9-.4 1.7-.6 2.6.5.1.9.2 1.3.2zm23.3 11.8c-.6.5-1.1.9-1.6 1.4v.1c.2.3.4.6.6.9.7-.6 1.4-1.1 2.1-1.7-.4-.2-.7-.5-1.1-.7zm-22.8-6.3c-.2-.6-.5-1.2-.7-1.8 0 0 0-.1-.1-.1-.3 0-.6 0-1 0 .2.8.5 1.5.7 2.3.4-.2.8-.3 1.1-.4zm16 9.7c0 .4.1.7.1 1.1.8-.1 1.6-.3 2.4-.4-.1-.3-.3-.6-.5-.8h-.1c-.6 0-1.2.1-1.9.1z"/><path d="m310.8 678.2c-.5-.3-1-.6-1.5-.8-1.5-.8-2.9-1.5-4.3-2.3-1.2-.6-2.4-1.2-3.5-1.9-.9-.5-1.7-1.1-2.4-1.9-.6-.7-1-1.4-1.3-2.1s-.5-1.4-.7-2.2c-.5-2.3.4-4.5 2.3-5.6 2-1.3 4.1-1.3 6.1-.1.5.3.9.6 1.3 1 0 0 0 0 .1.1v-.1c.4-1.1 1-2.1 1.9-2.9.8-.7 1.7-1.1 2.7-1.3 1.3-.2 2.5 0 3.6.6 1 .6 1.8 1.5 2.3 2.5.3.6.4 1.3.5 1.9.1.7.2 1.4.2 2.1 0 1.1-.3 2.1-.8 3.1s-1.1 2-1.7 2.9c-.9 1.4-1.9 2.7-2.9 4.1-.7.9-1.3 1.9-1.9 2.9 0-.1 0 0 0 0z"/><path d="m629.8 607.9-3.3 4.9 2.2 5.4-5.6-1.6-4.5 3.7-.2-5.9-4.9-3.2 5.5-2 1.5-5.7 3.6 4.6z"/><path d="m766.9 535.1-4.4 3.9.7 5.8-5-3-5.3 2.4 1.3-5.7-3.9-4.3 5.8-.6 2.9-5.1 2.3 5.4z"/><path d="m567.6 801.7-4.6 4.1.7 6.1-5.3-3.1-5.6 2.6 1.4-6.1-4.2-4.5 6.2-.6 3-5.4 2.4 5.7z"/><path d="m572.6 553.1c-.5-.3-1-.6-1.5-.8-1.5-.8-2.9-1.5-4.4-2.3-1.2-.6-2.3-1.2-3.5-1.9-.9-.6-1.7-1.1-2.4-1.9-.6-.7-1-1.4-1.3-2.1s-.5-1.4-.7-2.2c-.5-2.3.4-4.5 2.3-5.6 2-1.3 4.1-1.3 6.1-.1.5.3.9.6 1.3 1 0 0 0 0 .1.1v-.1c.4-1.1 1-2.1 1.9-2.9.8-.7 1.7-1.1 2.7-1.3 1.3-.2 2.5 0 3.6.6 1 .6 1.8 1.5 2.3 2.5.3.6.4 1.3.5 1.9.1.7.2 1.4.2 2.1 0 1.1-.3 2.1-.8 3.1s-1.1 2-1.7 2.9c-.9 1.4-1.9 2.7-2.9 4.1-.5.9-1.1 1.9-1.8 2.9.1-.1 0-.1 0 0z"/><path d="m596.3 971.6-3.3 4.9 2.1 5.4-5.6-1.6-4.5 3.7-.2-5.9-4.9-3.2 5.5-2 1.5-5.7 3.6 4.6z"/><path d="m759.8 905c-.5-.3-1-.6-1.5-.8-1.5-.8-2.9-1.5-4.4-2.3-1.2-.6-2.4-1.2-3.5-1.9-.9-.5-1.7-1.1-2.4-1.9-.6-.7-1-1.4-1.3-2.1s-.5-1.4-.7-2.2c-.5-2.3.4-4.5 2.3-5.6 2-1.3 4.1-1.3 6.1-.1.5.3.9.6 1.3 1 0 0 0 0 .1.1v-.1c.4-1.1 1-2.1 1.9-2.9.8-.7 1.7-1.1 2.7-1.3 1.3-.2 2.5 0 3.6.6 1 .6 1.8 1.5 2.3 2.5.3.6.4 1.3.5 1.9.1.7.2 1.4.2 2.1 0 1.1-.3 2.1-.8 3.1s-1.1 2-1.7 2.9c-.9 1.4-1.9 2.7-2.9 4.1-.6.9-1.2 1.8-1.8 2.9z"/><path d="m754.3 974.1-4.4 3.8.7 5.8-5-3-5.3 2.4 1.3-5.7-3.9-4.3 5.8-.5 2.9-5.1 2.3 5.4z"/><path d="m613 706.2c.4.1.8.2 1.3.3 1.8.4 3.7.9 5.6 1.4h.1c-.1.3-.3.7-.4 1-.6 1.5-1 3.2-1.3 4.9-.4 2.6-.3 5.1.3 7.6.3 1.1.6 2.2 1.1 3.3.4.8.8 1.6 1.2 2.4.5.8 1.1 1.5 1.7 2.1 1.2 1.1 2.4 2 3.9 2.6 2.1.8 4.2.8 6.4.2 1.7-.5 3.3-1.3 4.7-2.3 1.5-1 2.7-2.3 3.7-3.8 1.3-2.1 1.7-4.4 1.3-6.8-.3-1.6-.9-3-1.7-4.5-1.4-2.3-3.1-4.3-5.2-6.1-2.5-2.1-5.3-3.5-8.4-4.3 0 0-.1 0-.2 0 .2-.4.3-.8.5-1.3.7-1.7 1.4-3.5 2.1-5.3 0-.1 0-.1 0-.2 1.6.7 3.1 1.5 4.7 2.2-.3.9-.7 1.7-1 2.6.8.4 1.7.8 2.5 1.3 1.8 1 3.5 2.2 5 3.6 1.3 1.2 2.5 2.4 3.5 3.9.7 1 1.3 2.1 1.8 3.3.4 1 .8 2 .9 3 .3 1.8.3 3.6 0 5.4-.3 2.1-.9 4.1-2 6.1-1.6 2.9-3.9 5-6.8 6.5-1.5.8-3 1.3-4.7 1.6-4.7.9-9 .1-12.9-2.7-1.7-1.2-3.2-2.6-4.3-4.5-.1-.2-.3-.4-.4-.6-.3-.5-.5-1-.8-1.5 0 0 0-.1 0-.2-.5-1.1-.9-2.2-1.2-3.3-.4-1.6-.7-3.3-.7-5 0-2.4.3-4.8.9-7.1 0 0 0-.1 0-.2-.8-.2-1.6-.4-2.3-.7.2-1 .3-2 .5-3 .3-.5.4-1.2.6-1.9zm5.7 20.7c-.2-.9-.5-1.8-.8-2.7 0-.1-.1-.2-.2-.2-.4 0-.8 0-1.3-.1 0 0-.1 0-.2 0 .3 1.2.5 2.3.8 3.5.6-.1 1.2-.3 1.7-.5zm24.1-12.5c.5-.3.9-.7 1.4-1-.8-.9-1.6-1.7-2.4-2.6-.3.4-.5.8-.8 1.3v.3c.3.4.7.8 1 1.2.2.2.5.5.8.8zm-6.9 20.5c.9-.6 1.8-1.2 2.7-1.9-.3-.3-.7-.5-.9-.8-.1-.1-.1-.1-.2 0-.6.4-1.2.8-1.8 1.1-.1 0-.2.1-.4.2.2.6.4 1 .6 1.4zm4.8-4.6.9.9c.7-.7 1.3-1.5 2-2.2-.5-.2-1-.5-1.5-.7-.5.7-.9 1.3-1.4 2zm-8.3 3.9c-.8 0-1.6-.1-2.3-.2-.1.5-.3 1.1-.5 1.6 1 0 1.9-.1 2.9-.1-.1-.4-.1-.9-.1-1.3zm-17-13.5c.5-.2.9-.3 1.3-.5.1 0 .1-.1.1-.2 0-.6.1-1.1.1-1.7 0-.1 0-.3 0-.4-.5 0-.9-.1-1.3-.1-.1.9-.1 1.9-.2 2.9zm24.2-12.6c-.9-.5-1.7-1-2.6-1.5-.2.4-.4.8-.7 1.2.7.4 1.3.8 1.9 1.1h.2c.1-.1.3-.2.4-.3.3-.1.5-.3.8-.5zm-17.3 23.7c-.6-.6-1.1-1.1-1.6-1.6-.4.3-.7.5-1.1.8.7.6 1.3 1.2 2 1.8.2-.4.4-.7.7-1zm22-14c.1.8.2 1.5.4 2.2 0 0 .1.1.1.1h1.1c-.1-.9-.2-1.8-.4-2.7-.4.2-.7.3-1.2.4zm-17.1 16.4c-.7-.1-1.3-.2-1.9-.4h-.1c-.2.3-.3.5-.5.8.8.2 1.5.4 2.3.6 0-.3.1-.7.2-1zm16.6-8.7c.3.1.7.3 1 .4.3-.8.6-1.5.9-2.3-.3 0-.7 0-.9 0 0 0-.1 0-.1.1-.4.6-.6 1.2-.9 1.8z"/><path d="m718.6 782.3c.5-1.5 1.2-3 1.6-4.6.4-1.5.7-3.1.3-4.8-.5-1.9-2.4-3.1-4.7-2.8-1.8.2-2.6 1.3-2.6 3.6 0 2.9.9 5.6 1.9 8.3.1.4.3.5.8.4 2-.2 2.8.2 3.7 2.2.1.3.2.4.6.4 2.8.1 5.6.1 8.3-.9 2.8-1.1 3.6-3.5 2.3-6.1-.6-1.2-1.6-1.8-3-1.5-1.8.3-3.2 1.3-4.6 2.3-1.8 1-3.2 2.3-4.6 3.5z"/><path d="m727.6 794.7c1.8 0 3.7-1.5 4.1-3.5.3-1.4-.5-2.6-2.3-3.5-.5-.3-1.1-.5-1.6-.7-2-.7-4-1-6.1-1.2-1.9-.2-1.8-.2-2.7 1.4-.2.3-.2.5 0 .8 1.7 2.2 3.5 4.3 5.9 5.8.8.5 1.7.9 2.7.9z"/><path d="m712.2 786c-.9-.1-1.7.1-2.6.2-2 .3-4 .7-5.6 1.9-2.1 1.5-2.1 5 0 6.6.6.4 1.2.6 1.9.5s1.4-.4 2-.7c2.3-1.3 4.1-3.1 5.9-5 .4-.4.8-.8 1-1.2.3-.7-.7-.7-.8-1.3-.3-1-1-1.2-1.8-1z"/><path d="m706.4 776c-1.6 0-3.6 1.6-4 3.3-.4 1.4.3 2.5 2 3.6.3.2.7.4 1 .5 2.2.9 4.5 1.4 6.8 1.8.8.1 1.3.1 1.4-.9 0-.4.4-.8.8-1.1.3-.3.4-.5.1-.8-1.5-1.9-3-3.8-5-5.2-.9-.7-1.9-1.2-3.1-1.2z"/><path d="m713.2 795.9v1.3c.2 2.3 2.1 3.7 4.7 3.5 2-.1 2.9-1.3 2.8-3.8-.1-3-1.2-5.8-2.3-8.5-.1-.4-.3-.4-.7-.3-.7.3-1.4.3-2 .1-.4-.1-.5 0-.6.3-1 2.5-1.9 4.8-1.9 7.4z"/><path d="m718.6 782.3c1.5-1.3 2.9-2.5 4.4-3.6 1.5-1 2.9-2 4.6-2.3 1.4-.2 2.4.3 3 1.5 1.3 2.7.4 5.1-2.3 6.1s-5.5 1.1-8.3.9c-.3 0-.4-.1-.6-.4-.9-1.9-1.6-2.4-3.7-2.2-.4 0-.6 0-.8-.4-1-2.7-1.9-5.4-1.9-8.3 0-2.3.8-3.3 2.6-3.6 2.3-.3 4.2.9 4.7 2.8.4 1.6.1 3.2-.3 4.8-.2 1.7-.9 3.2-1.4 4.7z"/><path d="m727.6 794.7c-1 0-1.9-.4-2.8-.9-2.4-1.5-4.2-3.6-5.9-5.8-.2-.3-.2-.5 0-.8.9-1.6.9-1.6 2.7-1.4 2.1.2 4.1.6 6.1 1.2.6.2 1.1.4 1.6.7 1.8.8 2.6 2.2 2.3 3.5-.4 2-2.1 3.5-4 3.5z"/><path d="m712.2 786c.9-.3 1.5 0 1.8 1 .1.5 1.1.6.8 1.3-.2.5-.7.8-1 1.2-1.8 1.9-3.6 3.7-5.9 5-.7.4-1.3.6-2 .7s-1.4 0-1.9-.5c-2.1-1.6-2-5.1 0-6.6 1.7-1.2 3.7-1.6 5.6-1.9.8-.1 1.6-.3 2.6-.2z"/><path d="m706.4 776c1.2 0 2.3.6 3.2 1.2 2 1.4 3.5 3.2 5 5.2.2.3.2.6-.1.8-.4.3-.7.7-.8 1.1-.1 1-.7 1-1.4.9-2.3-.4-4.6-.8-6.8-1.8-.4-.1-.7-.3-1-.5-1.7-1-2.3-2.2-2-3.6.3-1.8 2.2-3.3 3.9-3.3z"/><path d="m713.2 795.9c0-2.6.9-5 1.9-7.3.1-.3.2-.4.6-.3.7.2 1.4.2 2-.1.4-.2.5-.1.7.3 1.1 2.8 2.3 5.5 2.3 8.5.1 2.5-.8 3.6-2.8 3.8-2.6.2-4.4-1.2-4.7-3.5 0-.5 0-.9 0-1.4z"/><path d="m534.8 864.9c.1.4.2.8.4 1.3.6 1.8 1.1 3.7 1.7 5.4v.1c-.4 0-.7.1-1.1.1-1.7.3-3.3.8-4.8 1.4-2.4 1-4.5 2.4-6.4 4.2-.8.8-1.6 1.7-2.3 2.6-.5.8-1 1.5-1.5 2.3s-.7 1.7-.9 2.6c-.4 1.5-.4 3.1-.1 4.7.4 2.2 1.5 4 3.1 5.6 1.3 1.2 2.8 2.2 4.4 2.9s3.4 1.1 5.2 1.2c2.5 0 4.6-.8 6.5-2.4 1.2-1.1 2.2-2.3 2.9-3.8 1.3-2.4 2.1-4.9 2.5-7.5.5-3.2.3-6.3-.7-9.4v-.1c.5-.1.9-.1 1.4-.2 1.9-.3 3.7-.6 5.6-.9h.2c.2 1.7.4 3.5.6 5.2-.9.1-1.8.3-2.7.5 0 .9.1 1.9.2 2.8 0 2.1-.1 4.1-.5 6.1-.3 1.7-.8 3.4-1.5 5-.5 1.1-1.1 2.3-1.9 3.2-.6.8-1.3 1.6-2.1 2.3-1.4 1.2-3 2.1-4.6 2.9-2 .8-4 1.4-6.2 1.4-3.3.1-6.3-.8-9.1-2.4-1.5-.8-2.7-1.9-3.8-3.2-3.2-3.6-4.7-7.6-4.4-12.5.1-2.1.6-4.1 1.6-6 .1-.2.2-.4.3-.7.3-.5.6-.9.8-1.4 0 0 .1-.1.1-.1.7-1 1.4-1.9 2.2-2.7 1.2-1.2 2.5-2.3 3.9-3.2 2-1.3 4.2-2.3 6.5-2.9h.2c-.2-.8-.4-1.6-.7-2.3 1-.4 1.9-.8 2.9-1.1.8-.5 1.4-.7 2.1-1zm-14.7 15.6c.7-.7 1.3-1.4 1.9-2 .1-.1.1-.2 0-.3-.2-.4-.4-.8-.6-1.1 0 0 0-.1-.1-.1-.8.8-1.7 1.6-2.6 2.5.5.3.9.7 1.4 1zm23.1 14.2c.5.2 1 .4 1.6.7.3-1.1.7-2.3 1-3.4-.5 0-1 0-1.5 0-.1 0-.2 0-.2.1-.1.5-.3 1-.5 1.5-.1.3-.3.7-.4 1.1zm-21.1 4.7c1 .5 2 .9 3 1.4 0-.4.1-.8.1-1.2 0-.1 0-.1-.1-.2-.7-.3-1.3-.7-1.9-1-.1-.1-.2-.1-.4-.2-.2.4-.4.8-.7 1.2zm6.4 1.7c-.1.4-.2.8-.3 1.3 1 .2 1.9.4 2.9.6 0-.6-.1-1.1-.2-1.7-.8-.1-1.6-.1-2.4-.2zm-7.6-5.1c-.4-.7-.7-1.4-1.1-2.1-.6.1-1.1.3-1.6.5.6.8 1.1 1.6 1.6 2.4.4-.3.7-.5 1.1-.8zm2.7-21.6c.4.3.8.6 1.1.8.1.1.1 0 .2 0 .5-.3 1-.5 1.5-.8.1-.1.2-.1.4-.2-.2-.4-.4-.8-.6-1.2-.8.6-1.6 1-2.6 1.4zm23.4 14.3c0-1 0-2 0-3-.5 0-.9 0-1.4.1v2.2s0 .1.1.1c.1.1.3.1.4.2.3.1.5.3.9.4zm-29.3-2.6c.2-.8.4-1.5.5-2.3-.4-.2-.8-.3-1.2-.5-.2.9-.4 1.7-.6 2.6.5.1.9.2 1.3.2zm23.4 11.7c-.6.5-1.1.9-1.6 1.4v.1c.2.3.4.6.6.9.7-.6 1.4-1.1 2.1-1.7-.5-.2-.8-.4-1.1-.7zm-22.9-6.2c-.2-.6-.5-1.2-.7-1.8 0 0 0-.1-.1-.1-.3 0-.6 0-1 0 .2.8.5 1.5.7 2.3.5-.2.8-.3 1.1-.4zm16 9.7c0 .4.1.7.1 1.1.8-.1 1.6-.3 2.4-.4-.1-.3-.3-.6-.5-.8h-.1c-.6-.1-1.2 0-1.9.1z"/><path d="m534.8 699c.5-1.5 1.2-3 1.6-4.6.4-1.5.7-3.1.3-4.8-.5-1.9-2.4-3.1-4.7-2.8-1.8.2-2.6 1.3-2.6 3.6 0 2.9.9 5.6 1.9 8.3.1.4.3.5.8.4 2-.2 2.8.2 3.7 2.2.1.3.2.4.6.4 2.8.1 5.6.1 8.3-.9 2.7-1.1 3.6-3.5 2.3-6.1-.6-1.2-1.6-1.8-3-1.5-1.8.3-3.2 1.3-4.6 2.3-1.8 1-3.2 2.3-4.6 3.5z"/><path d="m543.8 711.4c1.8 0 3.7-1.5 4.1-3.5.3-1.4-.5-2.6-2.3-3.5-.5-.3-1.1-.5-1.6-.7-2-.7-4-1-6.1-1.2-1.9-.2-1.8-.2-2.7 1.4-.2.3-.2.5 0 .8 1.7 2.2 3.5 4.3 5.9 5.8.8.5 1.7.9 2.7.9z"/><path d="m528.4 702.7c-.9-.1-1.8.1-2.6.2-2 .3-4 .7-5.6 1.9-2.1 1.5-2.1 5 0 6.6.6.4 1.2.6 1.9.5s1.4-.4 2-.7c2.3-1.3 4.1-3.1 5.9-5 .4-.4.8-.8 1-1.2.3-.7-.7-.7-.8-1.2-.3-1.1-1-1.4-1.8-1.1z"/><path d="m522.6 692.6c-1.6 0-3.6 1.6-4 3.3-.4 1.4.3 2.6 2 3.6.3.2.7.4 1 .6 2.2.9 4.5 1.4 6.8 1.8.8.1 1.3.1 1.4-.8 0-.5.4-.8.8-1.1.3-.3.4-.5.1-.8-1.5-1.9-3-3.8-5-5.2-.9-.8-1.9-1.3-3.1-1.4z"/><path d="m529.4 712.6v1.3c.2 2.3 2.1 3.7 4.7 3.5 2-.1 2.9-1.3 2.8-3.8-.1-3-1.2-5.8-2.3-8.5-.1-.4-.3-.4-.7-.3-.7.3-1.4.3-2 .1-.4-.1-.5 0-.6.3-1 2.4-1.9 4.8-1.9 7.4z"/><path d="m534.8 699c1.5-1.3 2.9-2.5 4.4-3.6 1.5-1 2.9-2 4.6-2.3 1.4-.2 2.4.3 3 1.5 1.3 2.7.4 5.1-2.3 6.1s-5.5 1.1-8.3.9c-.3 0-.4-.1-.6-.4-.9-1.9-1.6-2.4-3.7-2.2-.4 0-.6 0-.8-.4-1-2.7-1.9-5.4-1.9-8.3 0-2.3.8-3.3 2.6-3.6 2.3-.3 4.2.9 4.7 2.8.4 1.6.1 3.2-.3 4.8s-.9 3.1-1.4 4.7z"/><path d="m543.8 711.4c-1 0-1.9-.4-2.8-.9-2.4-1.5-4.2-3.6-5.9-5.8-.2-.3-.2-.5 0-.8.9-1.6.9-1.6 2.7-1.4 2.1.2 4.1.6 6.1 1.2.6.2 1.1.4 1.6.7 1.8.8 2.6 2.2 2.3 3.5-.4 1.9-2.1 3.5-4 3.5z"/><path d="m528.4 702.7c.9-.3 1.5 0 1.8 1 .1.5 1.1.6.8 1.2-.2.5-.7.8-1 1.2-1.8 1.9-3.6 3.7-5.9 5-.7.4-1.3.6-2 .7s-1.4 0-1.9-.5c-2.1-1.6-2-5.1 0-6.6 1.7-1.2 3.7-1.6 5.6-1.9.8-.1 1.6-.2 2.6-.1z"/><path d="m522.6 692.6c1.2 0 2.3.6 3.2 1.2 2 1.4 3.5 3.2 5 5.2.2.3.2.6-.1.8-.4.3-.7.7-.8 1.1-.1 1-.7 1-1.4.8-2.3-.4-4.6-.8-6.8-1.8-.4-.1-.7-.3-1-.6-1.7-1-2.3-2.2-2-3.6.3-1.5 2.2-3.1 3.9-3.1z"/><path d="m529.4 712.6c0-2.6.9-5 1.9-7.3.1-.3.2-.4.6-.3.7.2 1.4.2 2-.1.4-.2.5-.1.7.3 1.1 2.8 2.3 5.5 2.3 8.5.1 2.5-.8 3.6-2.8 3.8-2.6.2-4.4-1.2-4.7-3.5 0-.6 0-1 0-1.4z"/><path d="m887.5 607.9-3.3 4.8 2.2 5.4-5.6-1.6-4.5 3.7-.2-5.9-4.9-3.1 5.5-2 1.5-5.7 3.6 4.6z"/><path d="m898.7 751.9-4.4 3.8.7 5.8-5-3-5.3 2.4 1.3-5.7-4-4.2 5.8-.5 2.9-5.1 2.3 5.4z"/><path d="m835.2 801.7-4.6 4.1.7 6.1-5.3-3.1-5.6 2.6 1.4-6.1-4.2-4.5 6.2-.6 3-5.4 2.4 5.7z"/><path d="m870.3 553.1c-.5-.3-1-.6-1.5-.8-1.5-.8-2.9-1.5-4.4-2.3-1.2-.6-2.3-1.2-3.5-1.9-.9-.5-1.7-1.1-2.4-1.9-.6-.7-1-1.4-1.3-2.2-.3-.7-.5-1.4-.7-2.2-.5-2.3.4-4.5 2.3-5.6 2-1.3 4.1-1.3 6.1-.1.5.3.9.6 1.3 1 0 0 0 0 .1.1v-.1c.4-1.1 1-2.1 1.9-2.9.8-.7 1.7-1.1 2.7-1.3 1.3-.2 2.5 0 3.6.6 1 .6 1.8 1.5 2.3 2.5.3.6.4 1.3.5 1.9.1.7.2 1.4.1 2.1 0 1.1-.3 2.1-.8 3.1s-1.1 2-1.7 2.9c-.9 1.4-1.9 2.7-2.9 4.1-.7.9-1.3 1.9-1.9 2.9.2 0 .2 0 .2.1z"/><path d="m654.7 823-3.3 4.9 2.1 5.4-5.6-1.6-4.5 3.7-.2-5.9-4.9-3.2 5.5-2 1.5-5.7 3.6 4.6z"/><path d="m710.7 664.7-4.4 3.9.7 5.8-5-3-5.3 2.4 1.3-5.7-3.9-4.3 5.8-.6 2.9-5.1 2.3 5.4z"/><path d="m838.4 683.1c.4.1.8.2 1.3.3 1.9.5 3.7.9 5.6 1.4h.1c-.1.3-.3.7-.4 1-.6 1.5-1 3.2-1.3 4.9-.4 2.6-.3 5.1.3 7.6.3 1.1.6 2.2 1.1 3.2.4.8.8 1.6 1.2 2.4s1.1 1.5 1.7 2.1c1.2 1.1 2.4 2 3.9 2.6 2.1.8 4.2.8 6.3.2 1.7-.5 3.3-1.3 4.7-2.3s2.7-2.3 3.7-3.8c1.3-2.1 1.7-4.4 1.3-6.8-.3-1.6-.9-3-1.7-4.5-1.4-2.3-3.1-4.3-5.2-6.1-2.5-2.1-5.3-3.5-8.4-4.3h-.1c.2-.4.3-.8.5-1.3.7-1.7 1.4-3.5 2.1-5.3 0-.1 0-.1 0-.2 1.6.7 3.1 1.5 4.7 2.2-.3.9-.7 1.7-1 2.6.8.4 1.7.8 2.5 1.3 1.8 1 3.5 2.2 5 3.6 1.3 1.2 2.5 2.4 3.5 3.9.7 1 1.3 2.1 1.8 3.3.4 1 .7 2 .9 3 .3 1.8.3 3.6 0 5.4-.3 2.2-.9 4.1-2 6.1-1.6 2.9-3.9 5-6.8 6.5-1.5.8-3 1.3-4.7 1.6-4.7.9-9 .1-12.9-2.7-1.7-1.2-3.2-2.6-4.3-4.5-.1-.2-.3-.4-.4-.6-.3-.5-.5-1-.8-1.5 0 0 0-.1 0-.2-.5-1.1-.9-2.2-1.2-3.3-.4-1.6-.7-3.3-.7-5-.1-2.4.3-4.8.9-7.1 0 0 0-.1 0-.2-.8-.2-1.6-.4-2.3-.7.2-1 .3-2 .5-3 .4-.4.5-1.2.6-1.8zm5.7 20.7c-.2-.9-.5-1.8-.8-2.7 0-.1-.1-.2-.2-.2-.4 0-.8 0-1.3-.1h-.1c.3 1.2.5 2.3.8 3.5.6-.1 1.1-.3 1.6-.5zm24.1-12.5c.5-.3.9-.7 1.4-1-.8-.9-1.6-1.7-2.4-2.6-.3.4-.5.8-.8 1.3-.1.1 0 .2 0 .3.3.4.7.8 1 1.2.3.1.6.5.8.8zm-6.8 20.5c.9-.6 1.8-1.2 2.7-1.9-.3-.3-.7-.5-.9-.8-.1-.1-.1-.1-.2 0-.6.4-1.2.8-1.8 1.1-.1.1-.2.1-.4.2.1.6.3.9.6 1.4zm4.7-4.6.9.9c.7-.7 1.4-1.5 2-2.2-.5-.2-1-.5-1.5-.7-.4.6-.9 1.3-1.4 2zm-8.3 3.8c-.8 0-1.6-.1-2.4-.2-.1.6-.3 1.1-.5 1.6 1 0 1.9-.1 2.9-.1.1-.4 0-.8 0-1.3zm-17-13.4c.5-.2.9-.3 1.3-.5.1 0 .1-.1.1-.2 0-.6.1-1.1.1-1.7 0-.1 0-.3 0-.4-.5 0-.9-.1-1.3-.1 0 .9-.1 1.9-.2 2.9zm24.3-12.6c-.9-.5-1.7-1-2.6-1.5-.2.4-.4.8-.6 1.2.7.4 1.3.8 1.9 1.1h.2c.1-.1.3-.2.4-.3.1-.2.4-.3.7-.5zm-17.4 23.7c-.6-.6-1.1-1.1-1.6-1.6-.4.2-.7.5-1.1.8.7.6 1.3 1.2 2 1.8.2-.4.5-.7.7-1zm22.1-14c.1.8.2 1.5.4 2.2 0 0 .1.1.1.1h1.1c-.1-.9-.2-1.8-.4-2.7-.4.1-.8.3-1.2.4zm-17.1 16.3c-.7-.1-1.3-.2-1.9-.4h-.1c-.2.3-.3.5-.5.8.8.2 1.5.4 2.3.6 0-.3.1-.6.2-1zm16.5-8.6c.3.1.7.3 1 .4.3-.8.6-1.5.9-2.3-.3 0-.7 0-.9 0 0 0-.1 0-.1.1-.3.6-.6 1.2-.9 1.8z"/><path d="m873.9 853.4c.5-1.5 1.2-3 1.6-4.6.4-1.5.7-3.1.3-4.8-.5-1.9-2.4-3.1-4.7-2.8-1.8.2-2.6 1.3-2.6 3.6 0 2.9.9 5.6 1.9 8.3.1.4.3.5.8.4 2-.2 2.8.2 3.7 2.2.1.3.2.4.6.4 2.8.1 5.6.1 8.3-.9 2.8-1.1 3.6-3.5 2.3-6.1-.6-1.3-1.6-1.8-3-1.5-1.8.3-3.2 1.3-4.6 2.3-1.8 1-3.2 2.3-4.6 3.5z"/><path d="m882.9 865.8c1.8 0 3.7-1.5 4.1-3.5.3-1.4-.5-2.6-2.3-3.5-.5-.3-1.1-.5-1.6-.7-2-.7-4-1-6.1-1.2-1.9-.2-1.8-.2-2.7 1.4-.2.3-.2.5 0 .8 1.7 2.2 3.5 4.3 5.9 5.8.8.5 1.7.9 2.7.9z"/><path d="m867.4 857.1c-.9-.1-1.8.1-2.6.2-2 .3-4 .7-5.6 1.9-2.1 1.5-2.1 5 0 6.6.6.4 1.2.6 1.9.5s1.4-.4 2-.7c2.3-1.3 4.1-3.1 5.9-5 .4-.4.8-.8 1-1.2.3-.7-.7-.7-.8-1.2-.2-1.1-.9-1.4-1.8-1.1z"/><path d="m861.7 847c-1.6 0-3.6 1.6-4 3.3-.4 1.4.3 2.5 2 3.6.3.2.7.4 1 .5 2.2.9 4.5 1.4 6.8 1.8.8.1 1.3.1 1.4-.9 0-.4.4-.8.8-1.1.3-.3.4-.5.1-.8-1.5-1.9-3-3.8-5-5.2-.9-.7-2-1.1-3.1-1.2z"/><path d="m868.5 867v1.3c.2 2.3 2.1 3.7 4.7 3.5 2-.1 2.9-1.3 2.8-3.8-.1-3-1.2-5.8-2.3-8.5-.1-.4-.3-.4-.7-.3-.7.3-1.4.3-2 .1-.4-.1-.5 0-.6.3-.9 2.4-1.8 4.8-1.9 7.4z"/><path d="m873.9 853.4c1.5-1.3 2.9-2.5 4.4-3.6 1.5-1 2.9-2 4.6-2.3 1.4-.2 2.4.3 3 1.5 1.3 2.7.4 5.1-2.3 6.1s-5.5 1.1-8.3.9c-.3 0-.4-.1-.6-.4-.9-1.9-1.6-2.4-3.7-2.2-.4 0-.6 0-.8-.4-.9-2.7-1.9-5.4-1.9-8.3 0-2.3.8-3.3 2.6-3.6 2.3-.3 4.2.9 4.7 2.8.4 1.6.1 3.2-.3 4.8-.2 1.7-.9 3.2-1.4 4.7z"/><path d="m882.9 865.8c-1 0-1.9-.4-2.8-.9-2.4-1.5-4.2-3.6-5.9-5.8-.2-.3-.2-.5 0-.8.9-1.6.9-1.6 2.7-1.4 2.1.2 4.1.6 6.1 1.2.6.2 1.1.4 1.6.7 1.8.8 2.6 2.2 2.3 3.5-.4 1.9-2.2 3.5-4 3.5z"/><path d="m867.4 857.1c.9-.3 1.5 0 1.8 1 .1.5 1.1.6.8 1.2-.2.5-.7.8-1 1.2-1.8 1.9-3.6 3.7-5.9 5-.7.4-1.3.6-2 .7s-1.4 0-1.9-.5c-2.1-1.6-2-5.1 0-6.6 1.7-1.2 3.7-1.6 5.6-1.9.9 0 1.7-.2 2.6-.1z"/><path d="m861.7 847c1.2 0 2.3.5 3.2 1.2 2 1.4 3.5 3.2 5 5.2.2.3.2.6-.1.8-.4.3-.7.7-.8 1.1-.1 1-.7 1-1.4.9-2.3-.4-4.6-.8-6.8-1.8-.4-.1-.7-.3-1-.5-1.7-1-2.3-2.2-2-3.6.3-1.7 2.2-3.3 3.9-3.3z"/><path d="m868.5 867c0-2.6.9-5 1.9-7.3.1-.3.2-.4.6-.3.7.2 1.4.2 2-.1.4-.2.5-.1.7.3 1.1 2.8 2.3 5.5 2.3 8.5.1 2.4-.8 3.6-2.8 3.8-2.6.2-4.4-1.2-4.7-3.5 0-.5 0-1 0-1.4z"/><path d="m852.5 913.2c.1.4.2.8.4 1.3.6 1.8 1.2 3.7 1.7 5.4v.1c-.4 0-.7.1-1.1.1-1.7.3-3.3.8-4.8 1.4-2.4 1-4.5 2.4-6.4 4.2-.8.8-1.6 1.7-2.3 2.6-.5.8-1 1.5-1.5 2.3-.4.8-.7 1.7-.9 2.6-.4 1.5-.4 3.1-.1 4.7.4 2.2 1.5 4 3.1 5.6 1.3 1.2 2.8 2.2 4.4 2.9s3.4 1.1 5.2 1.2c2.5 0 4.6-.8 6.5-2.4 1.2-1.1 2.2-2.3 2.9-3.8 1.3-2.4 2.1-4.9 2.5-7.5.5-3.2.3-6.3-.7-9.4v-.1c.5-.1.9-.1 1.4-.2 1.9-.3 3.7-.6 5.6-.9h.2c.2 1.7.4 3.5.6 5.2-.9.1-1.8.3-2.7.5 0 .9.1 1.9.2 2.8 0 2.1-.1 4.1-.5 6.1-.3 1.7-.8 3.4-1.5 5-.5 1.1-1.1 2.2-1.9 3.2-.6.8-1.3 1.6-2.1 2.3-1.4 1.2-3 2.1-4.6 2.9-2 .8-4 1.4-6.2 1.4-3.3.1-6.3-.8-9.1-2.4-1.5-.8-2.7-1.9-3.8-3.2-3.2-3.5-4.7-7.6-4.4-12.4.1-2.1.6-4.1 1.6-6 .1-.2.2-.4.3-.7.3-.5.6-.9.8-1.4 0 0 .1-.1.1-.1.7-1 1.4-1.9 2.2-2.7 1.2-1.2 2.5-2.3 3.9-3.2 2-1.3 4.2-2.3 6.5-2.9h.2c-.2-.8-.4-1.6-.7-2.3 1-.4 1.9-.8 2.9-1.1.8-.5 1.4-.8 2.1-1.1zm-14.8 15.6c.7-.7 1.3-1.4 1.9-2 .1-.1.1-.2 0-.3-.2-.4-.4-.8-.6-1.1 0 0 0-.1-.1-.1-.8.8-1.7 1.6-2.6 2.5.5.3 1 .7 1.4 1zm23.1 14.2c.5.2 1 .4 1.6.7.3-1.1.7-2.3 1-3.4-.5 0-1 0-1.5 0-.1 0-.2 0-.2.1-.1.5-.3 1-.5 1.5-.1.3-.2.7-.4 1.1zm-21 4.7c1 .5 2 .9 3 1.4 0-.4.1-.8.1-1.2 0-.1 0-.1-.1-.2-.7-.3-1.3-.7-1.9-1-.1 0-.2-.1-.4-.2-.2.4-.5.8-.7 1.2zm6.4 1.7c-.1.4-.2.8-.3 1.3 1 .2 1.9.4 2.9.6 0-.6-.1-1.1-.2-1.7-.8-.1-1.6-.2-2.4-.2zm-7.6-5.1c-.4-.7-.7-1.4-1.1-2.1-.6.1-1.1.3-1.6.4.6.8 1.1 1.6 1.6 2.4.3-.2.7-.5 1.1-.7zm2.7-21.5c.4.3.8.6 1.1.8.1.1.1 0 .2 0 .5-.3 1-.5 1.5-.8.1 0 .2-.1.4-.2-.2-.4-.4-.8-.6-1.2-.8.5-1.7.9-2.6 1.4zm23.3 14.2c0-1 0-2 0-3-.5 0-.9 0-1.3.1v2.2s0 .1.1.1c.1.1.3.1.4.2.2.1.5.2.8.4zm-29.2-2.6c.2-.8.4-1.5.5-2.3-.4-.2-.8-.4-1.2-.5-.2.9-.4 1.7-.6 2.6.5.1.9.1 1.3.2zm23.3 11.7c-.6.5-1.1.9-1.6 1.5v.1c.2.3.4.6.6.9.7-.6 1.4-1.1 2.1-1.7-.4-.3-.7-.5-1.1-.8zm-22.8-6.3c-.2-.6-.5-1.2-.7-1.8 0 0 0-.1-.1-.1-.3 0-.6 0-.9 0 .2.8.5 1.5.7 2.3.3-.1.7-.2 1-.4zm16 9.8c0 .4.1.7.1 1.1.8-.1 1.6-.3 2.4-.4-.1-.3-.3-.6-.5-.8h-.1c-.6-.1-1.3 0-1.9.1z"/><path d="m644.3 907c.5-1.5 1.2-3 1.6-4.6.4-1.5.7-3.1.3-4.8-.5-1.9-2.4-3.1-4.7-2.8-1.8.2-2.6 1.3-2.6 3.6 0 2.9.9 5.6 1.9 8.3.1.4.3.5.8.4 2-.2 2.8.2 3.7 2.2.1.3.2.4.6.4 2.8.1 5.6.1 8.3-.9 2.7-1.1 3.6-3.5 2.3-6.1-.6-1.2-1.6-1.8-3-1.5-1.8.3-3.2 1.3-4.6 2.3-1.7 1-3.1 2.2-4.6 3.5z"/><path d="m653.3 919.3c1.8 0 3.7-1.5 4.1-3.5.3-1.4-.5-2.6-2.3-3.5-.5-.3-1.1-.5-1.6-.7-2-.7-4-1-6.1-1.2-1.9-.2-1.8-.2-2.7 1.4-.2.3-.2.5 0 .8 1.7 2.2 3.5 4.3 5.9 5.8.8.6 1.7 1 2.7.9z"/><path d="m637.9 910.6c-.9-.1-1.8.1-2.6.2-2 .3-4 .7-5.6 1.9-2.1 1.5-2.1 5-.1 6.6.6.4 1.2.6 1.9.5s1.4-.4 2-.7c2.3-1.3 4.1-3.1 5.9-5 .4-.4.8-.8 1-1.2.3-.7-.7-.7-.8-1.2-.1-1.1-.8-1.3-1.7-1.1z"/><path d="m632.1 900.6c-1.6 0-3.6 1.6-4 3.3-.4 1.4.3 2.6 2 3.6.3.2.7.4 1.1.6 2.2.9 4.5 1.4 6.8 1.8.8.1 1.3.1 1.4-.8 0-.5.4-.8.8-1.1.3-.3.4-.5.1-.8-1.5-1.9-3-3.8-5-5.2-.9-.9-2-1.3-3.2-1.4z"/><path d="m639 920.5v1.3c.2 2.3 2.1 3.7 4.7 3.5 2-.1 2.9-1.3 2.8-3.8-.1-3-1.2-5.8-2.3-8.5-.1-.4-.3-.4-.7-.3-.7.3-1.4.3-2 .1-.4-.1-.5 0-.6.3-1 2.5-1.9 4.9-1.9 7.4z"/><path d="m644.3 907c1.5-1.3 2.9-2.5 4.4-3.6 1.4-1 2.9-2 4.6-2.3 1.4-.2 2.4.3 3 1.5 1.3 2.7.4 5.1-2.3 6.1s-5.5 1.1-8.3.9c-.3 0-.4-.1-.6-.4-.9-1.9-1.6-2.4-3.7-2.2-.4 0-.6 0-.8-.4-.9-2.7-1.9-5.4-1.9-8.3 0-2.3.8-3.3 2.6-3.6 2.3-.3 4.2.9 4.7 2.8.4 1.6.1 3.2-.3 4.8-.1 1.6-.8 3.1-1.4 4.7z"/><path d="m653.3 919.3c-1 0-1.9-.4-2.8-.9-2.4-1.5-4.2-3.6-5.9-5.8-.2-.3-.2-.5 0-.8.9-1.6.9-1.6 2.7-1.4 2.1.2 4.1.6 6.1 1.2.6.2 1.1.4 1.6.7 1.8.8 2.6 2.2 2.3 3.5-.3 2-2.1 3.5-4 3.5z"/><path d="m637.9 910.6c.9-.3 1.5 0 1.8 1 .1.5 1.1.6.8 1.2-.2.5-.7.8-1 1.2-1.8 1.9-3.6 3.7-5.9 5-.7.4-1.3.6-2 .7s-1.4 0-1.9-.5c-2.1-1.6-2-5.1.1-6.6 1.7-1.2 3.7-1.6 5.6-1.9.7 0 1.6-.1 2.5-.1z"/><path d="m632.1 900.6c1.2 0 2.3.6 3.2 1.2 2 1.4 3.5 3.2 5 5.2.2.3.2.6-.1.8-.4.3-.7.7-.8 1.1-.1 1-.7 1-1.4.8-2.3-.4-4.6-.8-6.8-1.8-.4-.1-.7-.3-1.1-.6-1.7-1-2.3-2.2-2-3.6.5-1.5 2.4-3.1 4-3.1z"/><path d="m639 920.5c0-2.6.9-5 1.9-7.3.1-.3.2-.4.6-.3.7.2 1.4.2 2-.1.4-.2.5-.1.7.3 1.1 2.8 2.3 5.5 2.3 8.5.1 2.4-.8 3.6-2.8 3.8-2.6.2-4.4-1.2-4.7-3.5-.1-.5 0-.9 0-1.4z"/><path d="m747.5 584c.1.4.2.8.4 1.3.6 1.8 1.2 3.7 1.7 5.4v.1c-.4 0-.7.1-1.1.1-1.7.3-3.3.8-4.8 1.4-2.4 1-4.5 2.4-6.4 4.2-.8.8-1.6 1.7-2.3 2.6-.5.8-1 1.5-1.5 2.3s-.7 1.7-.9 2.6c-.4 1.5-.4 3.1-.1 4.7.4 2.2 1.5 4 3 5.6 1.3 1.2 2.8 2.2 4.4 2.9s3.4 1.1 5.2 1.2c2.5 0 4.6-.8 6.5-2.4 1.2-1.1 2.2-2.3 2.9-3.8 1.3-2.4 2.1-4.9 2.5-7.5.5-3.2.3-6.3-.7-9.4v-.1c.5-.1.9-.1 1.4-.2 1.9-.3 3.7-.6 5.6-.9h.2c.2 1.7.4 3.5.6 5.2-.9.1-1.8.3-2.7.5 0 .9.1 1.9.2 2.8 0 2.1-.1 4.1-.5 6.1-.3 1.7-.8 3.4-1.5 5-.5 1.1-1.1 2.3-1.9 3.2-.6.8-1.3 1.6-2.1 2.3-1.4 1.2-3 2.1-4.6 2.9-2 .8-4 1.4-6.2 1.4-3.3.1-6.3-.8-9.1-2.4-1.5-.8-2.7-1.9-3.8-3.2-3.2-3.6-4.7-7.6-4.4-12.5.1-2.1.6-4.1 1.6-6 .1-.2.2-.4.3-.7.3-.5.6-.9.8-1.4 0 0 .1-.1.1-.1.7-1 1.4-1.9 2.2-2.7 1.2-1.2 2.5-2.3 3.9-3.2 2-1.3 4.2-2.3 6.5-2.9h.2c-.2-.8-.5-1.6-.7-2.4 1-.4 1.9-.8 2.9-1.1.9-.4 1.5-.7 2.2-.9 0-.1 0-.1 0 0zm-14.8 15.6c.7-.7 1.3-1.4 1.9-2 .1-.1.1-.2 0-.3-.2-.4-.4-.8-.6-1.1 0 0 0-.1-.1-.1-.8.8-1.7 1.6-2.6 2.5.6.3 1 .6 1.4 1zm23.2 14.1c.5.2 1 .4 1.6.7.3-1.1.7-2.3 1-3.4-.5 0-1 0-1.5 0-.1 0-.2 0-.2.1-.1.5-.3 1-.5 1.5-.2.3-.3.8-.4 1.1zm-21.1 4.8c1 .5 2 .9 3 1.4 0-.4.1-.8.1-1.2 0-.1 0-.1-.1-.2-.7-.3-1.3-.7-1.9-1-.1-.1-.2-.1-.4-.2-.2.3-.5.7-.7 1.2zm6.4 1.7c-.1.4-.2.8-.3 1.3 1 .2 1.9.4 2.9.6 0-.6-.1-1.1-.2-1.7-.8-.1-1.6-.2-2.4-.2zm-7.7-5.2c-.4-.7-.7-1.4-1.1-2.1-.6.1-1.1.3-1.6.5.6.8 1.1 1.6 1.6 2.4.4-.3.8-.5 1.1-.8zm2.8-21.5c.4.3.8.6 1.1.8.1.1.1 0 .2 0 .5-.3 1-.5 1.5-.8.1-.1.2-.1.4-.2-.2-.4-.4-.8-.6-1.2-.8.5-1.7.9-2.6 1.4zm23.3 14.3c0-1 0-2 0-3-.5 0-.9 0-1.3.1v2.2s0 .1.1.1c.1.1.3.1.4.2.3.1.5.2.8.4zm-29.2-2.7c.2-.8.4-1.5.5-2.3-.4-.2-.8-.3-1.2-.5-.2.9-.4 1.7-.6 2.6.5.2.9.2 1.3.2zm23.3 11.8c-.6.5-1.1.9-1.6 1.4v.1c.2.3.4.6.6.9.7-.6 1.4-1.1 2.1-1.7-.4-.2-.7-.5-1.1-.7zm-22.8-6.3c-.2-.6-.5-1.2-.7-1.8 0 0 0-.1-.1-.1-.3 0-.6 0-1 0 .2.8.5 1.5.7 2.3.5-.2.8-.3 1.1-.4zm16 9.7c0 .4.1.7.1 1.1.8-.1 1.6-.3 2.4-.4-.1-.3-.3-.6-.5-.8h-.1c-.6 0-1.2.1-1.9.1z"/><path d="m783 707.6c-.5-.3-1-.6-1.5-.8-1.5-.8-2.9-1.5-4.3-2.3-1.2-.6-2.4-1.2-3.5-1.9-.9-.5-1.7-1.1-2.4-1.9-.6-.7-1-1.4-1.3-2.1s-.5-1.4-.7-2.2c-.5-2.3.4-4.5 2.3-5.6 2-1.3 4.1-1.3 6.1-.1.5.3.9.6 1.3 1 0 0 0 0 .1.1v-.1c.4-1.1 1-2.1 1.9-2.9.8-.7 1.7-1.1 2.7-1.3 1.3-.2 2.5 0 3.6.6 1 .6 1.8 1.5 2.3 2.5.3.6.4 1.3.5 1.9.1.7.2 1.4.2 2.1 0 1.1-.3 2.1-.8 3.1s-1.1 2-1.7 2.9c-.9 1.4-1.9 2.7-2.9 4.1-.7.9-1.3 1.9-1.9 2.9 0-.1 0 0 0 0z"/></g></svg>