<?xml version="1.0" encoding="utf-8"?>
<!-- Generator: Adobe Illustrator 22.1.0, SVG Export Plug-In . SVG Version: 6.00 Build 0)  -->
<svg version="1.1" id="Layer_1" xmlns="http://www.w3.org/2000/svg" xmlns:xlink="http://www.w3.org/1999/xlink" x="0px" y="0px"
	 viewBox="0 0 943.9 1000" style="enable-background:new 0 0 943.9 1000;" xml:space="preserve">
<style type="text/css">
	.st0{fill:#C76683;}
	.st1{fill:#B2B4B7;}
	.st2{fill:#7C0B2F;}
	.st3{fill:#1E4B52;}
</style>
<g>
	<path class="st0" d="M254.9,183.7l-7,10.4l4.6,11.6l-12-3.5l-9.7,7.9l-0.4-12.5l-10.5-6.8l11.7-4.2l3.2-12.1l7.7,9.9L254.9,183.7z"
		/>
	<path class="st1" d="M547.2,28.4l-9.4,8.3l1.5,12.4l-10.7-6.4l-11.3,5.2l2.8-12.2l-8.4-9.2l12.4-1.2l6.1-10.9l4.9,11.5L547.2,28.4z
		"/>
	<path class="st1" d="M122.2,596.9l-9.9,8.7l1.5,13.1l-11.3-6.7l-12,5.5l2.9-12.9l-8.9-9.7l13.2-1.2l6.4-11.5l5.2,12.1L122.2,596.9z
		"/>
	<path class="st2" d="M133,66.8c-1.1-0.6-2.2-1.2-3.3-1.8c-3.1-1.6-6.2-3.2-9.3-4.8c-2.5-1.3-5-2.5-7.5-4c-1.9-1.2-3.6-2.4-5.1-4.1
		c-1.2-1.4-2.1-2.9-2.8-4.5c-0.6-1.5-1.1-3-1.4-4.6c-1-4.8,0.9-9.5,4.9-12c4.3-2.7,8.7-2.7,13-0.2c1,0.6,1.9,1.3,2.8,2.1
		c0.1,0.1,0.1,0.1,0.2,0.2c0-0.1,0.1-0.2,0.1-0.3c0.8-2.4,2.1-4.5,4-6.2c1.7-1.5,3.6-2.4,5.8-2.8c2.7-0.5,5.3-0.1,7.7,1.3
		c2.2,1.2,3.8,3.1,4.9,5.4c0.6,1.3,0.9,2.7,1.1,4c0.3,1.5,0.4,3,0.4,4.5c-0.1,2.3-0.7,4.5-1.7,6.6c-1,2.2-2.3,4.2-3.6,6.1
		c-2,2.9-4.1,5.8-6.1,8.8c-1.4,2-2.7,4.1-4,6.1C133.1,66.7,133,66.7,133,66.8z"/>
	<path class="st0" d="M183.5,959.1l-7,10.4l4.5,11.6l-12-3.4l-9.7,7.9l-0.4-12.5l-10.5-6.8l11.7-4.2l3.2-12.1l7.7,9.9L183.5,959.1z"
		/>
	<path class="st3" d="M532,753.2c-1.1-0.6-2.2-1.2-3.3-1.8c-3.1-1.6-6.2-3.2-9.3-4.8c-2.5-1.3-5.1-2.5-7.5-4
		c-1.9-1.1-3.6-2.4-5.1-4.1c-1.2-1.4-2.1-2.9-2.8-4.5c-0.6-1.5-1.1-3-1.4-4.6c-1-4.8,0.9-9.5,4.9-12c4.3-2.7,8.7-2.7,13-0.2
		c1,0.6,1.9,1.3,2.7,2.1c0.1,0.1,0.1,0.1,0.2,0.2c0-0.1,0.1-0.2,0.1-0.3c0.8-2.4,2.1-4.5,4-6.2c1.7-1.5,3.6-2.4,5.8-2.8
		c2.7-0.5,5.3-0.1,7.7,1.3c2.2,1.2,3.8,3.1,4.9,5.4c0.6,1.3,0.9,2.7,1.1,4c0.3,1.5,0.4,3,0.4,4.5c-0.1,2.3-0.7,4.5-1.7,6.6
		c-1,2.2-2.3,4.2-3.6,6.1c-2,2.9-4.1,5.8-6.1,8.8c-1.4,2-2.7,4-4,6.1C532.1,753.1,532.1,753.2,532,753.2z"/>
	<path class="st2" d="M520.3,964.4l-9.4,8.2l1.5,12.4l-10.7-6.4l-11.3,5.2l2.7-12.2l-8.4-9.2l12.4-1.1l6.1-10.9l4.9,11.5
		L520.3,964.4z"/>
	<path class="st3" d="M219,393.3c0.9,0.2,1.8,0.5,2.8,0.7c3.9,0.9,7.9,1.9,11.9,2.9c0.1,0,0.1,0,0.2,0.1c-0.3,0.7-0.6,1.4-0.9,2.1
		c-1.3,3.3-2.2,6.8-2.7,10.4c-0.8,5.5-0.6,10.9,0.7,16.3c0.6,2.4,1.3,4.7,2.3,7c0.8,1.7,1.7,3.5,2.6,5.2c1,1.7,2.3,3.1,3.7,4.5
		c2.5,2.4,5.2,4.3,8.4,5.5c4.5,1.7,9,1.8,13.6,0.5c3.6-1,7-2.7,10.1-4.9c3.1-2.2,5.8-4.9,7.8-8.2c2.8-4.5,3.6-9.3,2.7-14.5
		c-0.6-3.4-1.9-6.5-3.7-9.5c-2.9-4.9-6.6-9.2-11-12.9c-5.3-4.4-11.3-7.5-18-9.2c-0.1,0-0.2-0.1-0.4-0.1c0.4-0.9,0.7-1.8,1.1-2.7
		c1.5-3.7,3-7.5,4.5-11.2c0.1-0.2,0.1-0.3,0.1-0.5c0,0,0,0,0.1,0c3.4,1.5,6.7,3.1,10.1,4.6c-0.7,1.9-1.4,3.7-2.1,5.5
		c1.8,0.9,3.6,1.8,5.3,2.8c3.8,2.2,7.4,4.7,10.7,7.6c2.8,2.5,5.3,5.2,7.5,8.3c1.5,2.2,2.8,4.5,3.8,7c0.8,2.1,1.6,4.2,1.9,6.4
		c0.7,3.8,0.6,7.7,0.1,11.6c-0.6,4.5-2,8.8-4.2,12.9c-3.4,6.1-8.4,10.6-14.5,13.9c-3.2,1.7-6.5,2.8-10,3.5
		c-10,1.9-19.2,0.2-27.5-5.7c-3.7-2.6-6.8-5.6-9.1-9.5c-0.3-0.4-0.6-0.9-0.8-1.3c-0.6-1.1-1.1-2.1-1.6-3.1c0-0.1-0.1-0.3-0.1-0.4
		c-1-2.3-1.9-4.6-2.5-7c-0.9-3.5-1.4-7-1.5-10.6c-0.1-5.1,0.6-10.2,1.9-15.1c0-0.1,0.1-0.2,0.1-0.4c-1.7-0.5-3.4-0.9-5-1.4
		c0.4-2.2,0.7-4.3,1.1-6.5C218.5,396.2,218.7,394.7,219,393.3C219,393.3,219,393.3,219,393.3z M231.2,437.4
		c-0.5-1.9-1.1-3.8-1.6-5.7c-0.1-0.3-0.2-0.4-0.5-0.4c-0.9,0-1.8-0.1-2.8-0.2c-0.1,0-0.2,0-0.4,0c0.6,2.5,1.1,4.9,1.7,7.4
		C228.9,438.2,230.1,437.8,231.2,437.4z M282.6,410.8c1-0.7,2-1.4,3-2.2c-1.7-1.9-3.4-3.7-5.1-5.6c-0.6,0.9-1.1,1.8-1.7,2.7
		c-0.1,0.2-0.1,0.4,0.1,0.6c0.7,0.8,1.4,1.7,2.1,2.5C281.4,409.4,282,410.1,282.6,410.8z M267.9,454.5c1.9-1.3,3.9-2.6,5.8-4
		c-0.7-0.6-1.4-1.1-2-1.6c-0.2-0.2-0.3-0.2-0.5,0c-1.3,0.8-2.6,1.6-3.9,2.4c-0.2,0.1-0.5,0.3-0.8,0.5
		C267,452.7,267.4,453.6,267.9,454.5z M278.1,444.6c0.7,0.6,1.3,1.3,1.9,1.9c1.4-1.5,2.8-3.1,4.3-4.6c-1.1-0.5-2.2-1-3.2-1.5
		C280.1,441.8,279.1,443.2,278.1,444.6z M260.4,452.9c-1.7-0.1-3.4-0.3-5-0.4c-0.3,1.1-0.7,2.3-1,3.5c2.1-0.1,4.1-0.2,6.2-0.3
		C260.5,454.8,260.4,453.9,260.4,452.9z M224.1,424.2c1-0.4,1.9-0.7,2.8-1.1c0.2-0.1,0.3-0.2,0.3-0.4c0.1-1.2,0.2-2.4,0.3-3.6
		c0-0.3,0-0.6,0.1-0.9c-1-0.1-1.9-0.2-2.8-0.3C224.5,419.9,224.3,422,224.1,424.2z M275.8,397.3c-1.9-1.1-3.7-2.1-5.5-3.2
		c-0.5,0.9-0.9,1.7-1.4,2.5c1.4,0.8,2.7,1.6,4,2.4c0.1,0.1,0.3,0,0.4,0c0.3-0.2,0.6-0.4,0.8-0.6
		C274.7,398.1,275.2,397.7,275.8,397.3z M238.8,447.9c-1.2-1.2-2.3-2.3-3.5-3.4c-0.8,0.6-1.5,1.1-2.3,1.6c1.4,1.3,2.8,2.6,4.2,3.9
		C237.8,449.2,238.3,448.5,238.8,447.9z M285.9,418.1c0.3,1.6,0.5,3.1,0.8,4.6c0,0.1,0.2,0.2,0.2,0.2c0.8,0,1.6-0.1,2.4-0.1
		c-0.3-1.9-0.5-3.8-0.8-5.7C287.6,417.5,286.8,417.8,285.9,418.1z M249.4,452.9c-1.4-0.3-2.7-0.5-4.1-0.8c-0.1,0-0.2,0-0.3,0.1
		c-0.4,0.6-0.7,1.1-1.1,1.7c1.7,0.4,3.3,0.8,5,1.2C249,454.4,249.2,453.6,249.4,452.9z M284.7,434.5c0.7,0.3,1.4,0.6,2.2,0.9
		c0.6-1.6,1.2-3.2,1.9-4.8c-0.7,0-1.4-0.1-2-0.1c-0.1,0-0.2,0.1-0.3,0.2C285.9,431.9,285.3,433.2,284.7,434.5z"/>
	<path class="st0" d="M444.2,555.6c1.1-3.3,2.6-6.5,3.5-9.9c0.8-3.3,1.5-6.7,0.6-10.2c-1.1-4.1-5.2-6.6-10.1-6
		c-3.8,0.4-5.5,2.8-5.5,7.6c-0.1,6.2,2,12,4,17.8c0.3,0.8,0.7,1,1.6,0.9c4.3-0.4,5.9,0.5,7.8,4.7c0.3,0.6,0.5,0.9,1.2,0.9
		c6,0.3,12,0.3,17.7-1.9c5.9-2.3,7.7-7.4,4.9-13c-1.3-2.6-3.4-3.8-6.4-3.3c-3.8,0.6-6.9,2.7-9.9,4.8
		C450.3,550.3,447.3,553,444.2,555.6z"/>
	<path class="st0" d="M463.5,582c3.9,0,7.8-3.3,8.7-7.5c0.7-2.9-1.1-5.6-4.9-7.4c-1.1-0.6-2.3-1-3.5-1.4c-4.2-1.4-8.6-2.1-13-2.6
		c-4-0.4-3.9-0.4-5.8,3c-0.4,0.7-0.4,1.1,0.1,1.7c3.6,4.7,7.4,9.2,12.5,12.4C459.3,581.1,461.3,582,463.5,582z"/>
	<path class="st0" d="M430.5,563.5c-1.9-0.2-3.7,0.2-5.6,0.4c-4.2,0.6-8.5,1.4-12,4c-4.5,3.3-4.5,10.7-0.1,14.1
		c1.2,0.9,2.6,1.3,4.1,1c1.5-0.3,3-0.8,4.3-1.5c4.9-2.8,8.8-6.7,12.6-10.7c0.8-0.8,1.7-1.6,2.2-2.6c0.6-1.4-1.4-1.5-1.7-2.7
		C433.8,563.5,432.4,562.9,430.5,563.5z"/>
	<path class="st0" d="M418.2,542c-3.5,0-7.6,3.4-8.5,7.1c-0.8,3,0.6,5.4,4.2,7.6c0.7,0.4,1.5,0.8,2.2,1.1c4.7,2,9.6,2.9,14.6,3.8
		c1.6,0.3,2.8,0.3,3-1.9c0.1-0.9,0.8-1.8,1.6-2.4c0.7-0.6,0.8-1,0.2-1.7c-3.1-4.1-6.3-8.1-10.6-11
		C422.9,543.2,420.7,542.1,418.2,542z"/>
	<path class="st0" d="M432.8,584.6c0,0.9-0.1,1.8,0,2.7c0.5,4.9,4.4,7.8,10,7.4c4.2-0.3,6.1-2.7,6-8c-0.2-6.4-2.6-12.3-5-18.2
		c-0.3-0.8-0.6-0.9-1.4-0.6c-1.4,0.7-2.9,0.7-4.3,0.3c-0.8-0.2-1,0.1-1.2,0.6C434.7,574,432.8,579,432.8,584.6z"/>
	<path class="st0" d="M444.2,555.6c3.1-2.7,6.1-5.4,9.3-7.7c3.1-2.2,6.1-4.3,9.9-4.8c2.9-0.4,5.1,0.7,6.4,3.3
		c2.8,5.7,0.9,10.8-4.9,13c-5.7,2.2-11.7,2.3-17.7,1.9c-0.7,0-0.9-0.3-1.2-0.9c-1.9-4.1-3.5-5.1-7.8-4.7c-0.9,0.1-1.3-0.1-1.6-0.9
		c-2.1-5.8-4.1-11.5-4-17.8c0.1-4.8,1.8-7.1,5.5-7.6c4.9-0.6,9,1.9,10.1,6c0.9,3.5,0.2,6.8-0.6,10.2
		C446.8,549.1,445.3,552.3,444.2,555.6z"/>
	<path class="st0" d="M463.5,582c-2.2,0.1-4.1-0.8-5.9-1.9c-5.1-3.2-8.9-7.7-12.5-12.4c-0.4-0.6-0.5-1-0.1-1.7
		c1.9-3.4,1.9-3.4,5.8-3c4.4,0.5,8.7,1.2,13,2.6c1.2,0.4,2.4,0.9,3.5,1.4c3.8,1.8,5.6,4.6,4.9,7.4C471.2,578.7,467.4,582,463.5,582z
		"/>
	<path class="st0" d="M430.5,563.5c1.9-0.6,3.3,0,3.8,2.1c0.3,1.1,2.3,1.3,1.7,2.7c-0.4,1-1.4,1.7-2.2,2.6c-3.8,4-7.7,7.9-12.6,10.7
		c-1.4,0.8-2.8,1.3-4.3,1.5c-1.5,0.3-2.9-0.1-4.1-1c-4.4-3.4-4.3-10.8,0.1-14.1c3.6-2.6,7.8-3.4,12-4
		C426.7,563.6,428.5,563.3,430.5,563.5z"/>
	<path class="st0" d="M418.2,542c2.5,0.1,4.8,1.2,6.8,2.6c4.3,3,7.5,6.9,10.6,11c0.5,0.7,0.4,1.2-0.2,1.7c-0.8,0.6-1.5,1.5-1.6,2.4
		c-0.2,2.2-1.4,2.1-3,1.9c-5-0.8-9.9-1.8-14.6-3.8c-0.8-0.3-1.5-0.7-2.2-1.1c-3.7-2.2-5-4.6-4.2-7.6
		C410.6,545.4,414.7,542,418.2,542z"/>
	<path class="st0" d="M432.8,584.6c0.1-5.5,1.9-10.6,4-15.6c0.2-0.6,0.5-0.9,1.2-0.6c1.4,0.4,2.9,0.4,4.3-0.3
		c0.8-0.4,1.1-0.2,1.4,0.6c2.4,5.9,4.8,11.7,5,18.2c0.2,5.3-1.8,7.7-6,8c-5.5,0.4-9.4-2.5-10-7.4
		C432.7,586.4,432.8,585.5,432.8,584.6z"/>
	<path class="st2" d="M52.4,731.7c0.3,0.9,0.5,1.8,0.8,2.7c1.2,3.9,2.4,7.8,3.7,11.6c0,0.1,0,0.1,0,0.2c-0.8,0.1-1.5,0.2-2.3,0.3
		c-3.6,0.6-7,1.6-10.3,3c-5.1,2.2-9.6,5.2-13.6,9c-1.7,1.7-3.4,3.6-4.8,5.6c-1.1,1.6-2.1,3.2-3.1,4.9s-1.5,3.6-1.9,5.5
		c-0.8,3.3-0.9,6.7-0.3,10c0.9,4.7,3.1,8.6,6.6,11.9c2.8,2.6,5.9,4.6,9.4,6.1c3.5,1.5,7.2,2.4,11,2.5c5.3,0,9.8-1.7,13.8-5.2
		c2.6-2.3,4.6-5,6.2-8c2.7-5.1,4.5-10.4,5.3-16c1.1-6.8,0.6-13.5-1.4-20.1c0-0.1-0.1-0.2-0.1-0.3c1-0.2,1.9-0.3,2.9-0.5
		c4-0.7,7.9-1.3,11.9-2c0.2,0,0.3-0.1,0.5-0.1c0,0,0.1,0,0.1,0c0.4,3.7,0.8,7.4,1.3,11.1c-2,0.3-3.9,0.7-5.8,1c0.1,2,0.3,4,0.4,6
		c0.1,4.4-0.2,8.8-1,13.1c-0.7,3.7-1.7,7.3-3.3,10.7c-1.1,2.4-2.4,4.8-4,6.9c-1.3,1.8-2.8,3.5-4.5,5c-2.9,2.6-6.3,4.5-9.8,6.1
		c-4.2,1.8-8.6,2.9-13.2,3c-7,0.2-13.4-1.8-19.4-5.2c-3.1-1.8-5.8-4.1-8.2-6.8c-6.8-7.6-10.1-16.3-9.4-26.6
		c0.3-4.4,1.3-8.7,3.5-12.7c0.2-0.5,0.4-0.9,0.7-1.4c0.6-1,1.2-2,1.8-3c0.1-0.1,0.2-0.2,0.3-0.3c1.4-2.1,3-4,4.7-5.8
		c2.5-2.6,5.3-4.9,8.3-6.8c4.3-2.8,9-4.8,13.9-6.2c0.1,0,0.2-0.1,0.4-0.1c-0.5-1.7-0.9-3.4-1.4-5c2.1-0.8,4.1-1.6,6.1-2.4
		c1.4-0.6,2.7-1.1,4.1-1.6C52.3,731.7,52.3,731.7,52.4,731.7L52.4,731.7z M20.9,765c1.4-1.5,2.7-2.9,4-4.3c0.2-0.2,0.2-0.4,0.1-0.6
		c-0.4-0.8-0.9-1.6-1.3-2.4c-0.1-0.1-0.1-0.2-0.2-0.3c-1.8,1.8-3.6,3.5-5.5,5.3C19,763.4,19.9,764.2,20.9,765z M70.2,795.1
		c1.1,0.5,2.2,0.9,3.4,1.4c0.7-2.4,1.5-4.9,2.2-7.3c-1.1,0-2.1,0-3.2-0.1c-0.3,0-0.4,0.1-0.5,0.3c-0.3,1-0.7,2.1-1.1,3.1
		C70.8,793.5,70.5,794.3,70.2,795.1z M25.2,805.2c2.1,1,4.2,1.9,6.4,2.9c0.1-0.9,0.2-1.7,0.3-2.5c0-0.2,0-0.3-0.2-0.5
		c-1.4-0.7-2.7-1.4-4-2.1c-0.3-0.2-0.5-0.3-0.8-0.4C26.3,803.5,25.8,804.3,25.2,805.2z M39,808.8c-0.2,0.9-0.4,1.8-0.7,2.7
		c2.1,0.4,4.1,0.9,6.2,1.3c-0.1-1.2-0.2-2.4-0.4-3.6C42.4,809.1,40.7,809,39,808.8z M22.7,797.9c-0.8-1.5-1.5-3-2.3-4.5
		c-1.2,0.3-2.3,0.6-3.5,1c1.2,1.7,2.3,3.4,3.5,5.1C21.1,799,21.9,798.5,22.7,797.9z M28.5,752c0.8,0.6,1.6,1.2,2.3,1.8
		c0.2,0.2,0.3,0.1,0.5,0c1.1-0.6,2.2-1.1,3.2-1.6c0.3-0.2,0.5-0.3,0.8-0.4c-0.4-0.9-0.8-1.7-1.2-2.6C32.3,750.2,30.5,751.1,28.5,752
		z M78.3,782.4c0-2.2-0.1-4.2-0.1-6.4c-1,0.1-1.9,0.1-2.9,0.2c0,1.6,0,3.1,0.1,4.6c0,0.1,0.1,0.2,0.2,0.3c0.3,0.2,0.6,0.3,0.9,0.4
		C77,781.8,77.6,782.1,78.3,782.4z M15.9,776.9c0.4-1.6,0.8-3.2,1.1-4.8c-0.9-0.4-1.7-0.7-2.6-1.1c-0.4,1.9-0.8,3.7-1.2,5.6
		C14.2,776.7,15,776.8,15.9,776.9z M65.7,801.8c-1.2,1-2.4,2-3.5,3c-0.1,0.1-0.1,0.2-0.1,0.3c0.4,0.7,0.9,1.3,1.3,2
		c1.5-1.2,2.9-2.4,4.4-3.6C67.1,802.9,66.4,802.4,65.7,801.8z M17,788.5c-0.5-1.3-1-2.6-1.5-3.9c0-0.1-0.1-0.2-0.2-0.2
		c-0.7,0-1.3-0.1-2.1-0.1c0.5,1.7,1,3.3,1.5,4.9C15.6,789,16.3,788.7,17,788.5z M51.1,809.3c0.1,0.8,0.2,1.5,0.3,2.3
		c1.7-0.3,3.4-0.6,5.1-0.9c-0.3-0.6-0.7-1.2-1-1.8c0-0.1-0.2-0.1-0.3-0.1C53.8,808.9,52.5,809.1,51.1,809.3z"/>
	<g>
		<path class="st0" d="M52.3,377.9c1.1-3.3,2.6-6.5,3.5-9.9c0.8-3.3,1.5-6.7,0.6-10.2c-1.1-4.1-5.2-6.6-10.1-6
			c-3.8,0.4-5.5,2.8-5.5,7.6c-0.1,6.2,2,12,4,17.7c0.3,0.8,0.7,1,1.6,0.9c4.3-0.4,5.9,0.5,7.8,4.7c0.3,0.6,0.5,0.9,1.2,0.9
			c6,0.3,12,0.3,17.7-1.9c5.8-2.3,7.7-7.4,4.9-13c-1.3-2.6-3.4-3.8-6.4-3.3c-3.8,0.6-6.9,2.7-9.9,4.8
			C58.4,372.5,55.4,375.3,52.3,377.9z"/>
		<path class="st0" d="M71.6,404.3c3.9,0,7.8-3.3,8.7-7.5c0.7-2.9-1.1-5.6-4.9-7.4c-1.1-0.6-2.3-1-3.5-1.4c-4.2-1.4-8.6-2.1-13-2.6
			c-4-0.4-3.9-0.4-5.8,3c-0.4,0.7-0.4,1.1,0.1,1.7c3.6,4.7,7.4,9.2,12.5,12.4C67.4,403.4,69.3,404.3,71.6,404.3z"/>
		<path class="st0" d="M38.6,385.8c-1.9-0.2-3.8,0.2-5.6,0.4c-4.2,0.6-8.5,1.4-12,4c-4.4,3.3-4.5,10.7-0.1,14.1
			c1.2,0.9,2.6,1.3,4.1,1c1.5-0.3,3-0.8,4.3-1.5c4.9-2.8,8.8-6.7,12.6-10.7c0.8-0.8,1.7-1.6,2.2-2.6c0.6-1.4-1.4-1.5-1.7-2.6
			C41.9,385.7,40.4,385.2,38.6,385.8z"/>
		<path class="st0" d="M26.3,364.3c-3.4,0-7.6,3.4-8.5,7.1c-0.8,3,0.6,5.5,4.2,7.6c0.7,0.4,1.5,0.8,2.2,1.2c4.7,2,9.6,2.9,14.6,3.8
			c1.6,0.3,2.8,0.3,3-1.8c0.1-1,0.8-1.8,1.6-2.4c0.7-0.6,0.8-1.1,0.2-1.8c-3.1-4.1-6.3-8.1-10.6-11C31,365.5,28.8,364.4,26.3,364.3z
			"/>
		<path class="st0" d="M40.9,406.9c0,0.9-0.1,1.8,0,2.7c0.5,4.9,4.5,7.8,10,7.4c4.2-0.3,6.1-2.7,6-8c-0.2-6.4-2.6-12.3-5-18.2
			c-0.3-0.8-0.6-0.9-1.4-0.6c-1.4,0.7-2.9,0.7-4.3,0.3c-0.8-0.2-1,0.1-1.2,0.6C42.8,396.3,40.9,401.3,40.9,406.9z"/>
		<path class="st0" d="M52.3,377.9c3.1-2.7,6.1-5.4,9.3-7.7c3.1-2.2,6.1-4.3,9.9-4.8c2.9-0.4,5.1,0.7,6.4,3.3
			c2.8,5.7,0.9,10.8-4.9,13c-5.7,2.2-11.7,2.3-17.7,1.9c-0.7-0.1-0.9-0.3-1.2-0.9c-1.9-4.1-3.5-5.1-7.8-4.7
			c-0.9,0.1-1.3-0.1-1.6-0.9c-2.1-5.8-4.1-11.5-4-17.7c0.1-4.8,1.8-7.1,5.5-7.6c4.9-0.6,9,1.9,10.1,6c0.9,3.5,0.2,6.8-0.6,10.2
			C54.9,371.4,53.4,374.6,52.3,377.9z"/>
		<path class="st0" d="M71.6,404.3c-2.2,0.1-4.1-0.8-5.9-1.9c-5.1-3.2-8.9-7.7-12.5-12.4c-0.4-0.6-0.5-1-0.1-1.7
			c1.9-3.4,1.9-3.4,5.8-3c4.4,0.5,8.7,1.2,13,2.6c1.2,0.4,2.4,0.9,3.5,1.4c3.8,1.8,5.6,4.6,4.9,7.4C79.3,401,75.5,404.3,71.6,404.3z
			"/>
		<path class="st0" d="M38.6,385.8c1.9-0.6,3.3,0,3.8,2.1c0.3,1.1,2.3,1.3,1.7,2.6c-0.4,1-1.4,1.7-2.2,2.6c-3.8,4-7.7,7.9-12.6,10.7
			c-1.4,0.8-2.8,1.3-4.3,1.5c-1.5,0.3-2.9-0.1-4.1-1c-4.4-3.4-4.3-10.8,0.1-14.1c3.6-2.6,7.8-3.4,12-4
			C34.8,385.9,36.6,385.6,38.6,385.8z"/>
		<path class="st0" d="M26.3,364.3c2.5,0.1,4.8,1.2,6.8,2.6c4.3,3,7.5,6.9,10.6,11c0.5,0.7,0.4,1.2-0.2,1.8
			c-0.8,0.6-1.5,1.5-1.6,2.4c-0.2,2.2-1.4,2.1-3,1.8c-5-0.8-9.9-1.8-14.6-3.8c-0.8-0.3-1.5-0.7-2.2-1.2c-3.7-2.2-5-4.6-4.2-7.6
			C18.7,367.7,22.8,364.3,26.3,364.3z"/>
		<path class="st0" d="M40.9,406.9c0.1-5.5,1.9-10.6,4-15.6c0.2-0.6,0.5-0.9,1.2-0.6c1.4,0.4,2.9,0.4,4.3-0.3
			c0.8-0.4,1.1-0.2,1.4,0.6c2.4,5.9,4.8,11.7,5,18.2c0.2,5.3-1.8,7.7-6,8c-5.5,0.4-9.4-2.5-10-7.4C40.8,408.7,40.9,407.8,40.9,406.9
			z"/>
		<path class="st0" d="M889.6,183.7l-7,10.3l4.6,11.6l-12-3.5l-9.7,7.9l-0.4-12.5l-10.5-6.7l11.7-4.3l3.2-12.1l7.7,9.9L889.6,183.7z
			"/>
	</g>
	<path class="st1" d="M913.5,490.8l-9.4,8.2l1.4,12.4l-10.7-6.4l-11.3,5.2l2.8-12.2l-8.4-9.2l12.4-1.1l6.1-10.9l4.9,11.5
		L913.5,490.8z"/>
	<path class="st1" d="M756.9,596.9l-9.9,8.7l1.5,13.1l-11.3-6.7l-12,5.5l2.9-12.9l-8.9-9.7l13.2-1.2l6.4-11.5l5.2,12.1L756.9,596.9z
		"/>
	<path class="st2" d="M767.7,66.8c-1.1-0.6-2.2-1.2-3.3-1.8c-3.1-1.6-6.2-3.2-9.3-4.8c-2.5-1.3-5-2.5-7.5-4
		c-1.9-1.1-3.6-2.4-5.1-4.1c-1.2-1.4-2.1-2.9-2.8-4.6c-0.6-1.5-1.1-3-1.4-4.6c-1-4.8,0.9-9.5,4.9-12c4.3-2.7,8.7-2.7,13-0.2
		c1,0.6,1.9,1.3,2.8,2.1c0.1,0,0.1,0.1,0.2,0.2c0-0.1,0.1-0.2,0.1-0.3c0.8-2.4,2.1-4.5,4-6.2c1.7-1.5,3.6-2.4,5.8-2.8
		c2.7-0.5,5.3-0.1,7.7,1.3c2.2,1.2,3.8,3.1,4.9,5.4c0.6,1.3,0.9,2.7,1.1,4c0.3,1.5,0.4,3,0.3,4.5c-0.1,2.3-0.7,4.5-1.7,6.6
		c-1,2.2-2.3,4.2-3.6,6.1c-2,2.9-4.1,5.8-6.1,8.8c-1.4,2-2.7,4.1-4,6.1C767.8,66.7,767.7,66.7,767.7,66.8z"/>
	<path class="st0" d="M308,642.3l-7,10.4l4.5,11.6l-12-3.5l-9.7,7.9l-0.4-12.5l-10.5-6.8l11.7-4.2l3.2-12.1l7.7,9.9L308,642.3z"/>
	<path class="st3" d="M900.4,842c-1.1-0.6-2.2-1.2-3.3-1.8c-3.1-1.6-6.2-3.2-9.3-4.8c-2.5-1.3-5-2.5-7.5-4c-1.9-1.2-3.6-2.4-5.1-4.1
		c-1.2-1.4-2.1-2.9-2.8-4.6c-0.6-1.5-1.1-3-1.4-4.5c-1-4.8,0.9-9.5,4.9-12c4.3-2.7,8.7-2.7,13-0.2c1,0.6,1.9,1.3,2.8,2.1l0.2,0.2
		c0-0.1,0.1-0.2,0.1-0.3c0.8-2.4,2.1-4.6,4-6.3c1.7-1.5,3.6-2.4,5.8-2.8c2.7-0.5,5.3-0.1,7.7,1.3c2.2,1.2,3.8,3.1,4.9,5.4
		c0.6,1.3,0.9,2.7,1.1,4c0.3,1.5,0.4,3,0.4,4.5c-0.1,2.3-0.7,4.5-1.7,6.6c-1,2.1-2.3,4.2-3.6,6.1c-2,2.9-4.1,5.8-6.1,8.8
		c-1.4,2-2.7,4.1-4,6.1C900.5,841.9,900.5,842,900.4,842z"/>
	<path class="st2" d="M427.4,304.7L418,313l1.5,12.4l-10.7-6.4l-11.4,5.2l2.8-12.2l-8.4-9.2l12.4-1.2l6.1-10.9l4.9,11.5L427.4,304.7
		z"/>
	<path class="st3" d="M785,344c0.9,0.2,1.8,0.5,2.8,0.7c4,1,7.9,1.9,11.9,2.9c0,0,0.1,0,0.2,0.1c-0.3,0.7-0.6,1.4-0.9,2.1
		c-1.3,3.3-2.2,6.8-2.7,10.4c-0.8,5.5-0.6,10.9,0.7,16.3c0.6,2.4,1.3,4.7,2.3,6.9c0.8,1.7,1.7,3.5,2.6,5.2s2.3,3.1,3.7,4.5
		c2.5,2.4,5.2,4.3,8.4,5.5c4.5,1.7,9,1.8,13.5,0.5c3.7-1,7-2.7,10.1-4.9c3.1-2.2,5.8-4.9,7.8-8.1c2.7-4.5,3.6-9.3,2.7-14.5
		c-0.6-3.4-1.9-6.5-3.7-9.5c-2.9-4.9-6.6-9.2-11-12.9c-5.3-4.4-11.3-7.5-18-9.2c-0.1,0-0.2-0.1-0.3-0.1c0.4-0.9,0.7-1.8,1.1-2.7
		c1.5-3.7,3-7.5,4.5-11.2c0.1-0.2,0.1-0.3,0.1-0.5c0,0,0,0,0.1,0c3.4,1.5,6.7,3.1,10.1,4.6c-0.7,1.9-1.5,3.7-2.1,5.5
		c1.8,0.9,3.6,1.8,5.3,2.8c3.8,2.2,7.4,4.7,10.7,7.6c2.8,2.5,5.3,5.2,7.5,8.3c1.5,2.2,2.8,4.5,3.8,7c0.8,2.1,1.5,4.2,1.9,6.4
		c0.7,3.8,0.6,7.7,0.1,11.6c-0.6,4.6-2,8.8-4.2,12.9c-3.4,6.1-8.4,10.6-14.5,13.9c-3.1,1.7-6.5,2.8-10,3.5
		c-10,1.9-19.2,0.2-27.6-5.7c-3.6-2.6-6.8-5.6-9.1-9.5c-0.3-0.5-0.6-0.9-0.8-1.3c-0.6-1-1.1-2.1-1.6-3.1c0-0.1-0.1-0.3-0.1-0.4
		c-1.1-2.3-1.9-4.6-2.5-7c-0.9-3.5-1.4-7-1.5-10.6c-0.2-5.1,0.6-10.2,1.9-15.1c0-0.1,0.1-0.2,0.1-0.4c-1.7-0.5-3.4-0.9-5-1.4
		c0.4-2.2,0.7-4.3,1.1-6.5C784.5,346.9,784.7,345.4,785,344C785,344,785,344,785,344z M797.2,388.1c-0.5-1.9-1.1-3.8-1.6-5.7
		c-0.1-0.3-0.2-0.4-0.5-0.4c-0.9,0-1.8-0.1-2.8-0.2c-0.1,0-0.2,0-0.3,0c0.6,2.5,1.1,4.9,1.7,7.4
		C794.9,388.9,796.1,388.5,797.2,388.1z M848.6,361.5c1-0.7,2-1.4,3-2.1c-1.7-1.9-3.4-3.7-5.1-5.6c-0.6,0.9-1.1,1.8-1.7,2.7
		c-0.2,0.2-0.1,0.4,0,0.6c0.7,0.8,1.4,1.7,2.1,2.5C847.4,360.1,848,360.8,848.6,361.5z M833.9,405.2c1.9-1.3,3.9-2.6,5.8-4
		c-0.7-0.6-1.4-1.1-2-1.6c-0.2-0.2-0.3-0.2-0.5,0c-1.3,0.8-2.6,1.6-3.9,2.3c-0.3,0.2-0.5,0.3-0.8,0.5
		C833,403.4,833.4,404.2,833.9,405.2z M844.1,395.3c0.7,0.6,1.3,1.3,1.9,1.9c1.5-1.5,2.9-3.1,4.3-4.6c-1.1-0.5-2.2-1-3.2-1.5
		C846.1,392.5,845.1,393.9,844.1,395.3z M826.3,403.6c-1.7-0.1-3.4-0.3-5.1-0.4c-0.3,1.2-0.7,2.3-1,3.5c2.1-0.1,4.1-0.2,6.2-0.3
		C826.5,405.5,826.4,404.6,826.3,403.6z M790.1,374.9c1-0.4,1.9-0.7,2.8-1.1c0.2-0.1,0.3-0.2,0.3-0.4c0.1-1.2,0.2-2.4,0.3-3.6
		c0-0.3,0.1-0.6,0.1-0.9c-1-0.1-1.9-0.2-2.8-0.3C790.5,370.6,790.3,372.7,790.1,374.9z M841.8,348c-1.9-1.1-3.7-2.1-5.5-3.2
		c-0.5,0.9-0.9,1.7-1.3,2.5c1.4,0.8,2.7,1.6,4,2.4c0.1,0.1,0.3,0,0.4,0c0.3-0.2,0.6-0.4,0.8-0.6C840.7,348.8,841.2,348.4,841.8,348z
		 M804.8,398.5c-1.2-1.2-2.3-2.3-3.5-3.4c-0.8,0.5-1.5,1.1-2.3,1.6c1.4,1.3,2.8,2.6,4.2,3.9C803.8,399.9,804.3,399.2,804.8,398.5z
		 M851.9,368.8c0.3,1.6,0.5,3.1,0.8,4.6c0,0.1,0.2,0.2,0.2,0.2c0.8,0,1.6-0.1,2.4-0.1c-0.3-1.9-0.5-3.8-0.8-5.7
		C853.6,368.2,852.8,368.5,851.9,368.8z M815.4,403.5c-1.4-0.3-2.7-0.5-4.1-0.8c-0.1,0-0.2,0-0.3,0.1c-0.4,0.6-0.7,1.1-1.1,1.7
		c1.7,0.4,3.3,0.8,5,1.2C815,405,815.2,404.3,815.4,403.5z M850.7,385.2c0.7,0.3,1.4,0.6,2.2,0.9c0.6-1.6,1.2-3.2,1.9-4.8
		c-0.7,0-1.4-0.1-2-0.1c-0.1,0-0.2,0.1-0.2,0.2C851.9,382.6,851.3,383.9,850.7,385.2z"/>
	<path class="st0" d="M881.9,664.5c1.1-3.3,2.6-6.5,3.5-9.9c0.8-3.3,1.5-6.7,0.6-10.2c-1.1-4.1-5.2-6.6-10.1-6
		c-3.8,0.4-5.5,2.8-5.5,7.6c-0.1,6.2,2,12,4,17.8c0.3,0.8,0.7,1,1.6,0.9c4.3-0.4,5.9,0.5,7.8,4.7c0.3,0.6,0.5,0.9,1.2,0.9
		c6,0.3,12,0.3,17.6-1.9c5.9-2.3,7.7-7.4,4.9-13c-1.3-2.7-3.4-3.8-6.4-3.3c-3.8,0.6-6.9,2.7-9.9,4.8
		C888,659.1,885,661.9,881.9,664.5L881.9,664.5z"/>
	<path class="st0" d="M901.2,690.9c3.9,0,7.8-3.3,8.7-7.5c0.7-2.9-1.1-5.6-4.9-7.4c-1.1-0.6-2.3-1-3.5-1.4c-4.2-1.4-8.6-2.2-13-2.6
		c-4-0.4-3.9-0.4-5.8,3c-0.4,0.7-0.4,1.1,0.1,1.7c3.6,4.7,7.4,9.2,12.5,12.4C897.1,690,899,690.9,901.2,690.9z"/>
	<path class="st0" d="M868.2,672.4c-1.9-0.2-3.8,0.2-5.6,0.4c-4.2,0.6-8.5,1.4-12,4c-4.5,3.3-4.5,10.7-0.1,14.1
		c1.2,0.9,2.6,1.3,4.1,1c1.5-0.3,3-0.8,4.3-1.5c4.9-2.8,8.8-6.7,12.6-10.7c0.8-0.8,1.7-1.6,2.2-2.6c0.6-1.4-1.4-1.5-1.7-2.6
		C871.5,672.3,870.1,671.8,868.2,672.4z"/>
	<path class="st0" d="M855.9,650.9c-3.5,0-7.6,3.4-8.5,7.1c-0.8,3,0.6,5.4,4.2,7.6c0.7,0.4,1.5,0.8,2.2,1.1c4.7,2,9.6,2.9,14.6,3.8
		c1.6,0.3,2.8,0.3,3-1.9c0.1-0.9,0.8-1.8,1.6-2.4c0.7-0.6,0.8-1,0.2-1.8c-3.1-4.1-6.3-8.1-10.6-11C860.6,652,858.4,651,855.9,650.9z
		"/>
	<path class="st0" d="M870.5,693.4c0,0.9-0.1,1.8,0,2.7c0.5,4.9,4.5,7.8,10,7.4c4.2-0.3,6.1-2.7,6-8c-0.2-6.4-2.6-12.3-5-18.2
		c-0.3-0.8-0.6-0.9-1.4-0.6c-1.4,0.7-2.9,0.7-4.3,0.3c-0.8-0.2-1,0.1-1.2,0.6C872.5,682.9,870.6,687.9,870.5,693.4z"/>
	<path class="st0" d="M881.9,664.5c3.1-2.7,6.1-5.4,9.3-7.7c3.1-2.2,6.1-4.3,9.9-4.8c2.9-0.4,5.1,0.7,6.4,3.3
		c2.8,5.7,0.9,10.8-4.9,13c-5.7,2.2-11.7,2.3-17.6,1.9c-0.7,0-0.9-0.3-1.2-0.9c-1.9-4.1-3.5-5.1-7.8-4.7c-0.9,0.1-1.3-0.1-1.6-0.9
		c-2-5.8-4.1-11.5-4-17.8c0.1-4.8,1.8-7.1,5.5-7.6c4.9-0.6,9,1.9,10.1,6c0.9,3.5,0.2,6.8-0.6,10.2C884.5,658,883,661.2,881.9,664.5
		L881.9,664.5z"/>
	<path class="st0" d="M901.2,690.9c-2.2,0.1-4.1-0.8-5.9-1.9c-5.1-3.2-8.9-7.7-12.5-12.4c-0.4-0.6-0.4-1-0.1-1.7
		c1.9-3.4,1.9-3.4,5.8-3c4.4,0.5,8.7,1.2,13,2.6c1.2,0.4,2.4,0.9,3.5,1.4c3.8,1.8,5.6,4.6,4.9,7.4
		C908.9,687.6,905.1,690.9,901.2,690.9z"/>
	<path class="st0" d="M868.2,672.4c1.9-0.6,3.3,0,3.8,2.1c0.3,1.1,2.3,1.3,1.7,2.6c-0.4,1-1.4,1.7-2.2,2.6c-3.8,4-7.7,7.9-12.6,10.7
		c-1.4,0.8-2.8,1.3-4.3,1.5c-1.5,0.3-2.9-0.1-4.1-1c-4.4-3.4-4.3-10.8,0.1-14.1c3.6-2.6,7.8-3.4,12-4
		C864.5,672.5,866.3,672.2,868.2,672.4z"/>
	<path class="st0" d="M855.9,650.9c2.5,0.1,4.8,1.1,6.8,2.6c4.3,3,7.5,6.9,10.6,11c0.5,0.7,0.4,1.2-0.2,1.8
		c-0.8,0.6-1.5,1.5-1.6,2.4c-0.2,2.2-1.4,2.1-3,1.9c-5-0.8-9.9-1.8-14.6-3.8c-0.8-0.3-1.5-0.7-2.2-1.1c-3.7-2.2-5-4.6-4.2-7.6
		C848.3,654.3,852.4,650.9,855.9,650.9z"/>
	<path class="st0" d="M870.5,693.4c0.1-5.5,2-10.6,4-15.6c0.2-0.6,0.5-0.9,1.2-0.6c1.4,0.4,2.9,0.4,4.3-0.3c0.8-0.4,1.1-0.2,1.4,0.6
		c2.4,5.9,4.8,11.7,5,18.2c0.2,5.2-1.8,7.7-6,8c-5.5,0.4-9.4-2.5-10-7.4C870.4,695.3,870.5,694.4,870.5,693.4z"/>
	<path class="st2" d="M687.1,813.3c0.3,0.9,0.5,1.8,0.8,2.7c1.2,3.9,2.5,7.8,3.7,11.6c0,0,0,0.1,0,0.2c-0.8,0.1-1.5,0.2-2.3,0.3
		c-3.6,0.6-7,1.6-10.3,3c-5.1,2.2-9.6,5.2-13.6,9c-1.8,1.7-3.4,3.6-4.8,5.6c-1.1,1.6-2.1,3.2-3.1,4.9c-0.9,1.7-1.5,3.6-1.9,5.5
		c-0.8,3.3-0.9,6.7-0.3,10c0.8,4.7,3.1,8.6,6.6,11.9c2.8,2.6,5.9,4.6,9.4,6.1c3.5,1.5,7.2,2.4,11,2.5c5.3,0,9.9-1.7,13.8-5.2
		c2.6-2.3,4.6-5,6.2-8c2.7-5.1,4.5-10.4,5.3-16c1.1-6.8,0.6-13.5-1.4-20.1c0-0.1-0.1-0.2-0.1-0.3c1-0.2,1.9-0.3,2.9-0.5
		c4-0.7,7.9-1.3,11.9-2c0.2,0,0.3-0.1,0.5-0.1c0,0,0,0,0.1,0c0.4,3.7,0.8,7.4,1.3,11.1c-2,0.3-3.9,0.7-5.8,1c0.1,2,0.3,4,0.4,6
		c0.1,4.4-0.2,8.8-1,13.1c-0.7,3.7-1.7,7.3-3.2,10.7c-1.1,2.4-2.4,4.7-4,6.9c-1.3,1.8-2.8,3.5-4.5,5c-2.9,2.6-6.3,4.5-9.8,6.1
		c-4.2,1.8-8.6,2.9-13.2,3c-7,0.2-13.4-1.8-19.4-5.2c-3.1-1.8-5.8-4.1-8.2-6.8c-6.8-7.5-10.1-16.3-9.4-26.5
		c0.3-4.5,1.3-8.7,3.4-12.7c0.2-0.4,0.4-0.9,0.7-1.4c0.6-1,1.2-2,1.8-3c0.1-0.1,0.2-0.2,0.3-0.3c1.4-2.1,3-4,4.7-5.8
		c2.5-2.6,5.3-4.9,8.3-6.8c4.3-2.8,9-4.8,13.9-6.2c0.1,0,0.2-0.1,0.4-0.1c-0.5-1.7-0.9-3.4-1.4-5c2.1-0.8,4.1-1.6,6.1-2.4
		c1.4-0.5,2.7-1.1,4.1-1.6C687,813.3,687,813.3,687.1,813.3L687.1,813.3z M655.6,846.6c1.4-1.5,2.7-2.9,4-4.3
		c0.2-0.2,0.2-0.4,0.1-0.6c-0.4-0.8-0.9-1.6-1.3-2.4c-0.1-0.1-0.1-0.2-0.2-0.3c-1.8,1.8-3.6,3.5-5.5,5.3
		C653.7,845.1,654.6,845.9,655.6,846.6z M704.9,876.8c1.1,0.5,2.2,0.9,3.4,1.4c0.7-2.4,1.5-4.8,2.2-7.3c-1.1,0-2.1,0-3.2,0
		c-0.3,0-0.4,0.1-0.5,0.3c-0.3,1-0.7,2.1-1.1,3.1C705.5,875.1,705.2,876,704.9,876.8z M660,886.9c2.1,1,4.2,1.9,6.4,2.9
		c0.1-0.9,0.2-1.7,0.3-2.5c0-0.2,0-0.3-0.2-0.5c-1.4-0.7-2.7-1.4-4-2.1c-0.3-0.1-0.5-0.3-0.8-0.4C661,885.1,660.5,886,660,886.9z
		 M673.7,890.5c-0.2,0.9-0.4,1.8-0.7,2.7c2.1,0.4,4.1,0.9,6.2,1.3c-0.1-1.2-0.3-2.4-0.4-3.6C677.1,890.8,675.4,890.6,673.7,890.5z
		 M657.4,879.6c-0.8-1.5-1.5-3-2.3-4.5c-1.2,0.3-2.3,0.6-3.5,0.9c1.2,1.7,2.3,3.4,3.5,5.1C655.8,880.6,656.6,880.1,657.4,879.6z
		 M663.2,833.7c0.8,0.6,1.6,1.2,2.3,1.8c0.2,0.2,0.3,0.1,0.5,0.1c1.1-0.6,2.2-1.1,3.2-1.6c0.3-0.1,0.5-0.3,0.8-0.4
		c-0.4-0.9-0.8-1.7-1.2-2.6C667.1,831.8,665.2,832.7,663.2,833.7z M713,864c0-2.2-0.1-4.2-0.1-6.4c-1,0.1-1.9,0.1-2.8,0.2
		c0,1.6,0,3.1,0.1,4.6c0,0.1,0.1,0.2,0.2,0.3c0.3,0.2,0.6,0.3,0.9,0.4C711.7,863.5,712.3,863.7,713,864z M650.6,858.5
		c0.4-1.6,0.8-3.2,1.1-4.8c-0.9-0.4-1.7-0.8-2.6-1.1c-0.4,1.9-0.8,3.7-1.2,5.6C648.9,858.3,649.7,858.4,650.6,858.5z M700.4,883.5
		c-1.2,1-2.4,2-3.5,3.1c-0.1,0.1-0.1,0.2-0.1,0.3c0.4,0.6,0.9,1.3,1.3,2c1.5-1.2,2.9-2.4,4.4-3.6C701.8,884.6,701.1,884,700.4,883.5
		z M651.8,870.1c-0.5-1.3-1-2.6-1.5-3.9c0-0.1-0.1-0.2-0.2-0.2c-0.7,0-1.3-0.1-2-0.1c0.5,1.7,1,3.3,1.5,4.9
		C650.3,870.6,651,870.4,651.8,870.1z M685.8,890.9c0.1,0.8,0.2,1.5,0.3,2.3c1.7-0.3,3.4-0.6,5.1-0.9c-0.3-0.6-0.7-1.2-1-1.8
		c0-0.1-0.2-0.1-0.3-0.1C688.6,890.6,687.2,890.8,685.8,890.9z"/>
	<path class="st0" d="M285.9,821.4c1.1-3.3,2.6-6.5,3.5-9.9c0.8-3.3,1.5-6.7,0.6-10.2c-1.1-4.1-5.2-6.6-10.1-6
		c-3.8,0.4-5.5,2.8-5.5,7.6c-0.1,6.2,2,12,4,17.7c0.3,0.8,0.7,1,1.6,0.9c4.3-0.4,5.9,0.5,7.8,4.7c0.3,0.6,0.5,0.9,1.2,0.9
		c6,0.3,12,0.3,17.6-1.9c5.8-2.3,7.7-7.4,4.9-13c-1.3-2.6-3.4-3.8-6.4-3.3c-3.8,0.6-6.9,2.7-9.9,4.8C292,816,289,818.7,285.9,821.4
		L285.9,821.4z"/>
	<path class="st0" d="M305.1,847.7c3.9,0,7.8-3.3,8.7-7.5c0.7-2.9-1.1-5.6-4.9-7.4c-1.1-0.6-2.3-1-3.5-1.4c-4.2-1.4-8.6-2.2-13-2.6
		c-4-0.4-3.9-0.4-5.8,3c-0.4,0.7-0.4,1.1,0.1,1.7c3.6,4.7,7.4,9.2,12.5,12.4C301,846.9,302.9,847.8,305.1,847.7z"/>
	<path class="st0" d="M272.2,829.2c-1.9-0.2-3.8,0.2-5.6,0.4c-4.2,0.6-8.5,1.4-12,4c-4.5,3.3-4.5,10.7-0.2,14.1
		c1.2,0.9,2.6,1.3,4.1,1c1.5-0.3,3-0.8,4.3-1.5c4.9-2.8,8.8-6.7,12.6-10.7c0.8-0.8,1.7-1.6,2.2-2.6c0.6-1.4-1.4-1.5-1.7-2.6
		C275.5,829.2,274.1,828.7,272.2,829.2L272.2,829.2z"/>
	<path class="st0" d="M259.9,807.8c-3.5,0-7.6,3.4-8.5,7.1c-0.8,3,0.6,5.5,4.2,7.6c0.7,0.4,1.5,0.8,2.3,1.2c4.7,2,9.6,2.9,14.6,3.8
		c1.6,0.3,2.8,0.3,3-1.8c0.1-1,0.8-1.8,1.6-2.4c0.7-0.6,0.8-1,0.2-1.7c-3.1-4.1-6.3-8.1-10.6-11
		C264.6,808.9,262.4,807.9,259.9,807.8z"/>
	<path class="st0" d="M274.5,850.3c0,0.9-0.1,1.8,0,2.7c0.5,4.9,4.5,7.8,10,7.4c4.2-0.3,6.1-2.7,6-8c-0.2-6.4-2.6-12.3-5-18.2
		c-0.3-0.8-0.6-0.9-1.4-0.6c-1.4,0.7-2.9,0.7-4.3,0.3c-0.8-0.2-1,0.1-1.2,0.6C276.4,839.7,274.5,844.8,274.5,850.3z"/>
	<path class="st0" d="M285.9,821.4c3.1-2.7,6.1-5.4,9.4-7.7c3-2.2,6.1-4.3,9.9-4.8c2.9-0.4,5.1,0.7,6.4,3.3c2.8,5.7,0.9,10.8-4.9,13
		c-5.7,2.2-11.7,2.3-17.6,1.9c-0.7,0-0.9-0.3-1.2-0.9c-1.9-4.1-3.5-5.1-7.8-4.7c-0.9,0.1-1.3-0.1-1.6-0.9c-2-5.8-4.1-11.5-4-17.7
		c0.1-4.8,1.8-7.1,5.5-7.6c4.9-0.6,9,1.9,10.1,6c0.9,3.5,0.2,6.8-0.6,10.2C288.5,814.9,287,818,285.9,821.4L285.9,821.4z"/>
	<path class="st0" d="M305.1,847.7c-2.2,0.1-4.1-0.8-5.9-1.9c-5.1-3.2-8.9-7.7-12.5-12.4c-0.4-0.6-0.4-1-0.1-1.7
		c1.9-3.4,1.9-3.4,5.8-3c4.4,0.4,8.8,1.2,13,2.6c1.2,0.4,2.4,0.9,3.5,1.4c3.8,1.8,5.6,4.6,4.9,7.4
		C312.9,844.5,309.1,847.7,305.1,847.7z"/>
	<path class="st0" d="M272.2,829.2c1.9-0.6,3.3,0,3.8,2.1c0.3,1.1,2.3,1.3,1.7,2.6c-0.4,1-1.4,1.7-2.2,2.6c-3.8,4-7.7,7.9-12.6,10.7
		c-1.4,0.8-2.8,1.3-4.3,1.5c-1.5,0.3-2.9-0.1-4.1-1c-4.4-3.4-4.3-10.8,0.2-14.1c3.6-2.6,7.8-3.4,12-4
		C268.4,829.4,270.2,829,272.2,829.2L272.2,829.2z"/>
	<path class="st0" d="M259.9,807.8c2.5,0.1,4.8,1.2,6.8,2.6c4.3,3,7.5,6.9,10.6,11c0.5,0.7,0.4,1.2-0.2,1.7
		c-0.8,0.6-1.5,1.5-1.6,2.4c-0.2,2.2-1.4,2.1-3,1.8c-5-0.8-9.9-1.8-14.6-3.8c-0.8-0.3-1.5-0.7-2.3-1.2c-3.7-2.2-5-4.6-4.2-7.6
		C252.3,811.2,256.4,807.8,259.9,807.8z"/>
	<path class="st0" d="M274.5,850.3c0.1-5.5,2-10.6,4-15.6c0.2-0.6,0.5-0.9,1.2-0.6c1.4,0.4,2.9,0.4,4.3-0.3c0.8-0.4,1.1-0.2,1.4,0.6
		c2.4,5.9,4.8,11.7,5,18.2c0.2,5.2-1.8,7.7-6,8c-5.5,0.4-9.4-2.5-10-7.4C274.4,852.2,274.5,851.2,274.5,850.3z"/>
	<path class="st2" d="M505.8,132.7c0.3,0.9,0.5,1.8,0.8,2.7c1.2,3.9,2.5,7.8,3.7,11.6c0,0,0,0.1,0,0.2c-0.8,0.1-1.5,0.2-2.3,0.3
		c-3.6,0.6-7,1.6-10.3,3c-5.1,2.2-9.6,5.2-13.6,9c-1.8,1.7-3.4,3.6-4.8,5.6c-1.1,1.6-2.1,3.2-3.1,4.9c-1,1.7-1.5,3.6-1.9,5.5
		c-0.8,3.3-0.9,6.7-0.3,10c0.8,4.7,3.1,8.6,6.5,11.9c2.8,2.6,5.9,4.6,9.4,6.1c3.5,1.5,7.2,2.4,11,2.5c5.3,0,9.8-1.7,13.8-5.2
		c2.6-2.3,4.6-5,6.2-8c2.7-5.1,4.5-10.4,5.3-16c1.1-6.8,0.6-13.5-1.4-20.1c0-0.1-0.1-0.2-0.1-0.3c1-0.2,1.9-0.3,2.9-0.5
		c4-0.7,7.9-1.3,11.9-2c0.2,0,0.3-0.1,0.5-0.1c0,0,0.1,0,0.1,0c0.4,3.7,0.8,7.4,1.3,11.1c-2,0.3-3.9,0.7-5.8,1c0.1,2,0.3,4,0.4,6
		c0.1,4.4-0.2,8.8-1,13.1c-0.7,3.7-1.7,7.3-3.2,10.7c-1.1,2.4-2.4,4.8-4,6.9c-1.3,1.8-2.8,3.5-4.5,5c-2.9,2.6-6.3,4.5-9.8,6.1
		c-4.2,1.8-8.6,2.9-13.2,3c-7,0.2-13.4-1.7-19.4-5.2c-3.1-1.8-5.8-4.1-8.2-6.8c-6.8-7.6-10.1-16.3-9.3-26.6
		c0.3-4.4,1.3-8.7,3.4-12.7c0.2-0.5,0.4-0.9,0.7-1.4c0.6-1,1.2-2,1.8-3c0.1-0.1,0.2-0.2,0.3-0.3c1.4-2.1,3-4,4.7-5.8
		c2.5-2.6,5.3-4.9,8.3-6.8c4.3-2.8,9-4.8,13.9-6.2c0.1,0,0.2-0.1,0.4-0.1c-0.5-1.7-1-3.4-1.4-5.1c2.1-0.8,4.1-1.6,6.1-2.4
		c1.4-0.5,2.7-1.1,4.1-1.6C505.8,132.6,505.8,132.6,505.8,132.7L505.8,132.7z M474.3,166c1.4-1.5,2.7-2.9,4-4.3
		c0.2-0.2,0.2-0.4,0.1-0.6c-0.4-0.8-0.9-1.6-1.3-2.4c-0.1-0.1-0.1-0.2-0.2-0.3c-1.8,1.8-3.6,3.5-5.5,5.3
		C472.5,164.4,473.4,165.2,474.3,166z M523.7,196.1c1.1,0.5,2.2,0.9,3.4,1.4c0.7-2.4,1.5-4.9,2.2-7.3c-1.1,0-2.1,0-3.2-0.1
		c-0.3,0-0.4,0.1-0.5,0.3c-0.3,1-0.7,2.1-1.1,3.1C524.3,194.4,524,195.3,523.7,196.1z M478.7,206.2c2.1,1,4.2,1.9,6.4,2.9
		c0.1-0.9,0.2-1.7,0.3-2.5c0-0.2,0-0.3-0.2-0.5c-1.4-0.7-2.7-1.4-4-2.1c-0.3-0.2-0.5-0.3-0.8-0.4
		C479.8,204.4,479.3,205.3,478.7,206.2z M492.5,209.8c-0.2,0.9-0.4,1.8-0.7,2.7c2.1,0.4,4.1,0.9,6.2,1.3c-0.1-1.2-0.2-2.4-0.4-3.6
		C495.9,210.1,494.2,209.9,492.5,209.8z M476.1,198.9c-0.8-1.5-1.5-3-2.3-4.5c-1.2,0.3-2.3,0.6-3.5,1c1.2,1.7,2.3,3.4,3.5,5.1
		C474.6,199.9,475.4,199.4,476.1,198.9z M482,153c0.8,0.6,1.6,1.2,2.3,1.8c0.2,0.2,0.3,0.1,0.5,0c1.1-0.6,2.2-1.1,3.2-1.6
		c0.3-0.2,0.5-0.3,0.8-0.4c-0.4-0.9-0.8-1.7-1.2-2.6C485.8,151.1,484,152,482,153z M531.7,183.4c0-2.2-0.1-4.2-0.1-6.4
		c-1,0.1-1.9,0.1-2.8,0.2c0,1.6,0,3.1,0.1,4.6c0,0.1,0.1,0.2,0.2,0.3c0.3,0.2,0.6,0.3,0.9,0.4C530.5,182.8,531.1,183.1,531.7,183.4z
		 M469.4,177.8c0.4-1.6,0.8-3.2,1.1-4.8c-0.9-0.4-1.7-0.7-2.6-1.1c-0.4,1.9-0.8,3.7-1.2,5.6C467.7,177.6,468.5,177.7,469.4,177.8z
		 M519.1,202.8c-1.2,1-2.4,2-3.5,3c-0.1,0.1-0.1,0.2-0.1,0.3c0.4,0.7,0.9,1.3,1.3,2c1.5-1.2,2.9-2.4,4.4-3.6
		C520.6,203.9,519.9,203.3,519.1,202.8z M470.5,189.4c-0.5-1.3-1-2.6-1.5-3.9c0-0.1-0.1-0.2-0.2-0.2c-0.7,0-1.3-0.1-2.1-0.1
		c0.5,1.7,1,3.3,1.5,4.9C469.1,189.9,469.8,189.7,470.5,189.4z M504.6,210.2c0.1,0.8,0.2,1.5,0.3,2.3c1.7-0.3,3.4-0.6,5.1-0.9
		c-0.3-0.6-0.7-1.2-1-1.8c0-0.1-0.2-0.1-0.3-0.1C507.3,209.9,506,210.1,504.6,210.2z"/>
	<path class="st2" d="M581.5,396.2c-1.1-0.6-2.2-1.2-3.3-1.8c-3.1-1.6-6.2-3.2-9.2-4.8c-2.5-1.3-5.1-2.5-7.5-4
		c-1.9-1.1-3.6-2.4-5.1-4.1c-1.2-1.4-2.1-2.9-2.8-4.5c-0.6-1.5-1.1-3-1.4-4.6c-1-4.8,0.9-9.5,4.9-12c4.3-2.7,8.7-2.7,13-0.2
		c1,0.6,1.9,1.3,2.7,2.1c0.1,0.1,0.1,0.1,0.2,0.2c0-0.1,0.1-0.2,0.1-0.3c0.8-2.4,2.1-4.5,4-6.2c1.7-1.5,3.6-2.4,5.8-2.8
		c2.7-0.5,5.3-0.1,7.7,1.2c2.2,1.3,3.8,3.1,4.9,5.4c0.6,1.3,0.9,2.7,1.1,4c0.3,1.5,0.4,3,0.4,4.5c-0.1,2.3-0.7,4.5-1.7,6.6
		c-1,2.2-2.3,4.2-3.6,6.1c-2,2.9-4.1,5.8-6.1,8.8c-1.4,2-2.7,4.1-4,6.1C581.6,396.1,581.5,396.2,581.5,396.2z"/>
</g>
</svg>
