<svg viewBox="0 0 50 50" xmlns="http://www.w3.org/2000/svg"><path d="m25.3 45.25c-.93-.87-1.83-1.73-2.75-2.55q-3.89-3.47-7.82-6.91c-2.13-1.87-4.29-3.7-6.26-5.74a22.16 22.16 0 0 1 -3.94-5.24 16.33 16.33 0 0 1 -1.63-5.11 24 24 0 0 1 -.29-4.78 11.28 11.28 0 0 1 7.67-10.46c4.84-1.6 9.09-.48 12.73 3a14 14 0 0 1 2.14 2.71c0 .07.08.12.15.22l.15-.26a14.05 14.05 0 0 1 5.42-5.1 11.9 11.9 0 0 1 6.37-1.23 11.45 11.45 0 0 1 7.13 3.1 11.32 11.32 0 0 1 3.44 6.48 16.94 16.94 0 0 1 .11 4.21 19.46 19.46 0 0 1 -.76 4.46 17.12 17.12 0 0 1 -3.26 6 42 42 0 0 1 -5 5.06c-2.67 2.36-5.37 4.68-8 7-1.82 1.61-3.6 3.28-5.4 4.93z" fill="#c8858f"/></svg>