<svg enable-background="new 0 0 250 250" viewBox="0 0 250 250" xmlns="http://www.w3.org/2000/svg"><path d="m69.7 56.1c.8-1 1.7-1.8 2.8-2.5s2.2-1.2 3.4-1.6c1.2-.3 2.4-.5 3.6-.4s2.4.4 3.5 1 1.7 1.4 1.7 2.7c0 .2-.1.3-.3.3s-.3-.1-.3-.3c0-.9-.4-1.6-1.3-2.1-.9-.4-1.9-.7-2.9-.6-1 0-2.1.2-3.1.6s-1.9.9-2.7 1.5-1.4 1.3-1.8 2c1.9-.5 3.8-.7 5.6-.5s3.5.7 5 1.5 2.8 1.9 3.8 3.3 1.7 3 2.1 5c.5 2.5.4 4.7-.3 6.7-.6 1.9-1.7 3.6-3.1 4.9s-3.2 2.3-5.3 2.9c-2.1.7-4.4 1-6.8.9.2 1.2.2 2.6.2 3.9 0 1.4-.1 2.8-.2 4.2s-.2 2.9-.2 4.3c-.1 1.5 0 2.9.1 4.3 0 .8.2 1.6.3 2.5.2.9.5 1.7.9 2.4s.9 1.3 1.6 1.6c.7.4 1.5.4 2.6.1s2.3-.9 3.5-1.8c1.3-.9 2.6-1.9 3.9-3.2 1.3-1.2 2.7-2.6 4-4 1.3-1.5 2.5-2.9 3.7-4.4 1.1-1.4 2.2-2.8 3.1-4.1s1.6-2.4 2.1-3.3c.1-.2.3-.2.5-.2.2.1.3.3.2.5-.5.9-1.3 2.1-2.2 3.4s-1.9 2.7-3.1 4.1-2.4 2.9-3.7 4.4-2.7 2.8-4 4.1-2.7 2.3-4 3.2-2.5 1.5-3.6 1.8c-.8.2-1.6.3-2.4.3s-1.7-.2-2.5-.6c-1.2-.5-2.2-1.3-2.8-2.3s-1-2.3-1.2-3.8l-.1-.7c-.1-1.5-.1-2.9-.1-4.4.1-1.5.1-2.9.2-4.4s.2-2.9.2-4.3 0-2.8-.1-4.2c-1-.3-1.8-.7-2.3-1.1s-.9-.9-1.1-1.3c-.3-.6-.3-1.2 0-1.8.2-.5.7-.9 1.4-1 .6-.1 1.2-.1 1.8.1s1.1.5 1.5.9.8.9 1.1 1.6c.3.6.6 1.4.8 2.4.7 0 1.6-.1 2.6-.2s1.8-.4 2.5-.6c1.5-.6 2.8-1.4 3.9-2.6 1.1-1.1 1.9-2.4 2.5-3.9.6-1.4.9-3 .9-4.5 0-1.6-.2-3.1-.8-4.5-.6-1.7-1.6-3.2-2.9-4.5s-2.9-2.2-4.8-2.6c-1.7-.4-3.5-.3-5.3.3-1.1 2.4-2.2 5.1-3.2 8.3s-2 6.5-3.1 9.9-2.2 6.9-3.5 10.3c-1.3 3.5-2.7 6.7-4.4 9.6s-3.6 5.5-5.7 7.6c-2.2 2.1-4.7 3.6-7.6 4.4-1.9.5-3.8.7-5.7.6s-3.8-.6-5.5-1.4c-1.2-.6-2.2-1.4-3.1-2.4s-1.4-2.2-1.5-3.5c0-.2.1-.3.3-.3s.3.1.3.3c.1 1.2.5 2.3 1.4 3.2.8.9 1.8 1.6 2.9 2.1 1.9.9 3.6 1.4 5.2 1.4s3.4-.4 5.2-1.2c2.1-.9 4-2.2 5.7-3.8 1.6-1.7 3.1-3.6 4.4-5.7s2.4-4.5 3.4-7 1.9-5.1 2.8-7.7 1.6-5.2 2.3-7.8 1.4-5 2.2-7.3c.7-2.3 1.5-4.4 2.3-6.3.7-1.9 1.6-3.5 2.6-4.7zm-2.5 22.1c.2.4.4.7.9 1.1.4.3 1 .6 1.9.9-.1-.9-.3-1.6-.5-2.1s-.4-.9-.7-1.2-.5-.4-.8-.4c-.2 0-.4.1-.6.3s-.3.4-.3.7c-.1.1 0 .4.1.7z" fill="#003941"/><path d="m107.4 80.5c.2-.1.5-.2.9-.2s.9.3 1.4.9c.7.9 1.1 2.5 1.2 4.8.1 2.2 0 4.8-.2 7.8 1.6-1.6 3-3.2 4-4.9 1.1-1.6 1.9-3.1 2.4-4.5l.2-.3c.1-.1.3-.2.5-.2.3 0 .3.1.1.5-.7 1.7-1.6 3.4-2.8 5.1s-2.7 3.5-4.6 5.3c-.2 1.7-.5 3.4-.8 5.4-.3 1.9-.8 3.9-1.3 5.8-.5 2-1.2 3.9-1.9 5.8-.8 1.9-1.7 3.7-2.6 5.3-1 1.6-2.1 3.1-3.4 4.3-1.3 1.3-2.7 2.2-4.3 2.9-1.2.5-2.3.8-3.3.7-1 0-1.8-.3-2.4-.8s-1.1-1.2-1.4-2c-.3-.9-.3-1.9 0-3 .5-2.5 1.3-4.8 2.6-6.9s2.8-4.1 4.5-6 3.5-3.7 5.5-5.3c1.9-1.7 3.8-3.2 5.6-4.7.2-.9.3-1.7.4-2.6s.2-1.8.3-2.6c-.3.5-.7 1-1.2 1.5-.4.5-.9.9-1.4 1.3s-1.1.6-1.7.8-1.2.2-1.8 0c-1.2-.4-2-1.2-2.5-2.5s-.8-2.7-.9-4.2 0-3 .2-4.4.5-2.5.8-3.3c.1-.3.4-.5.7-.6.4-.1.7-.1 1.1 0s.7.2 1 .3c.3.2.4.4.3.6-.2 1.4-.3 2.6-.4 3.6s-.2 2.1-.2 3.3 0 2.2.2 3.1.5 1.6 1 2 1.1.4 2-.1c.5-.3 1.1-.7 1.6-1.2s1-1 1.3-1.5c.2-1.6.2-3.2.1-4.8 0-1.5-.3-3-.8-4.5zm-.3 16.8c-.1.1-.1.1-.2.2s-.1.1-.2.1c-1.8 1.4-3.6 3-5.4 4.6s-3.5 3.4-5.1 5.2-2.9 3.7-4.1 5.7c-1.1 2-1.9 4.1-2.3 6.2-.1.8-.1 1.5 0 2.2s.3 1.3.6 1.7c.3.5.8.7 1.4.9.6.1 1.3 0 2.2-.4 1.4-.6 2.7-1.5 3.8-2.7s2.1-2.5 3-4 1.6-3.1 2.3-4.8 1.3-3.4 1.8-5.2c.5-1.7 1-3.5 1.3-5.1s.6-3.2.9-4.6z" fill="#003941"/><path d="m138.8 86.8c-.8 1.3-1.7 2.6-2.6 4-1 1.4-2.1 2.5-3.3 3.5-.7.6-1.4 1-2.2 1.3s-1.6.2-2.3-.4c-1-.6-1.6-1.8-1.9-3.6-.3-1.7-.1-3.7.4-5.9-.5.7-1.1 1.3-1.9 1.9s-1.6 1-2.4 1.2-1.6.3-2.4.1-1.5-.7-2.1-1.6c-.5-.7-.7-1.4-.8-2.3 0-.8.1-1.6.3-2.4.3-.8.6-1.6 1.1-2.3s1-1.4 1.5-1.9c.7-.6 1.4-1.1 2.2-1.5s1.6-.6 2.4-.8c.8-.1 1.7 0 2.5.2s1.6.7 2.3 1.4c.2-.5.5-.9.9-1s.8-.2 1.2-.1.7.2 1 .5c.3.2.3.5.3.6l-.5 1.3c-.3.9-.7 2-1.1 3.2s-.8 2.5-1.1 3.7c-.3 1.3-.6 2.5-.8 3.7s-.2 2.2-.1 3.1c.1.6.2 1.1.5 1.4.2.3.5.4.8.4s.6-.1 1-.2c.3-.2.7-.4 1-.6 1.2-.9 2.2-2 3.2-3.4s1.9-2.7 2.6-4l1.1-2s.1-.1.1-.1 0-.1.1-.2.2-.1.5-.2c.3 0 .3.1.1.4zm-9.5-8.2c-.7-.8-1.3-1.3-2-1.5s-1.3-.1-2 .2c-.6.3-1.2.7-1.8 1.3s-1.1 1.2-1.5 1.8c-.7 1.1-1.2 2.2-1.4 3.4-.3 1.5-.2 2.6.2 3.3s1 1 1.8.9 1.6-.5 2.5-1.3 1.7-1.8 2.5-3.2c.5-1.8 1.1-3.5 1.7-4.9z" fill="#003941"/><path d="m149 95.2c-.7-.7-1-1.7-1.2-2.9-.1-1.3-.1-2.6.1-4.1.2-1.4.4-2.9.8-4.3.3-1.4.6-2.7.8-3.8s.3-1.8.3-2.3-.3-.5-.9 0-1.2 1.4-1.9 2.6-1.4 2.5-2.1 4c-.7 1.4-1.3 2.8-1.9 4.2s-1 2.5-1.2 3.2c0 0 0 .1-.1.2-.2.1-.3.1-.5-.1-.6-.6-1-1.1-1.3-1.6s-.5-1-.6-1.4c-.1-.5-.1-.9-.1-1.4s.1-1 .2-1.6.2-1.2.2-1.9c.1-.7.2-1.4.3-2.1s.2-1.4.3-2.1.2-1.3.4-1.9c.1-.4.4-.6.7-.7.4-.1.7-.1 1.1 0s.7.2 1 .5c.3.2.4.5.3.8s-.2.8-.3 1.5c-.1.6-.2 1.3-.3 2.1s-.2 1.6-.3 2.4-.2 1.6-.3 2.2l-.3 1.9c.5-1.2 1-2.6 1.6-3.9.6-1.4 1.2-2.7 2-4 .5-.9 1.1-1.9 1.7-2.8s1.4-1.6 2.3-2.2c1-.6 1.9-.8 2.6-.4s1.1 1.2 1.1 2.5c0 .6-.1 1.3-.2 2s-.2 1.4-.4 2c-.1.6-.3 1.2-.4 1.7s-.2.8-.3 1c-.1.4-.3 1-.5 1.9s-.4 1.8-.6 2.8-.3 2-.4 2.9c-.1 1 0 1.7.2 2.3s.6.9 1.2.8c.6 0 1.4-.5 2.5-1.4 1.2-1 2.2-2.2 3.2-3.4.9-1.3 1.7-2.6 2.5-4 .2-.3.4-.6.6-1s.4-.7.6-1l.2-.3c0-.1.2-.2.5-.2s.3.1.2.5l-1.4 2.5c-.8 1.4-1.6 2.7-2.6 4-.9 1.3-2 2.5-3.2 3.5-.4.4-.9.7-1.4 1s-1 .6-1.5.7-1 .2-1.6.1c-.8-.2-1.2-.5-1.7-1z" fill="#003941"/><path d="m139.9 124.5c.4.8.7 1.5.9 2.3.3 1.1.5 2.1.6 3.2.1 1 .1 2.1-.1 3-.2 1-.4 1.9-.7 2.7-.6 1.6-1.4 2.8-2.4 3.7-.6.5-1.2.9-2 1.2-.8.4-1.6.6-2.5.8.7.9 1.4 1.7 2.2 2.4s1.7 1.3 2.6 1.9c.9.5 1.7.8 2.5 1l.8.2c.8.2 1.6.2 2.3.1s1.4-.3 2-.6l.4.3.4.3c-1.2.6-2.5.8-4 .6l-.8-.1c-.1 0-.1 0-.2 0h-.1c-1.9-.4-3.6-1.1-5.2-2.2-1.6-1-3-2.3-4.3-3.7-.9.1-1.8.1-2.9 0-1-.1-2-.3-3-.6s-2.1-.8-3.1-1.4c-1.1-.6-2.1-1.4-3.1-2.3-1.7-1.5-2.8-2.9-3.5-4.4-.6-1.4-.9-2.8-.9-4.1.1-1.3.4-2.4.9-3.5.6-1.1 1.2-1.9 1.9-2.7s1.5-1.4 2.2-1.9 1.6-1 2.5-1.5c.1-1.3.2-2.8.5-4.5.2-1.7.5-3.3.9-5 .4-1.6.8-3.2 1.4-4.7s1.3-2.7 2-3.7c.8-1 1.7-1.6 2.7-2 1-.3 2.2-.2 3.6.4l.3.1c.9.5 1.7 1.3 2.3 2.4.4.9.7 1.7.8 2.6s0 1.7-.2 2.6c-.2.8-.5 1.6-1 2.4-.4.8-.9 1.5-1.4 2.2s-1.1 1.3-1.6 1.8-1.1 1-1.6 1.4l-1.3.9c-.5.3-1.1.7-1.6 1s-1.1.6-1.7.9c-.1 1.6-.2 3.3-.2 5.1s.2 3.6.6 5.5 1 3.8 1.8 5.8 2 4 3.6 6.1c1.1-.2 2.1-.6 2.9-1s1.5-.9 2-1.5c.9-1 1.5-2.2 2-3.7.2-.8.4-1.6.5-2.5s.1-1.8 0-2.7-.3-1.9-.6-2.8c-.2-.7-.5-1.4-.8-2zm-8.3 16.5c-1.5-1.8-2.8-3.6-3.9-5.4s-2-3.6-2.6-5.3c-.7-1.7-1.1-3.4-1.4-5s-.4-3.2-.3-4.7c-1.8 1.2-3.2 2.5-4 4s-1.2 3-1.2 4.5.3 3.1 1 4.5c.7 1.5 1.6 2.8 2.9 3.9 1.2 1.1 2.7 2 4.3 2.7 1.5.7 3.3 1 5.2.8zm3-40.2c-.8-.3-1.5-.4-2.1-.1s-1.2.8-1.7 1.6-.9 1.7-1.3 2.9-.7 2.4-1 3.8-.5 2.7-.7 4.2c-.2 1.4-.3 2.8-.4 4.1.7-.4 1.4-.8 2.1-1.2s1.4-.9 2-1.4c.6-.6 1.4-1.3 2.2-2.1.8-.9 1.5-1.9 2.1-2.9.6-1.1.9-2.2 1.1-3.4.1-1.2-.1-2.4-.7-3.6-.4-.9-.9-1.5-1.6-1.9z" fill="#c8858f"/><path d="m65.4 194.8c2.6-.6 5.2-1.7 7.7-3.3 2.6-1.6 5-3.4 7.2-5.5 2.3-2.1 4.3-4.3 6.1-6.7s3.2-4.8 4.2-7c.1-.3.2-.3.5-.2.2.1.3.2.2.5-1 2.3-2.5 4.7-4.3 7.2-1.8 2.4-3.9 4.7-6.1 6.9-2.3 2.1-4.7 4-7.4 5.6-2.6 1.6-5.3 2.7-7.9 3.3-2.9.7-5.3.9-7.4.4-2-.4-3.8-1.3-5.1-2.5-1.4-1.2-2.4-2.8-3.1-4.6s-1.1-3.8-1.3-5.9-.1-4.3.1-6.5c.3-2.2.7-4.3 1.4-6.2 1-3 2.4-6 4.1-8.9s3.7-5.5 5.9-7.9c-1.6.5-3.1 1.2-4.6 1.9-1.5.8-2.9 1.7-4.2 2.7-1.3 1.1-2.4 2.3-3.4 3.6-1 1.4-1.7 3-2.3 4.8-.1.2-.2.2-.5.2-.2 0-.3-.1-.2-.4.6-2 1.5-3.7 2.6-5.2s2.4-2.8 3.8-3.9 3-2.1 4.6-2.8c1.7-.8 3.4-1.4 5.2-2 2.1-2.1 4.2-3.7 6.4-4.9s4.2-2 6.1-2.5 3.7-.7 5.2-.6c1.6.1 2.8.3 3.8.7.9.4 1.5.9 1.7 1.6.2.6-.2 1.3-1.1 1.9-.3.3-.9.5-1.8.7-.8.2-1.9.4-3 .6s-2.4.4-3.7.6-2.6.4-3.8.6-2.4.4-3.4.5c-1 .2-1.9.3-2.5.4-2.7 2.4-5 5.3-7 8.5s-3.6 6.5-4.7 9.9c-.5 1.6-.9 3.4-1.3 5.6-.4 2.1-.5 4.3-.4 6.5s.5 4.3 1.2 6.2c.7 2 1.9 3.6 3.5 4.9 1.2 1 2.7 1.5 4.2 1.7 1.8 0 3.3-.2 4.8-.5zm6.4-47.5c-1.8.9-3.6 2.1-5.5 3.7.9-.2 2.1-.3 3.8-.6 1.7-.2 3.4-.5 5.2-.7 1.8-.3 3.4-.5 4.9-.8s2.4-.6 2.9-.9c.9-.6 1.1-1.1.6-1.6s-1.3-.7-2.5-.9c-1.2-.1-2.7-.1-4.4.2-1.8.3-3.5.8-5 1.6z" fill="#003941"/><path d="m100.1 183.4c-.7-.7-1-1.7-1.2-2.9-.1-1.3-.1-2.6.1-4.1.2-1.4.4-2.9.8-4.3.3-1.4.6-2.7.8-3.8s.3-1.8.3-2.3-.3-.5-.9 0-1.2 1.4-1.9 2.6-1.4 2.5-2.1 4c-.7 1.4-1.3 2.8-1.9 4.2s-1 2.5-1.2 3.2c0 0 0 .1-.1.2-.2.1-.3.1-.5-.1-.6-.6-1-1.2-1.3-1.7s-.5-1-.6-1.5-.1-1-.1-1.5.1-1.1.2-1.7c.4-2.9.8-6 1.4-9.1.5-3.2 1.3-6.3 2.1-9.3.9-3.1 2-6 3.4-8.8s3.1-5.3 5.2-7.5c1.4-1.5 2.9-2.5 4.4-3s2.8-.6 3.9-.2 1.8 1.2 2.2 2.5.2 3-.6 5.1c-.5 1.5-1.2 3.1-2.1 4.7-.8 1.6-1.8 3.3-2.8 4.9-1.1 1.7-2.2 3.3-3.3 4.9-1.2 1.6-2.3 3.1-3.5 4.5s-2.3 2.6-3.4 3.7-2.1 2-3 2.7l-.8 6.1-.3 1.9c.5-1.2 1-2.6 1.6-3.9.6-1.4 1.2-2.7 2-4 .5-.9 1.1-1.9 1.7-2.8s1.4-1.6 2.3-2.2c1-.6 1.9-.8 2.6-.4s1.1 1.2 1.1 2.5c0 .6-.1 1.3-.2 2s-.2 1.4-.4 2c-.1.6-.3 1.2-.4 1.7s-.2.8-.3 1c-.1.4-.3 1-.5 1.9s-.4 1.8-.6 2.8-.3 2-.4 2.9c-.1 1 0 1.7.2 2.3s.6.9 1.2.8c.6 0 1.4-.5 2.5-1.4 1.2-1 2.2-2.2 3.2-3.4.9-1.3 1.7-2.6 2.5-3.9.2-.3.4-.6.6-1s.4-.7.6-1l.2-.3c0-.1.2-.2.5-.2s.3.1.2.5l-1.4 2.5c-.8 1.4-1.6 2.7-2.6 4-.9 1.3-2 2.5-3.2 3.5-.4.4-.9.7-1.4 1s-1 .6-1.5.7-1 .2-1.6.1c-.7-.2-1.2-.5-1.7-1.1zm-5.6-15.7c1.3-1 2.7-2.5 4.4-4.4s3.4-4 5-6.3c1.7-2.3 3.2-4.6 4.6-7.1s2.5-4.8 3.2-6.9c.6-1.8.8-3.3.6-4.4s-.7-1.8-1.5-2.1-1.7-.2-2.9.4c-1.1.5-2.3 1.5-3.4 2.9-1 1.2-1.9 2.5-2.7 4.1-.8 1.5-1.6 3.2-2.3 4.9-.7 1.8-1.3 3.5-1.9 5.4-.5 1.8-1 3.6-1.5 5.4-.4 1.8-.8 3.4-1.1 5s-.5 2.9-.7 4.1z" fill="#003941"/><path d="m117.5 180.2c-.1-1.1-.1-2.3.1-3.6s.5-2.6.8-3.8.7-2.4 1.1-3.4c.4-1.1.7-1.9.9-2.4.3-.6.5-1.1.6-1.6.1-.4.1-.9-.1-1.3-.1-.4-.4-.9-.8-1.4s-1-1-1.7-1.7c-.3.9-.6 1.9-.9 2.8s-.7 1.8-1.1 2.8-.9 2-1.5 3.1-1.1 2.1-1.6 3.2l-.2.3c-.1.1-.2.2-.4.1s-.3-.2-.2-.4c.6-1.1 1.1-2.2 1.7-3.3s1.1-2.2 1.5-3.3c.4-.9.8-1.9 1.2-2.9s.7-1.9.9-2.8c-.6-.6-1.1-1.3-1.5-2.2-.4-.8-.5-1.7-.2-2.5.2-.6.6-1 1.1-1.1s1 0 1.4.6c.3.3.4.7.5 1.3 0 .6 0 1.2-.1 2 .6.5 1.2 1 1.9 1.5s1.3.9 1.9 1.5c.6.5 1 1.1 1.3 1.8s.3 1.5.1 2.4c-.3 1.3-.8 2.8-1.4 4.4s-1.1 3.3-1.5 5c-.1.6-.2 1.4-.3 2.6-.1 1.1-.1 2.2.1 3.2s.5 1.7 1 2.1 1.3.1 2.5-.8c1.2-1 2.2-2.2 3.2-3.4.9-1.3 1.8-2.6 2.6-3.9l1.1-2 .2-.3c0-.1.2-.2.5-.2s.3.1.2.5l-1.4 2.5c-.8 1.4-1.6 2.7-2.5 4s-2 2.5-3.3 3.5c-.9.8-1.8 1.3-2.6 1.6-.9.3-1.6.3-2.3.1s-1.3-.6-1.7-1.3c-.7-1.3-1-2.2-1.1-3.3zm-.2-24.3c.2.8.6 1.5 1.1 2.1.1-.6 0-1.2-.1-1.6s-.3-.7-.5-.9-.3-.2-.5-.2c-.1.1-.1.3 0 .6z" fill="#003941"/><path d="m141.5 182.5c-.7.6-1.3 1.1-2 1.4-.7.4-1.5.4-2.5.1-.9-.2-1.6-.7-2-1.5-.5-.8-.8-1.7-1-2.7-.2-1.1-.2-2.2-.2-3.4.1-1.2.2-2.4.3-3.6.2-1.1.4-2.2.6-3.2s.4-1.8.6-2.4c0-.3.2-.5.6-.6s.8-.1 1.2-.1c.4.1.8.2 1.1.3s.4.3.4.5c-.1.3-.2.8-.4 1.6s-.4 1.6-.6 2.6-.4 2.1-.6 3.2-.3 2.2-.4 3.2-.1 2 0 2.8.3 1.5.6 1.9.8.6 1.4.5 1.4-.6 2.4-1.4c1.2-1 2.3-2.2 3.2-3.4.9-1.3 1.8-2.6 2.5-3.9.2-.3.4-.6.6-1s.4-.7.6-1c0 0 .1-.1.1-.2s.1-.1.1-.2l.1-.1c.1-.1.3-.1.5-.1s.2.2 0 .5c-.2.4-.4.8-.6 1.2s-.5.8-.7 1.2c-.8 1.4-1.7 2.7-2.6 4-1 1.7-2.1 2.8-3.3 3.8zm-3.4-20.3c.5 0 1 .2 1.4.5s.5.7.5 1.2c0 .4-.1.8-.5 1.1s-.8.5-1.4.5c-.5 0-1-.2-1.4-.5s-.5-.7-.5-1.1c0-.5.1-.8.5-1.2.4-.3.9-.5 1.4-.5z" fill="#003941"/><path d="m155.8 179.8c0 1.1-.1 2.1-.3 3s-.7 1.8-1.4 2.7c-.5.5-1.1.9-1.9 1.3-.8.3-1.6.5-2.4.5s-1.5-.2-2-.6c-.6-.4-.8-1.1-.8-2 .1-.8.3-1.4.8-1.8.5-.5 1-.8 1.6-1.1.7-.3 1.3-.6 1.8-.8s1.1-.5 1.6-.6c0-1-.2-2-.4-3s-.5-1.9-.7-2.8c-.3-.9-.5-1.8-.7-2.7s-.4-1.7-.4-2.5l-1.8 3.4-.2.3c-.1.2-.2.2-.4.1s-.3-.2-.2-.4c.4-.8.9-1.7 1.3-2.5.5-.9.9-1.7 1.3-2.6.2-.5.4-1 .7-1.4s.8-.8 1.4-1c.3-.1.6 0 .8.3.2.4.2.7 0 1-.1.9-.1 1.9.1 2.9s.4 2.1.7 3.2.5 2.2.8 3.3.5 2.2.6 3.3c1.5-.8 2.8-1.7 3.8-2.9s1.9-2.4 2.7-3.7l.2-.3c.1-.2.2-.3.5-.1.2.1.2.3.1.4-.8 1.6-1.8 3-3 4.2-1.2 1-2.6 2-4.2 2.9zm-3.1 1.1c-1.1.5-2.1.9-2.8 1.2s-1.3.7-1.7 1.1-.6.9-.6 1.4.1.9.4 1.2.6.5 1 .5.9-.2 1.4-.6c.7-.6 1.2-1.4 1.6-2.3.5-.8.7-1.6.7-2.5z" fill="#003941"/><path d="m137.8 159.6c.2-1 .7-1.9 1.5-2.8 1.5-1.8 3.4-3 5.6-3.7 2.2-.6 4.4-.9 6.8-.8s4.7.4 7.1.9 4.6 1.1 6.6 1.7l.8-2.9c0-.2.2-.3.6-.4s.7-.1 1.1 0 .7.2 1 .3.4.3.4.5l-.8 3.4c1.6.4 3.3.8 5.1 1.1s3.6.5 5.4.5 3.5-.1 5-.5c1.6-.4 2.9-1.1 4-2.2.7-.6 1.1-1.3 1.2-1.9.2-.6.1-1.2-.1-1.7s-.6-1-1.2-1.5c-.5-.5-1.2-.8-1.9-1.1s-1.5-.5-2.3-.7c-.9-.1-1.7-.2-2.6-.2s-1.7.1-2.5.4c-.8.2-1.5.6-2.1 1-.2.1-.3.1-.5 0-.2-.2 0-.4.3-.8.3-.3.8-.5 1.4-.7s1.4-.3 2.2-.4 1.6 0 2.5 0c.9.1 1.7.2 2.4.5 2.4.8 3.9 1.8 4.5 3 .5 1.2.4 2.4-.4 3.5s-2.1 2.1-4 2.9-4.1 1.2-6.5 1.2c-1.7 0-3.4-.1-5.2-.4-1.7-.2-3.4-.6-5.1-.9-.2 1.1-.4 2-.6 2.9s-.4 1.9-.6 3-.4 2.4-.6 3.8-.5 3.3-.9 5.4c-.2 1.1-.3 2.1-.4 3.1s-.2 1.9-.3 2.8-.1 1.6-.1 2.3 0 1.3.1 1.7c.1.8.5 1.2 1 1.3.6.1 1.5-.3 2.7-1.4 1.2-1 2.3-2.2 3.2-3.4.9-1.3 1.7-2.6 2.5-3.9.2-.3.4-.6.6-1s.4-.7.6-1c.1-.1.1-.2.1-.3.1-.1.3-.2.5-.2.3 0 .3.1.1.5s-.4.8-.6 1.2-.5.8-.7 1.2c-.8 1.4-1.7 2.7-2.6 4s-2 2.5-3.3 3.5c-.4.4-.9.7-1.4 1s-1 .6-1.5.7-1 .2-1.6.1c-.5-.1-1-.4-1.5-.9s-.8-1.1-1-1.9-.3-1.8-.4-2.9c0-1.1 0-2.2.1-3.5.1-1.2.2-2.5.4-3.8.2-1.8.5-3.5.7-4.9s.5-2.7.7-3.9.4-2.3.7-3.3c.2-1 .5-2 .8-3-.6-.1-1.1-.3-1.7-.5-.5-.2-1-.3-1.5-.5-1.6-.4-3.2-.8-4.6-1.2-1.5-.4-2.8-.7-4.1-.9-1.1-.1-2.3-.2-3.5-.1s-2.4.2-3.7.5c-1.2.3-2.3.8-3.4 1.4s-2 1.4-2.8 2.3c-.7.8-1.2 1.6-1.4 2.4z" fill="#003941"/><path d="m185 182.5c-.7.6-1.3 1.1-2 1.4-.7.4-1.5.4-2.5.1-.9-.2-1.6-.7-2-1.5-.5-.8-.8-1.7-1-2.7-.2-1.1-.2-2.2-.2-3.4.1-1.2.2-2.4.3-3.6.2-1.1.4-2.2.6-3.2s.4-1.8.6-2.4c0-.3.2-.5.6-.6s.8-.1 1.2-.1c.4.1.8.2 1.1.3s.4.3.4.5c-.1.3-.2.8-.4 1.6s-.4 1.6-.6 2.6-.4 2.1-.6 3.2-.3 2.2-.4 3.2-.1 2 0 2.8.3 1.5.6 1.9.8.6 1.4.5 1.4-.6 2.4-1.4c1.2-1 2.3-2.2 3.2-3.4.9-1.3 1.8-2.6 2.5-3.9.2-.3.4-.6.6-1s.4-.7.6-1c0 0 .1-.1.1-.2s0-.1.1-.2l.1-.1c.1-.1.3-.1.5-.1s.2.2 0 .5c-.2.4-.4.8-.6 1.2s-.5.8-.7 1.2c-.8 1.4-1.7 2.7-2.6 4-1 1.7-2.1 2.8-3.3 3.8zm-3.4-20.3c.5 0 1 .2 1.4.5s.5.7.5 1.2c0 .4-.1.8-.5 1.1s-.8.5-1.4.5-1-.2-1.4-.5-.5-.7-.5-1.1c0-.5.1-.8.5-1.2.4-.3.9-.5 1.4-.5z" fill="#003941"/><path d="m192 175.2c-.1-1.1 0-2.2.4-3.4.3-1.1.9-2.2 1.6-3.2s1.6-1.8 2.7-2.5 2.3-1.1 3.7-1.2c.7-.1 1.4-.1 2 0s1 .2 1.3.5.5.6.4 1.1c0 .5-.3 1.1-.7 1.8-.4.6-.9 1.1-1.5 1.6s-1.2.9-1.9 1.2c-.7.4-1.4.6-2.2.8s-1.5.3-2.2.3c-.2.5-.3 1.1-.3 1.7s0 1.2.1 1.8.2 1.2.4 1.7c.2.6.5 1 1 1.4 1.2 1.1 2.3 1.5 3.5 1.2s2.3-1 3.3-1.9c.8-.8 1.5-1.6 2.1-2.5s1.2-1.9 1.7-2.8c.2-.3.4-.5.6-.5.3 0 .3.1.2.5-.5 1-1.1 2.1-1.8 3.1-.6 1-1.4 1.9-2.3 2.8-1.1 1-2.4 1.7-3.7 2.1-1.4.4-2.6.5-3.9.2-1.2-.3-2.3-.9-3.2-1.8-.7-1-1.2-2.3-1.3-4zm3.8-3.6c.6 0 1.3-.2 1.9-.3.7-.2 1.3-.4 2-.8.6-.3 1.2-.7 1.7-1.1s1-.9 1.3-1.4c.5-.8.7-1.3.6-1.6s-.3-.5-.7-.5-.8 0-1.4.2c-.5.2-1 .4-1.4.6-1 .5-1.9 1.2-2.5 2.1-.5.9-1.1 1.8-1.5 2.8z" fill="#003941"/><path d="m199.5 76.5c-36.1 0-36.1 56.1 0 56.2 36.4 0 36.4-56.3 0-56.2" fill="#c8858f"/><path d="m206 69.9s-1.6-1-6.2-1c-3.8 0-6 .9-6 .9-.6.2-.9.6-.9 1.4.1.9.1 1.7.2 2.6s.3 1.9.5 3c.3-.4.5-.7.7-1 .4.3.7.5 1 .7.2-.3.5-.6.7-1 .4.3.7.5 1.1.8.3-.3.5-.6.8-1 .3.3.6.5.9.8.3-.3.5-.5.8-.8.2.2.8.8.8.8l1.1-.7 1 .9c.4-.3.7-.6 1.1-.8.3.4.6.7.8 1 .3-.3.6-.5 1-.8.3.4.6.7.9 1.1.1-1.1.2-2.1.3-3.1s.1-1.5.1-2.5c.2-.7-.1-1.2-.7-1.3z" fill="#b2b4b7"/><path d="m201.8 67.4c0 2.6-4 2.6-4 0s4-2.6 4 0z" fill="none" stroke="#b2b4b7" stroke-miterlimit="10" stroke-width=".7629"/><path d="m199.9 65.6v-65.6" fill="none" stroke="#b2b4b7" stroke-miterlimit="10" stroke-width=".9094"/><g fill="#fff"><path d="m191.1 90.5c0 .1 0 .1-.1.1s-.1-.1-.1-.2c.1-.3.2-.7.5-.9.2-.3.5-.5.9-.6.3-.2.7-.2 1.1-.3.4 0 .7 0 .9.1.3.1.5.3.6.7.1.3.1.7-.1 1.2-.2.6-.5 1.2-.9 1.7-.3.5-.7 1-1.1 1.4-.4.5-.8.9-1.2 1.3s-.7.9-1.1 1.4c.1.1.4.1.8.1s.8.1 1.2.1h1.2c.4 0 .6 0 .7-.1.1 0 .1 0 .1.1s0 .2-.1.2c-.2.1-.5.1-.9.1s-.9 0-1.4 0-1-.1-1.4-.1c-.5-.1-.8-.1-1-.2-.1 0-.1-.1-.2-.2s-.1-.2 0-.3c.1-.2.3-.4.7-.9.3-.4.7-.9 1.2-1.4.4-.5.8-1.1 1.3-1.6.4-.6.8-1.1 1-1.6s.4-.9.4-1.3-.2-.6-.7-.6c-.1 0-.2 0-.3 0s-.2 0-.4.1c-.4.1-.7.3-1 .6-.4.4-.5.7-.6 1.1z"/><path d="m195.9 90.3c-.1.1-.1.1-.2.1s-.1-.1 0-.2c0-.1.1-.2.1-.3.1-.1.1-.2.2-.3s.2-.2.3-.3.2-.2.3-.3c.2-.1.4-.3.7-.4s.5-.2.8-.2.5 0 .8.1c.2.1.4.2.6.4.2.3.3.6.3.9s-.1.6-.3.9-.4.5-.6.7-.5.4-.7.5c.3 0 .5.1.7.3s.3.3.4.6c.1.2.2.5.2.8s0 .6-.1.9c-.1.4-.3.7-.5 1s-.5.5-.8.6c-.3.2-.6.2-.9.3-.3 0-.6 0-.9-.1-.1-.1-.3-.1-.4-.2-.2-.1-.3-.2-.4-.4-.1-.1-.3-.3-.4-.5s-.2-.4-.2-.6c0-.1 0-.2.1-.2s.1 0 .1.1.1.3.1.4c.1.1.2.3.2.4.1.1.2.2.3.3s.2.2.3.2c.2.1.4.1.7 0 .2 0 .4-.1.7-.3.2-.1.4-.3.6-.5s.3-.4.4-.7c.1-.4.2-.7.2-1s-.1-.6-.2-.8-.3-.3-.5-.4-.5-.1-.8-.1c-.1 0-.1 0-.2 0s-.1 0-.2 0-.1-.1-.1-.1c0-.1 0-.1.1-.2 0 0 .1-.1.3-.1.2-.1.4-.2.7-.4.2-.2.5-.3.7-.6.2-.2.4-.4.6-.6.1-.2.2-.4.2-.7 0-.2-.2-.4-.5-.6-.2-.1-.4-.2-.7-.1s-.6.2-1 .5c-.1.1-.2.2-.3.3s-.2.2-.2.3c-.5.3-.6.5-.6.6z"/><path d="m201.8 95.8c0-.3 0-.6 0-1 .1-.4.1-.7.2-1.1.1-.3.2-.7.3-1s.2-.5.3-.7.1-.3.1-.4 0-.2 0-.4c0-.1-.1-.2-.2-.4-.1-.1-.3-.3-.5-.5-.1.3-.2.5-.2.8-.1.3-.2.5-.3.8s-.2.6-.4.9-.3.6-.4.9v.1h-.1c-.1 0-.1-.1 0-.1.2-.3.3-.6.5-.9s.3-.6.4-.9.2-.5.3-.8.2-.5.2-.8c-.2-.2-.3-.4-.4-.6s-.1-.5-.1-.7c.1-.2.1-.3.3-.3.1 0 .3 0 .4.2.1.1.1.2.1.4v.6c.2.1.3.3.5.4s.4.3.5.4c.2.1.3.3.3.5.1.2.1.4 0 .7-.1.4-.2.8-.4 1.2-.2.5-.3.9-.4 1.4 0 .2-.1.4-.1.7v.9c0 .3.1.5.3.6.1.1.4 0 .7-.2.3-.3.6-.6.9-1 .2-.4.5-.7.7-1.1l.3-.6v-.1s.1 0 .1-.1c.1 0 .1 0 .1.1l-.4.7c-.2.4-.4.7-.7 1.1s-.5.7-.9 1c-.2.2-.5.4-.7.4-.2.1-.4.1-.6 0s-.3-.2-.5-.4c-.1-.1-.2-.4-.2-.7zm0-6.7c.1.2.2.4.3.6 0-.2 0-.3 0-.4s-.1-.2-.1-.3-.1-.1-.1 0c-.2-.1-.2 0-.1.1z"/><path d="m212.4 93.7c-.1.1-.1.2-.2.4-.1.1-.1.2-.2.4s-.3.4-.4.7c-.2.3-.3.5-.5.8-.2.2-.4.5-.6.7s-.4.4-.6.5c-.3.2-.6.2-.9.1-.2-.1-.4-.3-.6-.5-.2-.3-.3-.5-.4-.9-.1-.3-.1-.6-.1-.9v-.5c-.1.1-.3.3-.4.5-.2.2-.3.3-.5.5-.2.1-.4.2-.6.3-.2 0-.4 0-.5 0-.2-.1-.3-.1-.4-.3-.1-.1-.2-.3-.3-.4-.1-.2-.1-.5-.1-.8s.1-.6.2-.9.3-.5.6-.8c.2-.2.6-.4.9-.5.2-.1.4-.1.6-.1h.7c0-.2.1-.4.1-.5 0-.2.1-.3.1-.5.2-.8.4-1.6.7-2.4s.7-1.6 1.1-2.3.9-1.3 1.4-1.8 1.1-.8 1.7-.9c.5-.1.9-.1 1.1.2.2.2.3.6.2 1.1s-.3 1-.7 1.7-.9 1.5-1.7 2.4c-.2.2-.4.5-.7.8s-.5.5-.8.8-.5.5-.8.7-.6.4-.8.6c-.1.3-.1.7-.2 1-.1.4-.1.8-.1 1.2v1.2c0 .4.1.7.2 1s.2.5.4.6c.1.1.3.1.4 0 .2-.1.4-.2.6-.4s.4-.4.6-.7c.2-.2.3-.5.5-.7.2-.3.3-.5.4-.7s.2-.4.3-.6c.1-.2.2-.2.3-.1 0-.1 0 0 0 0zm-4.3-1.7c-.3 0-.6 0-.8.1s-.5.3-.7.6c-.2.2-.3.5-.4.8s-.2.5-.2.8 0 .5.1.6c.1.2.2.3.4.3s.3 0 .4-.1.3-.2.4-.3.2-.2.3-.4c.1-.1.2-.3.3-.4 0-.6.1-1.3.2-2zm2.2-4.4c-.3.7-.5 1.4-.7 2.1s-.4 1.3-.5 1.9c.5-.4 1.1-.8 1.6-1.3s1-1 1.4-1.5c.8-.9 1.3-1.7 1.7-2.3.4-.7.6-1.2.7-1.7 0-.3 0-.5 0-.6 0-.2-.1-.3-.3-.4-.1-.1-.3-.1-.4-.1-.2 0-.4.1-.6.2-.3.2-.6.4-.9.7s-.5.6-.8.9c-.2.3-.4.7-.6 1-.3.4-.4.8-.6 1.1z"/><path d="m176.7 101.7c-.1 0-.1-.1 0 0-.1-.2-.1-.2 0-.2.3 0 .6.1.8.2s.3.3.4.5.1.4.1.7c0 .2-.1.5-.3.7-.2.3-.4.4-.6.6-.2.1-.5.2-.7.3-.3 0-.5 0-.8 0-.3-.1-.5-.2-.7-.3-.2-.2-.4-.4-.5-.6s-.2-.5-.1-.9c0-.5.1-.9.4-1.3.2-.4.5-.8.8-1.1s.7-.6 1.1-.9.8-.5 1.2-.6c.2-.1.5-.2.8-.3s.6-.1.9-.1c.6 0 1 .1 1.2.3s.3.5.3.9-.1.7-.3 1.2c-.2.4-.3.8-.4 1.2-.6 1.5-1.1 2.9-1.7 4.4s-1.1 2.9-1.6 4.4c.1 0 .2-.2.3-.4s.2-.5.4-.8c.3-.6.5-1.3.8-2s.5-1.5.8-2.2c.3-.8.6-1.5 1-2.3.3-.7.7-1.4 1.1-2.1.4-.6.9-1.2 1.4-1.7s1.1-.9 1.8-1.1c.8-.3 1.4-.4 2-.4.5.1 1 .3 1.3.6s.6.8.7 1.3c.2.6.2 1.2.2 1.8 0 .7-.1 1.4-.3 2.1-.2.8-.4 1.5-.6 2.2-.3.7-.6 1.4-1 2.1s-.8 1.2-1.2 1.7c.4-.1.8-.3 1.3-.5.4-.2.8-.5 1.2-.8s.7-.6 1-1 .6-.8.8-1.3c0-.1.1-.1.1-.1.1 0 .1.1 0 .1-.3.6-.6 1.1-.9 1.5s-.7.8-1.1 1.1-.8.6-1.3.8c-.4.2-.9.4-1.4.5-.6.6-1.2 1.1-1.8 1.4s-1.2.6-1.7.7c-.4.1-.8.1-1.2.2-.4 0-.8-.1-1.1-.2-.1-.1-.2-.1-.3-.2s-.2-.1-.2-.2 0-.2 0-.3.1-.2.3-.3c.1-.1.3-.1.5-.2s.5-.1.8-.2.7-.1 1-.2c.4-.1.7-.1 1.1-.2.3-.1.7-.1.9-.1.3 0 .5-.1.7-.1.5-.5.9-1 1.3-1.6s.7-1.3 1-2 .5-1.4.7-2.2c.2-.7.3-1.5.4-2.1.1-.7 0-1.3 0-1.9-.1-.6-.3-1-.5-1.4-.3-.4-.6-.6-1-.7s-1-.1-1.6.2c-.6.2-1.2.6-1.7 1.1s-1 1.1-1.4 1.7-.8 1.4-1.2 2.1c-.3.8-.7 1.5-1 2.3s-.6 1.5-.9 2.2-.5 1.4-.8 2c-.1.1-.1.3-.2.4-.1.2-.2.3-.2.4-.1.1-.2.3-.3.4s-.3.1-.4.1-.2 0-.4 0c-.1 0-.2-.1-.2-.1v-.1c.1-.2.1-.4.3-.7.1-.3.3-.7.4-1.2.2-.5.4-1 .6-1.5.2-.6.4-1.1.7-1.7.2-.5.4-1 .6-1.5s.4-1 .6-1.5.4-.9.5-1.3c.2-.4.3-.8.4-1.1s.2-.6.2-.8-.1-.4-.2-.5-.3-.2-.5-.3c-.2 0-.4 0-.6 0s-.4.1-.6.1c-.2.1-.4.1-.5.2-.4.2-.7.4-1.1.6s-.7.5-1 .9c-.3.3-.5.7-.7 1.1s-.3.8-.3 1.2.1.8.3 1.1.5.5.8.5c.3.1.6.1 1 0 .3-.1.6-.3.8-.7.1-.2.2-.4.2-.6s0-.4 0-.6c-.1-.2-.2-.3-.3-.4-.4-.4-.6-.4-.9-.4zm5 9.9c.2-.1.3-.1.5-.2s.3-.1.4-.2c.2-.1.5-.3.7-.4.2-.2.5-.4.7-.6-.2 0-.4.1-.6.1-.3 0-.6.1-.9.1s-.6.1-1 .1c-.3.1-.7.1-.9.2-.3.1-.5.1-.8.2-.2.1-.4.1-.5.2s-.2.1-.2.2v.2c0 .1.1.1.2.2.1 0 .2.1.2.1.4.1.7.2 1 .2.5-.2.8-.3 1.2-.4z"/><path d="m189.8 106.6c0-.3 0-.6.1-.9s.2-.6.4-.9.4-.5.7-.7.6-.3 1-.3h.5c.2 0 .3.1.4.1.1.1.1.2.1.3s-.1.3-.2.5-.2.3-.4.4-.3.2-.5.3-.4.2-.6.2c-.2.1-.4.1-.6.1 0 .1-.1.3-.1.5v.5c0 .2.1.3.1.5.1.2.1.3.3.4.3.3.6.4 1 .3.3-.1.6-.3.9-.5.2-.2.4-.4.6-.7s.3-.5.5-.8c0-.1.1-.1.2-.1s.1 0 0 .1c-.1.3-.3.6-.5.9s-.4.5-.6.8c-.3.3-.6.5-1 .6s-.7.1-1 .1c-.3-.1-.6-.2-.9-.5-.2-.3-.4-.7-.4-1.2zm1-.9c.2 0 .3 0 .5-.1s.4-.1.5-.2c.2-.1.3-.2.5-.3.1-.1.3-.3.4-.4.1-.2.2-.4.2-.4 0-.1-.1-.1-.2-.2-.1 0-.2 0-.4.1-.1 0-.3.1-.4.2-.3.1-.5.3-.7.6-.1.1-.3.4-.4.7z"/><path d="m194 106.5c0-.3.1-.6.2-.9s.3-.6.5-.9.5-.5.8-.6c.3-.2.6-.3.9-.3h.4c.1 0 .3 0 .4.1.1 0 .2.1.3.2s.2.2.2.3 0 .1-.1.1-.1 0-.1-.1-.1-.3-.2-.3c-.1-.1-.2-.1-.3-.1-.3 0-.5.1-.8.2-.2.1-.4.3-.6.6-.2.2-.3.5-.4.8s-.2.6-.2.9v.8c.1.3.2.5.3.6.2.2.3.3.5.3h.5c.2-.1.4-.1.5-.3.2-.1.3-.3.4-.4.2-.2.4-.5.6-.8s.4-.5.5-.8v-.1c0-.1.1-.1.1 0 .1 0 .1.1 0 .1-.1.2-.3.5-.5.8s-.4.6-.6.8c-.3.4-.7.6-1.1.8-.4.1-.8.2-1.1.1s-.6-.3-.9-.6c-.1-.3-.2-.8-.2-1.3z"/><path d="m198.5 106.6c0-.3 0-.6.1-.9s.2-.6.4-.9.4-.5.7-.7.6-.3 1-.3h.5c.2 0 .3.1.4.1.1.1.1.2.1.3s-.1.3-.2.5-.2.3-.4.4-.3.2-.5.3-.4.2-.6.2c-.2.1-.4.1-.6.1 0 .1-.1.3-.1.5v.5c0 .2.1.3.1.5.1.2.1.3.3.4.3.3.6.4 1 .3.3-.1.6-.3.9-.5.2-.2.4-.4.6-.7s.3-.5.5-.8c0-.1.1-.1.2-.1s.1 0 0 .1c-.1.3-.3.6-.5.9s-.4.5-.6.8c-.3.3-.6.5-1 .6s-.7.1-1.1.1c-.3-.1-.6-.2-.9-.5-.2-.3-.3-.7-.3-1.2zm1-.9c.2 0 .3 0 .5-.1s.4-.1.5-.2c.2-.1.3-.2.5-.3.1-.1.3-.3.4-.4.1-.2.2-.4.2-.4 0-.1-.1-.1-.2-.2-.1 0-.2 0-.4.1-.1 0-.3.1-.4.2-.3.1-.5.3-.7.6-.1.1-.3.4-.4.7z"/><path d="m208.8 108.6c.3-.3.6-.6.9-1 .2-.4.5-.7.7-1.1.1-.1.1-.2.2-.3s.1-.2.2-.3l.1-.1s.1-.1.1-.1c.1 0 .1 0 0 .1l-.4.7c-.2.4-.5.7-.7 1.1-.3.4-.5.7-.9 1-.2.2-.4.3-.6.4s-.4.1-.7 0c-.2 0-.3-.1-.4-.3-.1-.1-.2-.3-.2-.5s-.1-.4-.1-.6 0-.5.1-.7c0-.3.1-.6.1-.9.1-.3.1-.5.2-.7.1-.3.1-.6.2-.9s.1-.5.1-.7 0-.3 0-.4-.1-.1-.2 0-.3.3-.4.5-.3.5-.4.7c-.1.3-.3.5-.4.8s-.2.5-.3.8c-.1.2-.2.4-.3.6s-.1.3-.2.3h-.1c-.1 0-.1 0-.2-.1-.1-.2-.2-.4-.2-.7s0-.7 0-1.1.1-.8.2-1.1c.1-.4.1-.7.1-.9s0-.4-.1-.4-.2.1-.5.3c-.1.2-.3.3-.4.5s-.2.4-.4.6c-.1.3-.3.5-.3.8-.1.4-.1.8-.2 1.3s-.1.9-.2 1.3c0 .1-.1.1-.1.1-.1 0-.2-.1-.3-.2s-.2-.3-.2-.5c-.1-.2-.1-.4-.1-.7.1-.6.1-1.1.2-1.6s.2-1 .3-1.6c0-.1.1-.1.2-.2h.3c.1 0 .2.1.3.2s.1.1.1.2l-.2.7c.1-.2.2-.4.3-.6s.3-.4.4-.5c.4-.4.7-.6.9-.8.2-.1.4-.1.6 0 .1.1.2.3.2.6v.9c0 .3-.1.7-.1 1.1-.1.4-.1.7-.2 1.1.1-.3.2-.6.4-.9.1-.3.3-.6.5-.9.1-.3.3-.5.5-.8s.4-.5.6-.6c.3-.2.5-.2.7-.1s.3.3.3.7c0 .2 0 .5-.1.7 0 .2-.1.5-.2.7 0 .1-.1.4-.2.7s-.2.7-.3 1c-.1.4-.2.7-.2 1.1-.1.4-.1.7 0 .9 0 .2.1.4.3.4.1.4.3.2.7 0z"/><path d="m211.1 108s0 .1-.1.1-.2 0-.3-.1c-.1 0-.2-.1-.3-.2s-.1-.2-.2-.4c0-.6 0-1.2 0-1.9.1-.7.1-1.3.3-2 .1-.7.3-1.4.5-2.1s.5-1.3.8-1.9.6-1.2 1-1.7.8-.9 1.2-1.3c.3-.2.5-.4.8-.5s.5-.2.8-.2.6 0 .8.2.3.4.3.8c0 .3-.1.7-.2 1-.2.4-.4.8-.6 1.2-.3.4-.5.9-.9 1.3-.3.4-.7.9-1 1.3-.1.1-.3.3-.5.6-.2.2-.5.5-.8.8s-.5.5-.8.7-.5.4-.7.5c0 .2-.1.4-.1.5 0 .2-.1.4-.1.5.2-.2.4-.4.6-.5.2-.2.4-.3.7-.3.5-.1.8-.1 1.1.1s.5.4.6.8c.1.3.2.7.1 1.2 0 .4-.1.9-.3 1.3.3-.2.5-.3.6-.5.2-.2.3-.4.5-.7 0-.1.1-.2.1-.3s.1-.2.1-.3v-.1h.1.1.1v.1c-.1.1-.1.2-.2.4-.1.1-.1.2-.2.4-.2.3-.4.6-.6.8s-.5.4-.8.6c-.2.4-.4.7-.6 1-.3.3-.5.5-.9.6-.1 0-.2 0-.3 0s-.2-.1-.3-.2-.1-.2-.1-.3 0-.2.1-.3c.1-.2.3-.3.5-.4s.4-.1.6-.2c.1-.1.1-.3.2-.6s.1-.5.2-.8c0-.3.1-.6.1-.8 0-.3-.1-.5-.1-.7-.1-.2-.2-.3-.4-.4s-.4 0-.7.1c-.1.1-.3.1-.4.3-.1.1-.3.2-.4.4-.1.4-.1.8-.1 1.2.1.1.1.5.1.9zm.4-4.1c.3-.2.6-.5 1-.8s.7-.7 1.1-1.1.8-.9 1.1-1.3c.4-.5.7-.9 1-1.4s.5-.9.7-1.3.3-.8.3-1.2-.1-.6-.3-.7-.5-.1-.8.1c-.5.2-1 .7-1.5 1.3-.6.7-1.1 1.6-1.6 2.8-.3.6-.5 1.2-.6 1.8-.2.6-.3 1.2-.4 1.8zm1 5.2c.1-.1.1-.2.2-.3s.1-.2.1-.3c-.1 0-.3.1-.4.1s-.2.1-.3.2-.1.1-.1.2v.2c0 .1.1.1.2.1s.2-.1.3-.2z"/><path d="m215.5 106.6c0-.3 0-.6.1-.9s.2-.6.4-.9.4-.5.7-.7.6-.3 1-.3h.5c.2 0 .3.1.4.1.1.1.1.2.1.3s-.1.3-.2.5-.2.3-.4.4-.3.2-.5.3-.4.2-.6.2c-.2.1-.4.1-.6.1 0 .1-.1.3-.1.5v.5c0 .2.1.3.1.5.1.2.1.3.3.4.3.3.6.4 1 .3.3-.1.6-.3.9-.5.2-.2.4-.4.6-.7s.3-.5.5-.8c0-.1.1-.1.2-.1s.1 0 0 .1c-.1.3-.3.6-.5.9s-.4.5-.6.8c-.3.3-.6.5-1 .6s-.7.1-1.1.1c-.3-.1-.6-.2-.9-.5-.2-.3-.3-.7-.3-1.2zm1-.9c.2 0 .3 0 .5-.1s.4-.1.5-.2c.2-.1.3-.2.5-.3.1-.1.3-.3.4-.4.1-.2.2-.4.2-.4 0-.1-.1-.1-.2-.2-.1 0-.2 0-.4.1-.1 0-.3.1-.4.2-.3.1-.5.3-.7.6-.1.1-.3.4-.4.7z"/><path d="m221.1 108c0-.3 0-.6 0-1 .1-.4.1-.7.2-1.1.1-.3.2-.7.3-1s.2-.5.3-.7.1-.3.2-.4c0-.1 0-.2 0-.4 0-.1-.1-.2-.2-.4-.1-.1-.3-.3-.5-.5-.1.3-.2.5-.2.8-.1.3-.2.5-.3.8s-.3.6-.4.9c-.2.3-.3.6-.4.9v.1s-.1.1-.1 0c-.1 0-.1-.1 0-.1.2-.3.3-.6.5-.9s.3-.6.4-.9.2-.5.3-.8.2-.5.2-.8c-.2-.2-.3-.4-.4-.6s-.1-.5 0-.7.2-.3.3-.3.3 0 .4.2c.1.1.1.2.1.4v.6c.2.1.3.3.5.4s.4.3.5.4c.2.1.3.3.3.5.1.2.1.4 0 .7-.1.4-.2.8-.4 1.2-.2.5-.3.9-.4 1.4 0 .2-.1.4-.1.7v.9c0 .3.1.5.3.6.1.1.4 0 .7-.2.3-.3.6-.6.9-1 .2-.4.5-.7.7-1.1l.3-.6v-.1s.1-.1.1-.1c.1 0 .1 0 0 .1l-.4.7c-.2.4-.4.7-.7 1.1s-.5.7-.9 1c-.2.2-.5.4-.7.4-.2.1-.4.1-.6 0s-.3-.2-.5-.4c-.2-.1-.2-.4-.3-.7zm0-6.8c0 .2.2.4.3.6 0-.2 0-.3 0-.4s-.1-.2-.1-.3c-.1-.1-.1-.1-.1 0-.2 0-.2 0-.1.1z"/><path d="m191 115c0 .1 0 .1-.1.1s-.1-.1-.1-.2c.1-.3.2-.6.5-.9s.6-.5.9-.6.7-.2 1.1-.3c.4 0 .7 0 1 .1s.5.3.6.6.1.7-.1 1.1c-.2.6-.5 1.1-.9 1.6-.3.5-.7.9-1.1 1.4-.4.4-.8.8-1.2 1.3-.4.4-.7.9-1.1 1.3.1 0 .4.1.8.1s.8.1 1.3.1h1.2c.4 0 .6 0 .7-.1.1 0 .1 0 .1.1s0 .1-.1.2c-.2.1-.5.1-.9.1s-.9 0-1.4 0-1-.1-1.4-.1c-.5-.1-.8-.1-1-.2-.1 0-.1-.1-.2-.2s-.1-.2 0-.3c.1-.2.3-.4.7-.8s.7-.8 1.2-1.3c.4-.5.9-1 1.3-1.5s.8-1 1-1.5c.3-.5.4-.9.4-1.2s-.2-.5-.7-.6c-.1 0-.2 0-.3 0s-.2 0-.4.1c-.4.1-.7.3-1 .5-.6.5-.8.8-.8 1.1z"/><path d="m195.4 116.2c.1-.6.3-1.1.7-1.7.3-.5.7-1 1.1-1.3s.8-.5 1.2-.5.8.3 1.1.8c.2.3.3.6.3.9.1.3.1.7.1 1.1s0 .8-.1 1.1c0 .4-.1.7-.2 1-.2.7-.4 1.3-.8 1.8-.3.5-.7.8-1.1 1s-.8.3-1.1.2c-.4-.1-.7-.3-.9-.6-.3-.3-.4-.8-.5-1.5 0-.5 0-1.3.2-2.3zm2.7-2.8c-.2.1-.4.3-.6.5s-.3.5-.5.8c-.1.3-.3.6-.4.9s-.2.6-.2.9c-.2.8-.3 1.5-.2 2.1 0 .6.1 1 .3 1.3s.4.5.7.5c.3.1.6 0 .9-.2s.6-.5.8-.9c.3-.4.5-.9.6-1.6.1-.3.1-.6.2-.9 0-.3.1-.7.1-1.1s0-.7-.1-1-.2-.6-.3-.9l-.1-.1c-.2-.2-.3-.4-.5-.4-.3 0-.5 0-.7.1z"/><path d="m201.4 114.5c-.1.1-.1.1-.2 0 0-.1 0-.2.1-.2.5-.3 1-.6 1.4-.9.5-.2.9-.5 1.3-.8.1-.1.1-.1.2 0v.2s-.1.3-.2.7-.3 1-.5 1.7-.4 1.5-.6 2.4-.4 1.8-.5 2.7h.4c.1 0 .1 0 .1.2 0 .1 0 .2-.1.2h-.5c-.4 0-.9 0-1.3 0-.1 0-.1-.1-.1-.2s.1-.2.1-.1h.5c.1-.8.2-1.5.4-2.2.1-.7.3-1.4.4-2 .2-.6.3-1.1.4-1.6s.2-.8.3-1.1c-.3.2-.5.4-.8.5-.3.2-.6.4-.8.5z"/><path d="m206.7 116.6c-.2-.1-.4-.3-.5-.5s-.2-.5-.3-.7c-.1-.3-.1-.6 0-.9s.2-.5.4-.7.4-.4.6-.5.4-.2.7-.2c.4 0 .7.1 1 .5.2.3.2.5.2.8s-.1.5-.2.8-.3.5-.4.7c-.2.2-.4.4-.5.5.7.4 1.1.8 1.3 1.4.2.5.2 1 .1 1.5s-.3.9-.6 1.2-.7.5-1 .6c-.3 0-.5 0-.7-.2-.2-.1-.4-.3-.6-.6s-.3-.6-.3-.9c-.1-.3-.1-.7 0-1 .1-.4.3-.7.5-1.1-.1-.4.1-.6.3-.7zm1.4 2.1c0-.4 0-.9-.2-1.2-.2-.4-.5-.7-.9-.8-.1.1-.3.2-.4.3s-.2.2-.3.3c-.2.4-.4.7-.5 1s-.1.6 0 .9c0 .3.1.5.3.8s.4.5.6.5.4-.1.6-.3.3-.4.5-.7c.1-.3.2-.5.3-.8zm-1.3-3.9c-.1.2 0 .5 0 .7.1.3.2.5.5.7.1-.1.2-.2.4-.3.1-.1.3-.3.4-.4.1-.2.2-.3.3-.5s.1-.4.1-.6c0-.4-.1-.6-.3-.7s-.3-.1-.5 0-.4.3-.6.5-.3.4-.3.6z"/></g><path d="m222 53.8-1 2 1 1.9-2.2-.3-1.5 1.6-.4-2.2-2-1 2-1 .3-2.2 1.6 1.6z" fill="#003941"/><path d="m221.6 147.3-1.7.7-.4 1.9-1.3-1.4-1.9.2 1-1.7-.8-1.7 1.9.4 1.4-1.3.2 1.9z" fill="#b2b4b7"/><path d="m27.3 75.4-1.1 1.6.7 1.8-1.8-.6-1.5 1.3-.1-2-1.6-1 1.8-.7.5-1.8 1.2 1.5z" fill="#8c1d40"/><path d="m130 52.1-1.5 1.3.2 1.9-1.6-1-1.8.8.5-1.9-1.3-1.4 1.9-.2.9-1.6.8 1.7z" fill="#b2b4b7"/><path d="m58.9 213.5-1.6 1.3.3 2.1-1.8-1.1-1.8.9.4-2-1.4-1.5 2.1-.2 1-1.8.8 1.9z" fill="#b2b4b7"/><path d="m33.6 118.8c-9 0-9 14 0 14.1 9.1 0 9.1-14.1 0-14.1" fill="#c8858f"/><path d="m35.1 117.1s-.4-.2-1.6-.2c-1 0-1.5.2-1.5.2-.2 0-.2.2-.2.3 0 .2 0 .4.1.7 0 .2.1.5.1.7.1-.1.1-.2.2-.2.1.1.2.1.3.2.1-.1.1-.2.2-.2.1.1.2.1.3.2.1-.1.1-.2.2-.2.1.1.2.1.2.2.1-.1.1-.1.2-.2 0 0 .2.2.2.2l.3-.2.2.2c.1-.1.2-.1.3-.2.1.1.1.2.2.2.1-.1.2-.1.2-.2.1.1.1.2.2.3 0-.3.1-.5.1-.8 0-.2 0-.4 0-.6 0-.3 0-.4-.2-.4z" fill="#b2b4b7"/><path d="m34.1 116.5c0 .6-1 .6-1 0 0-.7 1-.7 1 0z" fill="none" stroke="#b2b4b7" stroke-miterlimit="10" stroke-width=".2743"/><path d="m33.6 116v-9.1" fill="none" stroke="#b2b4b7" stroke-miterlimit="10" stroke-width=".2743"/><path d="m33.6 129.2c-.1-.1-.3-.2-.4-.4-.4-.3-.7-.6-1.1-1-.3-.3-.6-.5-.9-.8-.2-.2-.4-.5-.6-.7-.1-.2-.2-.5-.2-.7s0-.4 0-.7c0-.7.4-1.3 1.1-1.5s1.3-.1 1.8.4c.1.1.2.2.3.4.2-.3.4-.5.8-.7.3-.1.6-.2.9-.2.4 0 .7.2 1 .4s.4.6.5.9v.6c0 .2 0 .4-.1.6-.1.3-.3.6-.5.8-.2.3-.5.5-.7.7-.4.3-.8.7-1.1 1-.3.4-.5.7-.8.9z" fill="#b2b4b7"/><path d="m205.8 184.2c-6.8 0-6.8 10.6 0 10.6 6.9 0 6.9-10.6 0-10.6" fill="#8c1d40"/><path d="m207 182.9s-.3-.2-1.2-.2c-.7 0-1.1.2-1.1.2-.1 0-.2.1-.2.3v.5c0 .2.1.4.1.6.1-.1.1-.1.1-.2.1 0 .1.1.2.1 0-.1.1-.1.1-.2.1.1.1.1.2.1l.2-.2.2.2c.1-.1.1-.1.2-.1 0 0 .2.1.2.1l.2-.1.2.2c.1-.1.1-.1.2-.2l.2.2c.1-.1.1-.1.2-.1l.2.2c0-.2 0-.4.1-.6 0-.2 0-.3 0-.5-.2-.2-.2-.3-.3-.3z" fill="#b2b4b7"/><path d="m206.2 182.5c0 .5-.8.5-.8 0s.8-.5.8 0z" fill="none" stroke="#b2b4b7" stroke-miterlimit="10" stroke-width=".2912"/><path d="m205.8 182.1v-5.2" fill="none" stroke="#b2b4b7" stroke-miterlimit="10" stroke-width=".2912"/><path d="m205.8 191.8c-.1-.1-.2-.2-.3-.3-.3-.2-.5-.5-.8-.7-.2-.2-.4-.4-.6-.6s-.3-.3-.4-.5-.1-.3-.2-.5c0-.2 0-.3 0-.5 0-.5.3-.9.8-1 .5-.2.9 0 1.3.3.1.1.2.2.2.3.1-.2.3-.4.5-.5s.4-.1.6-.1c.3 0 .5.1.7.3s.3.4.3.6v.4c0 .1 0 .3-.1.4-.1.2-.2.4-.3.6s-.3.3-.5.5c-.3.2-.5.5-.8.7 0 .3-.2.5-.4.6z" fill="#c8858f"/><path d="m43.6 46.5c.1 0 .3.1.4.1.6.1 1.2.3 1.8.4 0 .1-.1.2-.1.3-.2.5-.3 1.1-.4 1.6-.1.8-.1 1.7.1 2.5.1.4.2.7.4 1.1.1.3.3.5.4.8s.4.5.6.7c.4.4.8.7 1.3.8.7.3 1.4.3 2.1.1.6-.2 1.1-.4 1.6-.8.5-.3.9-.7 1.2-1.3.4-.7.6-1.4.4-2.2-.1-.5-.3-1-.6-1.5-.5-.8-1-1.4-1.7-2-.8-.7-1.7-1.2-2.8-1.4 0 0 0 0-.1 0 .1-.1.1-.3.2-.4.2-.6.5-1.2.7-1.7v-.1c.5.2 1 .5 1.6.7-.1.3-.2.6-.3.8.3.1.6.3.8.4.6.3 1.1.7 1.6 1.2.4.4.8.8 1.2 1.3.2.3.4.7.6 1.1.1.3.2.7.3 1 .1.6.1 1.2 0 1.8-.1.7-.3 1.4-.7 2-.5 1-1.2 1.7-2.2 2.2-.5.3-1 .4-1.5.5-1.5.3-3 0-4.3-.9-.6-.4-1-.9-1.4-1.5 0-.1-.1-.1-.1-.2-.1-.2-.2-.3-.3-.5 0 0 0 0 0-.1-.2-.3-.3-.7-.4-1.1-.1-.5-.2-1.1-.2-1.6 0-.8.1-1.6.3-2.3 0 0 0 0 0-.1-.3-.1-.5-.1-.8-.2.1-.3.1-.7.2-1 0-.1.1-.3.1-.5zm1.9 6.8c-.1-.3-.2-.6-.2-.9 0 0 0-.1-.1-.1s-.3 0-.4 0c0 0 0 0-.1 0 .1.4.2.8.3 1.1.1 0 .3 0 .5-.1zm7.9-4.1c.2-.1.3-.2.5-.3-.3-.3-.5-.6-.8-.9-.1.1-.2.3-.3.4v.1c.1.1.2.3.3.4s.2.2.3.3zm-2.2 6.7c.3-.2.6-.4.9-.6-.1-.1-.2-.2-.3-.2 0 0 0 0-.1 0-.2.1-.4.2-.6.4 0 0-.1 0-.1.1 0 0 .1.2.2.3zm1.5-1.5.3.3c.2-.2.4-.5.7-.7-.2-.1-.3-.2-.5-.2-.2.2-.3.4-.5.6zm-2.7 1.3c-.3 0-.5 0-.8-.1-.1.2-.1.4-.2.5h1c0-.1 0-.3 0-.4zm-5.6-4.4c.2-.1.3-.1.4-.2 0 0 0 0 0-.1 0-.2 0-.4 0-.6v-.1c-.1 0-.3 0-.4-.1.1.4 0 .7 0 1.1zm8-4.2c-.3-.2-.6-.3-.9-.5-.1.1-.1.3-.2.4.2.1.4.2.6.4h.1s.1-.1.1-.1c.1-.1.2-.1.3-.2zm-5.7 7.8c-.2-.2-.4-.4-.5-.5-.1.1-.2.2-.4.2l.6.6c.1-.1.2-.2.3-.3zm7.2-4.6c0 .2.1.5.1.7h.4c0-.3-.1-.6-.1-.9-.1.1-.2.2-.4.2zm-5.6 5.4c-.2 0-.4-.1-.6-.1-.1.1-.1.2-.2.3.3.1.5.1.8.2-.1-.2 0-.3 0-.4zm5.5-2.9c.1 0 .2.1.3.1.1-.2.2-.5.3-.7-.1 0-.2 0-.3 0-.2.2-.3.4-.3.6z" fill="#003941"/><path d="m118 201.9c0 .1.1.3.1.4.2.6.3 1.2.5 1.7-.1 0-.2 0-.3 0-.5.1-1 .2-1.5.4-.8.3-1.5.7-2.1 1.2-.3.2-.5.5-.7.8-.2.2-.3.5-.5.7s-.2.5-.3.8c-.1.5-.2 1-.1 1.5.1.7.4 1.3.9 1.8.4.4.8.7 1.3 1 .5.2 1 .4 1.6.4.8 0 1.5-.2 2.1-.7.4-.3.7-.7 1-1.1.4-.7.7-1.5.9-2.3.2-1 .2-2-.1-3 0 0 0 0 0-.1.1 0 .3 0 .4-.1.6-.1 1.2-.1 1.8-.2h.1c0 .5.1 1.1.1 1.6-.3 0-.6.1-.9.1v.9c0 .6-.1 1.3-.2 1.9-.1.5-.3 1.1-.6 1.6-.2.4-.4.7-.6 1s-.4.5-.7.7c-.5.4-1 .6-1.5.8-.6.2-1.3.4-2 .3-1 0-2-.4-2.8-.9-.4-.3-.8-.6-1.2-1.1-.9-1.2-1.4-2.5-1.2-4 .1-.7.3-1.3.6-1.8 0-.1.1-.1.1-.2.1-.1.2-.3.3-.4.2-.3.5-.6.7-.8.4-.4.8-.7 1.3-.9.7-.4 1.4-.6 2.1-.8h.1c-.1-.3-.1-.5-.2-.8l.9-.3c.2 0 .4-.1.6-.1zm-4.8 4.6c.2-.2.4-.4.6-.6v-.1c-.1-.1-.1-.2-.2-.4-.3.2-.6.5-.8.7.1.2.2.3.4.4zm7 4.8c.2.1.3.2.5.2.1-.4.2-.7.4-1.1-.2 0-.3 0-.5 0h-.1c-.1.1-.1.3-.2.4 0 .3 0 .4-.1.5zm-6.7 1.2c.3.2.6.3.9.5 0-.1 0-.3.1-.4v-.1c-.2-.1-.4-.2-.6-.3 0 0-.1 0-.1-.1-.1.2-.2.3-.3.4zm2 .6c0 .1-.1.3-.1.4.3.1.6.2.9.2 0-.2 0-.4 0-.5-.3 0-.5 0-.8-.1zm-2.3-1.7c-.1-.2-.2-.5-.3-.7-.2 0-.3.1-.5.1.2.3.3.5.5.8.1 0 .2-.1.3-.2zm1.2-6.7.3.3h.1c.2-.1.3-.1.5-.2 0 0 .1 0 .1-.1-.1-.1-.1-.3-.2-.4-.2.1-.5.3-.8.4zm7.1 4.8c0-.3 0-.6 0-.9-.1 0-.3 0-.4 0v.7s.1 0 .1.1c.1 0 .2.1.3.1zm-9.2-1.2c.1-.2.1-.5.2-.7-.1-.1-.2-.1-.4-.2-.1.3-.1.5-.2.8.2 0 .3 0 .4.1zm7.2 4c-.2.1-.4.3-.5.4.1.1.1.2.2.3.2-.2.5-.3.7-.5-.2 0-.3-.1-.4-.2zm-7.1-2.3c-.1-.2-.1-.4-.2-.6-.1 0-.2 0-.3 0 .1.2.1.5.2.7.1-.1.2-.1.3-.1zm4.9 3.3v.3c.3 0 .5-.1.8-.1 0-.1-.1-.2-.1-.3-.3.1-.5.1-.7.1z" fill="#8c1d40"/><path d="m30.7 172.7c.2-.6.5-1.1.6-1.7s.3-1.2.1-1.8c-.2-.7-.9-1.2-1.8-1.1-.7.1-1 .5-1 1.3 0 1.1.3 2.1.7 3.1 0 .1.1.2.3.2.8-.1 1 .1 1.4.8 0 .1.1.2.2.2 1.1.1 2.1 0 3.1-.3 1-.4 1.4-1.3.9-2.3-.2-.5-.6-.7-1.1-.6-.7.1-1.2.5-1.7.8-.6.5-1.1 1-1.7 1.4z" fill="#8c1d40"/><path d="m34.1 177.4c.7 0 1.4-.6 1.5-1.3.1-.5-.2-1-.9-1.3-.2-.1-.4-.2-.6-.2-.7-.2-1.5-.4-2.3-.5-.7-.1-.7-.1-1 .5-.1.1-.1.2 0 .3.6.8 1.3 1.6 2.2 2.2.4.1.7.3 1.1.3z" fill="#8c1d40"/><path d="m28.3 174.1c-.3 0-.7 0-1 .1-.7.1-1.5.2-2.1.7-.8.6-.8 1.9 0 2.5.2.2.5.2.7.2.3 0 .5-.1.8-.3.9-.5 1.5-1.2 2.2-1.9l.4-.4c.1-.2-.2-.3-.3-.5-.1-.4-.4-.5-.7-.4z" fill="#8c1d40"/><path d="m26.2 170.3c-.6 0-1.3.6-1.5 1.2-.1.5.1 1 .7 1.3.1.1.3.1.4.2.8.4 1.7.5 2.6.7.3 0 .5.1.5-.3 0-.2.1-.3.3-.4.1-.1.1-.2 0-.3-.5-.7-1.1-1.4-1.9-1.9-.3-.3-.7-.4-1.1-.5z" fill="#8c1d40"/><path d="m28.7 177.8v.5c.1.9.8 1.4 1.8 1.3.7-.1 1.1-.5 1-1.4 0-1.1-.5-2.2-.9-3.2-.1-.1-.1-.2-.2-.1-.2.1-.5.1-.8.1-.1 0-.2 0-.2.1-.3.9-.7 1.7-.7 2.7z" fill="#8c1d40"/><path d="m30.7 172.7c.5-.5 1.1-.9 1.6-1.4.5-.4 1.1-.7 1.7-.8.5-.1.9.1 1.1.6.5 1 .2 1.9-.9 2.3-1 .4-2 .4-3.1.3-.1 0-.2-.1-.2-.2-.3-.7-.6-.9-1.4-.8-.2 0-.2 0-.3-.2-.4-1-.7-2-.7-3.1 0-.8.3-1.3 1-1.3.9-.1 1.6.3 1.8 1.1.2.6 0 1.2-.1 1.8 0 .6-.3 1.1-.5 1.7z" fill="#8c1d40"/><path d="m34.1 177.4c-.4 0-.7-.1-1-.3-.9-.6-1.6-1.4-2.2-2.2-.1-.1-.1-.2 0-.3.3-.6.3-.6 1-.5.8.1 1.5.2 2.3.5.2.1.4.2.6.2.7.3 1 .8.9 1.3-.2.7-.9 1.3-1.6 1.3z" fill="#8c1d40"/><path d="m28.3 174.1c.3-.1.6 0 .7.4 0 .2.4.2.3.5-.1.2-.2.3-.4.4-.7.7-1.4 1.4-2.2 1.9-.2.1-.5.2-.8.3-.3 0-.5 0-.7-.2-.8-.6-.8-1.9 0-2.5.6-.5 1.4-.6 2.1-.7.4-.1.7-.1 1-.1z" fill="#8c1d40"/><path d="m26.2 170.3c.4 0 .8.2 1.2.5.7.5 1.3 1.2 1.9 1.9.1.1.1.2 0 .3s-.3.3-.3.4c0 .4-.2.4-.5.3-.9-.1-1.7-.3-2.6-.7-.1-.1-.3-.1-.4-.2-.6-.4-.9-.8-.7-1.3 0-.6.7-1.2 1.4-1.2z" fill="#8c1d40"/><path d="m28.7 177.8c0-1 .3-1.9.7-2.7 0-.1.1-.2.2-.1.3.1.5.1.8-.1.1-.1.2 0 .2.1.4 1 .8 2.1.9 3.2 0 .9-.3 1.4-1 1.4-1 .1-1.7-.4-1.8-1.3 0-.2 0-.3 0-.5z" fill="#8c1d40"/><path d="m176.5 204.3c.2-.6.5-1.1.6-1.7s.3-1.2.1-1.8c-.2-.7-.9-1.2-1.8-1.1-.7.1-1 .5-1 1.3 0 1.1.3 2.1.7 3.1 0 .1.1.2.3.2.8-.1 1 .1 1.4.8 0 .1.1.2.2.2 1.1.1 2.1 0 3.1-.3 1-.4 1.4-1.3.9-2.3-.2-.5-.6-.7-1.1-.6-.7.1-1.2.5-1.7.8-.6.4-1.2.9-1.7 1.4z" fill="#b2b4b7"/><path d="m179.9 208.9c.7 0 1.4-.6 1.5-1.3.1-.5-.2-1-.9-1.3-.2-.1-.4-.2-.6-.2-.7-.2-1.5-.4-2.3-.5-.7-.1-.7-.1-1 .5-.1.1-.1.2 0 .3.6.8 1.3 1.6 2.2 2.2.4.1.7.3 1.1.3z" fill="#b2b4b7"/><path d="m174.1 205.6c-.3 0-.7 0-1 .1-.7.1-1.5.2-2.1.7-.8.6-.8 1.9 0 2.5.2.2.5.2.7.2.3 0 .5-.1.8-.3.9-.5 1.5-1.2 2.2-1.9.1-.1.3-.3.4-.4.1-.2-.3-.3-.3-.5-.1-.4-.4-.5-.7-.4z" fill="#b2b4b7"/><path d="m171.9 201.9c-.6 0-1.3.6-1.5 1.2-.1.5.1 1 .7 1.3.1.1.3.1.4.2.8.4 1.7.5 2.6.7.3 0 .5.1.5-.3 0-.2.1-.3.3-.4.1-.1.1-.2 0-.3-.5-.7-1.1-1.4-1.9-1.9-.2-.3-.6-.5-1.1-.5z" fill="#b2b4b7"/><path d="m174.5 209.3v.5c.1.9.8 1.4 1.8 1.3.7 0 1.1-.5 1-1.4 0-1.1-.5-2.2-.9-3.2-.1-.1-.1-.2-.2-.1-.2.1-.5.1-.8.1-.1 0-.2 0-.2.1-.4.9-.7 1.8-.7 2.7z" fill="#b2b4b7"/><path d="m176.5 204.3c.5-.5 1.1-.9 1.6-1.4.5-.4 1.1-.7 1.7-.8.5-.1.9.1 1.1.6.5 1 .2 1.9-.9 2.3-1 .4-2 .4-3.1.3-.1 0-.2-.1-.2-.2-.3-.7-.6-.9-1.4-.8-.2 0-.2 0-.3-.2-.4-1-.7-2-.7-3.1 0-.8.3-1.3 1-1.3.9-.1 1.6.3 1.8 1.1.2.6 0 1.2-.1 1.8 0 .5-.3 1.1-.5 1.7z" fill="#b2b4b7"/><path d="m179.9 208.9c-.4 0-.7-.1-1-.3-.9-.6-1.6-1.3-2.2-2.2-.1-.1-.1-.2 0-.3.3-.6.3-.6 1-.5.8.1 1.5.2 2.3.5.2.1.4.2.6.2.7.3 1 .8.9 1.3-.3.7-.9 1.3-1.6 1.3z" fill="#b2b4b7"/><path d="m174.1 205.6c.3-.1.6 0 .7.4 0 .2.4.2.3.5-.1.2-.2.3-.4.4-.7.7-1.4 1.4-2.2 1.9-.2.1-.5.2-.8.3-.3 0-.5 0-.7-.2-.8-.6-.8-1.9 0-2.5.6-.5 1.4-.6 2.1-.7.3 0 .6-.1 1-.1z" fill="#b2b4b7"/><path d="m171.9 201.9c.4 0 .8.2 1.2.5.7.5 1.3 1.2 1.9 1.9.1.1.1.2 0 .3s-.3.3-.3.4c0 .4-.2.4-.5.3-.9-.1-1.7-.3-2.6-.7-.1-.1-.3-.1-.4-.2-.6-.4-.9-.8-.7-1.3.1-.6.8-1.2 1.4-1.2z" fill="#b2b4b7"/><path d="m174.5 209.3c0-1 .3-1.9.7-2.7 0-.1.1-.2.2-.1.3.1.5.1.8-.1.1-.1.2 0 .2.1.4 1 .8 2.1.9 3.2 0 .9-.3 1.4-1 1.4-1 .1-1.7-.4-1.8-1.3 0-.1 0-.3 0-.5z" fill="#b2b4b7"/><path d="m174.7 38.4c.2-.5.4-1 .5-1.5s.2-1 .1-1.6c-.2-.6-.8-1-1.6-.9-.6.1-.8.4-.9 1.2 0 1 .3 1.9.6 2.7 0 .1.1.2.2.1.7-.1.9.1 1.2.7 0 .1.1.1.2.1.9.1 1.8 0 2.7-.3s1.2-1.1.8-2c-.2-.4-.5-.6-1-.5-.6.1-1.1.4-1.5.7-.3.5-.8.9-1.3 1.3z" fill="#c8858f"/><path d="m177.7 42.5c.6 0 1.2-.5 1.3-1.2.1-.4-.2-.9-.8-1.2-.2-.1-.4-.2-.5-.2-.6-.2-1.3-.3-2-.4-.6-.1-.6-.1-.9.5-.1.1-.1.2 0 .3.6.7 1.1 1.4 1.9 1.9.4.1.7.3 1 .3z" fill="#c8858f"/><path d="m172.6 39.6c-.3 0-.6 0-.9.1-.7.1-1.3.2-1.9.6-.7.5-.7 1.7 0 2.2.2.1.4.2.6.2s.5-.1.7-.2c.8-.4 1.4-1 1.9-1.7.1-.1.3-.2.3-.4.1-.2-.2-.2-.3-.4.1-.4-.1-.5-.4-.4z" fill="#c8858f"/><path d="m170.7 36.3c-.5 0-1.2.5-1.3 1.1-.1.5.1.8.7 1.2.1.1.2.1.3.2.7.3 1.5.5 2.3.6.2 0 .4 0 .5-.3 0-.1.1-.3.2-.4s.1-.2 0-.3c-.5-.6-1-1.2-1.6-1.7-.4-.2-.7-.4-1.1-.4z" fill="#c8858f"/><path d="m173 42.9v.4c.1.8.7 1.2 1.5 1.1.6 0 .9-.4.9-1.2 0-1-.4-1.9-.8-2.8 0-.1-.1-.1-.2-.1-.2.1-.4.1-.7 0-.1 0-.2 0-.2.1-.2.8-.5 1.6-.5 2.5z" fill="#c8858f"/><path d="m174.7 38.4c.5-.4.9-.8 1.4-1.2.5-.3.9-.7 1.5-.7.5-.1.8.1 1 .5.4.9.1 1.7-.8 2s-1.8.3-2.7.3c-.1 0-.1-.1-.2-.1-.3-.6-.5-.8-1.2-.7-.1 0-.2 0-.2-.1-.3-.9-.6-1.8-.6-2.7 0-.7.3-1.1.9-1.2.8-.1 1.4.3 1.6.9.1.5 0 1.1-.1 1.6-.2.4-.4.9-.6 1.4z" fill="#c8858f"/><path d="m177.7 42.5c-.3 0-.6-.1-.9-.3-.8-.5-1.4-1.2-1.9-1.9-.1-.1-.1-.2 0-.3.3-.5.3-.5.9-.5.7.1 1.4.2 2 .4.2.1.4.1.5.2.6.3.9.7.8 1.2-.2.7-.8 1.2-1.4 1.2z" fill="#c8858f"/><path d="m172.6 39.6c.3-.1.5 0 .6.3 0 .2.4.2.3.4s-.2.3-.3.4c-.6.6-1.2 1.2-1.9 1.7-.2.1-.4.2-.7.2-.2 0-.5 0-.6-.2-.7-.5-.7-1.7 0-2.2.5-.4 1.2-.5 1.9-.6z" fill="#c8858f"/><path d="m170.7 36.3c.4 0 .7.2 1 .4.7.5 1.2 1.1 1.6 1.7.1.1.1.2 0 .3s-.2.2-.2.4c0 .3-.2.3-.5.3-.8-.1-1.5-.3-2.3-.6-.1-.1-.2-.1-.3-.2-.6-.3-.8-.7-.7-1.2.2-.6.9-1.1 1.4-1.1z" fill="#c8858f"/><path d="m173 42.9c0-.9.3-1.6.6-2.4 0-.1.1-.1.2-.1.2.1.5.1.7 0 .1-.1.2 0 .2.1.4.9.7 1.8.8 2.8 0 .8-.3 1.2-.9 1.2-.8.1-1.5-.4-1.5-1.1-.1-.2-.1-.4-.1-.5z" fill="#c8858f"/></svg>