<svg enable-background="new 0 0 250 250" viewBox="0 0 250 250" xmlns="http://www.w3.org/2000/svg"><path d="m70.9 53c.8-1 1.8-1.9 2.9-2.6s2.3-1.3 3.5-1.6 2.5-.5 3.8-.4 2.5.4 3.7 1 1.7 1.5 1.7 2.7c0 .2-.1.3-.4.3-.2 0-.4-.1-.4-.3 0-.9-.4-1.7-1.3-2.2s-1.9-.7-3-.6c-1.1 0-2.1.3-3.2.6-1 .4-2 .9-2.8 1.6-.9.7-1.5 1.4-1.9 2.1 2-.5 3.9-.7 5.8-.6 1.9.2 3.6.7 5.1 1.5s2.9 2 3.9 3.4c1.1 1.4 1.8 3.1 2.2 5.1.5 2.6.4 4.9-.3 6.9s-1.7 3.7-3.2 5-3.3 2.4-5.5 3c-2.2.7-4.5 1-7 1 .2 1.3.2 2.6.2 4.1 0 1.4-.1 2.9-.2 4.4s-.2 3-.2 4.5c-.1 1.5 0 3 .1 4.4 0 .8.2 1.7.4 2.6s.5 1.8.9 2.5 1 1.3 1.7 1.7 1.6.4 2.7.1 2.3-.9 3.7-1.8c1.3-.9 2.7-2 4-3.3 1.4-1.3 2.8-2.7 4.1-4.2 1.4-1.5 2.6-3 3.8-4.5s2.2-2.9 3.2-4.3c.9-1.3 1.7-2.5 2.2-3.4.1-.2.3-.3.5-.2s.3.3.2.5c-.6 1-1.3 2.1-2.2 3.5s-2 2.8-3.2 4.3-2.5 3-3.9 4.5-2.8 2.9-4.2 4.2-2.8 2.4-4.1 3.4c-1.3.9-2.6 1.6-3.7 1.9-.8.2-1.6.3-2.5.3-.8 0-1.7-.2-2.6-.6-1.3-.5-2.2-1.3-2.9-2.4-.6-1-1.1-2.4-1.3-4l-.2-.4c-.1-1.5-.2-3-.1-4.5s.1-3 .2-4.6c.1-1.5.2-3 .2-4.5s0-2.9-.1-4.4c-1-.3-1.8-.7-2.4-1.1s-.9-.9-1.1-1.4c-.3-.7-.3-1.3 0-1.8.3-.6.7-.9 1.4-1.1.6-.2 1.3-.1 1.9.1s1.2.5 1.6 1c.4.4.8 1 1.2 1.6.3.7.6 1.5.8 2.5.8 0 1.7-.1 2.7-.2 1-.2 1.9-.4 2.6-.6 1.6-.6 2.9-1.5 4-2.7s1.9-2.5 2.6-4c.6-1.5.9-3.1 1-4.7 0-1.6-.2-3.2-.8-4.7-.6-1.7-1.7-3.3-3-4.6-1.4-1.3-3-2.2-5-2.7-1.8-.4-3.6-.3-5.5.3-1.2 2.4-2.3 5.3-3.3 8.6s-2.1 6.7-3.2 10.2c-1.1 3.6-2.3 7.1-3.6 10.7s-2.8 6.9-4.5 9.9-3.7 5.6-5.9 7.8-4.9 3.7-7.9 4.5c-1.9.5-3.9.7-5.9.6s-3.9-.6-5.7-1.5c-1.2-.6-2.3-1.4-3.2-2.5-.9-1-1.4-2.2-1.6-3.6 0-.2.1-.3.4-.3.2 0 .4.1.4.3.1 1.3.6 2.4 1.4 3.3.9.9 1.9 1.7 3 2.2 1.9 1 3.7 1.4 5.4 1.4s3.5-.4 5.4-1.3c2.2-.9 4.1-2.3 5.8-4s3.2-3.7 4.6-5.9c1.3-2.2 2.5-4.6 3.6-7.2 1-2.6 2-5.3 2.9-8s1.7-5.4 2.4-8.1 1.5-5.2 2.2-7.6c.8-2.4 1.5-4.6 2.4-6.5.6-1.7 1.6-3.3 2.6-4.6zm-2.6 22.9c.2.4.5.8.9 1.1s1.1.7 1.9.9c-.1-.9-.3-1.6-.5-2.2-.2-.5-.4-1-.7-1.3s-.5-.4-.8-.4c-.2 0-.5.1-.6.3-.2.2-.3.4-.3.7s0 .6.1.9z" fill="#003941"/><path d="m110 78.3c.2-.2.5-.2.9-.2.5 0 1 .3 1.5 1 .7 1 1.1 2.6 1.3 4.9.1 2.3 0 5-.2 8 1.7-1.7 3.1-3.4 4.2-5 1.1-1.7 1.9-3.2 2.5-4.6l.2-.3c.1-.1.3-.2.5-.2.3 0 .3.1.1.5-.7 1.8-1.7 3.5-2.9 5.3s-2.8 3.6-4.7 5.5c-.2 1.7-.5 3.6-.8 5.5-.4 2-.8 4-1.3 6s-1.2 4-2 6-1.7 3.8-2.7 5.5-2.2 3.2-3.5 4.5-2.8 2.3-4.4 3c-1.2.5-2.4.8-3.4.8s-1.9-.3-2.5-.8c-.7-.5-1.1-1.2-1.4-2.1s-.3-1.9 0-3.1c.5-2.6 1.4-5 2.7-7.2s2.9-4.3 4.6-6.2c1.8-1.9 3.6-3.8 5.6-5.5s3.9-3.3 5.8-4.8c.2-.9.3-1.8.4-2.7s.3-1.8.3-2.7c-.4.5-.8 1.1-1.2 1.6-.5.5-1 1-1.5 1.3-.5.4-1.1.6-1.7.8s-1.2.2-1.9 0c-1.2-.4-2.1-1.2-2.6-2.5s-.8-2.7-.9-4.3 0-3.1.2-4.6.5-2.6.8-3.4c.1-.3.4-.5.8-.6s.8-.1 1.2 0 .7.2 1 .3c.3.2.4.4.3.6-.2 1.4-.3 2.7-.4 3.8s-.2 2.2-.2 3.4 0 2.3.2 3.2.5 1.6 1 2 1.2.4 2-.1c.6-.3 1.1-.7 1.7-1.2s1-1 1.3-1.6c.2-1.7.2-3.3.1-5-.3-1.7-.5-3.3-1-4.8zm-.4 17.4c-.1.1-.2.1-.2.2-.1.1-.1.1-.2.1-1.8 1.5-3.7 3.1-5.6 4.8s-3.7 3.5-5.3 5.3c-1.6 1.9-3 3.8-4.2 5.9s-2 4.2-2.4 6.4c-.1.8-.1 1.6 0 2.3s.3 1.3.7 1.8c.3.5.8.8 1.4.9s1.4 0 2.3-.4c1.4-.7 2.7-1.6 3.9-2.8s2.2-2.6 3.1-4.1 1.7-3.2 2.4-5 1.3-3.6 1.9-5.4c.5-1.8 1-3.6 1.4-5.3.2-1.6.5-3.2.8-4.7z" fill="#003941"/><path d="m142.4 84.9c-.8 1.3-1.7 2.7-2.7 4.1s-2.2 2.6-3.4 3.6c-.7.6-1.4 1-2.3 1.3-.8.3-1.6.2-2.4-.4-1-.7-1.7-1.9-2-3.7s-.2-3.8.5-6.1c-.5.7-1.2 1.3-2 1.9s-1.6 1-2.5 1.3-1.7.3-2.5.1-1.5-.8-2.1-1.7c-.5-.7-.7-1.5-.8-2.3 0-.9.1-1.7.3-2.5.3-.8.6-1.6 1.1-2.4s1-1.4 1.6-2c.7-.6 1.4-1.1 2.2-1.5s1.7-.7 2.5-.8c.9-.1 1.7 0 2.5.2.8.3 1.6.7 2.3 1.4.2-.5.5-.9.9-1s.8-.2 1.2-.1.7.2 1 .5.4.5.3.7l-.5 1.3c-.4 1-.8 2.1-1.2 3.4s-.8 2.5-1.1 3.8-.6 2.6-.8 3.8-.2 2.3-.1 3.2c.1.7.2 1.1.5 1.4.2.3.5.4.8.4s.6-.1 1-.2c.4-.2.7-.4 1.1-.7 1.2-.9 2.3-2.1 3.4-3.6 1-1.4 1.9-2.8 2.6-4.1l1.1-2.1s.1-.1.1-.1 0-.1.1-.2.3-.1.5-.2c.3 0 .3.1.1.5zm-9.8-8.6c-.7-.9-1.4-1.4-2.1-1.5-.7-.2-1.4-.1-2 .2-.7.3-1.3.7-1.9 1.3s-1.1 1.2-1.5 1.9c-.7 1.1-1.2 2.3-1.4 3.5-.3 1.6-.3 2.7.2 3.4.4.7 1.1 1 1.8.9.8-.1 1.6-.5 2.6-1.3.9-.8 1.8-1.9 2.6-3.3.4-1.9 1-3.6 1.7-5.1z" fill="#003941"/><path d="m153 93.5c-.7-.7-1.1-1.7-1.2-3s-.1-2.7.1-4.2.4-3 .8-4.5c.3-1.5.6-2.8.8-3.9s.3-1.9.3-2.4-.4-.5-1 0-1.3 1.4-2 2.7-1.5 2.6-2.2 4.1-1.4 2.9-1.9 4.3c-.6 1.4-1 2.5-1.2 3.4 0 0 0 .1-.1.2-.2.2-.3.1-.5-.1-.6-.6-1.1-1.2-1.4-1.7s-.5-1-.6-1.5-.1-.9-.1-1.4.1-1 .2-1.7c.1-.6.2-1.2.2-2 .1-.7.2-1.4.3-2.2.1-.7.2-1.5.3-2.2s.2-1.4.4-2c.1-.4.4-.6.7-.7.4-.1.8-.1 1.2 0s.7.2 1 .5.4.5.3.8c-.1.4-.2.9-.3 1.5-.1.7-.2 1.4-.3 2.2s-.2 1.6-.3 2.4-.2 1.6-.4 2.3l-.3 2c.5-1.3 1.1-2.6 1.7-4.1.6-1.4 1.3-2.8 2-4.1.6-1 1.2-1.9 1.8-2.9.6-.9 1.4-1.7 2.3-2.3 1-.7 1.9-.8 2.7-.4s1.1 1.2 1.1 2.6c0 .7-.1 1.4-.2 2.1s-.3 1.4-.4 2.1-.3 1.2-.4 1.8c-.1.5-.2.8-.3 1-.1.4-.3 1-.5 1.9s-.4 1.9-.6 2.9-.3 2-.4 3 0 1.8.2 2.4.6.9 1.2.9 1.5-.5 2.6-1.4c1.2-1 2.3-2.2 3.3-3.6.9-1.3 1.8-2.7 2.6-4.1.2-.3.4-.7.6-1 .2-.4.4-.7.6-1.1l.2-.3c0-.1.2-.2.5-.2s.3.1.2.5l-1.4 2.6c-.8 1.4-1.7 2.8-2.7 4.1s-2.1 2.5-3.3 3.6c-.4.4-.9.7-1.4 1.1-.5.3-1.1.6-1.6.7-.5.2-1.1.2-1.6.1-.6.1-1.1-.2-1.6-.8z" fill="#003941"/><path d="m143.5 123.9c.4.8.7 1.6 1 2.4.3 1.1.6 2.2.6 3.3.1 1.1.1 2.1-.1 3.1s-.4 2-.7 2.8c-.6 1.6-1.4 2.9-2.5 3.8-.6.5-1.3.9-2.1 1.3s-1.7.7-2.6.9c.7.9 1.5 1.7 2.3 2.5.8.7 1.7 1.4 2.7 1.9.9.5 1.8.8 2.5 1l.8.2c.9.2 1.7.2 2.4.1s1.4-.3 2-.6l.4.4.4.3c-1.2.6-2.6.8-4.1.6l-.8-.1c-.1 0-.2 0-.2 0h-.1c-2-.4-3.8-1.2-5.4-2.2-1.6-1.1-3.1-2.3-4.5-3.8-.9.1-1.9.1-3 0-1-.1-2.1-.3-3.2-.7-1.1-.3-2.1-.8-3.2-1.4s-2.2-1.4-3.2-2.4c-1.7-1.5-2.9-3-3.6-4.5s-1-2.9-.9-4.2.4-2.5 1-3.6 1.2-2 2-2.8 1.5-1.4 2.3-1.9 1.6-1 2.6-1.6c.1-1.4.3-2.9.5-4.6s.5-3.4.9-5.1.9-3.3 1.5-4.9c.6-1.5 1.3-2.8 2.1-3.8s1.8-1.7 2.8-2.1c1.1-.4 2.3-.2 3.7.4l.3.1c1 .5 1.7 1.3 2.4 2.5.5.9.7 1.8.8 2.7s0 1.8-.3 2.6c-.2.8-.6 1.7-1 2.5s-.9 1.6-1.5 2.2c-.6.7-1.1 1.3-1.7 1.9s-1.1 1-1.6 1.4l-1.3.9c-.6.4-1.1.7-1.7 1s-1.1.6-1.7.9c-.2 1.7-.2 3.4-.2 5.2s.2 3.7.6 5.6 1 3.9 1.9 6 2.1 4.2 3.7 6.3c1.1-.2 2.1-.6 3-1.1s1.5-1 2.1-1.5c.9-1 1.6-2.3 2.1-3.9.2-.8.4-1.7.5-2.6s.1-1.9 0-2.8c-.1-1-.3-1.9-.6-2.9-.2-.7-.5-1.4-.8-2.1zm-8.6 17.1c-1.6-1.9-2.9-3.7-4.1-5.6-1.1-1.9-2-3.7-2.7-5.5s-1.2-3.5-1.4-5.2c-.3-1.7-.4-3.3-.3-4.8-1.9 1.2-3.3 2.6-4.1 4.1s-1.3 3.1-1.3 4.7.3 3.2 1 4.7 1.7 2.9 3 4c1.3 1.2 2.8 2.1 4.5 2.8 1.7.6 3.5.9 5.4.8zm3.2-41.7c-.8-.4-1.5-.4-2.2-.1-.6.3-1.2.9-1.7 1.7s-1 1.8-1.3 3c-.4 1.2-.7 2.5-1 3.9s-.5 2.8-.7 4.3-.3 2.9-.4 4.3c.7-.4 1.5-.8 2.2-1.3.7-.4 1.4-.9 2.1-1.5s1.4-1.3 2.2-2.2 1.5-1.9 2.1-3 1-2.3 1.1-3.5c.2-1.3-.1-2.5-.7-3.7-.5-.9-1-1.5-1.7-1.9z" fill="#c8858f"/><path d="m66.5 196.5c2.7-.7 5.3-1.8 8-3.4s5.2-3.5 7.5-5.7 4.4-4.5 6.3-7c1.8-2.5 3.3-4.9 4.3-7.3.1-.3.2-.3.5-.2.2.1.3.2.2.5-1.1 2.4-2.6 4.9-4.4 7.4-1.9 2.5-4 4.9-6.4 7.1s-4.9 4.1-7.6 5.7-5.4 2.8-8.2 3.4c-3 .7-5.5.9-7.6.4-2.1-.4-3.9-1.3-5.3-2.6s-2.5-2.9-3.2-4.8-1.2-4-1.3-6.2c-.2-2.2-.1-4.4.2-6.7s.8-4.4 1.4-6.4c1-3.2 2.4-6.2 4.2-9.2s3.8-5.7 6.1-8.1c-1.6.5-3.2 1.2-4.8 2s-3 1.7-4.3 2.8-2.5 2.3-3.5 3.8c-1 1.4-1.8 3.1-2.4 4.9-.1.2-.2.3-.5.2-.2 0-.3-.1-.2-.4.6-2 1.5-3.8 2.7-5.4s2.5-2.9 4-4.1c1.5-1.1 3.1-2.1 4.8-2.9s3.5-1.5 5.3-2c2.2-2.1 4.4-3.8 6.6-5s4.4-2.1 6.3-2.5c2-.5 3.8-.7 5.4-.6s2.9.3 3.9.7 1.5.9 1.7 1.6-.2 1.3-1.1 1.9c-.4.3-1 .5-1.9.8-.9.2-1.9.5-3.1.7s-2.4.4-3.8.6c-1.3.2-2.7.4-3.9.6-1.3.2-2.5.4-3.5.5-1.1.2-1.9.3-2.6.5-2.8 2.5-5.2 5.4-7.2 8.8-2.1 3.3-3.7 6.7-4.8 10.2-.5 1.6-1 3.6-1.4 5.8s-.5 4.4-.4 6.7.5 4.4 1.3 6.4c.7 2 1.9 3.7 3.6 5 1.3 1 2.7 1.6 4.4 1.8 1.6.2 3.1.1 4.7-.3zm6.6-49c-1.8.9-3.7 2.2-5.7 3.8.9-.2 2.2-.4 3.9-.6s3.5-.5 5.3-.8 3.5-.6 5-.9 2.5-.6 3-.9c.9-.6 1.1-1.2.7-1.6-.5-.5-1.4-.8-2.6-.9-1.3-.1-2.8-.1-4.5.2-1.8.3-3.5.8-5.1 1.7z" fill="#003941"/><path d="m102.4 184.8c-.7-.7-1.1-1.7-1.2-3s-.1-2.7.1-4.2.4-3 .8-4.5c.3-1.5.6-2.8.8-3.9s.3-1.9.3-2.4-.4-.5-1 0-1.3 1.4-2 2.7-1.5 2.6-2.2 4.1-1.4 2.9-1.9 4.3c-.6 1.4-1 2.5-1.2 3.4 0 0 0 .1-.1.2-.2.2-.3.1-.5-.1-.6-.6-1-1.2-1.3-1.7s-.5-1.1-.6-1.6-.1-1-.1-1.5.1-1.1.2-1.7c.4-3 .9-6.2 1.4-9.5.6-3.3 1.3-6.5 2.2-9.7s2.1-6.2 3.5-9.1 3.2-5.5 5.4-7.8c1.5-1.6 3-2.6 4.5-3.2 1.5-.5 2.9-.6 4-.2s1.9 1.2 2.3 2.6c.4 1.3.2 3.1-.6 5.3-.6 1.6-1.3 3.2-2.1 4.9-.9 1.7-1.8 3.4-2.9 5.1s-2.3 3.4-3.4 5c-1.2 1.7-2.4 3.2-3.6 4.6s-2.4 2.7-3.5 3.8-2.2 2.1-3.1 2.8l-.8 6.4-.3 2c.5-1.3 1.1-2.6 1.7-4.1.6-1.4 1.3-2.8 2-4.1.6-1 1.2-1.9 1.8-2.9.6-.9 1.4-1.7 2.3-2.3 1-.7 1.9-.8 2.7-.4s1.1 1.2 1.1 2.6c0 .7-.1 1.4-.2 2.1s-.3 1.4-.4 2.1-.3 1.2-.4 1.7-.2.8-.3 1c-.1.4-.3 1-.5 1.9s-.4 1.9-.6 2.9-.3 2-.4 3 0 1.8.2 2.4.6.9 1.2.9 1.5-.5 2.6-1.4c1.2-1 2.3-2.2 3.3-3.6.9-1.3 1.8-2.7 2.6-4.1.2-.3.4-.7.6-1 .2-.4.4-.7.6-1.1l.2-.3c0-.1.2-.2.5-.2s.3.1.2.5l-1.4 2.6c-.8 1.4-1.7 2.8-2.7 4.1s-2.1 2.5-3.3 3.6c-.4.4-.9.7-1.4 1.1-.5.3-1 .6-1.6.7-.5.2-1.1.2-1.6.1-.9 0-1.4-.3-1.9-.9zm-5.8-16.3c1.3-1.1 2.8-2.6 4.6-4.6 1.7-2 3.5-4.1 5.2-6.5s3.3-4.8 4.8-7.4c1.5-2.5 2.6-4.9 3.4-7.1.6-1.9.8-3.4.6-4.6-.2-1.1-.8-1.8-1.6-2.1s-1.8-.2-3 .4c-1.2.5-2.4 1.5-3.6 3-1 1.2-1.9 2.6-2.8 4.2s-1.7 3.3-2.4 5.1-1.4 3.7-1.9 5.6c-.6 1.9-1.1 3.8-1.5 5.6-.5 1.8-.8 3.5-1.1 5.1s-.5 3-.7 4.3z" fill="#003941"/><path d="m120.4 181.4c-.1-1.1-.1-2.4.1-3.7.2-1.4.5-2.7.8-4 .4-1.3.7-2.5 1.1-3.6s.7-1.9 1-2.5.5-1.2.6-1.6.1-.9-.1-1.3c-.1-.4-.4-.9-.9-1.4-.4-.5-1-1.1-1.8-1.7-.3 1-.6 1.9-.9 2.9s-.7 1.9-1.2 2.9c-.4 1-1 2.1-1.5 3.2-.6 1.1-1.1 2.2-1.7 3.3l-.2.3c-.1.2-.2.2-.4.1s-.3-.2-.2-.4c.6-1.1 1.2-2.3 1.8-3.4s1.1-2.3 1.6-3.4c.4-1 .9-2 1.2-3 .4-1 .7-2 .9-2.9-.6-.6-1.1-1.4-1.6-2.2-.4-.9-.5-1.7-.2-2.6.2-.6.6-1 1.1-1.2s1 0 1.5.6c.3.3.4.8.5 1.4 0 .6 0 1.3-.1 2.1.6.5 1.3 1.1 2 1.5.7.5 1.4 1 2 1.5s1 1.2 1.3 1.8c.3.7.3 1.5.1 2.5-.3 1.4-.8 2.9-1.4 4.5-.6 1.7-1.1 3.4-1.5 5.1-.1.6-.2 1.5-.3 2.7s-.1 2.3.1 3.3.5 1.7 1.1 2.1c.5.4 1.4.1 2.6-.8 1.2-1 2.3-2.2 3.3-3.6.9-1.3 1.8-2.7 2.7-4.1l1.1-2.1.2-.3c0-.1.2-.2.5-.2s.3.1.2.5l-1.4 2.6c-.8 1.4-1.7 2.8-2.6 4.1-1 1.3-2.1 2.5-3.4 3.6-.9.8-1.8 1.3-2.7 1.6s-1.7.3-2.4.1-1.3-.7-1.8-1.4c-.7-.8-1-1.7-1.1-2.9zm-.3-25.1c.2.8.6 1.5 1.1 2.2.1-.7.1-1.2-.1-1.7-.1-.4-.3-.8-.5-1s-.3-.3-.5-.2z" fill="#003941"/><path d="m145.2 183.9c-.7.6-1.4 1.1-2.1 1.5s-1.6.4-2.6.1c-.9-.2-1.6-.7-2.1-1.5s-.8-1.7-1-2.8-.2-2.3-.2-3.5c.1-1.3.2-2.5.4-3.7s.4-2.3.6-3.3.4-1.9.6-2.5c0-.3.3-.5.6-.6.4-.1.8-.1 1.2-.1.4.1.8.2 1.1.3.3.2.5.3.4.5-.1.3-.2.9-.4 1.6-.2.8-.4 1.7-.6 2.7s-.4 2.1-.6 3.3-.3 2.3-.4 3.4-.1 2 0 2.9.3 1.5.7 2c.3.4.8.6 1.4.5s1.4-.6 2.4-1.4c1.3-1 2.4-2.2 3.3-3.6.9-1.3 1.8-2.7 2.6-4.1.2-.3.4-.7.6-1 .2-.4.4-.7.6-1.1 0 0 .1-.1.1-.2s.1-.2.1-.2l.1-.1c.1-.1.3-.1.5-.1s.2.2 0 .5c-.2.4-.4.9-.7 1.3-.2.4-.5.9-.7 1.3-.8 1.4-1.7 2.8-2.7 4.1-.8 1.5-1.9 2.7-3.2 3.8zm-3.5-21c.6 0 1 .2 1.4.5s.6.7.6 1.2c0 .4-.1.8-.5 1.1s-.9.5-1.4.5c-.6 0-1-.2-1.4-.5s-.6-.7-.6-1.1c0-.5.1-.9.5-1.2.4-.4.8-.5 1.4-.5z" fill="#003941"/><path d="m160 181c0 1.1-.1 2.2-.3 3.1-.2 1-.7 1.9-1.4 2.7-.5.5-1.1 1-2 1.3-.8.3-1.7.5-2.5.5s-1.5-.2-2.1-.6-.9-1.1-.8-2c.1-.8.4-1.4.8-1.9.5-.5 1-.9 1.7-1.2s1.3-.6 1.9-.8c.6-.3 1.1-.5 1.7-.7 0-1-.2-2.1-.4-3.1s-.5-2-.8-2.9c-.3-1-.5-1.9-.7-2.8s-.4-1.7-.4-2.6l-1.9 3.5-.2.4c-.1.2-.2.2-.4.1s-.3-.2-.2-.4c.4-.9.9-1.7 1.4-2.6s.9-1.8 1.3-2.7c.2-.5.4-1 .7-1.5.3-.4.8-.8 1.5-1.1.4-.2.6 0 .8.3.2.4.2.7 0 1-.1.9-.1 1.9.1 3s.4 2.2.7 3.3.6 2.3.8 3.4c.3 1.2.5 2.3.6 3.4 1.6-.8 2.9-1.8 3.9-3s2-2.5 2.8-3.8l.2-.3c.1-.2.2-.3.5-.1.2.1.2.3.1.5-.9 1.6-1.9 3.1-3.1 4.3-1.2 1.3-2.7 2.4-4.3 3.3zm-3.2 1.2c-1.2.5-2.1.9-2.9 1.3s-1.3.7-1.7 1.2-.6.9-.6 1.4.1.9.4 1.2.6.5 1.1.6c.5 0 .9-.2 1.5-.6.7-.7 1.3-1.4 1.7-2.3.3-1 .5-1.9.5-2.8z" fill="#003941"/><path d="m141.4 160.2c.2-1 .8-2 1.6-2.9 1.6-1.9 3.5-3.1 5.8-3.8 2.2-.7 4.6-1 7-.9s4.9.4 7.4 1 4.8 1.1 6.8 1.7l.8-3c0-.2.3-.3.6-.4.4-.1.8-.1 1.2 0s.8.2 1.1.3.5.3.4.5l-.8 3.6c1.6.4 3.4.8 5.3 1.1s3.8.5 5.6.6c1.8 0 3.6-.1 5.2-.6 1.6-.4 3-1.2 4.1-2.2.7-.7 1.1-1.3 1.3-1.9s.1-1.2-.1-1.8-.6-1.1-1.2-1.5c-.6-.5-1.2-.9-2-1.2-.7-.3-1.5-.5-2.4-.7s-1.8-.2-2.7-.2-1.8.1-2.6.4c-.8.2-1.5.6-2.1 1-.2.2-.3.1-.5 0-.2-.2 0-.5.4-.8.3-.3.8-.5 1.5-.7s1.4-.3 2.3-.4c.8-.1 1.7 0 2.6 0 .9.1 1.7.2 2.5.5 2.5.9 4.1 1.9 4.6 3.1.6 1.2.4 2.5-.4 3.6-.8 1.2-2.2 2.2-4.2 3s-4.2 1.3-6.8 1.3c-1.8 0-3.5-.1-5.3-.4s-3.6-.6-5.3-1c-.2 1.1-.5 2.1-.7 3s-.4 1.9-.6 3.1c-.2 1.1-.4 2.4-.7 3.9-.2 1.5-.5 3.4-.9 5.6-.2 1.1-.3 2.1-.4 3.2-.1 1-.2 2-.3 2.9s-.1 1.7-.1 2.4 0 1.3.1 1.8c.1.8.5 1.2 1.1 1.4.6.1 1.5-.3 2.8-1.4 1.3-1 2.4-2.2 3.3-3.6.9-1.3 1.8-2.7 2.6-4.1.2-.3.4-.7.6-1 .2-.4.4-.7.6-1.1.1-.1.1-.2.1-.3.1-.1.3-.2.5-.2.3 0 .3.1.1.5s-.4.9-.7 1.3c-.2.4-.5.9-.7 1.3-.8 1.4-1.7 2.8-2.7 4.1s-2.1 2.5-3.4 3.6c-.4.4-.9.7-1.4 1.1-.5.3-1 .6-1.6.7-.5.2-1.1.2-1.6.1s-1-.4-1.5-1c-.5-.5-.8-1.1-1-2s-.4-1.9-.4-3 0-2.3.1-3.6.2-2.6.4-3.9c.2-1.9.5-3.6.7-5.1s.5-2.8.7-4.1c.2-1.2.5-2.4.7-3.4s.5-2.1.8-3.1c-.6-.2-1.2-.3-1.7-.5s-1.1-.3-1.6-.5c-1.7-.4-3.3-.8-4.8-1.3-1.5-.4-2.9-.7-4.2-.9-1.2-.2-2.4-.2-3.7-.1s-2.5.2-3.8.6c-1.2.3-2.4.8-3.5 1.4s-2.1 1.4-2.9 2.3c-.7.8-1.2 1.7-1.4 2.5z" fill="#003941"/><path d="m190.2 183.9c-.7.6-1.4 1.1-2.1 1.5s-1.6.4-2.6.1c-.9-.2-1.6-.7-2.1-1.5s-.8-1.7-1-2.8-.2-2.3-.2-3.5c.1-1.3.2-2.5.4-3.7s.4-2.3.6-3.3.4-1.9.6-2.5c0-.3.3-.5.6-.6.4-.1.8-.1 1.2-.1.4.1.8.2 1.1.3.3.2.5.3.4.5-.1.3-.2.9-.4 1.6-.2.8-.4 1.7-.6 2.7s-.4 2.1-.6 3.3-.3 2.3-.4 3.4-.1 2 0 2.9.3 1.5.7 2c.3.4.8.6 1.4.5s1.4-.6 2.4-1.4c1.3-1 2.4-2.2 3.3-3.6.9-1.3 1.8-2.7 2.6-4.1.2-.3.4-.7.6-1 .2-.4.4-.7.6-1.1 0 0 .1-.1.1-.2s.1-.2.1-.2l.1-.1c.1-.1.3-.1.5-.1s.2.2 0 .5c-.2.4-.4.9-.7 1.3-.2.4-.5.9-.7 1.3-.8 1.4-1.7 2.8-2.7 4.1-.8 1.5-1.9 2.7-3.2 3.8zm-3.5-21c.6 0 1 .2 1.4.5s.6.7.6 1.2c0 .4-.1.8-.5 1.1s-.9.5-1.4.5c-.6 0-1-.2-1.4-.5s-.6-.7-.6-1.1c0-.5.1-.9.5-1.2.4-.4.9-.5 1.4-.5z" fill="#003941"/><path d="m197.4 176.3c-.1-1.1 0-2.3.4-3.5.3-1.2.9-2.3 1.6-3.3.8-1 1.7-1.9 2.8-2.5 1.1-.7 2.4-1.1 3.8-1.3.8-.1 1.4-.1 2 0s1.1.3 1.4.5c.3.3.5.7.5 1.1 0 .5-.3 1.1-.8 1.8-.4.6-.9 1.1-1.5 1.6s-1.3.9-2 1.3-1.5.7-2.3.9-1.5.3-2.3.3c-.2.5-.3 1.1-.3 1.7s0 1.2.1 1.9c.1.6.2 1.2.5 1.8.2.6.6 1.1 1 1.5 1.2 1.1 2.4 1.5 3.6 1.2s2.4-1 3.4-2c.8-.8 1.6-1.6 2.2-2.6s1.2-1.9 1.7-2.9c.2-.3.4-.5.7-.5s.3.2.2.5c-.6 1.1-1.2 2.2-1.8 3.2-.7 1-1.4 2-2.4 2.9-1.2 1.1-2.4 1.8-3.8 2.2s-2.7.5-4 .2-2.3-.9-3.3-1.9c-.7-1-1.3-2.4-1.4-4.1zm4-3.7c.6 0 1.3-.2 2-.4s1.4-.5 2-.8c.7-.3 1.3-.7 1.8-1.2.5-.4 1-.9 1.4-1.5.5-.8.7-1.3.6-1.7-.1-.3-.3-.5-.7-.6-.4 0-.9 0-1.4.2-.6.2-1 .4-1.4.6-1 .5-1.9 1.3-2.6 2.2-.7 1.2-1.3 2.2-1.7 3.2z" fill="#003941"/><path d="m228.5 50.7-1.1 2 1.1 2-2.3-.4-1.6 1.7-.3-2.3-2.1-1 2.1-1 .3-2.3 1.6 1.6z" fill="#003941"/><path d="m228.1 147.4-1.8.8-.4 2-1.3-1.5-2 .2 1-1.7-.8-1.8 1.9.4 1.5-1.4.2 2z" fill="#b2b4b7"/><path d="m27.1 73-1.1 1.7.7 1.9-1.9-.6-1.5 1.3-.1-2-1.7-1.1 1.9-.7.5-1.9 1.2 1.6z" fill="#8c1d40"/><path d="m133.3 48.9-1.5 1.3.2 2-1.7-1-1.8.8.4-1.9-1.3-1.5 2-.2 1-1.7.8 1.8z" fill="#b2b4b7"/><path d="m59.7 215.9-1.6 1.4.2 2.1-1.8-1.1-1.9.9.5-2.1-1.4-1.5 2.1-.2 1-1.8.8 1.9z" fill="#b2b4b7"/><path d="m33.6 117.9c-9.4 0-9.3 14.5 0 14.6 9.4 0 9.4-14.6 0-14.6" fill="#c8858f"/><path d="m35.2 116.2s-.4-.2-1.6-.2c-1 0-1.6.2-1.6.2-.2 0-.2.2-.2.4s0 .5.1.7c0 .2.1.5.1.8.1-.1.1-.2.2-.3.1.1.2.1.3.2.1-.1.1-.2.2-.2.1.1.2.1.3.2.1-.1.1-.2.2-.3.1.1.2.1.2.2.1-.1.1-.1.2-.2.1 0 .2.2.2.2l.3-.2.3.2c.1-.1.2-.1.3-.2.1.1.1.2.2.3.1-.1.2-.1.2-.2.1.1.1.2.2.3 0-.3.1-.5.1-.8s0-.4 0-.7-.1-.4-.2-.4z" fill="#b2b4b7"/><path d="m34.1 115.5c0 .7-1 .7-1 0-.1-.6 1-.6 1 0z" fill="none" stroke="#b2b4b7" stroke-miterlimit="10" stroke-width=".2838"/><path d="m33.6 115.1v-9.4" fill="none" stroke="#b2b4b7" stroke-miterlimit="10" stroke-width=".2838"/><path d="m33.6 128.7c-.1-.1-.3-.2-.4-.4-.4-.3-.8-.7-1.1-1s-.6-.5-.9-.8c-.2-.2-.4-.5-.6-.8-.1-.2-.2-.5-.2-.7s-.1-.5 0-.7c0-.7.5-1.3 1.1-1.5.7-.2 1.3-.1 1.8.4.1.1.2.3.3.4.2-.3.5-.6.8-.7s.6-.2.9-.2c.4 0 .7.2 1 .5s.4.6.5.9v.6c0 .2 0 .4-.1.6-.1.3-.3.6-.5.9s-.5.5-.7.7c-.4.3-.8.7-1.2 1-.2.3-.4.6-.7.8z" fill="#b2b4b7"/><path d="m211.8 185.6c-7 0-7 10.9 0 10.9s7-10.9 0-10.9" fill="#8c1d40"/><path d="m212.9 184.3s-.3-.2-1.2-.2c-.7 0-1.2.2-1.2.2-.1 0-.2.1-.2.3v.5c0 .2.1.4.1.6.1-.1.1-.1.1-.2.1 0 .1.1.2.1.1-.1.1-.1.1-.2l.2.2.2-.2.2.2c.1-.1.1-.1.2-.1 0 0 .2.1.2.1l.2-.1.2.2c.1-.1.1-.1.2-.2l.2.2c.1-.1.1-.1.2-.2l.2.2c0-.2 0-.4.1-.6 0-.2 0-.3 0-.5s0-.3-.2-.3z" fill="#b2b4b7"/><path d="m212.1 183.8c0 .5-.8.5-.8 0s.8-.5.8 0z" fill="none" stroke="#b2b4b7" stroke-miterlimit="10" stroke-width=".3013"/><path d="m211.8 183.4v-5.4" fill="none" stroke="#b2b4b7" stroke-miterlimit="10" stroke-width=".3013"/><path d="m211.8 193.5c-.1-.1-.2-.2-.3-.3-.3-.2-.5-.5-.8-.7-.2-.2-.4-.4-.6-.6s-.3-.3-.4-.5-.1-.3-.2-.5c0-.2 0-.3 0-.5 0-.5.3-.9.8-1.1s.9 0 1.3.3c.1.1.2.2.2.3.1-.2.3-.4.6-.5.2-.1.4-.1.7-.1s.5.1.7.3.3.4.4.7v.4c0 .2 0 .3-.1.5s-.2.4-.3.6c-.2.2-.3.4-.5.5-.3.2-.5.5-.8.7s-.5.3-.7.5z" fill="#c8858f"/><path d="m43.9 43.1c.1 0 .3.1.4.1.6.2 1.3.3 1.9.5-.1.1-.1.2-.1.3-.2.5-.4 1.1-.4 1.7-.1.9-.1 1.7.1 2.6.1.4.2.8.4 1.1.1.3.3.6.4.8.2.3.4.5.6.7.4.4.8.7 1.3.9.7.3 1.4.3 2.2.1.6-.2 1.1-.4 1.6-.8s.9-.8 1.2-1.3c.4-.7.6-1.5.4-2.3-.1-.5-.3-1-.6-1.5-.5-.8-1.1-1.5-1.8-2.1-.8-.7-1.8-1.2-2.9-1.5 0 0 0 0-.1 0 .1-.1.1-.3.2-.4.2-.6.5-1.2.7-1.8v-.1c.5.2 1.1.5 1.6.7-.1.3-.2.6-.3.9.3.1.6.3.8.4.6.3 1.2.7 1.7 1.2.4.4.8.8 1.2 1.3.2.3.5.7.6 1.1.1.3.2.7.3 1 .1.6.1 1.2 0 1.8-.1.7-.3 1.4-.7 2.1-.5 1-1.3 1.7-2.3 2.2-.5.3-1 .5-1.6.6-1.6.3-3.1 0-4.4-.9-.6-.4-1.1-.9-1.4-1.5 0-.1-.1-.1-.1-.2-.1-.2-.2-.3-.3-.5 0 0 0 0 0-.1-.2-.4-.3-.7-.4-1.1-.2-.6-.2-1.1-.2-1.7 0-.8.1-1.6.3-2.4 0 0 0 0 0-.1-.3-.1-.5-.1-.8-.2.1-.3.1-.7.2-1 .3-.1.3-.3.3-.6zm2 7.1c-.1-.3-.2-.6-.2-.9 0 0 0-.1-.1-.1s-.3 0-.4 0c0 0 0 0-.1 0 .1.4.2.8.3 1.2.1-.1.3-.2.5-.2zm8.2-4.3c.2-.1.3-.2.5-.3-.3-.3-.5-.6-.8-.9-.1.1-.2.3-.3.4v.1c.1.1.2.3.3.4s.2.2.3.3zm-2.4 7c.3-.2.6-.4.9-.6-.1-.1-.2-.2-.3-.2h-.1c-.2.1-.4.2-.6.4 0 0-.1 0-.1.1.1 0 .2.1.2.3zm1.7-1.6.3.3c.2-.2.5-.5.7-.7-.2-.1-.3-.2-.5-.2-.2.2-.4.4-.5.6zm-2.9 1.3c-.3 0-.5 0-.8-.1-.1.2-.1.4-.2.6h1c.1-.2.1-.3 0-.5zm-5.7-4.5c.2-.1.3-.1.4-.2 0 0 0 0 0-.1 0-.2 0-.4 0-.6v-.1c-.2 0-.3 0-.5-.1.1.4.1.7.1 1.1zm8.2-4.3c-.3-.2-.6-.3-.9-.5-.1.1-.1.3-.2.4.2.1.4.3.6.4h.1s.1-.1.1-.1c.1-.1.2-.2.3-.2zm-5.9 8c-.2-.2-.4-.4-.6-.6-.1.1-.2.2-.4.3.2.2.4.4.7.6.1-.1.2-.2.3-.3zm7.5-4.7c0 .2.1.5.1.7h.4c0-.3-.1-.6-.1-.9-.1.1-.2.1-.4.2zm-5.8 5.5c-.2 0-.4-.1-.7-.1-.1.1-.1.2-.2.3.3.1.5.1.8.2 0-.1.1-.2.1-.4zm5.6-2.9c.1 0 .2.1.3.1.1-.3.2-.5.3-.8-.1 0-.2 0-.3 0-.1.3-.2.5-.3.7z" fill="#003941"/><g fill="#8c1d40"><path d="m120.9 203.9c0 .1.1.3.1.4.2.6.3 1.2.5 1.8-.1 0-.2 0-.3 0-.5.1-1.1.2-1.6.4-.8.3-1.5.7-2.1 1.3-.3.2-.5.5-.8.8-.2.2-.3.5-.5.7-.2.3-.2.5-.3.8-.1.5-.2 1-.1 1.5.1.7.4 1.3.9 1.9.4.4.9.7 1.4 1s1.1.4 1.7.5c.8 0 1.5-.2 2.1-.7.4-.3.7-.7 1-1.2.4-.8.8-1.6.9-2.4.2-1 .2-2.1-.1-3.1 0 0 0 0 0-.1.1 0 .3 0 .4-.1.6-.1 1.2-.1 1.8-.2h.1c0 .6.1 1.1.1 1.7-.3 0-.6.1-.9.1v.9c0 .7-.1 1.3-.2 2-.1.6-.3 1.1-.6 1.6-.2.4-.4.7-.7 1-.2.3-.5.5-.7.7-.5.4-1 .6-1.5.9-.7.2-1.3.4-2 .4-1.1 0-2-.4-2.9-.9-.5-.3-.9-.7-1.2-1.1-1-1.2-1.4-2.6-1.2-4.1.1-.7.3-1.3.6-1.9 0-.1.1-.1.1-.2.1-.1.2-.3.3-.4.2-.3.5-.6.8-.8.4-.4.8-.7 1.3-1 .7-.4 1.4-.7 2.2-.8h.1c-.1-.3-.1-.5-.2-.8l.9-.3c.2-.2.4-.2.6-.3zm-5 4.8c.2-.2.4-.4.6-.6v-.1c-.1-.1-.1-.3-.2-.4-.3.3-.6.5-.9.8.2.1.4.2.5.3zm7.3 5c.2.1.3.2.5.2.1-.4.3-.7.4-1.1-.2 0-.3 0-.5 0h-.1c-.1.2-.1.3-.2.5 0 .1-.1.3-.1.4zm-6.9 1.2c.3.2.6.3 1 .5 0-.1 0-.3.1-.4v-.1c-.2-.1-.4-.2-.6-.4 0 0-.1 0-.1-.1-.3.2-.3.4-.4.5zm2 .6c0 .1-.1.3-.1.4.3.1.6.2.9.2 0-.2 0-.4 0-.5-.2 0-.5 0-.8-.1zm-2.4-1.7c-.1-.2-.2-.5-.3-.7-.2 0-.4.1-.5.1.2.3.3.5.5.8.1-.1.2-.2.3-.2zm1.3-7c.1.1.2.2.3.3h.1c.2-.1.3-.2.5-.2 0 0 .1 0 .1-.1-.1-.1-.1-.3-.2-.4-.2.2-.5.3-.8.4zm7.3 5c0-.3 0-.6 0-1-.1 0-.3 0-.4 0v.7s.1.1.1.1c.1.1.2.2.3.2zm-9.4-1.3c.1-.2.1-.5.2-.7-.1-.1-.3-.1-.4-.2-.1.3-.1.6-.2.8.1.1.2.1.4.1zm7.4 4.2c-.2.1-.4.3-.6.4.1.1.1.2.2.3.2-.2.5-.3.7-.5-.1 0-.2-.1-.3-.2zm-7.4-2.4c-.1-.2-.1-.4-.2-.6-.1 0-.2 0-.3 0 .1.3.1.5.2.8.1-.2.2-.2.3-.2zm5.1 3.4v.4c.3 0 .5-.1.8-.1 0-.1-.1-.2-.1-.3-.3 0-.5 0-.7 0z"/><path d="m30.6 173.7c.2-.6.5-1.2.6-1.8.2-.6.3-1.2.1-1.8-.2-.7-.9-1.2-1.8-1.1-.7.1-1 .5-1 1.4 0 1.1.4 2.2.7 3.2.1.1.1.2.3.2.8-.1 1.1.1 1.4.8.1.1.1.2.2.2 1.1.1 2.2.1 3.2-.3 1.1-.4 1.4-1.3.9-2.4-.2-.5-.6-.7-1.2-.6-.7.1-1.3.5-1.8.9s-1 .9-1.6 1.3z"/><path d="m34.1 178.5c.7 0 1.4-.6 1.6-1.4.1-.5-.2-1-.9-1.4-.2-.1-.4-.2-.6-.3-.8-.3-1.6-.4-2.4-.5-.7-.1-.7-.1-1.1.5-.1.1-.1.2 0 .3.7.9 1.3 1.7 2.3 2.3.4.4.7.5 1.1.5z"/><path d="m28.1 175.2c-.4 0-.7 0-1 .1-.8.1-1.5.3-2.2.7-.8.6-.8 1.9 0 2.6.2.2.5.2.8.2s.5-.1.8-.3c.9-.5 1.6-1.2 2.3-1.9.1-.1.3-.3.4-.5.1-.3-.3-.3-.3-.5-.2-.4-.4-.5-.8-.4z"/><path d="m25.9 171.3c-.6 0-1.4.6-1.6 1.3-.1.5.1 1 .8 1.4.1.1.3.1.4.2.8.4 1.7.5 2.7.7.3 0 .5.1.5-.3 0-.2.1-.3.3-.4.1-.1.1-.2 0-.3-.6-.7-1.1-1.5-1.9-2-.4-.4-.8-.6-1.2-.6z"/><path d="m28.5 179v.5c.1.9.8 1.4 1.8 1.4.8-.1 1.1-.5 1.1-1.5 0-1.2-.5-2.2-.9-3.3-.1-.1-.1-.2-.3-.1-.3.1-.5.1-.8.1-.1 0-.2 0-.2.1-.3.9-.7 1.8-.7 2.8z"/><path d="m30.6 173.7c.6-.5 1.1-1 1.7-1.4s1.1-.8 1.8-.9c.5-.1.9.1 1.2.6.5 1 .2 2-.9 2.4-1 .4-2.1.4-3.2.3-.1 0-.2-.1-.2-.2-.3-.8-.6-.9-1.4-.8-.2 0-.2 0-.3-.2-.4-1-.7-2.1-.7-3.2 0-.9.3-1.3 1-1.4.9-.1 1.6.3 1.8 1.1.2.6 0 1.2-.1 1.8-.2.8-.5 1.3-.7 1.9z"/><path d="m34.1 178.5c-.4 0-.7-.2-1.1-.4-.9-.6-1.6-1.4-2.3-2.3-.1-.1-.1-.2 0-.3.3-.6.3-.6 1.1-.5s1.6.2 2.4.5l.6.3c.7.3 1 .8.9 1.4-.2.7-.9 1.3-1.6 1.3z"/><path d="m28.1 175.2c.3-.1.6 0 .7.4.1.2.4.2.3.5-.1.2-.3.3-.4.5-.7.7-1.4 1.4-2.3 1.9-.2.1-.5.2-.8.3-.3 0-.5 0-.8-.2-.8-.6-.8-2 0-2.6.6-.5 1.4-.6 2.2-.7.4-.1.8-.2 1.1-.1z"/><path d="m25.9 171.3c.5 0 .9.2 1.2.5.8.5 1.4 1.3 1.9 2 .1.1.1.2 0 .3s-.3.3-.3.4c0 .4-.3.4-.5.3-.9-.2-1.8-.3-2.7-.7-.1-.1-.3-.1-.4-.2-.7-.4-.9-.8-.8-1.4.2-.6 1-1.2 1.6-1.2z"/><path d="m28.5 179c0-1 .4-1.9.7-2.8 0-.1.1-.2.2-.1.3.1.5.1.8-.1.1-.1.2 0 .3.1.4 1.1.9 2.1.9 3.3 0 1-.3 1.4-1.1 1.5-1 .1-1.7-.5-1.8-1.4 0-.2 0-.3 0-.5z"/></g><path d="m181.4 206.4c.2-.6.5-1.2.6-1.8.2-.6.3-1.2.1-1.8-.2-.7-.9-1.2-1.8-1.1-.7.1-1 .5-1 1.4 0 1.1.4 2.2.7 3.2.1.1.1.2.3.2.8-.1 1.1.1 1.4.8.1.1.1.2.2.2 1.1.1 2.2.1 3.2-.3 1.1-.4 1.4-1.3.9-2.4-.2-.5-.6-.7-1.2-.6-.7.1-1.3.5-1.8.9-.5.3-1 .8-1.6 1.3z" fill="#b2b4b7"/><path d="m184.9 211.1c.7 0 1.4-.6 1.6-1.4.1-.5-.2-1-.9-1.4-.2-.1-.4-.2-.6-.3-.8-.3-1.6-.4-2.4-.5-.7-.1-.7-.1-1.1.5-.1.1-.1.2 0 .3.7.9 1.3 1.7 2.3 2.2.4.5.7.7 1.1.6z" fill="#b2b4b7"/><path d="m178.9 207.8c-.4 0-.7 0-1 .1-.8.1-1.5.3-2.2.7-.8.6-.8 1.9 0 2.6.2.2.5.2.8.2s.5-.1.8-.3c.9-.5 1.6-1.2 2.3-1.9.1-.1.3-.3.4-.5.1-.3-.3-.3-.3-.5-.2-.4-.4-.5-.8-.4z" fill="#b2b4b7"/><path d="m176.7 203.9c-.6 0-1.4.6-1.5 1.3-.1.5.1 1 .8 1.4.1.1.3.1.4.2.8.4 1.7.5 2.7.7.3.1.5.1.5-.3 0-.2.1-.3.3-.4.1-.1.1-.2 0-.3-.6-.7-1.2-1.5-1.9-2-.4-.4-.8-.6-1.3-.6z" fill="#b2b4b7"/><path d="m179.4 211.6v.5c.1.9.8 1.4 1.8 1.4.8-.1 1.1-.5 1.1-1.4 0-1.2-.5-2.2-.9-3.3-.1-.1-.1-.2-.3-.1-.3.1-.5.1-.8.1-.1 0-.2 0-.2.1-.4.8-.7 1.7-.7 2.7z" fill="#b2b4b7"/><path d="m181.4 206.4c.6-.5 1.1-1 1.7-1.4s1.1-.8 1.8-.9c.5-.1.9.1 1.2.6.5 1 .2 2-.9 2.4-1 .4-2.1.4-3.2.3-.1 0-.2-.1-.2-.2-.3-.7-.6-.9-1.4-.8-.2 0-.2 0-.3-.2-.4-1-.7-2.1-.7-3.2 0-.9.3-1.3 1-1.4.9-.1 1.6.3 1.8 1.1.2.6 0 1.2-.1 1.8-.2.7-.5 1.2-.7 1.9z" fill="#b2b4b7"/><path d="m184.9 211.1c-.4 0-.7-.2-1.1-.4-.9-.6-1.6-1.4-2.3-2.2-.1-.1-.1-.2 0-.3.3-.6.3-.6 1.1-.5s1.6.2 2.4.5c.2.1.4.2.6.3.7.3 1 .8.9 1.4-.2.6-.9 1.2-1.6 1.2z" fill="#b2b4b7"/><path d="m178.9 207.8c.3-.1.6 0 .7.4.1.2.4.2.3.5-.1.2-.3.3-.4.5-.7.7-1.4 1.4-2.3 1.9-.2.1-.5.2-.8.3-.3 0-.5 0-.8-.2-.8-.6-.8-2 0-2.6.6-.5 1.4-.6 2.2-.7.5-.1.8-.2 1.1-.1z" fill="#b2b4b7"/><path d="m176.7 203.9c.5 0 .9.2 1.2.5.8.5 1.4 1.3 1.9 2 .1.1.1.2 0 .3s-.3.3-.3.4c0 .4-.3.4-.5.3-.9-.2-1.8-.3-2.7-.7-.1-.1-.3-.1-.4-.2-.7-.4-.9-.8-.8-1.4.2-.6 1-1.2 1.6-1.2z" fill="#b2b4b7"/><path d="m179.4 211.6c0-1 .4-1.9.7-2.8 0-.1.1-.2.2-.1.3.1.5.1.8-.1.1-.1.2 0 .3.1.4 1.1.9 2.1.9 3.3 0 1-.3 1.4-1.1 1.4-1 .1-1.7-.5-1.8-1.4-.1-.1 0-.2 0-.4z" fill="#b2b4b7"/><path d="m179.6 34.8c.2-.5.4-1 .6-1.6.1-.5.2-1.1.1-1.6-.2-.7-.8-1.1-1.6-1-.6.1-.9.4-.9 1.2 0 1 .3 1.9.6 2.8 0 .1.1.2.3.1.7-.1.9.1 1.2.7 0 .1.1.1.2.1 1 .1 1.9 0 2.8-.3.9-.4 1.2-1.2.8-2.1-.2-.4-.5-.6-1-.5-.6.1-1.1.4-1.6.8-.5.5-1 1-1.5 1.4z" fill="#c8858f"/><path d="m182.7 39c.6 0 1.2-.5 1.4-1.2.1-.5-.2-.9-.8-1.2-.2-.1-.4-.2-.6-.2-.7-.2-1.4-.3-2.1-.4-.6-.1-.6-.1-.9.5-.1.1-.1.2 0 .3.6.8 1.2 1.5 2 2 .3 0 .6.2 1 .2z" fill="#c8858f"/><path d="m177.4 36c-.3 0-.6 0-.9.1-.7.1-1.4.2-1.9.6-.7.5-.7 1.7 0 2.2.2.2.4.2.7.2.2 0 .5-.1.7-.2.8-.4 1.4-1.1 2-1.7.1-.1.3-.3.3-.4.1-.2-.2-.2-.3-.4-.1-.4-.3-.5-.6-.4z" fill="#c8858f"/><path d="m175.4 32.6c-.6 0-1.2.5-1.4 1.1-.1.5.1.9.7 1.2.1.1.2.1.4.2.7.3 1.5.5 2.3.6.3 0 .5.1.5-.3 0-.2.1-.3.3-.4.1-.1.1-.2 0-.3-.5-.7-1-1.3-1.7-1.8-.3-.1-.7-.3-1.1-.3z" fill="#c8858f"/><path d="m177.8 39.4v.4c.1.8.7 1.2 1.6 1.2.7 0 1-.4 1-1.3 0-1-.4-2-.8-2.9-.1-.1-.1-.1-.2-.1-.2.1-.5.1-.7 0-.1 0-.2 0-.2.1-.4.9-.7 1.7-.7 2.6z" fill="#c8858f"/><path d="m179.6 34.8c.5-.4 1-.9 1.5-1.2s1-.7 1.6-.8c.5-.1.8.1 1 .5.4.9.1 1.7-.8 2.1s-1.9.4-2.8.3c-.1 0-.1-.1-.2-.1-.3-.7-.6-.8-1.2-.7-.1 0-.2 0-.3-.1-.3-.9-.7-1.8-.6-2.8 0-.8.3-1.1.9-1.2.8-.1 1.4.3 1.6 1 .1.6 0 1.1-.1 1.6-.2.3-.4.8-.6 1.4z" fill="#c8858f"/><path d="m182.7 39c-.4 0-.7-.1-.9-.3-.8-.5-1.4-1.2-2-2-.1-.1-.1-.2 0-.3.3-.5.3-.5.9-.5.7.1 1.4.2 2.1.4.2.1.4.1.6.2.6.3.9.7.8 1.2-.3.8-.9 1.3-1.5 1.3z" fill="#c8858f"/><path d="m177.4 36c.3-.1.5 0 .6.3 0 .2.4.2.3.4s-.2.3-.3.4c-.6.6-1.2 1.3-2 1.7-.2.1-.4.2-.7.2-.2 0-.5 0-.7-.2-.7-.5-.7-1.7 0-2.2.6-.4 1.2-.5 1.9-.6.3.1.6 0 .9 0z" fill="#c8858f"/><path d="m175.4 32.6c.4 0 .8.2 1.1.4.7.5 1.2 1.1 1.7 1.8.1.1.1.2 0 .3s-.2.2-.3.4c0 .3-.2.3-.5.3-.8-.1-1.6-.3-2.3-.6-.1-.1-.2-.1-.4-.2-.6-.3-.8-.7-.7-1.2.2-.7.9-1.2 1.4-1.2z" fill="#c8858f"/><path d="m177.8 39.4c0-.9.3-1.7.6-2.5 0-.1.1-.1.2-.1.2.1.5.1.7 0 .1-.1.2 0 .2.1.4.9.8 1.9.8 2.9 0 .8-.3 1.2-1 1.3-.9.1-1.5-.4-1.6-1.2.1-.2.1-.4.1-.5z" fill="#c8858f"/></svg>